<svg width="368" height="232" viewBox="0 0 368 232" fill="none" xmlns="http://www.w3.org/2000/svg">
<g clip-path="url(#clip0_1346_1671)">
<path d="M179.46 103.302L261.478 103.302C273.748 103.302 283.695 93.3544 283.695 81.0841V50.7793C283.695 38.509 273.748 28.5619 261.478 28.5619L179.46 28.5619C167.189 28.5619 157.242 38.509 157.242 50.7793V81.0841C157.242 93.3544 167.189 103.302 179.46 103.302Z" fill="#615A58" stroke="#4A4544" stroke-width="4" stroke-linecap="round" stroke-linejoin="round"/>
<path d="M179.46 103.302L261.478 103.302C273.748 103.302 283.695 93.3544 283.695 81.0841V50.7793C283.695 38.509 273.748 28.5619 261.478 28.5619L179.46 28.5619C167.189 28.5619 157.242 38.509 157.242 50.7793V81.0841C157.242 93.3544 167.189 103.302 179.46 103.302Z" fill="#615A58" stroke="#4A4544" stroke-width="4" stroke-linecap="round" stroke-linejoin="round"/>
<path d="M137.039 110.199L130.432 114.395C129.989 114.685 129.394 114.395 129.333 113.876L128.921 110.351C128.875 110.016 128.616 109.756 128.28 109.726L125.35 109.436C124.938 109.39 124.648 109.024 124.709 108.612L125.35 104.522C125.411 104.156 125.182 103.805 124.816 103.713L121.627 102.905C121.124 102.767 120.91 102.157 121.246 101.76L129.302 95.5193" fill="#8E8733"/>
<path d="M137.039 110.199L130.432 114.395C129.989 114.685 129.394 114.395 129.333 113.876L128.921 110.351C128.875 110.016 128.616 109.756 128.28 109.726L125.35 109.436C124.938 109.39 124.648 109.024 124.709 108.612L125.35 104.522C125.411 104.156 125.182 103.805 124.816 103.713L121.627 102.905C121.124 102.767 120.91 102.157 121.246 101.76L129.302 95.5193" stroke="#5E5523" stroke-width="4" stroke-linecap="round" stroke-linejoin="round"/>
<path d="M180.497 78.6121C180.497 78.6121 147.186 105.697 137.619 110.031C137.619 110.031 130.615 99.685 129.043 95.4582C129.043 95.4582 162.583 72.4931 165.452 68.9072" fill="#4D58A6"/>
<path d="M180.497 78.6121C180.497 78.6121 147.186 105.697 137.619 110.031C137.619 110.031 130.615 99.685 129.043 95.4582C129.043 95.4582 162.583 72.4931 165.452 68.9072" stroke="#303E78" stroke-width="4" stroke-linecap="round" stroke-linejoin="round"/>
<path d="M265.888 110.916C265.888 110.916 266.712 141.846 203.248 141.846C139.785 141.846 153.091 115.021 153.091 115.021L265.888 110.916Z" fill="#8E8733" stroke="#5E5523" stroke-width="4" stroke-linecap="round" stroke-linejoin="round"/>
<path d="M213.243 63.9785V121.384L206.407 123.764H174.576L172.242 81.1451" fill="#F2E8E4"/>
<path d="M213.243 63.9785V121.384L206.407 123.764H174.576L172.242 81.1451" stroke="#B0A7A5" stroke-width="4" stroke-linecap="round" stroke-linejoin="round"/>
<path d="M172.242 81.1451L174.592 123.764C174.592 123.764 154.709 124.634 149.75 122.238L158.325 74.0801L172.242 81.1451Z" fill="#4D58A6" stroke="#303E78" stroke-width="4" stroke-linecap="round" stroke-linejoin="round"/>
<path d="M194.398 19.4367C194.398 19.4367 187.165 6.95471 173.661 9.94551C160.157 12.9516 158.646 29.2179 158.646 29.2179" fill="#8E8733"/>
<path d="M194.398 19.4367C194.398 19.4367 187.165 6.95471 173.661 9.94551C160.157 12.9516 158.646 29.2179 158.646 29.2179" stroke="#5E5523" stroke-width="4" stroke-linecap="round" stroke-linejoin="round"/>
<path d="M167.695 25.6321C167.695 29.4317 170.777 32.514 174.576 32.514C178.376 32.514 181.458 29.4317 181.458 25.6321C181.458 21.8326 178.376 18.7502 174.576 18.7502C170.777 18.7502 167.695 21.8326 167.695 25.6321Z" fill="#2D2926"/>
<path d="M246.417 36.9697C246.417 36.9697 242.282 30.6066 237.612 26.5934C235.491 24.7623 235.69 12.2193 222.963 9.47262C210.237 6.72597 204.927 16.7665 198.259 18.6434C191.606 20.5203 151.627 25.0981 144.821 40.8761C140.579 50.7183 136.215 73.0119 185.929 85.1278C235.659 97.2588 246.417 36.9544 246.417 36.9544" fill="#8E8733"/>
<path d="M246.417 36.9697C246.417 36.9697 242.282 30.6066 237.612 26.5934C235.491 24.7623 235.69 12.2193 222.963 9.47262C210.237 6.72597 204.927 16.7665 198.259 18.6434C191.606 20.5203 151.627 25.0981 144.821 40.8761C140.579 50.7183 136.215 73.0119 185.929 85.1278C235.659 97.2588 246.417 36.9544 246.417 36.9544" stroke="#5E5523" stroke-width="4" stroke-linecap="round" stroke-linejoin="round"/>
<path d="M213.045 28.5618C213.045 32.3614 216.127 35.4437 219.927 35.4437C223.726 35.4437 226.809 32.3614 226.809 28.5618C226.809 24.7623 223.726 21.6799 219.927 21.6799C216.127 21.6799 213.045 24.7623 213.045 28.5618Z" fill="#2D2926"/>
<path d="M178.513 36.6797L177.644 39.0296" stroke="#2D2926" stroke-width="4" stroke-linecap="round" stroke-linejoin="round"/>
<path d="M170.838 36.4509L170.731 38.8314" stroke="#2D2926" stroke-width="4" stroke-linecap="round" stroke-linejoin="round"/>
<path d="M195.878 50.1079C165.68 52.1679 143.509 50.1079 143.509 50.1079" stroke="#2D2926" stroke-width="4" stroke-linecap="round" stroke-linejoin="round"/>
<path d="M220.461 94.97L213.243 63.9785L190.69 81.1451L186.021 97.0452" fill="#F2E8E4"/>
<path d="M220.461 94.97L213.243 63.9785L190.69 81.1451L186.021 97.0452" stroke="#B0A7A5" stroke-width="4" stroke-linecap="round" stroke-linejoin="round"/>
<path d="M248.233 36.512L210.115 66.42C210.115 66.42 202.974 119.141 206.407 123.749C206.407 123.749 262.79 123.337 270.74 113.54C270.74 113.54 270.74 58.2105 248.233 36.512Z" fill="#4D58A6" stroke="#303E78" stroke-width="4" stroke-linecap="round" stroke-linejoin="round"/>
<path d="M190.873 94.1458L195.65 103.225C195.741 103.408 195.756 103.622 195.665 103.82L187.822 121.826C187.593 122.36 186.83 122.375 186.586 121.857L177.369 102.905C177.278 102.722 177.278 102.493 177.369 102.31L181.489 93.7338C181.611 93.4897 181.871 93.3371 182.145 93.3524L190.309 93.7949C190.553 93.7949 190.767 93.9475 190.873 94.1611" fill="#DF6665"/>
<path d="M190.873 94.1458L195.65 103.225C195.741 103.408 195.756 103.622 195.665 103.82L187.822 121.826C187.593 122.36 186.83 122.375 186.586 121.857L177.369 102.905C177.278 102.722 177.278 102.493 177.369 102.31L181.489 93.7338C181.611 93.4897 181.871 93.3371 182.145 93.3524L190.309 93.7949C190.553 93.7949 190.767 93.9475 190.873 94.1611" stroke="#BD3C41" stroke-width="4" stroke-linecap="round" stroke-linejoin="round"/>
<path d="M177.491 81.1452C180.619 78.78 194.826 81.1452 194.826 81.1452C194.826 81.1452 194.017 89.8124 191.728 94.0087C191.728 94.0087 185.365 96.1755 180.284 94.0087C180.284 94.0087 176.164 82.1523 177.491 81.1452Z" fill="#DF6665"/>
<path d="M177.491 81.1452C180.619 78.78 194.826 81.1452 194.826 81.1452C194.826 81.1452 194.017 89.8124 191.728 94.0087C191.728 94.0087 185.365 96.1755 180.284 94.0087C180.284 94.0087 176.164 82.1523 177.491 81.1452Z" fill="#DF6665" stroke="#BD3C41" stroke-width="4" stroke-linecap="round" stroke-linejoin="round"/>
<path d="M193.437 109.588H163.59C163.59 101.272 170.334 94.5276 178.651 94.5276H181.413C188.05 94.5276 193.437 99.914 193.437 106.552V109.588Z" fill="#A7A8AA" stroke="#54565A" stroke-width="4" stroke-linecap="round" stroke-linejoin="round"/>
<path d="M185.517 87.4167C181.596 86.6537 177.369 87.6455 174.18 90.0565C173.096 90.8805 172.089 91.9029 171.616 93.1846C170.975 94.8784 171.372 96.8468 172.303 98.4033C172.807 99.2425 173.508 100.005 174.439 100.326C175.752 100.784 177.171 100.25 178.513 99.9139C181.458 99.1815 184.632 99.4104 187.425 100.555" fill="#8E8733"/>
<path d="M185.517 87.4167C181.596 86.6537 177.369 87.6455 174.18 90.0565C173.096 90.8805 172.089 91.9029 171.616 93.1846C170.975 94.8784 171.372 96.8468 172.303 98.4033C172.807 99.2425 173.508 100.005 174.439 100.326C175.752 100.784 177.171 100.25 178.513 99.9139C181.458 99.1815 184.632 99.4104 187.425 100.555" stroke="#5E5523" stroke-width="4" stroke-linecap="round" stroke-linejoin="round"/>
<path d="M238.894 74.5989C238.894 74.5989 220.659 89.0951 185.731 86.0128C185.731 86.0128 186.189 98.4948 187.425 102.828C187.425 102.828 230.181 105.621 246.417 91.0025" fill="#4D58A6"/>
<path d="M238.894 74.5989C238.894 74.5989 220.659 89.0951 185.731 86.0128C185.731 86.0128 186.189 98.4948 187.425 102.828C187.425 102.828 230.181 105.621 246.417 91.0025" stroke="#303E78" stroke-width="4" stroke-linecap="round" stroke-linejoin="round"/>
<path d="M364.842 230H0.842407V113H364.842V230Z" fill="#CB8F66" stroke="#B86F3C" stroke-width="4" stroke-linecap="round" stroke-linejoin="round"/>
<path d="M152.039 98.6309H52.0145V110.457H152.039V98.6309Z" fill="#A7A8AA" stroke="#54565A" stroke-width="4" stroke-linecap="round" stroke-linejoin="round"/>
<path d="M114.318 50H39.212V110.457H114.318V50Z" fill="#A7A8AA" stroke="#54565A" stroke-width="4" stroke-linecap="round" stroke-linejoin="round"/>
<path d="M80.0458 85.7522C75.7732 90.0248 67.106 88.2547 67.106 88.2547C67.106 88.2547 65.3512 79.5722 69.6085 75.3149C73.8811 71.0423 82.5483 72.8124 82.5483 72.8124C82.5483 72.8124 84.3031 81.4949 80.0458 85.7522Z" fill="#F2E8E4" stroke="#54565A" stroke-width="4" stroke-linecap="round" stroke-linejoin="round"/>
<path d="M67.1058 88.2548L74.827 80.5337" stroke="#54565A" stroke-width="4" stroke-linecap="round" stroke-linejoin="round"/>
<path d="M342.27 98.6208C341.68 101.187 339.111 102.792 336.545 102.203C333.978 101.613 332.373 99.0435 332.963 96.4773" fill="#DF6665"/>
<path d="M342.27 98.6208C341.68 101.187 339.111 102.792 336.545 102.203C333.978 101.613 332.373 99.0435 332.963 96.4773" stroke="#BD3C41" stroke-width="4" stroke-linecap="round" stroke-linejoin="round"/>
<path d="M341.917 57.5275L333.232 95.3474L342.539 97.4847L351.224 59.6647L341.917 57.5275Z" fill="#F8C760" stroke="#B47605" stroke-width="4" stroke-linecap="round" stroke-linejoin="round"/>
<path d="M348.368 50.7488L351.221 59.6493L341.927 57.5224L348.368 50.7488Z" fill="#CB8F66" stroke="#B86F3C" stroke-width="4" stroke-linecap="round" stroke-linejoin="round"/>
<path d="M346.448 52.7526C346.849 52.9992 347.283 53.2202 347.762 53.3277C348.241 53.4351 348.731 53.4544 349.187 53.3946L348.352 50.7615L346.432 52.7653L346.448 52.7526Z" fill="#2D2926" stroke="#2D2926" stroke-width="4" stroke-linecap="round" stroke-linejoin="round"/>
<path d="M334.445 90.0514L333.231 95.3376L342.538 97.4749L343.752 92.1887L334.445 90.0514Z" fill="#F2E8E4" stroke="#B0A7A5" stroke-width="4" stroke-linecap="round" stroke-linejoin="round"/>
<path d="M326.368 54.5476L331.457 53.7417L330.981 50.7355L325.406 48.4702L326.368 54.5476Z" fill="#DF6665" stroke="#BD3C41" stroke-width="4" stroke-linecap="round" stroke-linejoin="round"/>
<path d="M332.866 53.5184C333.41 61.2445 337.138 62.4697 337.138 62.4697L330.408 63.5355L323.662 64.604C323.662 64.604 326.829 62.2867 324.959 54.7706L332.882 53.5158L332.866 53.5184Z" fill="#2D2926" stroke="#2D2926" stroke-width="4" stroke-linecap="round" stroke-linejoin="round"/>
<path d="M341.119 98.3354L330.959 99.9447L323.896 66.0828L337.372 63.9484L341.119 98.3354Z" fill="#DF6665" stroke="#BD3C41" stroke-width="4" stroke-linecap="round" stroke-linejoin="round"/>
<path d="M321.212 71H353.212V104.816C353.212 108.225 350.804 111 347.847 111H326.577C323.62 111 321.212 108.225 321.212 104.816V71Z" fill="#A7A8AA" stroke="#54565A" stroke-width="4" stroke-linecap="round" stroke-linejoin="round"/>
<rect x="271.212" y="88" width="38" height="23" fill="#F8C760" stroke="#B47605" stroke-width="4" stroke-linejoin="round"/>
<line x1="271.212" y1="103" x2="310.212" y2="103" stroke="#B47605" stroke-width="4"/>
<line x1="271.212" y1="95" x2="310.212" y2="95" stroke="#B47605" stroke-width="4"/>
<path d="M278.712 71C289.712 81 299.212 86 308.712 88C285.512 88.8 274.712 83 272.212 80L278.712 71Z" fill="#F8C760" stroke="#B47605" stroke-width="4" stroke-linejoin="round"/>
</g>
<defs>
<clipPath id="clip0_1346_1671">
<rect width="368" height="232" fill="white"/>
</clipPath>
</defs>
</svg>
