<svg width="1832" height="368" viewBox="0 0 1832 368" fill="none" xmlns="http://www.w3.org/2000/svg">
<path d="M865.615 208.047L1040.7 208.047C1066.89 208.047 1088.13 186.84 1088.13 160.68V96.0716C1088.13 69.9118 1066.89 48.7051 1040.7 48.7051L865.615 48.7051C839.422 48.7051 818.188 69.9118 818.188 96.0716V160.68C818.188 186.84 839.422 208.047 865.615 208.047Z" fill="#615A58" stroke="#4A4544" stroke-width="7" stroke-linecap="round" stroke-linejoin="round"/>
<path d="M865.615 208.047L1040.7 208.047C1066.89 208.047 1088.13 186.84 1088.13 160.68V96.0716C1088.13 69.9118 1066.89 48.7051 1040.7 48.7051L865.615 48.7051C839.422 48.7051 818.188 69.9118 818.188 96.0716V160.68C818.188 186.84 839.422 208.047 865.615 208.047Z" fill="#615A58" stroke="#4A4544" stroke-width="7" stroke-linecap="round" stroke-linejoin="round"/>
<path d="M775.06 222.718L760.956 231.665C760.011 232.283 758.741 231.665 758.61 230.559L757.731 223.044C757.633 222.328 757.079 221.775 756.363 221.71L750.109 221.092C749.229 220.994 748.61 220.214 748.74 219.335L750.109 210.617C750.239 209.836 749.75 209.088 748.969 208.892L742.161 207.168C741.086 206.875 740.63 205.574 741.346 204.728L758.545 191.423" fill="#8E8733"/>
<path d="M775.06 222.718L760.956 231.665C760.011 232.283 758.741 231.665 758.61 230.559L757.731 223.044C757.633 222.328 757.079 221.775 756.363 221.71L750.109 221.092C749.229 220.994 748.61 220.214 748.74 219.335L750.109 210.617C750.239 209.836 749.75 209.088 748.969 208.892L742.161 207.168C741.086 206.875 740.63 205.574 741.346 204.728L758.545 191.423" stroke="#5F5523" stroke-width="7" stroke-linecap="round" stroke-linejoin="round"/>
<path d="M867.83 155.41C867.83 155.41 796.722 213.154 776.298 222.393C776.298 222.393 761.347 200.336 757.992 191.325C757.992 191.325 829.589 142.364 835.712 134.719" fill="#4D58A6"/>
<path d="M867.83 155.41C867.83 155.41 796.722 213.154 776.298 222.393C776.298 222.393 761.347 200.336 757.992 191.325C757.992 191.325 829.589 142.364 835.712 134.719" stroke="#303E78" stroke-width="7" stroke-linecap="round" stroke-linejoin="round"/>
<path d="M937.733 124.212V246.564L923.14 251.672H855.192L850.208 160.81" fill="#F2E8E3"/>
<path d="M937.733 124.212V246.564L923.14 251.672H855.192L850.208 160.81" stroke="#B0A7A5" stroke-width="7" stroke-linecap="round" stroke-linejoin="round"/>
<path d="M850.208 160.81L855.224 251.672C855.224 251.672 812.781 253.526 802.194 248.419L820.501 145.748L850.208 160.81Z" fill="#4D58A6" stroke="#303E78" stroke-width="7" stroke-linecap="round" stroke-linejoin="round"/>
<path d="M897.505 29.251C897.505 29.251 882.065 2.63987 853.237 9.01613C824.409 15.4249 821.185 50.104 821.185 50.104" fill="#8E8733"/>
<path d="M897.505 29.251C897.505 29.251 882.065 2.63987 853.237 9.01613C824.409 15.4249 821.185 50.104 821.185 50.104" stroke="#5F5523" stroke-width="7" stroke-linecap="round" stroke-linejoin="round"/>
<path d="M840.501 42.459C840.501 50.5594 847.081 57.1309 855.192 57.1309C863.302 57.1309 869.882 50.5594 869.882 42.459C869.882 34.3585 863.302 27.787 855.192 27.787C847.081 27.787 840.501 34.3585 840.501 42.459Z" fill="#2D2A27"/>
<path d="M1008.55 66.6302C1008.55 66.6302 999.721 53.0644 989.754 44.5085C985.226 40.6046 985.649 13.8634 958.483 8.00761C931.316 2.15186 919.981 23.5579 905.746 27.5593C891.544 31.5607 806.201 41.3203 791.673 74.9584C782.618 95.9415 773.302 143.471 879.427 169.301C985.584 195.164 1008.55 66.5976 1008.55 66.5976" fill="#8E8733"/>
<path d="M1008.55 66.6302C1008.55 66.6302 999.721 53.0644 989.754 44.5085C985.226 40.6046 985.649 13.8634 958.483 8.00761C931.316 2.15186 919.981 23.5579 905.746 27.5593C891.544 31.5607 806.201 41.3203 791.673 74.9584C782.618 95.9415 773.302 143.471 879.427 169.301C985.584 195.164 1008.55 66.5976 1008.55 66.5976" stroke="#5F5523" stroke-width="7" stroke-linecap="round" stroke-linejoin="round"/>
<path d="M937.31 48.6725C937.31 56.773 943.89 63.3444 952.001 63.3444C960.111 63.3444 966.691 56.773 966.691 48.6725C966.691 40.5721 960.111 34.0006 952.001 34.0006C943.89 34.0006 937.31 40.5721 937.31 48.6725Z" fill="#2D2A27"/>
<path d="M863.595 66.012L861.739 70.9894" stroke="#2D2A27" stroke-width="7" stroke-linecap="round" stroke-linejoin="round"/>
<path d="M847.211 65.5241L846.983 70.5991" stroke="#2D2A27" stroke-width="7" stroke-linecap="round" stroke-linejoin="round"/>
<path d="M900.664 94.6402C836.201 99.032 788.871 94.6402 788.871 94.6402" stroke="#2D2A27" stroke-width="7" stroke-linecap="round" stroke-linejoin="round"/>
<path d="M953.14 190.252L937.733 124.212L889.589 160.81L879.622 194.708" fill="#F2E8E3"/>
<path d="M953.14 190.252L937.733 124.212L889.589 160.81L879.622 194.708" stroke="#B0A7A5" stroke-width="7" stroke-linecap="round" stroke-linejoin="round"/>
<path d="M1012.42 65.6542L931.056 129.417C931.056 129.417 915.811 241.815 923.14 251.639C923.14 251.639 1043.5 250.761 1060.47 229.875C1060.47 229.875 1060.47 111.915 1012.42 65.6542Z" fill="#4D58A6" stroke="#303E78" stroke-width="7" stroke-linecap="round" stroke-linejoin="round"/>
<path d="M889.98 188.527L900.176 207.884C900.371 208.274 900.404 208.73 900.208 209.153L883.466 247.54C882.977 248.679 881.348 248.711 880.827 247.605L861.153 207.201C860.957 206.81 860.957 206.322 861.153 205.932L869.947 187.649C870.208 187.129 870.762 186.803 871.348 186.836L888.775 187.779C889.296 187.779 889.752 188.104 889.98 188.56" fill="#DF6665"/>
<path d="M889.98 188.527L900.176 207.884C900.371 208.274 900.404 208.73 900.208 209.153L883.466 247.54C882.977 248.679 881.348 248.711 880.827 247.605L861.153 207.201C860.957 206.81 860.957 206.322 861.153 205.932L869.947 187.649C870.208 187.129 870.762 186.803 871.348 186.836L888.775 187.779C889.296 187.779 889.752 188.104 889.98 188.56" stroke="#BD3C41" stroke-width="7" stroke-linecap="round" stroke-linejoin="round"/>
<path d="M861.413 160.81C868.091 155.768 898.417 160.81 898.417 160.81C898.417 160.81 896.69 179.288 891.804 188.235C891.804 188.235 878.221 192.854 867.374 188.235C867.374 188.235 858.579 162.957 861.413 160.81Z" fill="#CF535D"/>
<path d="M861.413 160.81C868.091 155.768 898.417 160.81 898.417 160.81C898.417 160.81 896.69 179.288 891.804 188.235C891.804 188.235 878.221 192.854 867.374 188.235C867.374 188.235 858.579 162.957 861.413 160.81Z" fill="#DF6665" stroke="#BD3C41" stroke-width="7" stroke-linecap="round" stroke-linejoin="round"/>
<path d="M1829 218H3V365H1829V218Z" fill="#CB8F66" stroke="#B86F3C" stroke-width="6" stroke-linecap="round" stroke-linejoin="round"/>
<path d="M787.328 190.778H556.791V218H787.328V190.778Z" fill="#A7A8AA" stroke="#54565A" stroke-width="7" stroke-linecap="round" stroke-linejoin="round"/>
<path d="M700.389 78.8011H527.284V217.965H700.389V78.8011Z" fill="#A7A8AA" stroke="#54565A" stroke-width="7" stroke-linecap="round" stroke-linejoin="round"/>
<path d="M621.398 161.133C611.55 170.968 591.574 166.894 591.574 166.894C591.574 166.894 587.53 146.908 597.342 137.108C607.189 127.273 627.166 131.348 627.166 131.348C627.166 131.348 631.21 151.333 621.398 161.133Z" fill="#F2E8E3" stroke="#54565A" stroke-width="7" stroke-linecap="round" stroke-linejoin="round"/>
<path d="M591.574 166.894L609.37 149.121" stroke="#54565A" stroke-width="7" stroke-linecap="round" stroke-linejoin="round"/>
<path d="M889.458 217.982H825.744C825.744 200.252 840.141 185.873 857.894 185.873H863.79C877.959 185.873 889.458 197.357 889.458 211.508V217.982Z" fill="#A7A8AA" stroke="#54565A" stroke-width="6" stroke-linecap="round" stroke-linejoin="round"/>
<path d="M872.552 170.713C864.181 169.086 855.158 171.201 848.35 176.341C846.037 178.098 843.887 180.277 842.878 183.01C841.51 186.621 842.356 190.818 844.343 194.136C845.418 195.925 846.917 197.552 848.904 198.235C851.705 199.211 854.734 198.072 857.601 197.357C863.888 195.795 870.663 196.283 876.624 198.723" fill="#8E8733"/>
<path d="M872.552 170.713C864.181 169.086 855.158 171.201 848.35 176.341C846.037 178.098 843.887 180.277 842.878 183.01C841.51 186.621 842.356 190.818 844.343 194.136C845.418 195.925 846.917 197.552 848.904 198.235C851.705 199.211 854.734 198.072 857.601 197.357C863.888 195.795 870.663 196.283 876.624 198.723" stroke="#5F5523" stroke-width="6" stroke-linecap="round" stroke-linejoin="round"/>
<path d="M986.495 143.419C986.495 143.419 947.569 174.324 873.008 167.753C873.008 167.753 873.986 194.364 876.624 203.603C876.624 203.603 967.895 209.556 1002.55 178.39" fill="#4D58A6"/>
<path d="M986.495 143.419C986.495 143.419 947.569 174.324 873.008 167.753C873.008 167.753 873.986 194.364 876.624 203.603C876.624 203.603 967.895 209.556 1002.55 178.39" stroke="#303E78" stroke-width="6" stroke-linecap="round" stroke-linejoin="round"/>
<rect x="1096" y="168.455" width="88.7727" height="53.5455" fill="#F8C760" stroke="#B47605" stroke-width="7" stroke-linejoin="round"/>
<line x1="1096" y1="204.409" x2="1186.18" y2="204.409" stroke="#B47605" stroke-width="7"/>
<line x1="1096" y1="186.091" x2="1186.18" y2="186.091" stroke="#B47605" stroke-width="7"/>
<path d="M1113.87 129C1139.35 152.107 1161.36 163.66 1183.36 168.281C1129.63 170.13 1104.61 156.728 1098.82 149.796L1113.87 129Z" fill="#F8C760" stroke="#B47605" stroke-width="7" stroke-linejoin="round"/>
<path d="M1274.89 197.308C1273.63 202.767 1268.13 206.181 1262.64 204.927C1257.15 203.673 1253.72 198.207 1254.98 192.749" fill="#DF6665"/>
<path d="M1274.89 197.308C1273.63 202.767 1268.13 206.181 1262.64 204.927C1257.15 203.673 1253.72 198.207 1254.98 192.749" stroke="#BD3C41" stroke-width="7" stroke-linecap="round" stroke-linejoin="round"/>
<path d="M1274.14 109.901L1255.55 190.346L1275.47 194.892L1294.05 114.447L1274.14 109.901Z" fill="#F8C760" stroke="#B47605" stroke-width="7" stroke-linecap="round" stroke-linejoin="round"/>
<path d="M1287.94 95.4821L1294.04 114.414L1274.16 109.89L1287.94 95.4821Z" fill="#CB8F66" stroke="#B86F3C" stroke-width="7" stroke-linecap="round" stroke-linejoin="round"/>
<path d="M1283.83 99.7442C1284.69 100.269 1285.62 100.739 1286.64 100.967C1287.67 101.196 1288.72 101.237 1289.69 101.11L1287.9 95.509L1283.8 99.7714L1283.83 99.7442Z" fill="#2D2926" stroke="#2D2926" stroke-width="7" stroke-linecap="round" stroke-linejoin="round"/>
<path d="M1258.15 179.081L1255.55 190.325L1275.47 194.871L1278.06 183.627L1258.15 179.081Z" fill="#F2E8E4" stroke="#B0A7A5" stroke-width="7" stroke-linecap="round" stroke-linejoin="round"/>
<path d="M1240.87 103.562L1251.76 101.848L1250.74 95.4538L1238.81 90.6355L1240.87 103.562Z" fill="#DF6665" stroke="#BD3C41" stroke-width="7" stroke-linecap="round" stroke-linejoin="round"/>
<path d="M1254.77 101.373C1255.93 117.807 1263.91 120.413 1263.91 120.413L1249.51 122.68L1235.08 124.953C1235.08 124.953 1241.86 120.024 1237.85 104.037L1254.81 101.368L1254.77 101.373Z" fill="#2D2926" stroke="#2D2926" stroke-width="7" stroke-linecap="round" stroke-linejoin="round"/>
<path d="M1272.43 196.701L1250.69 200.124L1235.58 128.098L1264.41 123.558L1272.43 196.701Z" fill="#DF6665" stroke="#BD3C41" stroke-width="7" stroke-linecap="round" stroke-linejoin="round"/>
<path d="M1229.84 138.557H1298.3V210.486C1298.3 217.737 1293.15 223.64 1286.82 223.64H1241.32C1234.99 223.64 1229.84 217.737 1229.84 210.486V138.557Z" fill="#A7A8AA" stroke="#54565A" stroke-width="7" stroke-linecap="round" stroke-linejoin="round"/>
</svg>
