<?xml version="1.0" encoding="utf-8"?>
<!-- Generator: Adobe Illustrator 26.0.2, SVG Export Plug-In . SVG Version: 6.00 Build 0)  -->
<svg version="1.1" id="Layer_1" xmlns="http://www.w3.org/2000/svg" xmlns:xlink="http://www.w3.org/1999/xlink" x="0px" y="0px"
	 viewBox="0 0 2048 360" style="enable-background:new 0 0 2048 360;" xml:space="preserve">
<style type="text/css">
	.st0{clip-path:url(#SVGID_00000055700212467894663460000016666404999217243022_);fill:#030303;}
	.st1{clip-path:url(#SVGID_00000054963397545777690970000015537965130412753561_);}
	.st2{clip-path:url(#SVGID_00000183953609890528465900000001596192911438172341_);}
	.st3{clip-path:url(#SVGID_00000054970207421904393480000015328977981585419167_);}
	.st4{clip-path:url(#SVGID_00000117670441157451558110000004164288905252132490_);}
	.st5{clip-path:url(#SVGID_00000113337106620805280790000012456874759812997527_);}
	.st6{clip-path:url(#SVGID_00000039106539506594414250000004046880499649872795_);}
	.st7{clip-path:url(#SVGID_00000093855220406080638970000018092944632350651275_);}
	.st8{clip-path:url(#SVGID_00000103962050073007735260000015621683460636583863_);}
	.st9{fill:#EDEDEE;}
	.st10{fill:#D7031A;}
	.st11{fill:#030303;}
</style>
<g>
	<g>
		<defs>
			<rect id="SVGID_1_" width="2048" height="360"/>
		</defs>
		<clipPath id="SVGID_00000018208635353198610720000000567231910883740847_">
			<use xlink:href="#SVGID_1_"  style="overflow:visible;"/>
		</clipPath>
		
			<rect x="-24.2" y="-26.6" style="clip-path:url(#SVGID_00000018208635353198610720000000567231910883740847_);fill:#030303;" width="2096.5" height="413.3"/>
	</g>
	<g>
		<defs>
			<rect id="SVGID_00000034066832288727575990000014253394114137383868_" width="2048" height="360"/>
		</defs>
		<clipPath id="SVGID_00000029023985740498690450000004864671867514778033_">
			<use xlink:href="#SVGID_00000034066832288727575990000014253394114137383868_"  style="overflow:visible;"/>
		</clipPath>
		<g style="clip-path:url(#SVGID_00000029023985740498690450000004864671867514778033_);">
			<g>
				<g>
					<defs>
						<rect id="SVGID_00000144326159721490644190000002194767649570088320_" x="404.5" y="-76.9" width="334" height="248.1"/>
					</defs>
					<clipPath id="SVGID_00000170975999189601093880000003917814520094574229_">
						<use xlink:href="#SVGID_00000144326159721490644190000002194767649570088320_"  style="overflow:visible;"/>
					</clipPath>
					<g style="clip-path:url(#SVGID_00000170975999189601093880000003917814520094574229_);">
						
							<image style="overflow:visible;enable-background:new    ;" width="400" height="300" xlink:href="TCT.jpg"  transform="matrix(0.835 0 0 0.835 404.4727 -78.0383)">
						</image>
					</g>
				</g>
			</g>
			<g>
				<g>
					<defs>
						<rect id="SVGID_00000075867234753475113570000015412566324360351382_" x="404.5" y="208.7" width="334" height="248.1"/>
					</defs>
					<clipPath id="SVGID_00000147185411379893971220000006299022896530657465_">
						<use xlink:href="#SVGID_00000075867234753475113570000015412566324360351382_"  style="overflow:visible;"/>
					</clipPath>
					<g style="clip-path:url(#SVGID_00000147185411379893971220000006299022896530657465_);">
						
							<image style="overflow:visible;enable-background:new    ;" width="400" height="300" xlink:href="BB.jpg"  transform="matrix(0.835 0 0 0.835 404.4727 207.5635)">
						</image>
					</g>
				</g>
			</g>
			<g>
				<g>
					<defs>
						<rect id="SVGID_00000154386652411277648820000012399053109670865050_" x="29.9" y="56" width="334" height="248.1"/>
					</defs>
					<clipPath id="SVGID_00000172430712013999228410000001246508285557957817_">
						<use xlink:href="#SVGID_00000154386652411277648820000012399053109670865050_"  style="overflow:visible;"/>
					</clipPath>
					<g style="clip-path:url(#SVGID_00000172430712013999228410000001246508285557957817_);">
						
							<image style="overflow:visible;enable-background:new    ;" width="400" height="300" xlink:href="DA.jpg"  transform="matrix(0.8406 0 0 0.8406 28.7812 53.9638)">
						</image>
					</g>
				</g>
			</g>
			<g>
				<g>
					<defs>
						<rect id="SVGID_00000061458967195124386080000017894690822194815367_" x="1309.6" y="-76.8" width="334" height="248.1"/>
					</defs>
					<clipPath id="SVGID_00000023979839622989353940000005520621447948588932_">
						<use xlink:href="#SVGID_00000061458967195124386080000017894690822194815367_"  style="overflow:visible;"/>
					</clipPath>
					
						<g id="esbvLQ_00000072263976704506964840000017683859299837150616_" style="clip-path:url(#SVGID_00000023979839622989353940000005520621447948588932_);">
						
							<image style="overflow:visible;enable-background:new    ;" width="2058" height="1398" id="esbvLQ_00000116914006808425600480000005658956771396926629_" xlink:href="6240630567591015.png"  transform="matrix(0.1662 0 0 0.1662 1304.4918 -54.4453)">
						</image>
					</g>
				</g>
			</g>
			<g>
				<g>
					<defs>
						<rect id="SVGID_00000145755080870250597700000001041135558863007388_" x="1309.6" y="208.8" width="334" height="248.1"/>
					</defs>
					<clipPath id="SVGID_00000092442182255405920970000015135780335408430773_">
						<use xlink:href="#SVGID_00000145755080870250597700000001041135558863007388_"  style="overflow:visible;"/>
					</clipPath>
					<g style="clip-path:url(#SVGID_00000092442182255405920970000015135780335408430773_);">
						
							<image style="overflow:visible;enable-background:new    ;" width="400" height="300" xlink:href="SPT.jpg"  transform="matrix(0.835 0 0 0.835 1309.5449 207.5638)">
						</image>
					</g>
				</g>
			</g>
			<g>
				<g>
					<defs>
						<rect id="SVGID_00000169543724757606173970000006385261623683735169_" x="1684.1" y="56" width="334" height="248.1"/>
					</defs>
					<clipPath id="SVGID_00000016052544489934794120000004433062615027297205_">
						<use xlink:href="#SVGID_00000169543724757606173970000006385261623683735169_"  style="overflow:visible;"/>
					</clipPath>
					<g style="clip-path:url(#SVGID_00000016052544489934794120000004433062615027297205_);">
						
							<image style="overflow:visible;enable-background:new    ;" width="400" height="300" xlink:href="CC.jpg"  transform="matrix(0.838 0 0 0.838 1683.4927 54.2416)">
						</image>
					</g>
				</g>
			</g>
		</g>
	</g>
	<g>
		<defs>
			<rect id="SVGID_00000178182015033253486270000005200773998995836593_" width="2048" height="360"/>
		</defs>
		<clipPath id="SVGID_00000010308778167447885080000018372354147887619235_">
			<use xlink:href="#SVGID_00000178182015033253486270000005200773998995836593_"  style="overflow:visible;"/>
		</clipPath>
		<g style="clip-path:url(#SVGID_00000010308778167447885080000018372354147887619235_);">
			<path class="st9" d="M985.2,162.2c5.5-6.5,12.1-8.6,19.4-8.9c2-0.1,2.7,0.6,2.7,2.6c-0.1,2.2-0.4,4.4,0.4,7
				c4.2-4.5,8.9-7.7,14.7-8.7c11.8-2,23.2-1.5,32,8.2c4.5,5,6,11.3,6.8,17.8c0.2,1.4,0.2,2.8,0.4,4.8c2.9-2.5,5.4-4.7,8.7-5.8
				c6-2,12.3-2,18.4-3.1c2.1-0.4,4.1-0.8,5-3c1.3-2.9,0.4-5.6-2.2-6.7c-3.1-1.3-6.9-0.1-7.8,2.8c-0.6,2-1.5,2.3-3.3,2.3
				c-5.6-0.1-11.3-0.1-16.9,0c-2.2,0-2.5-0.8-2.1-2.8c1.5-6.4,5.7-10.5,11.4-12.8c10.5-4.2,21.1-4.3,31.8-0.2
				c3.2,1.2,5.5,3.6,8.4,5.9c0-1.7,0.1-3.4,0-5.1c-0.2-2.5,0.6-3.7,3.2-3.4c0.7,0.1,1.4-0.1,2.1,0c1.8,0.2,2.4-0.7,2.3-2.3
				c-0.1-3.2,0-6.4-0.1-9.5c-0.1-1.9,0.6-2.6,2.5-2.6c5.3,0.1,10.7,0.1,16,0c1.9,0,2.8,0.7,2.7,2.7c-0.1,3.1,0.1,6.2,0,9.2
				c0,1.8,0.4,2.5,2.4,2.5c6.8,0.1,6.8,0.2,6.8,6.8c0,0.1,0,0.2,0,0.3c-0.2,2.3,0.9,5.2-0.5,6.9s-4.3,0.5-6.5,0.5
				c-1.8,0.1-2.2,0.9-2.2,2.5c0.1,6.3,0,12.5,0,18.8c0.1,4.5,1.9,6.4,6.4,6.4c2.2,0,3,0.5,2.8,2.9c-0.3,3.2-0.1,6.3-0.1,9.5
				c0,1,0,2-1.2,2.1c-7.8,0.7-15.6,0.9-22.6-3.6c-4.8-3.1-6.4-8.2-6.6-13.6c-0.3-7.3-0.1-14.6-0.1-21.8c0-2.8-2.1-4.1-4.6-3
				c-0.9,0.4-0.9,1-0.8,1.8c0.9,7.5,0.2,15,0.4,22.4c0.1,1.7,0,3.6,2.1,4.3c0.8,0.3,0.8,1,0.8,1.8c0,3.5,0,7,0,10.5
				c0,1.4-0.5,2.1-2,2c-3.5-0.2-7-0.2-10.4-0.4c-4.4-0.3-7.4-2.6-9.5-7.1c-4.2,5.2-9.7,6.9-15.8,7.3c-4.5,0.3-8.8-0.4-13-2
				c-3.9-1.5-6.9-4-8.1-8.3c-0.5-1.7-1.1-2.7-2.7-0.7c-7.4,9.5-17.7,11.5-28.9,10.8c-7-0.5-13.5-2.5-18.7-7.5
				c-8.6-8.2-9.8-18.3-7.3-29.2c0.6-2.7-0.1-2.9-2.3-3c-8.7-0.3-13.4,4.5-13.8,14.3c-0.3,7.4-0.2,14.8-0.1,22.1
				c0,2.5-0.6,3.4-3.2,3.3c-4.9-0.2-9.8-0.2-14.8,0c-2.3,0.1-3.2-0.6-3.2-3.1c0.1-17.1,0.1-34.1,0-51.2c0-2.2,0.8-2.8,2.9-2.8
				c4.9,0.1,9.8,0.2,14.8,0c2.3-0.1,2.8,0.9,2.7,2.9C985.1,157.9,985.2,159.7,985.2,162.2z M1041.1,187.3c-2.9,0-5.7,0-8.6,0
				c-3,0-5.9,0-8.9,0c-1.7,0-2.3,0.4-1.9,2.3c1.5,7.4,11,10.5,17.4,5.4c1.5-1.2,2.9-1.7,4.7-1.6c4.3,0.1,8.6-0.1,12.9,0
				c3.6,0.1,3-3.1,3.3-4.9c0.4-2.2-1.9-1.1-2.9-1.1C1051.8,187.2,1046.4,187.3,1041.1,187.3z M1094.4,189.2c0-1.8,0-2.7,0-3.6
				c0-0.7-0.3-1.3-1.1-1.1c-3.4,0.8-6.8,1.4-10.1,2.5c-2.8,1-3.9,3.6-3.3,6.5c0.6,3,2.6,4.2,5.5,4.4
				C1091.7,198.1,1094.2,195.4,1094.4,189.2z M1031.3,175.3c2.4,0,4.7,0,7.1,0c2.8,0,3.3-0.7,2.3-3.3c-1.4-3.8-5.1-6.2-9.4-6
				c-4.7,0.2-8.3,3-9.4,7c-0.4,1.6-0.1,2.3,1.7,2.2C1026.2,175.3,1028.8,175.3,1031.3,175.3z"/>
			<path class="st10" d="M792,179.7c0-14.8,0-29.5,0-44.3c0-4,0.1-4.1,4.2-4.1c28.8,0,57.6,0,86.4-0.1c3.3,0,4.4,1.2,4.4,4.1
				c0,2.2-0.2,4.5-0.2,6.7c0,21.1-0.2,42.2,0.1,63.3c0.1,6.2,0.1,12.5,0.3,18.7c0.1,2.4-0.7,3.4-3.2,3.7c-4.8,0.6-9.6,0-14.4,0.1
				c-19,0.2-37.9,0.2-56.9,0.1c-5.5,0-11-0.5-16.6-0.1c-2.6,0.2-4.1-0.9-4-4C792.1,209.2,792,194.5,792,179.7L792,179.7z
				 M855.9,182.6c0.3-0.1,0.5-0.2,0.8-0.2c2.1,3.6,4.2,7.2,6.3,10.8c2.1,3.4,5.1,4.9,8.2,4.1c2.8-0.7,4.5-3.2,4.5-7.2
				c0.1-8.3,0-16.6,0-24.9c0-1.7-0.4-2.8-2.3-2.8c-2,0-2,1.3-2,2.7c0,5.1,0,10.3,0,15.4c0,3.3,0,6.6,0,9.8c0,1.2-0.3,2.3-1.6,2.6
				c-1.4,0.4-2.4-0.2-3.1-1.4c-0.3-0.6-0.8-1.2-1.1-1.8c-3.6-6.4-7.2-12.8-10.9-19.2c-0.5-0.9-0.9-2.4-2.3-2
				c-1.3,0.4-0.8,1.7-0.8,2.7c-0.1,2.8,0,5.5,0,8.3c0,3.7,0,7.4,0,11.1c0,1-0.3,2.1-1.5,2.4c-1.3,0.4-2.2-0.1-2.9-1.2
				c-0.4-0.7-0.9-1.4-1.3-2.1c-3.6-6.2-7.1-12.5-10.7-18.7c-0.6-1.1-1.1-2.9-2.7-2.5c-1.6,0.5-0.9,2.3-0.9,3.5
				c-0.1,5.7-0.1,11.5,0,17.2c0,2.5-1,3.8-3.7,3.7c-3.2-0.1-6.4-0.1-9.5-0.1c-7.6,0.1-12.6-6.8-12.8-12.8
				c-0.2-6.9,5.4-12.9,12.3-13.3c1.4-0.1,2.9-0.1,4.3-0.2c1.4,0,2-0.7,2-2.1c0-1.4-0.6-2.1-2-2.1c-1.3,0-2.7-0.1-4,0
				c-9.6,0.3-16.9,7.9-16.9,17.5c0,9.7,7.6,17.4,17.3,17.5c3.2,0,6.4,0,9.5,0c5.5,0,7.8-2.2,8-7.7c0-2.3-0.2-4.7,0.4-7.3
				c0.5,0.6,0.8,0.9,1,1.2c2.1,3.5,4.1,7.1,6.3,10.5c1.9,2.9,5,4,7.7,3.2s4.4-3.3,4.4-7C855.9,187.7,855.9,185.2,855.9,182.6z
				 M845.1,177.2c-2.3-4-4.2-7.2-6.1-10.4c-2.3-3.8-5.3-5.3-8.6-4.3c-2.9,0.9-4.5,3.5-4.5,7.9c0,3.3,0.1,6.6,0.1,9.8
				c-0.1,7.8,1.4,7.1-7.7,6.8c-3.9-0.1-6.8-3.5-6.9-7.4c0-3.5,3-6.6,6.9-7c1.3-0.1,2.7-0.1,4-0.2c1.4,0,1.9-0.8,2-2.2
				s-0.5-2.1-1.9-2.2c-1.2,0-2.5-0.1-3.7-0.1c-6.4,0.1-11.2,4.9-11.6,11.2c-0.3,5.4,4.1,12.3,11,12.2c2.9,0,5.7-0.1,8.6,0.1
				c2.7,0.2,3.9-0.8,3.8-3.7c-0.1-5.7,0-11.5,0-17.2c0-1.5-0.2-3.6,1.6-3.9c1.6-0.3,3,0.9,3.9,2.6c3.7,6.8,7.6,13.5,11.5,20.3
				c0.4,0.7,0.8,1.9,1.9,1.6c1.2-0.3,0.9-1.5,0.9-2.4c0-6.3,0-12.5,0-18.8c0-1.4-0.1-3,1.7-3.5s2.5,0.9,3.3,2.1
				c3.9,6.8,7.7,13.5,11.6,20.3c0.5,0.9,0.8,2.5,2.2,2.2c1.6-0.4,1-2.1,1-3.2c0-7.4,0-14.8,0-22.1c0-1.5,0.6-3.6-2.1-3.6
				c-2.9,0-2.2,2.2-2.2,3.8c-0.1,3.7,0,7.4,0,11.9c-0.9-1.1-1.3-1.4-1.5-1.9c-2.1-3.6-4.1-7.3-6.4-10.8c-2-3-4.7-3.8-7.7-2.8
				c-2.7,0.9-4.2,3.2-4.3,6.7C845.6,171.6,845.9,173.9,845.1,177.2z"/>
			<path class="st9" d="M1188.4,187.2c-5.7,0-11.5,0.1-17.2,0c-2.6-0.1-2.7,1-2.1,3c2,6.9,11,9.6,17.1,4.9c1.7-1.3,3.3-1.8,5.3-1.7
				c4.4,0.1,8.8,0.1,13.2,0c2.6-0.1,2.8,0.9,1.7,2.9c-2.5,4.9-6.2,8.7-11.3,10.9c-11,4.7-22.2,4.8-33-0.6
				c-8.4-4.2-12.7-11.4-13.6-20.7c-0.8-9,0.9-17.1,7.3-23.8c4.9-5.1,10.9-7.8,18-8.3c6.7-0.5,13.3-0.1,19.6,2.8
				c9.2,4.2,13.1,12.2,14.7,21.6c0.3,2,0.3,4.1,0.6,6.1c0.3,2.5-0.7,3.3-3.1,3.2C1199.9,187.2,1194.1,187.2,1188.4,187.2
				L1188.4,187.2z M1178.3,175.2c2.6,0,5.1-0.1,7.7,0c2.2,0.1,2.7-0.8,2-2.8c-1.3-4.1-5-6.6-9.7-6.4c-4.7,0.2-8.6,3.4-9.3,7.5
				c-0.3,1.5,0.4,1.7,1.7,1.7C1173.2,175.1,1175.8,175.2,1178.3,175.2z"/>
			<path class="st9" d="M953.5,174.9c-1.5,0-3.1-0.1-4.6,0c-3,0.2-5.5,0.2-6.6-3.7c-0.9-3.1-4.2-3.7-7.2-3.5c-3.5,0.2-6.1,2-7.2,5.3
				c-1.8,5.6-1.7,11.3-0.1,16.9c1,3.5,4,5.3,7.7,5.4c3.6,0,6.8-1.9,7.7-5.4c0.7-2.5,2-2.9,4.2-2.8c4.7,0.1,9.4,0.1,14.1,0
				c2,0,2.9,0.2,2.2,2.7c-3,12-10.3,18.7-22.6,20c-11,1.2-21.3,0-29.5-8.5c-2.7-2.8-3.9-6.3-5-9.9c-4.5-14.3,1.1-28.9,14-35
				c10.8-5,21.9-4.6,32.5,0.9c5.8,3,8.9,8.3,10,14.7c0.4,2.1-0.1,3-2.5,2.8C958.5,174.7,956,174.9,953.5,174.9L953.5,174.9z"/>
			<path class="st10" d="M1235.4,199.2c0,2.9-0.1,5.7,0,8.6c0.1,2-0.8,3-2.6,3c-6.1,0.1-12.3,0.1-18.4,0c-1.7,0-2.4-1.1-2.4-2.9
				c0.1-6,0.1-12.1,0-18.1c0-2.2,0.9-2.8,2.9-2.8c5.7,0.1,11.5,0.1,17.2,0c2.3,0,3.4,0.9,3.3,3.3
				C1235.3,193.3,1235.4,196.3,1235.4,199.2L1235.4,199.2z"/>
			<path class="st11" d="M1041.1,187.3c5.3,0,10.6-0.1,16,0.1c1,0,3.4-1.1,2.9,1.1c-0.3,1.8,0.3,4.9-3.3,4.9c-4.3-0.1-8.6,0-12.9,0
				c-1.8,0-3.2,0.4-4.7,1.6c-6.3,5.1-15.9,2-17.4-5.4c-0.4-1.9,0.1-2.4,1.9-2.3c3,0.1,5.9,0,8.9,0
				C1035.4,187.3,1038.3,187.3,1041.1,187.3z"/>
			<path class="st11" d="M1094.4,189.2c-0.2,6.3-2.7,8.9-9,8.7c-2.9-0.1-4.9-1.3-5.5-4.4c-0.6-2.9,0.5-5.5,3.3-6.5
				c3.3-1.1,6.7-1.7,10.1-2.5c0.8-0.2,1.1,0.4,1.1,1.1C1094.4,186.5,1094.4,187.4,1094.4,189.2z"/>
			<path class="st11" d="M1031.3,175.3c-2.6,0-5.1-0.1-7.7,0c-1.8,0.1-2.1-0.7-1.7-2.2c1.1-4,4.7-6.8,9.4-7c4.3-0.2,8,2.1,9.4,6
				c0.9,2.5,0.4,3.2-2.3,3.3C1036,175.3,1033.7,175.3,1031.3,175.3z"/>
			<path class="st9" d="M855.9,182.6c0,2.5,0,5.1,0,7.6c-0.1,3.7-1.7,6.2-4.4,7s-5.8-0.3-7.7-3.2c-2.2-3.4-4.2-7-6.3-10.5
				c-0.2-0.3-0.5-0.6-1-1.2c-0.6,2.6-0.3,5-0.4,7.3c-0.1,5.5-2.4,7.8-8,7.7c-3.2,0-6.4,0-9.5,0c-9.7-0.1-17.3-7.8-17.3-17.5
				c0-9.6,7.3-17.2,16.9-17.5c1.3,0,2.7,0,4,0c1.4,0,2,0.7,2,2.1c0,1.4-0.6,2.1-2,2.1s-2.9,0.1-4.3,0.2c-6.9,0.4-12.4,6.4-12.3,13.3
				c0.1,6,5.1,12.8,12.8,12.8c3.2,0,6.4-0.1,9.5,0.1c2.7,0.1,3.7-1.2,3.7-3.7c0-5.7-0.1-11.5,0-17.2c0-1.2-0.7-3.1,0.9-3.5
				c1.6-0.5,2,1.4,2.7,2.5c3.6,6.2,7.1,12.4,10.7,18.7c0.4,0.7,0.8,1.4,1.3,2.1c0.7,1,1.6,1.5,2.9,1.2c1.2-0.4,1.5-1.4,1.5-2.4
				c0.1-3.7,0-7.4,0-11.1c0-2.8,0-5.5,0-8.3c0-1-0.5-2.3,0.8-2.7c1.4-0.4,1.8,1.1,2.3,2c3.7,6.4,7.3,12.8,10.9,19.2
				c0.4,0.6,0.8,1.2,1.1,1.8c0.7,1.2,1.7,1.8,3.1,1.4c1.3-0.4,1.6-1.4,1.6-2.6c0-3.3,0-6.6,0-9.8c0-5.1,0-10.3,0-15.4
				c0-1.4,0-2.7,2-2.7s2.4,1.1,2.3,2.8c0,8.3,0,16.6,0,24.9c0,4-1.7,6.5-4.5,7.2c-3.1,0.8-6.1-0.6-8.2-4.1
				c-2.2-3.6-4.2-7.2-6.3-10.8C856.4,182.5,856.1,182.6,855.9,182.6z"/>
			<path class="st9" d="M845.1,177.2c0.8-3.2,0.5-5.6,0.6-7.9c0.1-3.5,1.6-5.8,4.3-6.7c3-1,5.7-0.2,7.7,2.8
				c2.3,3.5,4.3,7.2,6.4,10.8c0.3,0.4,0.6,0.8,1.5,1.9c0-4.4-0.1-8.2,0-11.9c0-1.6-0.6-3.8,2.2-3.8c2.7,0,2,2.1,2.1,3.6
				c0.1,7.4,0.1,14.8,0,22.1c0,1.1,0.6,2.8-1,3.2c-1.4,0.4-1.7-1.3-2.2-2.2c-3.9-6.7-7.8-13.5-11.6-20.3c-0.7-1.3-1.4-2.6-3.3-2.1
				c-1.9,0.5-1.7,2.1-1.7,3.5c0,6.3,0,12.5,0,18.8c0,0.9,0.3,2.1-0.9,2.4c-1.2,0.3-1.5-0.9-1.9-1.6c-3.9-6.7-7.8-13.4-11.5-20.3
				c-0.9-1.7-2.3-2.9-3.9-2.6c-1.8,0.3-1.6,2.4-1.6,3.9c0,5.7-0.1,11.5,0,17.2c0.1,2.9-1.1,3.8-3.8,3.7c-2.9-0.2-5.7-0.1-8.6-0.1
				c-6.9,0.1-11.3-6.8-11-12.2c0.4-6.3,5.2-11.1,11.6-11.2c1.2,0,2.5,0,3.7,0.1c1.4,0,2,0.7,1.9,2.2c-0.1,1.3-0.6,2.1-2,2.2
				c-1.3,0-2.7,0-4,0.2c-3.8,0.4-6.9,3.5-6.9,7c0,3.8,3,7.2,6.9,7.4c9.2,0.3,7.6,0.9,7.7-6.8c0.1-3.3-0.1-6.6-0.1-9.8
				c0-4.4,1.5-7.1,4.5-7.9c3.3-1,6.3,0.5,8.6,4.3C840.9,170,842.8,173.2,845.1,177.2z"/>
			<path class="st11" d="M1178.3,175.2c-2.6,0-5.1,0-7.7,0c-1.3,0-2-0.2-1.7-1.7c0.8-4.1,4.7-7.2,9.3-7.5c4.7-0.2,8.4,2.3,9.7,6.4
				c0.6,2,0.1,2.9-2,2.8C1183.5,175.1,1180.9,175.2,1178.3,175.2z"/>
		</g>
	</g>
</g>
</svg>
