<svg xmlns="http://www.w3.org/2000/svg" viewBox="0 0 467.81 120.68"><defs><style>.cls-1{fill:#2f2a1b;}.cls-2{fill:#a3ad80;stroke:#858e69;stroke-linecap:round;stroke-linejoin:round;stroke-width:6px;}</style></defs><g id="Layer_2" data-name="Layer 2"><g id="Layer_3" data-name="Layer 3"><path class="cls-1" d="M86.74,41.92v76.76H66.42V107.61a42.81,42.81,0,0,1-11.25,9,32.51,32.51,0,0,1-16.52,4.08,41.46,41.46,0,0,1-19.78-4.63,33.8,33.8,0,0,1-13.79-13.7Q0,93.28,0,80.39a44.82,44.82,0,0,1,5.26-22A37.42,37.42,0,0,1,38.65,38.48q18.69,0,27.95,13.79l1.45-10.35Zm-28.4,57.8a22.78,22.78,0,0,0,8.08-12.07V71A21.24,21.24,0,0,0,58,59.53a24.61,24.61,0,0,0-14.43-4.36A22.09,22.09,0,0,0,27.22,62Q20.5,68.78,20.51,79.3a24.66,24.66,0,0,0,12,21.42A22.59,22.59,0,0,0,44.28,104,22.87,22.87,0,0,0,58.34,99.72Z"/><path class="cls-1" d="M143.35,48.64a46.12,46.12,0,0,1,11.53-7.53q5.9-2.64,9.89-2.63l-.91,20.32a25.09,25.09,0,0,0-14.88,3A26.41,26.41,0,0,0,138.82,72a27.46,27.46,0,0,0-3.63,13.7v33H114.86V41.92h18.33l1.45,17.79A35.89,35.89,0,0,1,143.35,48.64Z"/><path class="cls-1" d="M206,41.92v76.76H185.64V41.92Z"/><path class="cls-1" d="M240.16,117.14a33.51,33.51,0,0,1-13-9l8.53-11.43q9.61,9.43,19.6,9.43a17.38,17.38,0,0,0,9-2.09,6.79,6.79,0,0,0,3.54-6.26,7.13,7.13,0,0,0-3.63-6.53,36.38,36.38,0,0,0-8.08-3.54c-3-.9-4.87-1.48-5.71-1.72q-10-3.09-14.88-9a21,21,0,0,1-4.9-13.89,23.07,23.07,0,0,1,12.79-20.86q6.44-3.45,15.7-3.45a51.48,51.48,0,0,1,15.15,2,38.12,38.12,0,0,1,12.07,6.36l-7.81,12.15a24.3,24.3,0,0,0-7.89-4.9,23.52,23.52,0,0,0-8.44-1.81,13.21,13.21,0,0,0-7.8,2.18,6.61,6.61,0,0,0-3.09,5.62,6.56,6.56,0,0,0,3.09,6.26,48.26,48.26,0,0,0,10.52,4.45c2.06.61,3.39,1,4,1.27q9.06,2.91,14.15,8.07T288.16,94a24.6,24.6,0,0,1-8.07,18.78Q272,120.33,257,120.32A44.54,44.54,0,0,1,240.16,117.14Z"/><path class="cls-1" d="M316.92,117.14a33.51,33.51,0,0,1-13-9l8.53-11.43q9.61,9.43,19.59,9.43a17.41,17.41,0,0,0,9-2.09,6.79,6.79,0,0,0,3.54-6.26A7.13,7.13,0,0,0,341,91.28a36.79,36.79,0,0,0-8.08-3.54c-3-.9-4.87-1.48-5.71-1.72q-10-3.09-14.89-9a21.08,21.08,0,0,1-4.89-13.89,23.07,23.07,0,0,1,12.79-20.86q6.44-3.45,15.7-3.45a51.48,51.48,0,0,1,15.15,2,38.07,38.07,0,0,1,12.06,6.36l-7.8,12.15a24.4,24.4,0,0,0-7.89-4.9A23.56,23.56,0,0,0,339,52.63a13.19,13.19,0,0,0-7.8,2.18,6.61,6.61,0,0,0-3.09,5.62,6.56,6.56,0,0,0,3.09,6.26,48.26,48.26,0,0,0,10.52,4.45c2.06.61,3.39,1,4,1.27q9.07,2.91,14.16,8.07T364.92,94a24.57,24.57,0,0,1-8.08,18.78q-8.07,7.55-23.13,7.54A44.54,44.54,0,0,1,316.92,117.14Z"/><path class="cls-1" d="M467.81,41.92v76.76H447.48V107.61a42.48,42.48,0,0,1-11.25,9,32.47,32.47,0,0,1-16.51,4.08,41.46,41.46,0,0,1-19.78-4.63,33.68,33.68,0,0,1-13.79-13.7q-5.08-9.07-5.08-22a44.82,44.82,0,0,1,5.26-22,37.39,37.39,0,0,1,33.39-19.87q18.69,0,27.94,13.79l1.46-10.35Zm-28.4,57.8a22.71,22.71,0,0,0,8.07-12.07V71a21.18,21.18,0,0,0-8.43-11.43,24.63,24.63,0,0,0-14.43-4.36A22.09,22.09,0,0,0,408.29,62q-6.72,6.81-6.72,17.33a24.7,24.7,0,0,0,12,21.42A22.58,22.58,0,0,0,425.34,104,22.88,22.88,0,0,0,439.41,99.72Z"/><path class="cls-2" d="M215.5,22.68c-7.1,5.4-19.27,1.34-19.27,1.34s-.66-12.82,6.44-18.22,19.27-1.33,19.27-1.33S222.6,17.28,215.5,22.68Z"/><path class="cls-2" d="M176.42,22.68c7.1,5.4,19.28,1.34,19.28,1.34s.65-12.82-6.45-18.22S170,4.47,170,4.47,169.32,17.28,176.42,22.68Z"/><path class="cls-2" d="M195.7,24s6.32-8.77,13.38-9.78"/><path class="cls-2" d="M193.94,24s-6.32-8.77-13.39-9.78"/></g></g></svg>