<?xml version="1.0" encoding="utf-8"?>
<!-- Generator: Adobe Illustrator 26.0.1, SVG Export Plug-In . SVG Version: 6.00 Build 0)  -->
<svg version="1.1" id="Layer_1" xmlns="http://www.w3.org/2000/svg" xmlns:xlink="http://www.w3.org/1999/xlink" x="0px" y="0px"
	 viewBox="0 0 1273 770" style="enable-background:new 0 0 1273 770;" xml:space="preserve">
<style type="text/css">
	.st0{fill:#C7996B;}
	.st1{fill:#A5744C;}
	.st2{fill:#B78558;}
</style>
<path class="st0" d="M38.4,35.9h1196c1.1,0,2,0.9,2,2v696c0,1.1-0.9,2-2,2H38.4c-1.1,0-2-0.9-2-2v-696
	C36.4,36.8,37.3,35.9,38.4,35.9z"/>
<path class="st1" d="M1205.9,66.9V703c0,1.1-0.9,1.9-2,1.9H68.9c-1.1,0-2-0.9-2-1.9V68.8c0-1.1,0.9-1.9,2-1.9H1205.9 M1223.5,47.6
	H49.3c-1.1,0-2,0.9-2,1.9v672.8c0,1.1,0.9,1.9,2,1.9h1174.2c1.1,0,2-0.9,2-1.9V49.5C1225.5,48.4,1224.6,47.6,1223.5,47.6z"/>
<path class="st2" d="M1216.4,55.9v658c0,1.1-0.9,2-2,2H58.4c-1.1,0-2-0.9-2-2v-656c0-1.1,0.9-2,2-2L1216.4,55.9 M1234.4,35.9H38.4
	c-1.1,0-2,0.9-2,2v696c0,1.1,0.9,2,2,2h1196c1.1,0,2-0.9,2-2v-696C1236.4,36.8,1235.5,35.9,1234.4,35.9z"/>
</svg>
