<svg width="338" height="603" viewBox="0 0 338 603" fill="none" xmlns="http://www.w3.org/2000/svg">
<path d="M333 3H5C3.89543 3 3 3.89543 3 5V598C3 599.105 3.89544 600 5.00001 600H333C334.105 600 335 599.105 335 598V5C335 3.89543 334.105 3 333 3Z" fill="#DCA077" stroke="#B86F3C" stroke-width="4" stroke-linecap="round" stroke-linejoin="round"/>
<path d="M326.358 96.1266L289.249 94.8307L287.343 149.403L324.453 150.699L326.358 96.1266Z" fill="#F2E8E3" stroke="#8F7C72" stroke-width="3.82241" stroke-linecap="round" stroke-linejoin="round"/>
<rect x="295.569" y="101.608" width="24.0265" height="34.9477" rx="1.09212" transform="rotate(2 295.569 101.608)" fill="#CBB4A8" stroke="#AD9182" stroke-width="3.82241"/>
<path d="M308.197 99.8635C311.512 99.9793 314.294 97.3855 314.41 94.0702C314.525 90.7548 311.932 87.9734 308.616 87.8576C305.301 87.7418 302.519 90.3356 302.404 93.6509C302.288 96.9663 304.882 99.7478 308.197 99.8635Z" fill="#F8C760" stroke="#B47605" stroke-width="3.82241" stroke-linecap="round" stroke-linejoin="round"/>
<rect x="202.334" y="39.7986" width="65.1944" height="77.8711" rx="0.882372" transform="rotate(-3 202.334 39.7986)" fill="#F2E8E4" stroke="#54565A" stroke-width="4" stroke-linejoin="round"/>
<path d="M260.799 65.5502C260.799 65.5502 261.37 55.6134 253.192 52.4878C242.788 48.5174 238.58 56.7219 238.58 56.7219C235.233 55.6439 232.232 56.9515 232.232 56.9515C232.232 56.9515 225.335 50.5996 217.491 56.4535C210.829 61.4213 213.959 72.9843 213.959 72.9843L230.711 92.3495L242.265 93.8559L252.666 88.3315L260.782 65.5511L260.799 65.5502Z" fill="#8E8733" stroke="#5F5523" stroke-width="4" stroke-linecap="round" stroke-linejoin="round"/>
<path d="M225.8 84.7803L235.455 92.3296L241.577 92.0087L250.088 83.4561L252.107 110.526C252.107 110.526 239.866 115.067 227.192 111.661L225.783 84.7811L225.8 84.7803Z" fill="#F2E8E3" stroke="#B0A7A5" stroke-width="4" stroke-linecap="round" stroke-linejoin="round"/>
<path d="M241.263 97.1361L244.405 102.02C244.465 102.118 244.471 102.235 244.423 102.355L240.259 112.604C240.13 112.913 239.677 112.936 239.517 112.643L233.409 102.429C233.349 102.331 233.343 102.214 233.391 102.094L235.603 97.1979C235.669 97.0603 235.827 96.9681 235.99 96.9595L240.908 96.9366C241.053 96.9291 241.184 97.006 241.263 97.1193" fill="#DF6665"/>
<path d="M241.263 97.1361L244.405 102.02C244.465 102.118 244.471 102.235 244.423 102.355L240.259 112.604C240.13 112.913 239.677 112.936 239.517 112.643L233.409 102.429C233.349 102.331 233.343 102.214 233.391 102.094L235.603 97.1979C235.669 97.0603 235.827 96.9681 235.99 96.9595L240.908 96.9366C241.053 96.9291 241.184 97.006 241.263 97.1193" stroke="#BD3C41" stroke-width="4" stroke-linecap="round" stroke-linejoin="round"/>
<path d="M232.903 90.5035C234.606 89.0812 242.705 89.9729 242.705 89.9729C242.705 89.9729 242.515 94.8255 241.343 97.2492C241.343 97.2492 237.809 98.6492 234.864 97.5887C234.864 97.5887 232.182 91.0981 232.886 90.5044L232.903 90.5035Z" fill="#DF6665" stroke="#BD3C41" stroke-width="4" stroke-linecap="round" stroke-linejoin="round"/>
<path d="M209.046 112.418C205.506 68.2686 213.519 69.8467 213.519 69.8467L227.458 90.526L229.648 116.162C229.648 116.162 209.235 114.699 209.046 112.418Z" fill="#4D58A6" stroke="#303E78" stroke-width="4" stroke-linecap="round" stroke-linejoin="round"/>
<path d="M269.698 109.159C268.447 64.9215 260.428 67.3892 260.428 67.3892L248.437 89.4551L249.019 115.146C249.019 115.146 269.764 111.444 269.698 109.159Z" fill="#4D58A6" stroke="#303E78" stroke-width="4" stroke-linecap="round" stroke-linejoin="round"/>
<path d="M221.689 67.608C223.736 67.4013 225.227 65.5768 225.021 63.5327C224.814 61.4887 222.987 59.9992 220.941 60.2058C218.894 60.4125 217.402 62.2371 217.609 64.2812C217.816 66.3252 219.642 67.8147 221.689 67.608Z" fill="#2D2A27"/>
<path d="M250.545 66.0269C252.591 65.8202 254.083 63.9956 253.876 61.9515C253.669 59.9075 251.843 58.418 249.796 58.6247C247.749 58.8314 246.258 60.6559 246.465 62.7C246.671 64.7441 248.498 66.2335 250.545 66.0269Z" fill="#2D2A27"/>
<path d="M229.805 66.2046C229.805 66.2046 235.769 59.681 242.532 65.4889" stroke="#5F5523" stroke-width="4" stroke-linecap="round" stroke-linejoin="round"/>
<path d="M234.291 67.0795L234.378 68.7399" stroke="#2D2A27" stroke-width="4" stroke-linecap="round" stroke-linejoin="round"/>
<path d="M238.165 66.8765L238.252 68.5369" stroke="#2D2A27" stroke-width="4" stroke-linecap="round" stroke-linejoin="round"/>
<path d="M222.491 74.9117C222.491 74.9117 235.301 77.366 250.106 72.3554" stroke="#2D2A27" stroke-width="4" stroke-linecap="round" stroke-linejoin="round"/>
<rect x="202.334" y="39.7986" width="65.1944" height="77.8711" rx="0.882372" transform="rotate(-3 202.334 39.7986)" stroke="#54565A" stroke-width="4" stroke-linejoin="round"/>
<path d="M235.688 43.9529C238.993 43.6191 241.401 40.6729 241.067 37.3723C240.734 34.0717 237.784 31.6666 234.479 32.0003C231.175 32.3341 228.766 35.2803 229.1 38.5809C229.434 41.8815 232.383 44.2866 235.688 43.9529Z" fill="#D5CE6E" stroke="#5E5523" stroke-width="4" stroke-linecap="round" stroke-linejoin="round"/>
<path d="M39.5962 57.0337L91.89 60.6904L89.0682 101.045C88.5233 108.838 82.0086 114.739 74.5271 114.215L35.7871 111.506L39.5962 57.0337Z" fill="#D5CE6E" stroke="#5E5523" stroke-width="4.36846" stroke-linecap="round" stroke-linejoin="round"/>
<path d="M73.994 113.083L74.9844 98.9204L89.1473 99.9108" stroke="#5E5523" stroke-width="4.36846" stroke-linecap="round" stroke-linejoin="round"/>
<path d="M65.9069 64.3475C69.2162 64.5789 72.0865 62.0838 72.3179 58.7745C72.5493 55.4652 70.0542 52.5949 66.7449 52.3635C63.4356 52.1321 60.5653 54.6272 60.3339 57.9365C60.1025 61.2458 62.5976 64.1161 65.9069 64.3475Z" fill="#D0D3EB" stroke="#4D58A6" stroke-width="4.36846" stroke-linecap="round" stroke-linejoin="round"/>
<line x1="54.1565" y1="83.653" x2="74.8561" y2="85.1005" stroke="#2D2926" stroke-width="4.36846" stroke-linecap="round"/>
<line x1="58.7612" y1="92.5162" x2="70.3645" y2="75.3135" stroke="#2D2926" stroke-width="4.36846" stroke-linecap="round"/>
<line x1="59.9417" y1="75.006" x2="69.038" y2="93.6562" stroke="#2D2926" stroke-width="4.36846" stroke-linecap="round"/>
<path d="M28.7467 96.9672C18.251 98.9691 11.3424 109.146 13.3444 119.642C15.3464 130.137 25.5143 137.048 36.0099 135.046C46.5055 133.044 53.4159 122.876 51.4139 112.38C49.4119 101.885 39.2514 94.9635 28.7467 96.9672Z" fill="white"/>
<path d="M34.9632 129.56C42.4509 128.132 47.3545 120.905 45.928 113.427C44.5015 105.948 37.2729 101.035 29.7944 102.462C22.3158 103.888 17.403 111.117 18.8295 118.596C20.256 126.074 27.4846 130.987 34.9632 129.56Z" fill="#F8C760" stroke="#B47605" stroke-width="4.41186" stroke-linecap="round" stroke-linejoin="round"/>
<path d="M38.0729 118.592C35.8237 121.901 31.3256 122.759 28.0161 120.51" stroke="#B47605" stroke-width="4.41186" stroke-linecap="round" stroke-linejoin="round"/>
<path d="M26.4251 117.137C27.6868 116.897 28.5155 115.677 28.2748 114.416C28.0342 113.154 26.8149 112.325 25.5532 112.566C24.2915 112.807 23.4629 114.026 23.7035 115.288C23.9442 116.549 25.1635 117.378 26.4251 117.137Z" fill="#B47605"/>
<path d="M38.3104 114.87C39.5721 114.63 40.4007 113.41 40.1601 112.149C39.9194 110.887 38.7001 110.058 37.4385 110.299C36.1768 110.54 35.3481 111.759 35.5888 113.02C35.8295 114.282 37.0487 115.111 38.3104 114.87Z" fill="#B47605"/>
<path d="M255.3 496.46L307.594 500.117L304.772 540.471C304.227 548.264 297.712 554.165 290.231 553.642L251.491 550.933L255.3 496.46Z" fill="#F8C760" stroke="#B47605" stroke-width="4" stroke-linecap="round" stroke-linejoin="round"/>
<path d="M289.698 552.51L290.688 538.347L304.851 539.337" stroke="#B47605" stroke-width="4" stroke-linecap="round" stroke-linejoin="round"/>
<line x1="266.481" y1="512.809" x2="296.232" y2="514.89" stroke="#2D2926" stroke-width="4" stroke-linecap="round"/>
<line x1="265.661" y1="524.546" x2="295.412" y2="526.626" stroke="#2D2926" stroke-width="4" stroke-linecap="round"/>
<line x1="264.84" y1="536.282" x2="281.388" y2="537.439" stroke="#2D2926" stroke-width="4" stroke-linecap="round"/>
<path d="M281.611 503.774C284.92 504.005 287.791 501.51 288.022 498.201C288.253 494.892 285.758 492.021 282.449 491.79C279.14 491.558 276.269 494.054 276.038 497.363C275.807 500.672 278.302 503.542 281.611 503.774Z" fill="#DF6665" stroke="#BD3C41" stroke-width="4" stroke-linecap="round" stroke-linejoin="round"/>
<path d="M245.286 464.878C244.933 464.826 241.708 464.429 238.133 465.157C234.868 465.823 232.252 467.201 230.336 469.263C230.023 469.593 229.734 469.946 229.467 470.314C229.143 470.124 228.814 469.953 228.468 469.796C225.845 468.573 222.788 468.303 219.404 468.992C216.021 469.682 213.467 471.085 212.973 471.367C210.931 472.533 209.834 474.884 210.247 477.194C210.419 478.175 212.146 486.885 219.002 490.095C221.626 491.317 224.666 491.6 228.033 490.924L228.333 492.392C228.948 495.411 231.901 497.364 234.919 496.749C237.938 496.134 239.892 493.181 239.277 490.162L238.959 488.603C242.215 487.939 244.829 486.552 246.738 484.5C251.88 478.969 250.204 470.23 249.994 469.247C249.506 466.944 247.61 465.193 245.277 464.88L245.286 464.878Z" fill="white"/>
<path d="M231.735 483.682C231.735 483.682 230.52 476.929 226.108 474.855C221.691 472.801 215.738 476.217 215.738 476.217C215.738 476.217 216.952 482.97 221.364 485.045C225.775 487.11 231.735 483.682 231.735 483.682Z" fill="#8E8733" stroke="#5F5523" stroke-width="3.72295" stroke-linecap="round" stroke-linejoin="round"/>
<path d="M223.737 479.954L231.735 483.682" stroke="#5F5523" stroke-width="3.72295" stroke-linecap="round" stroke-linejoin="round"/>
<path d="M232.542 483.356C232.542 483.356 231.107 476.639 234.425 473.065C237.743 469.492 244.542 470.415 244.542 470.415C244.542 470.415 245.977 477.133 242.659 480.706C239.341 484.279 232.542 483.356 232.542 483.356Z" fill="#8E8733" stroke="#5F5523" stroke-width="3.72295" stroke-linecap="round" stroke-linejoin="round"/>
<path d="M238.53 476.893L232.542 483.356" stroke="#5F5523" stroke-width="3.72295" stroke-linecap="round" stroke-linejoin="round"/>
<path d="M232.039 482.613L233.804 491.277" stroke="#5F5523" stroke-width="3.72295" stroke-linecap="round" stroke-linejoin="round"/>
<path d="M35.6177 458.767L88.0073 456.937L89.4191 497.365C89.6917 505.173 83.8296 511.722 76.3343 511.984L37.5234 513.339L35.6177 458.767Z" fill="#D0D3EB" stroke="#4D58A6" stroke-width="4.36846" stroke-linecap="round" stroke-linejoin="round"/>
<path d="M75.6859 510.914L75.1904 496.725L89.3793 496.229" stroke="#4D58A6" stroke-width="4.36846" stroke-linecap="round" stroke-linejoin="round"/>
<path d="M62.5487 463.29C65.8641 463.174 68.4578 460.393 68.342 457.078C68.2263 453.762 65.4448 451.168 62.1294 451.284C58.8141 451.4 56.2203 454.182 56.3361 457.497C56.4519 460.812 59.2333 463.406 62.5487 463.29Z" fill="#F2E8E4" stroke="#54565A" stroke-width="4.36846" stroke-linecap="round" stroke-linejoin="round"/>
<path d="M49.1477 502.006C54.7705 500.6 58.2343 494.217 58.2036 488.172C58.1899 485.565 57.6051 482.845 55.9898 480.885C55.9898 480.885 55.9622 480.833 55.9364 480.833C53.2214 477.65 47.9573 480.467 48.8503 484.628C49.4084 487.323 51.0167 489.82 53.2846 491.273C57.134 493.718 62.4244 493.13 65.8509 490.108C69.2773 487.086 70.7224 481.956 69.7381 477.395C69.371 475.742 68.6958 474.126 67.4462 473.041C66.1966 471.956 64.3267 471.564 62.9396 472.446C60.7195 473.84 60.9968 477.351 62.2399 479.727C64.1441 483.315 67.7646 485.849 71.6505 486.385C75.5363 486.921 79.6342 485.408 82.3416 482.464" stroke="#2D2926" stroke-width="4.36846" stroke-linecap="round" stroke-linejoin="round"/>
<path d="M133.526 519.201C136.448 515.574 136.504 510.507 136.473 509.347C136.415 507.267 135.224 505.404 133.359 504.48C132.912 504.257 131.303 503.513 129.24 503.06C127.176 502.606 125.353 502.577 123.647 502.926C123.271 502.51 122.836 502.148 122.34 501.848C121.818 501.533 121.256 501.315 120.666 501.185C118.311 500.667 115.909 501.712 114.674 503.775C114.191 504.584 113.773 505.445 113.42 506.359C105.687 505.86 98.3792 511.534 96.5393 519.907C94.5235 529.079 99.8102 538.064 108.328 539.936C109.41 540.174 110.51 540.282 111.617 540.278C112.617 540.755 113.655 541.107 114.719 541.341C123.236 543.213 131.803 537.272 133.819 528.099C134.472 525.127 134.366 522.054 133.526 519.201Z" fill="white"/>
<path d="M120.83 513.533C119.712 513.287 118.591 513.27 117.507 513.432C116.589 512.839 115.567 512.376 114.448 512.13C108.931 510.918 103.357 514.944 102.001 521.116C100.644 527.288 104.016 533.28 109.534 534.493C110.652 534.739 111.773 534.756 112.856 534.594C113.775 535.187 114.797 535.65 115.915 535.895C121.433 537.108 127.007 533.082 128.363 526.91C129.719 520.737 126.348 514.745 120.83 513.533Z" fill="#DF6665" stroke="#BD3C41" stroke-width="3.72295" stroke-linecap="round" stroke-linejoin="round"/>
<path d="M117.581 515.268C117.581 515.268 117.216 510.423 119.479 506.632" stroke="#513B2F" stroke-width="3.72295" stroke-linecap="round" stroke-linejoin="round"/>
<path d="M128.191 516.59C125.353 518.405 120.607 516.066 120.607 516.066C120.607 516.066 120.473 510.777 123.312 508.961C126.15 507.145 130.896 509.484 130.896 509.484C130.896 509.484 131.03 514.774 128.191 516.59Z" fill="#8E8733" stroke="#5F5523" stroke-width="3.72295" stroke-linecap="round" stroke-linejoin="round"/>
</svg>
