<?xml version="1.0" encoding="UTF-8"?>
<svg id="Layer_1" data-name="Layer 1" xmlns="http://www.w3.org/2000/svg" version="1.1" viewBox="0 0 338 603">
  <defs>
    <style>
      .cls-1 {
        fill: #d0d3eb;
      }

      .cls-1, .cls-2, .cls-3, .cls-4, .cls-5, .cls-6, .cls-7, .cls-8, .cls-9, .cls-10, .cls-11, .cls-12, .cls-13, .cls-14, .cls-15, .cls-16, .cls-17, .cls-18, .cls-19, .cls-20, .cls-21, .cls-22, .cls-23, .cls-24, .cls-25, .cls-26, .cls-27 {
        stroke-linejoin: round;
      }

      .cls-1, .cls-3, .cls-4, .cls-5, .cls-6, .cls-7, .cls-8, .cls-9, .cls-10, .cls-11, .cls-12, .cls-13, .cls-14, .cls-15, .cls-16, .cls-17, .cls-18, .cls-28, .cls-19, .cls-20, .cls-29, .cls-22, .cls-23, .cls-24, .cls-25, .cls-26, .cls-27 {
        stroke-linecap: round;
      }

      .cls-1, .cls-3, .cls-9, .cls-11, .cls-12, .cls-14, .cls-15, .cls-29, .cls-24 {
        stroke-width: 4.4px;
      }

      .cls-1, .cls-11 {
        stroke: #4d58a6;
      }

      .cls-2, .cls-3, .cls-21 {
        stroke: #54565a;
      }

      .cls-2, .cls-7, .cls-9, .cls-10, .cls-11, .cls-12, .cls-28, .cls-20, .cls-29, .cls-22, .cls-23, .cls-24, .cls-26 {
        fill: none;
      }

      .cls-2, .cls-21 {
        stroke-width: 4px;
      }

      .cls-30 {
        fill: #b47605;
      }

      .cls-30, .cls-31, .cls-32, .cls-33 {
        stroke-width: 0px;
      }

      .cls-3, .cls-21 {
        fill: #f2e8e4;
      }

      .cls-4, .cls-5, .cls-10, .cls-13, .cls-16, .cls-17, .cls-28, .cls-20, .cls-22, .cls-23, .cls-25, .cls-27 {
        stroke-width: 4px;
      }

      .cls-4, .cls-9, .cls-14 {
        stroke: #5e5523;
      }

      .cls-4, .cls-14 {
        fill: #d5ce6e;
      }

      .cls-5, .cls-32, .cls-19 {
        fill: #df6665;
      }

      .cls-5, .cls-19, .cls-23 {
        stroke: #bd3c41;
      }

      .cls-6, .cls-7, .cls-13, .cls-20 {
        stroke: #5f5523;
      }

      .cls-6, .cls-7, .cls-19, .cls-26 {
        stroke-width: 3.7px;
      }

      .cls-6, .cls-13 {
        fill: #8e8733;
      }

      .cls-8, .cls-10, .cls-15, .cls-24, .cls-27 {
        stroke: #b47605;
      }

      .cls-8, .cls-15, .cls-27 {
        fill: #f8c760;
      }

      .cls-8, .cls-18 {
        stroke-width: 3.8px;
      }

      .cls-31 {
        fill: #2d2a27;
      }

      .cls-12, .cls-28, .cls-29 {
        stroke: #2d2926;
      }

      .cls-16 {
        stroke: #b0a7a5;
      }

      .cls-16, .cls-18 {
        fill: #f2e8e3;
      }

      .cls-17 {
        fill: #dca077;
        stroke: #b86f3c;
      }

      .cls-18 {
        stroke: #8f7c72;
      }

      .cls-34 {
        fill: #cbb4a8;
        stroke: #ad9182;
        stroke-miterlimit: 4;
        stroke-width: 3.8px;
      }

      .cls-22 {
        stroke: #2d2a27;
      }

      .cls-33 {
        fill: #fff;
      }

      .cls-25 {
        fill: #4d58a6;
        stroke: #303e78;
      }

      .cls-26 {
        stroke: #513b2f;
      }
    </style>
  </defs>
  <path class="cls-17" d="M333,3H5c-1.1,0-2,.9-2,2v593c0,1.1.9,2,2,2h328c1.1,0,2-.9,2-2V5c0-1.1-.9-2-2-2Z"/>
  <path class="cls-18" d="M326.4,96.1l-37.1-1.3-1.9,54.6,37.1,1.3,1.9-54.6Z"/>
  <rect class="cls-34" x="289.5" y="107.5" width="34.9" height="24" rx="1.1" ry="1.1" transform="translate(176.8 422.1) rotate(-88)"/>
  <path class="cls-8" d="M308.2,99.9c3.3,0,6.1-2.5,6.2-5.8s-2.5-6.1-5.8-6.2-6.1,2.5-6.2,5.8,2.5,6.1,5.8,6.2Z"/>
  <rect class="cls-21" x="204.3" y="38" width="65.2" height="77.9" rx=".9" ry=".9" transform="translate(-3.7 12.5) rotate(-3)"/>
  <path class="cls-13" d="M260.8,65.6s.6-9.9-7.6-13.1c-10.4-4-14.6,4.2-14.6,4.2-3.3-1.1-6.3.2-6.3.2,0,0-6.9-6.4-14.7-.5-6.7,5-3.5,16.5-3.5,16.5l16.8,19.4,11.6,1.5,10.4-5.5,8.1-22.8h-.2Z"/>
  <path class="cls-16" d="M225.8,84.8l9.7,7.5,6.1-.3,8.5-8.6,2,27.1s-12.2,4.5-24.9,1.1l-1.4-26.9h0Z"/>
  <path class="cls-32" d="M241.3,97.1l3.1,4.9v.3l-4.2,10.2c-.1.3-.6.3-.7,0l-6.1-10.2v-.3l2.2-4.9c0,0,.2-.2.4-.2h4.9c.1,0,.3,0,.4.2"/>
  <path class="cls-23" d="M241.3,97.1l3.1,4.9v.3l-4.2,10.2c-.1.3-.6.3-.7,0l-6.1-10.2v-.3l2.2-4.9c0,0,.2-.2.4-.2h4.9c.1,0,.3,0,.4.2"/>
  <path class="cls-5" d="M232.9,90.5c1.7-1.4,9.8-.5,9.8-.5,0,0-.2,4.9-1.4,7.3,0,0-3.5,1.4-6.5.3,0,0-2.7-6.5-2-7.1h0Z"/>
  <path class="cls-25" d="M209,112.4c-3.5-44.1,4.5-42.6,4.5-42.6l13.9,20.7,2.2,25.6s-20.4-1.5-20.6-3.7h0Z"/>
  <path class="cls-25" d="M269.7,109.2c-1.3-44.2-9.3-41.8-9.3-41.8l-12,22.1.6,25.7s20.7-3.7,20.7-6h0Z"/>
  <path class="cls-31" d="M221.7,67.6c2-.2,3.5-2,3.3-4.1-.2-2-2-3.5-4.1-3.3-2,.2-3.5,2-3.3,4.1.2,2,2,3.5,4.1,3.3Z"/>
  <path class="cls-31" d="M250.5,66c2-.2,3.5-2,3.3-4.1-.2-2-2-3.5-4.1-3.3-2,.2-3.5,2-3.3,4.1.2,2,2,3.5,4.1,3.3Z"/>
  <path class="cls-20" d="M229.8,66.2s6-6.5,12.7-.7"/>
  <path class="cls-22" d="M234.3,67.1v1.7"/>
  <path class="cls-22" d="M238.2,66.9v1.7"/>
  <path class="cls-22" d="M222.5,74.9s12.8,2.5,27.6-2.6"/>
  <rect class="cls-2" x="204.3" y="38" width="65.2" height="77.9" rx=".9" ry=".9" transform="translate(-3.7 12.5) rotate(-3)"/>
  <path class="cls-4" d="M235.7,44c3.3-.3,5.7-3.3,5.4-6.6s-3.3-5.7-6.6-5.4-5.7,3.3-5.4,6.6,3.3,5.7,6.6,5.4Z"/>
  <path class="cls-14" d="M39.6,57l52.3,3.7-2.8,40.4c-.5,7.8-7.1,13.7-14.5,13.2l-38.7-2.7,3.8-54.5h0Z"/>
  <path class="cls-9" d="M74,113.1l1-14.2,14.2,1"/>
  <path class="cls-1" d="M65.9,64.3c3.3.2,6.2-2.3,6.4-5.6.2-3.3-2.3-6.2-5.6-6.4-3.3-.2-6.2,2.3-6.4,5.6s2.3,6.2,5.6,6.4Z"/>
  <line class="cls-29" x1="54.2" y1="83.7" x2="74.9" y2="85.1"/>
  <line class="cls-29" x1="58.8" y1="92.5" x2="70.4" y2="75.3"/>
  <line class="cls-29" x1="59.9" y1="75" x2="69" y2="93.7"/>
  <path class="cls-33" d="M28.7,97c-10.5,2-17.4,12.2-15.4,22.7s12.2,17.4,22.7,15.4,17.4-12.2,15.4-22.7-12.2-17.4-22.7-15.4Z"/>
  <path class="cls-15" d="M35,129.6c7.5-1.4,12.4-8.7,11-16.1-1.4-7.5-8.7-12.4-16.1-11-7.5,1.4-12.4,8.7-11,16.1,1.4,7.5,8.7,12.4,16.1,11Z"/>
  <path class="cls-24" d="M38.1,118.6c-2.2,3.3-6.7,4.2-10.1,1.9"/>
  <path class="cls-30" d="M26.4,117.1c1.3-.2,2.1-1.5,1.8-2.7-.2-1.3-1.5-2.1-2.7-1.8-1.3.2-2.1,1.5-1.8,2.7.2,1.3,1.5,2.1,2.7,1.8Z"/>
  <path class="cls-30" d="M38.3,114.9c1.3-.2,2.1-1.5,1.8-2.7-.2-1.3-1.5-2.1-2.7-1.8-1.3.2-2.1,1.5-1.8,2.7.2,1.3,1.5,2.1,2.7,1.9h0Z"/>
  <path class="cls-27" d="M268.3,411.8l52.3,3.7-2.8,40.4c-.5,7.8-7.1,13.7-14.5,13.2l-38.7-2.7,3.8-54.5h-.1Z"/>
  <path class="cls-10" d="M302.7,467.9l1-14.2,14.2,1"/>
  <line class="cls-28" x1="279.5" y1="428.2" x2="309.2" y2="430.2"/>
  <line class="cls-28" x1="278.7" y1="439.9" x2="308.4" y2="442"/>
  <line class="cls-28" x1="277.8" y1="451.6" x2="294.4" y2="452.8"/>
  <path class="cls-5" d="M294.6,419.1c3.3.2,6.2-2.3,6.4-5.6.2-3.3-2.3-6.2-5.6-6.4-3.3-.2-6.2,2.3-6.4,5.6-.2,3.3,2.3,6.2,5.6,6.4Z"/>
  <path class="cls-33" d="M315.2,489.9c-.4,0-3.6-.4-7.2.3-3.3.7-5.9,2-7.8,4.1-.3.3-.6.7-.9,1.1-.3-.2-.7-.4-1-.5-2.6-1.2-5.7-1.5-9.1-.8-3.4.7-5.9,2.1-6.4,2.4-2,1.2-3.1,3.5-2.7,5.8.2,1,1.9,9.7,8.8,12.9,2.6,1.2,5.7,1.5,9,.8l.3,1.5c.6,3,3.6,5,6.6,4.4s5-3.6,4.4-6.6l-.3-1.6c3.3-.7,5.9-2.1,7.8-4.1,5.1-5.5,3.5-14.3,3.3-15.3-.5-2.3-2.4-4.1-4.7-4.4h-.1Z"/>
  <path class="cls-6" d="M301.6,508.7s-1.2-6.8-5.6-8.8c-4.4-2.1-10.4,1.4-10.4,1.4,0,0,1.2,6.8,5.6,8.8,4.4,2.1,10.4-1.4,10.4-1.4Z"/>
  <path class="cls-7" d="M293.6,505l8,3.7"/>
  <path class="cls-6" d="M302.4,508.4s-1.4-6.7,1.9-10.3c3.3-3.6,10.1-2.6,10.1-2.6,0,0,1.4,6.7-1.9,10.3-3.3,3.6-10.1,2.6-10.1,2.6Z"/>
  <path class="cls-7" d="M308.4,501.9l-6,6.5"/>
  <path class="cls-7" d="M301.9,507.7l1.8,8.7"/>
  <path class="cls-1" d="M35.6,424.9l52.4-1.8,1.4,40.4c.3,7.8-5.6,14.4-13.1,14.6l-38.8,1.4s-1.9-54.6-1.9-54.6Z"/>
  <path class="cls-11" d="M75.7,477.1l-.5-14.2,14.2-.5"/>
  <path class="cls-3" d="M62.5,429.5c3.3-.1,5.9-2.9,5.8-6.2,0-3.3-2.9-5.9-6.2-5.8s-5.9,2.9-5.8,6.2c0,3.3,2.9,5.9,6.2,5.8Z"/>
  <path class="cls-12" d="M49.1,468.2c5.6-1.4,9.1-7.8,9.1-13.8s-.6-5.3-2.2-7.3h0c-2.7-3.2-8-.4-7.1,3.8.6,2.7,2.2,5.2,4.4,6.6,3.8,2.4,9.1,1.9,12.6-1.2,3.4-3,4.9-8.2,3.9-12.7-.4-1.7-1-3.3-2.3-4.4-1.2-1.1-3.1-1.5-4.5-.6-2.2,1.4-1.9,4.9-.7,7.3,1.9,3.6,5.5,6.1,9.4,6.7,3.9.5,8-1,10.7-3.9"/>
  <g>
    <path class="cls-33" d="M62.6,375c2.9-3.6,3-8.7,2.9-9.9,0-2.1-1.2-3.9-3.1-4.9-.4-.2-2.1-1-4.1-1.4-2.1-.5-3.9-.5-5.6-.1-.4-.4-.8-.8-1.3-1.1-.5-.3-1.1-.5-1.7-.7-2.4-.5-4.8.5-6,2.6-.5.8-.9,1.7-1.3,2.6-7.7-.5-15,5.2-16.9,13.5-2,9.2,3.3,18.2,11.8,20,1.1.2,2.2.3,3.3.3,1,.5,2,.8,3.1,1.1,8.5,1.9,17.1-4.1,19.1-13.2.7-3,.5-6-.3-8.9h0Z"/>
    <path class="cls-19" d="M49.9,369.4c-1.1-.2-2.2-.3-3.3-.1-.9-.6-1.9-1.1-3.1-1.3-5.5-1.2-11.1,2.8-12.4,9-1.4,6.2,2,12.2,7.5,13.4,1.1.2,2.2.3,3.3.1.9.6,1.9,1.1,3.1,1.3,5.5,1.2,11.1-2.8,12.4-9,1.4-6.2-2-12.2-7.5-13.4Z"/>
    <path class="cls-26" d="M46.6,371.1s-.4-4.8,1.9-8.6"/>
    <path class="cls-6" d="M57.3,372.4c-2.8,1.8-7.6-.5-7.6-.5,0,0,0-5.3,2.7-7.1,2.8-1.8,7.6.5,7.6.5,0,0,0,5.3-2.7,7.1Z"/>
  </g>
</svg>