<?xml version="1.0" encoding="utf-8"?>
<!-- Generator: Adobe Illustrator 26.0.1, SVG Export Plug-In . SVG Version: 6.00 Build 0)  -->
<svg version="1.1" id="Layer_1" xmlns="http://www.w3.org/2000/svg" xmlns:xlink="http://www.w3.org/1999/xlink" x="0px" y="0px"
	 viewBox="0 0 84 84" style="enable-background:new 0 0 84 84;" xml:space="preserve">
<style type="text/css">
	.st0{fill:#D68D80;}
	.st1{fill:none;stroke:#E9D8D3;stroke-width:4;stroke-linecap:round;stroke-linejoin:round;}
	.st2{fill:#B97265;}
</style>
<circle class="st0" cx="42.5" cy="41.5" r="23.8"/>
<g id="Layer_2_00000173162015755107698250000014121439097173007531_">
	<g id="Layer_3">
		<circle class="st1" cx="42" cy="42" r="40"/>
		<path class="st2" d="M68,41.1v0.7c0,0.2,0,0.4,0,0.6c0,0.4,0,0.8,0,1.2c-0.1,1.2-0.3,2.5-0.6,3.7c-2.2,9.3-9.4,16.5-18.6,18.9
			c-1.1,0.3-2.2,0.5-3.3,0.6c-0.5,0.1-1.1,0.1-1.6,0.1c-0.1,0-0.3,0-0.4,0h-0.2c-1.5,0-2.9,0-4.4-0.2c-2-0.3-3.9-0.8-5.8-1.5
			c-10.7-4.2-17.3-15-16-26.5c0.1-1.4,0.4-2.7,0.8-4c1.6-5.9,5.3-10.9,10.3-14.3c3.8-2.6,8.3-4.2,13-4.4c1.6-0.1,3.1,0,4.7,0.2
			c1.6,0.2,3.1,0.6,4.6,1.1c6.2,2,11.4,6.3,14.5,12.1c1.9,3.4,3,7.3,3.1,11.2C68,40.8,68,40.9,68,41.1z M42.8,63.3
			c0.3,0,1,0,1.5-0.1s1.1-0.1,1.6-0.2c1.3-0.2,2.6-0.5,3.8-1c0.3-0.1,0.7-0.2,1-0.4c0.2-0.1,0.2-0.1,0.1-0.2
			c-0.1-0.4-0.2-0.8-0.2-1.2c-0.4-2.2-1-4.4-1.6-6.6c-0.8-2.8-1.7-5.6-2.7-8.3c-0.1-0.2-0.1-0.3-0.4-0.2c-1.2,0.4-2.4,0.9-3.6,1.5
			c-1.7,0.8-3.4,1.8-5,2.9c-1.4,1-2.7,2.1-3.9,3.3c-0.5,0.5-1,1-1.4,1.5c-0.8,1-1.6,2-2.3,3.1c-0.2,0.4-0.4,0.7-0.6,1.1
			c-0.1,0.1-0.1,0.2,0,0.2c0.3,0.2,0.6,0.5,0.9,0.7c1.8,1.2,3.8,2.2,5.8,2.9C38.2,63,40.5,63.3,42.8,63.3z M21.7,40.9h-0.8
			c-0.2,0-0.2,0-0.2,0.2c0,0.3,0,0.7,0,1s0,0.8,0.1,1.2c0.1,0.7,0.1,1.4,0.3,2.1c0.3,1.8,0.9,3.6,1.7,5.2c0.7,1.5,1.5,2.9,2.5,4.2
			c0.3,0.4,0.6,0.8,1,1.2c0.1,0.1,0.1,0.1,0.2,0s0.2-0.4,0.4-0.6c0.6-1,1.4-1.9,2.1-2.9s1.4-1.7,2.2-2.5s1.6-1.5,2.4-2.3
			c0.9-0.7,1.7-1.4,2.7-2.1c1.4-1,2.9-1.9,4.5-2.7c1.3-0.6,2.6-1.1,4-1.5c0.2-0.1,0.2-0.1,0.1-0.3c-0.5-1-1-2.1-1.5-3.1
			c-0.1-0.1-0.1-0.3-0.2-0.4s-0.3,0-0.4,0.1c-1.7,0.5-3.3,0.9-5,1.2c-1.5,0.3-3,0.6-4.6,0.8c-0.9,0.1-1.8,0.3-2.7,0.4
			s-1.5,0.2-2.3,0.2s-1.7,0.1-2.5,0.2c-0.6,0-1.1,0.1-1.7,0.1C23.1,40.8,22.4,40.9,21.7,40.9z M21.8,37.1h0.6c0.9,0,1.7,0,2.6-0.1
			l1,0c0.8-0.1,1.5-0.1,2.3-0.2c0.6-0.1,1.2-0.1,1.8-0.2c0.8-0.1,1.6-0.2,2.5-0.3c1.1-0.2,2.1-0.3,3.2-0.5s2-0.4,3-0.6l2.3-0.6
			c0.2,0,0.2,0,0.1-0.2s-0.3-0.6-0.5-0.9c-0.9-1.5-1.8-3-2.7-4.5s-1.8-2.8-2.7-4.2c-0.6-0.9-1.3-1.8-1.9-2.7
			c-0.1-0.2-0.1-0.2-0.3-0.1c-0.4,0.2-0.8,0.4-1.2,0.6c-1.5,0.8-2.9,1.8-4.1,3c-1.8,1.7-3.3,3.6-4.5,5.8c-0.7,1.3-1.3,2.8-1.7,4.2
			c-0.1,0.5-0.2,0.9-0.4,1.4c0,0.2,0,0.2,0.2,0.2L21.8,37.1z M42.5,19.8c-0.6,0-1.1,0-1.7,0c-0.6,0-1.1,0.1-1.7,0.2s-1,0.2-1.5,0.3
			c-0.2,0-0.2,0.1-0.1,0.2l0,0c1,1.3,1.9,2.7,2.8,4c0.8,1.2,1.6,2.4,2.3,3.6c0.7,1.2,1.5,2.4,2.1,3.6l0.6,1.2
			c0.1,0.2,0.1,0.2,0.3,0.1l1.2-0.5c1.3-0.5,2.5-1.2,3.7-1.9c1-0.6,2-1.3,3-2.1c0.9-0.7,1.7-1.5,2.5-2.3c0.3-0.3,0.5-0.6,0.8-1
			c0.1-0.1,0.1-0.1,0-0.2c-0.7-0.6-1.5-1.2-2.2-1.7c-1.4-0.9-2.8-1.7-4.3-2.2c-1.8-0.7-3.7-1.1-5.6-1.3
			C43.9,19.7,43.2,19.7,42.5,19.8z M64.3,40.9c0-0.2,0-0.3,0-0.5c0-0.6-0.1-1.2-0.2-1.8c-0.2-1.3-0.5-2.6-0.9-3.8
			c-0.4-1.3-1-2.6-1.7-3.8c-0.6-1-1.3-2.1-2-3c-0.1-0.2-0.2-0.2-0.3,0c-0.4,0.5-0.7,0.9-1.2,1.3c-0.7,0.7-1.4,1.4-2.1,2
			c-1.8,1.5-3.7,2.7-5.8,3.8c-0.9,0.5-1.8,0.9-2.8,1.3c-0.2,0.1-0.2,0.1-0.1,0.3s0.2,0.5,0.3,0.7c0.3,0.6,0.6,1.3,0.9,1.9
			c0.2,0.4,0.4,0.8,0.5,1.3c0.1,0.2,0.1,0.2,0.2,0.2c0.6-0.1,1.1-0.1,1.7-0.2c0.7-0.1,1.5-0.1,2.2-0.1c1.5,0,2.9,0,4.3,0.1l1.4,0.1
			c0.7,0.1,1.4,0.2,2.1,0.2c1,0.1,2,0.3,2.9,0.5h0.2c0.1,0,0.1,0,0.1-0.1S64.3,41,64.3,40.9z M54.7,59.5c0.1,0,0.2,0,0.2-0.1
			c1-0.7,2-1.5,2.9-2.4c0.5-0.5,0.9-1,1.4-1.5c1-1.1,1.8-2.4,2.5-3.7c0.7-1.3,1.3-2.7,1.7-4.1c0.3-0.8,0.5-1.7,0.6-2.5
			c0-0.2,0-0.2-0.1-0.2c-0.1,0-0.1,0-0.2-0.1c-0.7-0.2-1.4-0.4-2-0.5S60,44.1,59.1,44l-1.3-0.1c-0.5,0-1.1-0.1-1.6-0.1s-1.3,0-2,0
			c-0.5,0-0.9,0-1.4,0.1s-1.1,0.1-1.6,0.2L50.6,44c-0.1,0-0.1,0-0.1,0.2c0,0,0,0.1,0,0.1c0.5,1.4,1,2.9,1.5,4.3
			c0.7,2.3,1.3,4.6,1.9,6.9c0.3,1.2,0.5,2.4,0.8,3.6C54.6,59.3,54.6,59.4,54.7,59.5z"/>
		<path class="st0" d="M68,42.5L68,42.5c0-0.2,0-0.4,0-0.6V42.5z"/>
		<path class="st0" d="M68,40.6L68,40.6v0.5C68,40.9,68,40.8,68,40.6z"/>
		<path class="st0" d="M42.8,63.3c-2.3,0-4.6-0.3-6.8-1c-2.1-0.6-4-1.6-5.8-2.8c-0.3-0.2-0.6-0.4-0.9-0.7c-0.1-0.1-0.1-0.1,0-0.2
			c0.2-0.4,0.4-0.8,0.6-1.1c0.7-1.1,1.5-2.1,2.3-3.1c0.5-0.5,0.9-1,1.4-1.5c1.2-1.2,2.5-2.3,3.9-3.3c1.6-1.1,3.3-2.1,5-2.9
			c1.2-0.6,2.4-1.1,3.6-1.5c0.3-0.1,0.3-0.1,0.4,0.2c1,2.7,1.9,5.5,2.7,8.3c0.6,2.2,1.1,4.4,1.6,6.6c0.1,0.4,0.2,0.8,0.2,1.2
			c0,0.2,0,0.2-0.1,0.2c-0.3,0.1-0.7,0.3-1,0.4c-1.2,0.4-2.5,0.8-3.8,1c-0.5,0.1-1.1,0.2-1.6,0.2S43.2,63.3,42.8,63.3z"/>
		<path class="st0" d="M21.7,40.9c0.7,0,1.5,0,2.2,0c0.6,0,1.1,0,1.7-0.1c0.8-0.1,1.7-0.1,2.5-0.2s1.5-0.1,2.3-0.2s1.8-0.2,2.7-0.4
			c1.5-0.2,3.1-0.5,4.6-0.8c1.7-0.4,3.3-0.8,5-1.2c0.1,0,0.3-0.1,0.4-0.1s0.2,0.2,0.2,0.4c0.5,1,1,2,1.5,3.1
			c0.1,0.2,0.1,0.2-0.1,0.3c-1.4,0.4-2.7,0.9-4,1.5c-1.6,0.7-3.1,1.6-4.5,2.6c-0.9,0.6-1.8,1.3-2.7,2.1c-0.8,0.7-1.7,1.5-2.4,2.3
			s-1.5,1.6-2.2,2.5s-1.5,1.9-2.1,2.9c-0.1,0.2-0.2,0.4-0.4,0.6s-0.1,0.1-0.2,0c-0.4-0.4-0.7-0.8-1-1.2c-1-1.3-1.8-2.7-2.5-4.2
			c-0.8-1.7-1.3-3.5-1.6-5.3c-0.1-0.7-0.2-1.4-0.3-2.1c0-0.4-0.1-0.8-0.1-1.2s0-0.7,0-1c0-0.2,0-0.2,0.2-0.2H21.7z"/>
		<path class="st0" d="M21.8,37.1h-0.5c-0.2,0-0.2,0-0.2-0.2c0.1-0.5,0.2-0.9,0.4-1.4c0.4-1.5,1-2.9,1.7-4.2
			c1.2-2.2,2.7-4.1,4.5-5.8c1.2-1.2,2.6-2.2,4.1-3c0.4-0.2,0.8-0.4,1.2-0.6c0.2-0.1,0.2-0.1,0.3,0.1c0.6,0.9,1.3,1.8,1.9,2.7
			c0.9,1.4,1.8,2.8,2.7,4.2s1.8,3,2.7,4.5c0.2,0.3,0.4,0.6,0.5,0.9s0.1,0.2-0.1,0.2L38.8,35c-1,0.2-2,0.4-3,0.6s-2.1,0.4-3.2,0.5
			c-0.8,0.1-1.6,0.2-2.5,0.3c-0.6,0.1-1.2,0.1-1.8,0.2c-0.8,0.1-1.5,0.1-2.3,0.2l-1,0c-0.9,0-1.7,0.1-2.6,0.1L21.8,37.1z"/>
		<path class="st0" d="M42.5,19.8c0.7,0,1.4,0,2.1,0.1c1.9,0.2,3.8,0.6,5.6,1.3c1.5,0.6,3,1.3,4.3,2.2c0.8,0.5,1.5,1.1,2.2,1.7
			c0.1,0.1,0.1,0.1,0,0.2c-0.2,0.3-0.5,0.6-0.8,1c-0.7,0.8-1.6,1.5-2.4,2.2c-1,0.8-2,1.4-3,2.1c-1.2,0.7-2.4,1.3-3.7,1.9L45.7,33
			c-0.2,0.1-0.2,0.1-0.3-0.1l-0.6-1.2c-0.7-1.2-1.4-2.4-2.1-3.6s-1.5-2.4-2.3-3.6c-0.9-1.3-1.8-2.7-2.8-4l0,0
			c-0.1-0.1-0.1-0.2,0.1-0.2c0.5-0.1,1-0.2,1.5-0.3s1.1-0.1,1.7-0.2C41.4,19.8,41.9,19.8,42.5,19.8z"/>
		<path class="st0" d="M64.3,40.9c0,0.1,0,0.2,0,0.3s0,0.1-0.1,0.1h-0.2c-1-0.2-2-0.3-2.9-0.5c-0.7-0.1-1.4-0.2-2.1-0.2l-1.4-0.1
			c-1.5-0.1-2.9-0.1-4.3-0.1c-0.7,0-1.5,0-2.2,0.1c-0.6,0-1.1,0.1-1.7,0.2c-0.1,0-0.2,0-0.2-0.2c-0.2-0.4-0.4-0.8-0.5-1.3
			c-0.3-0.6-0.6-1.3-0.9-1.9c-0.1-0.2-0.2-0.5-0.3-0.7s-0.1-0.2,0.1-0.3c0.9-0.4,1.9-0.8,2.8-1.3c2-1,4-2.3,5.8-3.8
			c0.8-0.6,1.5-1.3,2.1-2c0.4-0.4,0.8-0.9,1.2-1.3c0.1-0.2,0.1-0.2,0.3,0c0.7,0.9,1.4,2,2,3c0.7,1.2,1.3,2.5,1.7,3.8
			c0.4,1.2,0.7,2.5,0.9,3.8c0.1,0.6,0.1,1.2,0.2,1.8C64.3,40.6,64.3,40.7,64.3,40.9z"/>
		<path class="st0" d="M54.7,59.5c0-0.1-0.1-0.3-0.1-0.4c-0.2-1.2-0.5-2.4-0.8-3.6c-0.5-2.3-1.2-4.6-1.9-6.9
			c-0.5-1.5-0.9-2.9-1.5-4.3c0,0,0-0.1,0-0.1c0-0.1,0-0.1,0.1-0.2l0.6-0.1c0.5-0.1,1.1-0.1,1.6-0.2s0.9-0.1,1.4-0.1c0.7,0,1.3,0,2,0
			s1.1,0.1,1.6,0.1l1.3,0.1c0.8,0.1,1.7,0.2,2.5,0.4s1.4,0.3,2,0.5c0.1,0,0.1,0,0.2,0.1c0.2,0,0.2,0,0.1,0.2
			c-0.1,0.9-0.3,1.7-0.6,2.6c-0.4,1.4-1,2.8-1.7,4.1c-0.7,1.3-1.6,2.6-2.5,3.7c-0.4,0.5-0.9,1-1.4,1.5c-0.9,0.9-1.9,1.7-2.9,2.4
			C54.8,59.5,54.8,59.5,54.7,59.5z"/>
		<path class="st0" d="M43.9,67c-0.1,0-0.3,0-0.4,0C43.7,67,43.8,67,43.9,67z"/>
	</g>
</g>
</svg>
