<?xml version="1.0" encoding="utf-8"?>
<!-- Generator: Adobe Illustrator 26.0.1, SVG Export Plug-In . SVG Version: 6.00 Build 0)  -->
<svg version="1.1" id="Layer_1" xmlns="http://www.w3.org/2000/svg" xmlns:xlink="http://www.w3.org/1999/xlink" x="0px" y="0px"
	 viewBox="0 0 84 84" style="enable-background:new 0 0 84 84;" xml:space="preserve">
<style type="text/css">
	.st0{fill:#817AAD;}
	.st1{fill:none;stroke:#E9D8D3;stroke-width:4;stroke-linecap:round;stroke-linejoin:round;}
	.st2{fill:#6B6590;}
	.st3{fill:#FFFFFF;}
</style>
<g id="Layer_3">
	<path class="st0" d="M58.4,59.6H27.5c-0.9,0-1.7-0.8-1.7-1.7V25.5c0-0.9,0.8-1.7,1.7-1.7h30.9c0.9,0,1.7,0.8,1.7,1.7v32.4
		C60.1,58.8,59.3,59.6,58.4,59.6z"/>
	<circle class="st1" cx="42" cy="42" r="40"/>
	<path class="st2" d="M42.4,63.7c-3.9-0.2-7.9-0.1-11.7-0.6c-5.3-0.6-9.3-4.9-9.6-10.2c-0.3-7-0.4-14-0.1-20.9S25.1,21,32,20.5
		c7.3-0.4,14.6-0.3,21.9,0.2c5.6,0.4,9.9,5,9.9,10.6c0.2,6.9,0.4,13.9,0,20.8s-5.1,11.2-12.1,11.4C48.6,63.6,42.4,63.7,42.4,63.7z
		 M60,42L60,42c0-3.4,0.1-6.8,0-10.1c-0.2-4.1-2.7-7.1-6.8-7.3c-6.9-0.4-13.8-0.5-20.6-0.1c-4.8,0.2-7.5,3-7.6,7.2
		c-0.2,6.9-0.2,13.7,0,20.6c-0.1,3.8,2.9,6.9,6.7,7c6.9,0.3,13.9,0.5,20.8,0.2c5.2-0.3,7.4-3,7.7-8.2C60.1,48.1,60,45.1,60,42z"/>
	<path class="st0" d="M60,42c0,3.1,0.1,6.1,0,9.2c-0.3,5.2-2.5,8-7.7,8.2c-6.9,0.3-13.9,0.2-20.8-0.2c-3.8-0.1-6.7-3.2-6.7-7
		c-0.2-6.9-0.2-13.7,0-20.6c0.1-4.2,2.9-7,7.6-7.2c6.8-0.3,13.8-0.2,20.6,0.1c4.1,0.2,6.6,3.2,6.8,7.3C60.1,35.3,59.9,38.6,60,42
		L60,42z M42.4,53.1c6.2,0,11.1-5.1,11-11.2c0-6.2-5.1-11.1-11.2-11c-6.1,0-11,5-11,11.1C31.2,48,36.2,53.1,42.4,53.1z M56.6,30.4
		c0-1.4-1.1-2.6-2.6-2.6c-1.4-0.1-2.6,1-2.7,2.3c0,0,0,0.1,0,0.1c-0.1,1.4,1,2.7,2.5,2.8c0,0,0.1,0,0.1,0
		C55.3,32.9,56.5,31.8,56.6,30.4z"/>
	<path class="st3" d="M42.4,53.1c-6.2,0-11.1-5.1-11.1-11.2s5.1-11.1,11.2-11.1c6.2,0,11.1,5.1,11.1,11.2c0,0,0,0,0,0
		C53.5,48.1,48.5,53,42.4,53.1z M42.4,49.1c4,0,7.2-3.2,7.2-7.2s-3.2-7.2-7.2-7.2s-7.2,3.2-7.2,7.2c0,0,0,0,0,0.1
		C35.2,45.9,38.4,49.1,42.4,49.1L42.4,49.1z"/>
	<path class="st3" d="M56.6,30.4c-0.1,1.4-1.2,2.5-2.7,2.6c-1.4,0-2.6-1.2-2.6-2.7c0,0,0-0.1,0-0.1c0-1.4,1.2-2.5,2.6-2.5
		c0,0,0.1,0,0.1,0C55.4,27.8,56.6,29,56.6,30.4z"/>
	<path class="st0" d="M42.3,49.1c-4,0-7.2-3.3-7.2-7.3c0-4,3.3-7.2,7.3-7.2c4,0,7.2,3.2,7.2,7.2c0,4-3.2,7.2-7.1,7.3
		C42.4,49.1,42.4,49.1,42.3,49.1z"/>
</g>
</svg>
