<?xml version="1.0" encoding="utf-8"?>
<!-- Generator: Adobe Illustrator 26.0.1, SVG Export Plug-In . SVG Version: 6.00 Build 0)  -->
<svg version="1.1" id="Layer_1" xmlns="http://www.w3.org/2000/svg" xmlns:xlink="http://www.w3.org/1999/xlink" x="0px" y="0px"
	 viewBox="0 0 1232 327.5" style="enable-background:new 0 0 1232 327.5;" xml:space="preserve">
<style type="text/css">
	.st0{fill:#A3AD80;stroke:#858E69;stroke-width:8;stroke-linecap:round;stroke-linejoin:round;}
	.st1{fill:none;stroke:#858E69;stroke-width:8;stroke-linecap:round;stroke-linejoin:round;}
	.st2{fill:#C7996B;stroke:#B78558;stroke-width:8;stroke-linecap:round;stroke-linejoin:round;}
	.st3{fill:#794E2F;stroke:#503A2E;stroke-width:8;stroke-linecap:round;stroke-linejoin:round;}
	.st4{fill:#E9D8D3;stroke:#E3D3CE;stroke-width:8;stroke-linecap:round;stroke-linejoin:round;}
	.st5{fill:#F2BF98;stroke:#DEA881;stroke-width:8;stroke-linecap:round;stroke-linejoin:round;}
	.st6{fill:#D68D80;stroke:#B97265;stroke-width:8;stroke-linecap:round;stroke-linejoin:round;}
	.st7{fill:#F1E8E6;stroke:#E9D8D3;stroke-width:6;stroke-linecap:round;stroke-linejoin:round;}
	.st8{fill:#AB9D9A;stroke:#948885;stroke-width:6;stroke-linecap:round;stroke-linejoin:round;}
	.st9{fill:#794E2F;stroke:#DDA780;stroke-width:8;stroke-linecap:round;stroke-linejoin:round;}
	.st10{fill:#F1BE96;stroke:#DDA780;stroke-width:6;stroke-linecap:round;stroke-linejoin:round;}
	.st11{fill:#2F2A1B;}
	.st12{fill:none;stroke:#2F2A1B;stroke-width:8;stroke-linecap:round;stroke-linejoin:round;}
	.st13{fill:#ECB397;}
	.st14{fill:none;stroke:#DDA780;stroke-width:8;stroke-linecap:round;stroke-linejoin:round;}
	.st15{fill:none;stroke:#D7766F;stroke-width:6;stroke-linecap:round;stroke-linejoin:round;}
	.st16{fill:#A3AD80;stroke:#858E69;stroke-width:6;stroke-linecap:round;stroke-linejoin:round;}
	.st17{fill:#AFBED3;stroke:#9AADC7;stroke-width:8;stroke-linecap:round;stroke-linejoin:round;}
	.st18{fill:#794E2F;stroke:#503A2E;stroke-width:6;stroke-linecap:round;stroke-linejoin:round;}
	.st19{fill:none;stroke:#9AADC7;stroke-width:8;stroke-linecap:round;stroke-linejoin:round;}
	.st20{fill:#F7C65F;stroke:#EDB642;stroke-width:8;stroke-linecap:round;stroke-linejoin:round;}
	.st21{fill:none;stroke:#EDB642;stroke-width:8;stroke-linecap:round;stroke-linejoin:round;}
	.st22{fill:#EEB743;}
	.st23{fill:#F7C65F;}
</style>
<g id="Layer_2_00000165913710577108676250000003983872080422312601_">
	<g id="Layer_3">
		<path class="st0" d="M273.4,71.2c4.9,12.8-5.4,28.7-5.4,28.7s-18.4-4.8-23.3-17.5s5.4-28.7,5.4-28.7S268.5,58.4,273.4,71.2z"/>
		<path class="st0" d="M257.8,115.4C270.5,120.5,275,139,275,139s-16,10.2-28.7,5.1s-17.2-23.6-17.2-23.6S245.1,110.3,257.8,115.4z"
			/>
		<path class="st0" d="M259.1,162.6c13.4,2.7,21.2,20,21.2,20s-13.9,12.9-27.3,10.2s-21.2-20-21.2-20S245.7,159.9,259.1,162.6z"/>
		<path class="st0" d="M287,111.2c11.1-8,29.1-1.9,29.1-1.9s0,19-11.1,27s-29.1,1.9-29.1,1.9S275.9,119.2,287,111.2z"/>
		<path class="st0" d="M300.4,158.8c12.4-5.9,29,3.3,29,3.3s-3.4,18.7-15.7,24.6s-29-3.3-29-3.3S288.1,164.7,300.4,158.8z"/>
		<path class="st1" d="M267.5,100.8c0,0,20.5,58.2,16.5,138.2"/>
		<rect x="770" y="232" class="st2" width="125" height="16"/>
		<path class="st3" d="M751,145c-37-25-43.5-113.3-149.8-85.1c0,0-33.1-1.9-59.7,43.1S469,131,467,175
			c-1.7,36.9,26.3,41.9,43.5,37.6c-3.1-10.4,0.7-19.7,10.5-12.6c6,4.3-0.3,10.1-10.5,12.6c1.4,4.7,4,9,7.5,12.4
			c9.2,8.8,21.8,6.2,30.1,1.1c-5.1-7.7-5.2-16.3,3.9-15.1s4.9,9.6-3.9,15.1c3.3,5,8.6,9.6,14.9,10.9c32,7,45.2-19.1,54-22l57-6
			c0,0-3,25,38,26c8.7,0.2,14.7-1.1,18.5-3.2c-7.9-3.8-12.3-10-6.5-15.8c7.8-7.8,19.9,8.6,6.5,15.8c7.1,3.4,16.9,4.8,24.5,2.2
			c7.1-2.4,12.6-7.9,15-15c-9-3.3-15.3-10.9-10-15c9-7.1,13.8,4,10,15c8.9,3.3,20.5,2.5,26-10C807,184,788,170,751,145z"/>
		<rect x="758" y="146" class="st4" width="148" height="83"/>
		<path class="st5" d="M527,229c0,0-43-35-71.4-105.3c0,0-4-11.9,3.1-13s7.3,2,10.3,9.1s-6.6-10.8-0.3-14.3s9.8-0.2,14.2,8.8
			s-8.7-10.3-3-14.4s11,3.2,14.1,9.4s51.3,85.3,75.7,96.4"/>
		<path class="st6" d="M599.7,190h23.8c48.9,0,88.5,39.6,88.5,88.5l0,0c0,5.8-4.7,10.5-10.4,10.5c0,0,0,0,0,0h-154
			c-5.8,0-10.5-4.7-10.5-10.5c0,0,0,0,0-0.1v-25.8C537,218,565.1,190,599.7,190z"/>
		<rect x="3" y="289.5" class="st7" width="1226" height="35"/>
		<circle class="st5" cx="621.5" cy="215.5" r="16.5"/>
		<path class="st8" d="M630,284c0-13.8-15-25-39-25c-13.8,0-25,11.2-25,25H630z"/>
		<path class="st8" d="M579.7,284c0,0-1.5-20.6,12.9-20.8"/>
		<path class="st8" d="M597,264c0,0,10,7,11,19"/>
		<circle class="st9" cx="655.5" cy="103.5" r="6.5"/>
		<polyline class="st6" points="572.8,210.6 558.8,194.8 517.3,222 543,248 		"/>
		<path class="st10" d="M564,111c0,0,30-5.8,37-24c0,0,16.4,28,51.7,24c0,0,10.3,21,42.3,20c0,0,30,96-65,92
			C547,219.5,539,166,564,111z"/>
		<circle class="st11" cx="591" cy="153.9" r="5"/>
		<circle class="st11" cx="662.8" cy="159" r="5"/>
		<path class="st12" d="M613,167c0,0,14,10,29,1"/>
		<circle class="st13" cx="674" cy="190" r="19"/>
		<circle class="st13" cx="573" cy="178" r="19"/>
		<path class="st14" d="M564,111c0,0,30-5.8,37-24c0,0,16.4,28,51.7,24c0,0,10.3,21,42.3,20c0,0,30,96-65,92
			C547,219.5,539,166,564,111z"/>
		<line class="st15" x1="670.2" y1="185.7" x2="667.9" y2="189.3"/>
		<line class="st15" x1="680.1" y1="188.6" x2="677.8" y2="192.2"/>
		<line class="st15" x1="577.9" y1="174.8" x2="578.3" y2="179"/>
		<line class="st15" x1="567.7" y1="172.9" x2="568.1" y2="177.1"/>
		<path class="st16" d="M649.3,62.3c-7,5.3-19.1,1.3-19.1,1.3s-0.7-12.7,6.4-18s19.1-1.3,19.1-1.3S656.4,57,649.3,62.3z"/>
		<path class="st16" d="M610.7,62.3c7,5.3,19.1,1.3,19.1,1.3s0.7-12.7-6.4-18s-19.1-1.3-19.1-1.3S603.6,57,610.7,62.3z"/>
		<path class="st16" d="M629.7,63.7c0,0,6.3-8.7,13.3-9.7"/>
		<path class="st16" d="M628,63.7c0,0-6.3-8.7-13.3-9.7"/>
		<path class="st5" d="M723.1,262.8c4.7,15.8-13.2,17.6-38.2,19.7s-57.6-11.5-73.4-7.8s-11.4-9.5-2.5-10.9c0,0-18.7,8.8-19.4,2.8
			c-0.8-6.9,3-6.3,12-12.4c0,0-16.6,11.7-19.6,8.9c-5.2-4.8-2.9-20.6,31-22.4S718.4,247,723.1,262.8z"/>
		<rect x="341.8" y="264" class="st8" width="208.8" height="19.2"/>
		<rect x="341.8" y="114.2" class="st8" width="154.2" height="148.8"/>
		<ellipse class="st7" cx="413.7" cy="188.6" rx="11.8" ry="14.6"/>
		<path class="st7" d="M415.5,176.7c0,0-0.6-6.7,2.9-7.6"/>
		<polygon class="st2" points="795,284 778,284 815,139 833,139 		"/>
		<polygon class="st2" points="874,284 891,284 854,139 836,139 		"/>
		<polyline class="st17" points="978,284 948.5,284 946.5,252.5 944.5,221 976,221 974.5,221 1006,221 1004,252.5 1002,284 
			972.5,284 		"/>
		<path class="st6" d="M967.9,239.3c2.8-4.8,41-62.5,45.8-59.7s-25.7,64.9-28.5,69.7c-2.8,4.8-8.9,6.4-13.7,3.7
			C966.8,250.1,965.1,244,967.9,239.3L967.9,239.3z"/>
		<path class="st18" d="M958.1,256.3c2.6-4.6,8.4-6.1,13-3.5c4.6,2.6,6.1,8.4,3.5,13l0,0c-2.6,4.5-16.8,10.1-16.8,10.1
			S955.5,260.8,958.1,256.3z"/>
		<path class="st0" d="M965.2,263c-2.5-1.4-5.3-2.2-8.2-2.2c-0.5,6.2,0.8,15,0.8,15s8.3-3.3,13.4-6.9
			C969.8,266.5,967.7,264.4,965.2,263z"/>
		<polyline class="st19" points="978,284 948.5,284 946.5,252.5 944.5,221 976,221 974.5,221 1006,221 1004,252.5 1002,284 
			972.5,284 		"/>
		<path class="st17" d="M208,283H98c-8.8,0-16-7.2-16-16l0,0c0-8.8,7.2-16,16-16h110"/>
		<line class="st19" x1="199" y1="267" x2="82" y2="267"/>
		<line class="st19" x1="204" y1="283" x2="204" y2="251"/>
		<path class="st20" d="M91,212h110c8.8,0,16,7.2,16,16l0,0c0,8.8-7.2,16-16,16H91"/>
		<line class="st21" x1="100" y1="228" x2="217" y2="228"/>
		<line class="st21" x1="95" y1="212" x2="95" y2="244"/>
		<path class="st22" d="M804.2,72c-7-3.7-9.1-6.2-12.3-14.5c-0.4-1.1-1.2-1.9-2.3-2.3c-2.1-0.8-4.4,0.2-5.2,2.3
			c-3.2,8.2-5.3,10.8-12.3,14.5c-0.7,0.4-1.3,1-1.7,1.7c-1,2-0.3,4.4,1.7,5.4c7,3.7,9.2,6.2,12.3,14.5c0.6,1.5,2.1,2.6,3.7,2.6
			c1.7,0,3.1-1,3.7-2.6c3.2-8.2,5.3-10.8,12.3-14.5c0.7-0.4,1.3-1,1.7-1.7C806.9,75.5,806.2,73.1,804.2,72z M788.2,82.8
			c-1.7-2.8-3.9-5.3-6.6-7.2c2.7-1.9,4.9-4.4,6.6-7.2c1.7,2.8,3.9,5.3,6.5,7.2C792.1,77.5,789.8,79.9,788.2,82.8z"/>
		<path class="st23" d="M794.7,75.6c-2.6,1.9-4.9,4.4-6.5,7.2c-1.7-2.8-3.9-5.3-6.6-7.2c2.7-1.9,4.9-4.4,6.6-7.2
			C789.8,71.2,792.1,73.6,794.7,75.6z"/>
		<path class="st22" d="M498.2,17c-7-3.7-9.1-6.2-12.3-14.5c-0.4-1.1-1.2-1.9-2.3-2.3c-2.1-0.8-4.4,0.2-5.2,2.3
			c-3.2,8.2-5.3,10.8-12.3,14.5c-0.7,0.4-1.3,1-1.7,1.7c-1,2-0.3,4.4,1.7,5.4c7,3.7,9.2,6.2,12.3,14.5c0.6,1.5,2.1,2.6,3.7,2.6
			c1.7,0,3.1-1,3.7-2.6c3.2-8.2,5.3-10.8,12.3-14.5c0.7-0.4,1.3-1,1.7-1.7C500.9,20.5,500.2,18.1,498.2,17z M482.2,27.8
			c-1.7-2.8-3.9-5.3-6.6-7.2c2.7-1.9,4.9-4.4,6.6-7.2c1.7,2.8,3.9,5.3,6.5,7.2C486.1,22.5,483.8,24.9,482.2,27.8z"/>
		<path class="st23" d="M488.7,20.6c-2.6,1.9-4.9,4.4-6.5,7.2c-1.7-2.8-3.9-5.3-6.6-7.2c2.7-1.9,4.9-4.4,6.6-7.2
			C483.8,16.2,486.1,18.6,488.7,20.6z"/>
		<path class="st6" d="M288,236.7V218h-12v18.8c-10.3,2.7-17.5,12.1-17.5,22.7V283h47v-23.5C305.5,248.8,298.3,239.5,288,236.7z"/>
		<path class="st0" d="M276.9,137.1c0,0,8.1-10.1,20.1-14.1"/>
		<path class="st0" d="M252,129.7c0,0,14.5,0.6,23,9.2"/>
		<path class="st0" d="M284.7,183.4c0,0,11.4-10.9,22.4-10.6"/>
		<path class="st0" d="M254.3,177.8c0,0,14.9-2.4,26,4.8"/>
		<path class="st1" d="M1083.2,206.9c0,0-1.8-42.8,11-61.8"/>
		<path class="st20" d="M1092.8,205.5V196h-19v9.6c-12.2,4.1-20.5,15.5-20.5,28.4v50h60v-50C1113.3,221.1,1105,209.6,1092.8,205.5z"
			/>
		<circle class="st0" cx="1099.5" cy="131.5" r="13.5"/>
		<circle class="st0" cx="1104.5" cy="171.5" r="13.5"/>
		<circle class="st0" cx="1069.5" cy="157.5" r="13.5"/>
		<line class="st1" x1="1094.2" y1="168.3" x2="1117.2" y2="175.9"/>
		<line class="st1" x1="1094" y1="145" x2="1106" y2="121"/>
		<line class="st1" x1="1057" y1="152" x2="1083" y2="165"/>
		<path class="st0" d="M259,76.7c2.5,6.1,4.6,12.3,6.2,18.7"/>
	</g>
</g>
</svg>
