<svg xmlns="http://www.w3.org/2000/svg" viewBox="0 0 1232 327.5"><defs><style>.cls-1{fill:#c7996b;stroke:#b78558;}.cls-1,.cls-10,.cls-11,.cls-12,.cls-13,.cls-14,.cls-15,.cls-18,.cls-19,.cls-2,.cls-21,.cls-22,.cls-24,.cls-3,.cls-4,.cls-5,.cls-6,.cls-7,.cls-8,.cls-9{stroke-linecap:round;stroke-linejoin:round;}.cls-1,.cls-11,.cls-13,.cls-14,.cls-15,.cls-18,.cls-2,.cls-21,.cls-24,.cls-3,.cls-4,.cls-5,.cls-6,.cls-8{stroke-width:8px;}.cls-13,.cls-15,.cls-2,.cls-21,.cls-22,.cls-24{fill:none;}.cls-2,.cls-3,.cls-9{stroke:#858e69;}.cls-3,.cls-9{fill:#a3ad80;}.cls-12,.cls-18,.cls-4{fill:#794e2f;}.cls-12,.cls-4{stroke:#503a2e;}.cls-5{fill:#e9d8d3;stroke:#e3d3ce;}.cls-6{fill:#d68d80;stroke:#b97265;}.cls-7{fill:#f1e8e6;stroke:#e9d8d3;}.cls-10,.cls-12,.cls-19,.cls-22,.cls-7,.cls-9{stroke-width:6px;}.cls-8{fill:#f2bf98;stroke:#dea881;}.cls-10{fill:#ab9d9a;stroke:#948885;}.cls-11{fill:#afbed3;}.cls-11,.cls-13{stroke:#9aadc7;}.cls-14,.cls-17{fill:#f7c65f;}.cls-14,.cls-15{stroke:#edb642;}.cls-16{fill:#eeb743;}.cls-18,.cls-19,.cls-21{stroke:#dda780;}.cls-19{fill:#f1be96;}.cls-20{fill:#ecb397;}.cls-22{stroke:#d7766f;}.cls-23{fill:#2f2a1b;}.cls-24{stroke:#2f2a1b;}</style></defs><g id="Layer_30" data-name="Layer 30"><rect class="cls-1" x="770" y="233.48" width="125" height="16"/></g><g id="plant-r"><g id="plant-r-2" data-name="plant-r"><path class="cls-2" d="M1083.25,208.38s-1.85-42.78,11-61.84"/><circle class="cls-3" cx="1104.5" cy="172.98" r="13.5"/><line class="cls-2" x1="1094.2" y1="169.83" x2="1117.24" y2="177.46"/><circle class="cls-3" cx="1099.5" cy="132.98" r="13.5"/><line class="cls-2" x1="1094" y1="146.48" x2="1106" y2="122.48"/><circle class="cls-3" cx="1069.5" cy="158.98" r="13.5"/><line class="cls-2" x1="1057" y1="153.48" x2="1083" y2="166.48"/></g></g><g id="plant-l"><g id="plant-l-2" data-name="plant-l"><path class="cls-2" d="M267.5,102.28S288,160.48,284,240.48"/><path class="cls-3" d="M287.05,112.71c11.11-8,29.1-1.9,29.1-1.9s0,19-11.13,26.95-29.1,1.91-29.1,1.91S275.94,120.69,287.05,112.71Z"/><path class="cls-3" d="M276.92,138.67S285,128.48,297,124.48"/><path class="cls-3" d="M257.8,116.94c12.68,5.11,17.2,23.55,17.2,23.55s-16,10.16-28.72,5S229.07,122,229.07,122,245.12,111.83,257.8,116.94Z"/><path class="cls-3" d="M252,131.24s14.49.64,23,9.25"/><path class="cls-3" d="M300.41,160.32c12.35-5.88,29,3.28,29,3.28s-3.38,18.68-15.73,24.56-29-3.28-29-3.28S288.07,166.2,300.41,160.32Z"/><path class="cls-3" d="M284.68,184.88S296.08,174,307,174.24"/><path class="cls-3" d="M259.08,164.13c13.4,2.69,21.23,20,21.23,20S266.4,197.05,253,194.35s-21.23-20-21.23-20S245.67,161.43,259.08,164.13Z"/><path class="cls-3" d="M254.28,179.3s14.93-2.4,26,4.82"/><path class="cls-3" d="M273.41,72.67c4.94,12.75-5.43,28.65-5.43,28.65s-18.38-4.76-23.32-17.51,5.43-28.66,5.43-28.66S268.47,59.92,273.41,72.67Z"/><path class="cls-3" d="M259,78.24a129.28,129.28,0,0,1,6.17,18.7"/></g></g><g id="Layer_27" data-name="Layer 27"><path class="cls-4" d="M751,146.48c-37-25-43.53-113.27-149.76-85.14,0,0-33.07-1.86-59.66,43.14s-72.58,28-74.58,72c-1.68,37,26.31,41.91,43.45,37.64-3.13-10.37.66-19.7,10.55-12.64,6,4.29-.35,10.1-10.55,12.64A28.42,28.42,0,0,0,518,226.48c9.25,8.76,21.75,6.24,30.1,1.06-5.09-7.7-5.22-16.28,3.9-15.06s4.91,9.61-3.9,15.06c3.28,5,8.63,9.57,14.9,10.94,32,7,45.18-19.12,54-22l57-6s-3,25,38,26c8.74.21,14.68-1.11,18.51-3.18-7.87-3.78-12.33-10-6.51-15.82,7.77-7.77,19.9,8.59,6.51,15.82,7.07,3.4,16.9,4.82,24.49,2.18a23.89,23.89,0,0,0,15-15c-9-3.33-15.26-10.86-10-15,9-7.06,13.78,4,10,15,8.92,3.32,20.49,2.49,26-10C807,185.48,788,171.48,751,146.48Z"/></g><g id="Layer_26" data-name="Layer 26"><rect class="cls-5" x="758" y="147.48" width="148" height="83"/></g><g id="Layer_25" data-name="Layer 25"><path class="cls-6" d="M599.69,191.48h23.8A88.51,88.51,0,0,1,712,280v0a10.49,10.49,0,0,1-10.49,10.49h-154A10.49,10.49,0,0,1,537,280V254.17a62.69,62.69,0,0,1,62.69-62.69Z"/></g><g id="Layer_24" data-name="Layer 24"><rect class="cls-7" x="3" y="290.98" width="1226" height="35"/></g><g id="Layer_23" data-name="Layer 23"><circle class="cls-8" cx="621.5" cy="216.98" r="16.5"/></g><g id="arm"><g id="arm-2" data-name="arm"><path class="cls-8" d="M527,230.48s-43-35-71.39-105.34c0,0-4-11.92,3.11-13s7.31,2,10.33,9.13-6.65-10.81-.26-14.35,9.8-.25,14.25,8.84-8.66-10.31-3-14.38,11.05,3.22,14.08,9.4,51.33,88.31,75.67,99.38"/><polyline class="cls-6" points="572.82 212.15 558.82 196.28 517.29 223.55 543 249.48"/></g></g><g id="leaf-r"><g id="leaf-r-2" data-name="leaf-r"><path class="cls-9" d="M649.35,63.84c-7,5.35-19.09,1.32-19.09,1.32s-.65-12.69,6.39-18,19.09-1.32,19.09-1.32S656.39,58.49,649.35,63.84Z"/><path class="cls-9" d="M629.74,65.16S636,56.48,643,55.48"/></g></g><g id="leaf-l"><g id="leaf-l-2" data-name="leaf-l"><path class="cls-9" d="M610.65,63.84c7,5.35,19.09,1.32,19.09,1.32s.65-12.69-6.39-18-19.09-1.32-19.09-1.32S603.61,58.49,610.65,63.84Z"/><path class="cls-9" d="M628,65.16s-6.26-8.68-13.26-9.68"/></g></g><g id="mouse"><g id="mouse-2" data-name="mouse"><path class="cls-10" d="M629,285.48c0-13.81-15-25-39-25a25,25,0,0,0-25,25Z"/><path class="cls-10" d="M578.68,285.48s-1.47-20.62,12.93-20.81"/><path class="cls-10" d="M596,265.48s10,7,11,19"/><path class="cls-8" d="M722.13,264.34c4.7,15.81-13.24,17.6-38.17,19.7s-57.56-11.47-73.41-7.77-11.44-9.51-2.49-10.9c0,0-18.68,8.83-19.39,2.77-.81-6.88,3-6.27,12-12.45,0,0-16.59,11.66-19.63,8.87-5.22-4.77-2.91-20.58,31-22.39S717.43,248.53,722.13,264.34Z"/></g></g><g id="Layer_18" data-name="Layer 18"><rect class="cls-10" x="341.76" y="265.48" width="208.85" height="19.22"/></g><g id="Layer_17" data-name="Layer 17"><rect class="cls-10" x="341.76" y="115.68" width="154.24" height="148.8"/></g><g id="Layer_16" data-name="Layer 16"><ellipse class="cls-7" cx="413.74" cy="190.09" rx="11.78" ry="14.55"/><path class="cls-7" d="M415.52,178.2s-.6-6.7,2.86-7.59"/></g><g id="Layer_15" data-name="Layer 15"><polygon class="cls-1" points="795 285.48 778 285.48 815 140.48 833 140.48 795 285.48"/></g><g id="Layer_14" data-name="Layer 14"><polygon class="cls-1" points="874 285.48 891 285.48 854 140.48 836 140.48 874 285.48"/></g><g id="Layer_13" data-name="Layer 13"><polyline class="cls-11" points="978 285.48 948.5 285.48 946.5 253.98 944.5 222.48 976 222.48 974.5 222.48 1006 222.48 1004 253.98 1002 285.48 972.5 285.48"/></g><g id="paintbrush"><path class="cls-6" d="M973.74,240.06c1.55-5.29,25.33-70.32,30.63-68.77s-9.89,69.11-11.44,74.41a10,10,0,1,1-19.19-5.64Z"/><path class="cls-12" d="M968.21,258.85a9.5,9.5,0,0,1,18.23,5.36c-1.48,5-13.93,13.73-13.93,13.73S966.74,263.89,968.21,258.85Z"/><path class="cls-3" d="M976.68,263.74a16.42,16.42,0,0,0-8.48-.21c.91,6.13,4.31,14.41,4.31,14.41s7.34-5.13,11.42-9.78A16.33,16.33,0,0,0,976.68,263.74Z"/></g><g id="Layer_11" data-name="Layer 11"><polyline class="cls-13" points="978 285.48 948.5 285.48 946.5 253.98 944.5 222.48 976 222.48 974.5 222.48 1006 222.48 1004 253.98 1002 285.48 972.5 285.48"/></g><g id="Layer_10" data-name="Layer 10"><path class="cls-11" d="M208,284.48H98a16,16,0,0,1-16-16h0a16,16,0,0,1,16-16H208"/><line class="cls-13" x1="199" y1="268.48" x2="82" y2="268.48"/><line class="cls-13" x1="204" y1="284.48" x2="204" y2="252.48"/></g><g id="Layer_9" data-name="Layer 9"><path class="cls-14" d="M91,213.48H201a16,16,0,0,1,16,16h0a16,16,0,0,1-16,16H91"/><line class="cls-15" x1="100" y1="229.48" x2="217" y2="229.48"/><line class="cls-15" x1="95" y1="213.48" x2="95" y2="245.48"/></g><g id="Layer_8" data-name="Layer 8"><path class="cls-16" d="M804.23,73.55c-7-3.66-9.15-6.23-12.33-14.47a4,4,0,0,0-7.47,0c-3.18,8.24-5.37,10.81-12.33,14.47a4,4,0,0,0,0,7.08c7,3.66,9.15,6.23,12.33,14.47a4,4,0,0,0,7.47,0c3.18-8.24,5.37-10.81,12.33-14.47a4,4,0,0,0,0-7.08ZM788.17,84.29a24.18,24.18,0,0,0-6.56-7.2,24.18,24.18,0,0,0,6.56-7.2,24,24,0,0,0,6.55,7.2A24,24,0,0,0,788.17,84.29Z"/><path class="cls-17" d="M794.72,77.09a24,24,0,0,0-6.55,7.2,24.18,24.18,0,0,0-6.56-7.2,24.18,24.18,0,0,0,6.56-7.2A24,24,0,0,0,794.72,77.09Z"/></g><g id="sparkle-l"><path class="cls-16" d="M482.17,42.66a4,4,0,0,1-3.74-2.56c-3.18-8.24-5.37-10.81-12.33-14.47a4,4,0,0,1,0-7.08c7-3.66,9.15-6.23,12.33-14.47a4,4,0,0,1,7.47,0c3.18,8.24,5.37,10.81,12.33,14.47a4,4,0,0,1,0,7.08c-7,3.66-9.15,6.23-12.33,14.47A4,4,0,0,1,482.17,42.66Z"/><path class="cls-17" d="M488.72,22.09a24,24,0,0,0-6.55,7.2,24.18,24.18,0,0,0-6.56-7.2,24.18,24.18,0,0,0,6.56-7.2A24,24,0,0,0,488.72,22.09Z"/></g><g id="Layer_6" data-name="Layer 6"><path class="cls-6" d="M288,238.26V219.48H276v18.78A23.51,23.51,0,0,0,258.5,261v23.5h47V261A23.51,23.51,0,0,0,288,238.26Z"/></g><g id="Layer_5" data-name="Layer 5"><path class="cls-14" d="M1092.75,207v-9.55h-19V207a30,30,0,0,0-20.5,28.45v50h60v-50A30,30,0,0,0,1092.75,207Z"/></g><g id="face"><circle class="cls-18" cx="655.5" cy="104.98" r="6.5"/><path class="cls-19" d="M564,112.48s30-5.85,37-24c0,0,16.37,28,51.68,24,0,0,10.32,21,42.32,20,0,0,30,96-65,92C547,221,539,167.48,564,112.48Z"/><circle class="cls-20" cx="674" cy="191.48" r="19"/><circle class="cls-20" cx="573" cy="179.48" r="19"/><path class="cls-21" d="M564,112.48s30-5.85,37-24c0,0,16.37,28,51.68,24,0,0,10.32,21,42.32,20,0,0,30,96-65,92C547,221,539,167.48,564,112.48Z"/><line class="cls-22" x1="670.18" y1="187.26" x2="667.93" y2="190.86"/><line class="cls-22" x1="680.07" y1="190.1" x2="677.82" y2="193.7"/><line class="cls-22" x1="577.86" y1="176.31" x2="578.26" y2="180.54"/><line class="cls-22" x1="567.74" y1="174.43" x2="568.14" y2="178.65"/></g><g id="eyes"><g id="eyes-2" data-name="eyes"><circle class="cls-23" cx="590.97" cy="155.45" r="4.97"/><circle class="cls-23" cx="662.85" cy="160.51" r="4.97"/></g></g><g id="mouth"><path id="mouth-2" data-name="mouth" class="cls-24" d="M613,168.48s14,10,29,1"/></g></svg>