<svg width="1232" height="328" viewBox="0 0 1232 328" fill="none" xmlns="http://www.w3.org/2000/svg">
<g id="landing-animation" clip-path="url(#clip0_204_109)">
<rect width="1232" height="327.5" fill="white"/>
<g id="plant-r">
<g id="plant-r_2">
<path id="Vector" d="M1083.25 206.86C1083.25 206.86 1081.4 164.08 1094.25 145.02" stroke="#858E69" stroke-width="8" stroke-linecap="round" stroke-linejoin="round"/>
<path id="Vector_2" d="M1104.5 184.96C1111.96 184.96 1118 178.916 1118 171.46C1118 164.004 1111.96 157.96 1104.5 157.96C1097.04 157.96 1091 164.004 1091 171.46C1091 178.916 1097.04 184.96 1104.5 184.96Z" fill="#A3AD80" stroke="#858E69" stroke-width="8" stroke-linecap="round" stroke-linejoin="round"/>
<path id="Vector_3" d="M1094.2 168.31L1117.24 175.94" stroke="#858E69" stroke-width="8" stroke-linecap="round" stroke-linejoin="round"/>
<path id="Vector_4" d="M1099.5 144.96C1106.96 144.96 1113 138.916 1113 131.46C1113 124.004 1106.96 117.96 1099.5 117.96C1092.04 117.96 1086 124.004 1086 131.46C1086 138.916 1092.04 144.96 1099.5 144.96Z" fill="#A3AD80" stroke="#858E69" stroke-width="8" stroke-linecap="round" stroke-linejoin="round"/>
<path id="Vector_5" d="M1094 144.96L1106 120.96" stroke="#858E69" stroke-width="8" stroke-linecap="round" stroke-linejoin="round"/>
<path id="Vector_6" d="M1069.5 170.96C1076.96 170.96 1083 164.916 1083 157.46C1083 150.004 1076.96 143.96 1069.5 143.96C1062.04 143.96 1056 150.004 1056 157.46C1056 164.916 1062.04 170.96 1069.5 170.96Z" fill="#A3AD80" stroke="#858E69" stroke-width="8" stroke-linecap="round" stroke-linejoin="round"/>
<path id="Vector_7" d="M1057 151.96L1083 164.96" stroke="#858E69" stroke-width="8" stroke-linecap="round" stroke-linejoin="round"/>
</g>
</g>
<g id="plant-l">
<g id="plant-l_2">
<path id="Vector_8" d="M267.5 100.76C267.5 100.76 288 158.96 284 238.96" stroke="#858E69" stroke-width="8" stroke-linecap="round" stroke-linejoin="round"/>
<path id="Vector_9" d="M287.05 111.19C298.16 103.19 316.15 109.29 316.15 109.29C316.15 109.29 316.15 128.29 305.02 136.24C293.89 144.19 275.92 138.15 275.92 138.15C275.92 138.15 275.94 119.17 287.05 111.19Z" fill="#A3AD80" stroke="#858E69" stroke-width="8" stroke-linecap="round" stroke-linejoin="round"/>
<g id="Vector_10">
<path d="M276.92 137.15C276.92 137.15 285 126.96 297 122.96Z" fill="#A3AD80"/>
<path d="M276.92 137.15C276.92 137.15 285 126.96 297 122.96" stroke="#858E69" stroke-width="8" stroke-linecap="round" stroke-linejoin="round"/>
</g>
<path id="Vector_11" d="M257.8 115.42C270.48 120.53 275 138.97 275 138.97C275 138.97 259 149.13 246.28 143.97C233.56 138.81 229.07 120.48 229.07 120.48C229.07 120.48 245.12 110.31 257.8 115.42Z" fill="#A3AD80" stroke="#858E69" stroke-width="8" stroke-linecap="round" stroke-linejoin="round"/>
<g id="Vector_12">
<path d="M252 129.72C252 129.72 266.49 130.36 275 138.97Z" fill="#A3AD80"/>
<path d="M252 129.72C252 129.72 266.49 130.36 275 138.97" stroke="#858E69" stroke-width="8" stroke-linecap="round" stroke-linejoin="round"/>
</g>
<path id="Vector_13" d="M300.41 158.8C312.76 152.92 329.41 162.08 329.41 162.08C329.41 162.08 326.03 180.76 313.68 186.64C301.33 192.52 284.68 183.36 284.68 183.36C284.68 183.36 288.07 164.68 300.41 158.8Z" fill="#A3AD80" stroke="#858E69" stroke-width="8" stroke-linecap="round" stroke-linejoin="round"/>
<g id="Vector_14">
<path d="M284.68 183.36C284.68 183.36 296.08 172.48 307 172.72Z" fill="#A3AD80"/>
<path d="M284.68 183.36C284.68 183.36 296.08 172.48 307 172.72" stroke="#858E69" stroke-width="8" stroke-linecap="round" stroke-linejoin="round"/>
</g>
<path id="Vector_15" d="M259.08 162.61C272.48 165.3 280.31 182.61 280.31 182.61C280.31 182.61 266.4 195.53 253 192.83C239.6 190.13 231.77 172.83 231.77 172.83C231.77 172.83 245.67 159.91 259.08 162.61Z" fill="#A3AD80" stroke="#858E69" stroke-width="8" stroke-linecap="round" stroke-linejoin="round"/>
<g id="Vector_16">
<path d="M254.28 177.78C254.28 177.78 269.21 175.38 280.28 182.6Z" fill="#A3AD80"/>
<path d="M254.28 177.78C254.28 177.78 269.21 175.38 280.28 182.6" stroke="#858E69" stroke-width="8" stroke-linecap="round" stroke-linejoin="round"/>
</g>
<path id="Vector_17" d="M273.41 71.15C278.35 83.9 267.98 99.8 267.98 99.8C267.98 99.8 249.6 95.04 244.66 82.29C239.72 69.54 250.09 53.63 250.09 53.63C250.09 53.63 268.47 58.4 273.41 71.15Z" fill="#A3AD80" stroke="#858E69" stroke-width="8" stroke-linecap="round" stroke-linejoin="round"/>
<g id="Vector_18">
<path d="M259 76.72C261.529 82.7874 263.592 89.0389 265.17 95.42Z" fill="#A3AD80"/>
<path d="M259 76.72C261.529 82.7874 263.592 89.0389 265.17 95.42" stroke="#858E69" stroke-width="8" stroke-linecap="round" stroke-linejoin="round"/>
</g>
</g>
</g>
<g id="Layer 27">
<path id="Vector_19" d="M751 144.96C714 119.96 707.47 31.69 601.24 59.82C601.24 59.82 568.17 57.96 541.58 102.96C514.99 147.96 469 130.96 467 174.96C465.32 211.96 493.31 216.87 510.45 212.6C507.32 202.23 511.11 192.9 521 199.96C527 204.25 520.65 210.06 510.45 212.6C511.857 217.303 514.458 221.561 518 224.96C527.25 233.72 539.75 231.2 548.1 226.02C543.01 218.32 542.88 209.74 552 210.96C561.12 212.18 556.91 220.57 548.1 226.02C551.38 231.02 556.73 235.59 563 236.96C595 243.96 608.18 217.84 617 214.96L674 208.96C674 208.96 671 233.96 712 234.96C720.74 235.17 726.68 233.85 730.51 231.78C722.64 228 718.18 221.78 724 215.96C731.77 208.19 743.9 224.55 730.51 231.78C737.58 235.18 747.41 236.6 755 233.96C758.487 232.784 761.654 230.818 764.256 228.216C766.858 225.614 768.824 222.447 770 218.96C761 215.63 754.74 208.1 760 203.96C769 196.9 773.78 207.96 770 218.96C778.92 222.28 790.49 221.45 796 208.96C807 183.96 788 169.96 751 144.96Z" fill="#794E2F" stroke="#503A2E" stroke-width="8" stroke-linecap="round" stroke-linejoin="round"/>
</g>
<g id="Layer 25">
<path id="Vector_20" d="M599.69 190H623.49C646.957 190 669.464 199.32 686.062 215.91C702.66 232.5 711.989 255.003 712 278.47C712.005 279.851 711.738 281.219 711.213 282.497C710.688 283.774 709.916 284.935 708.942 285.913C707.967 286.892 706.809 287.668 705.534 288.198C704.258 288.727 702.891 289 701.51 289H547.51C546.127 289.003 544.758 288.732 543.48 288.203C542.203 287.675 541.042 286.899 540.065 285.921C539.089 284.942 538.315 283.78 537.789 282.501C537.263 281.223 536.995 279.853 537 278.47V252.66C537.008 236.039 543.616 220.101 555.372 208.351C567.128 196.601 583.069 190 599.69 190V190Z" fill="#D68D80" stroke="#B97265" stroke-width="8" stroke-linecap="round" stroke-linejoin="round"/>
</g>
<g id="Layer 24">
<path id="Vector_21" d="M1229 289.46H3V324.46H1229V289.46Z" fill="#F1E8E6" stroke="#E9D8D3" stroke-width="6" stroke-linecap="round" stroke-linejoin="round"/>
</g>
<g id="Layer 23">
<path id="Vector_22" d="M621.5 231.96C630.613 231.96 638 224.573 638 215.46C638 206.347 630.613 198.96 621.5 198.96C612.387 198.96 605 206.347 605 215.46C605 224.573 612.387 231.96 621.5 231.96Z" fill="#F2BF98" stroke="#DEA881" stroke-width="8" stroke-linecap="round" stroke-linejoin="round"/>
</g>
<g id="arm">
<g id="arm_2">
<g id="Vector_23">
<path d="M527 228.96C527 228.96 484 193.96 455.61 123.62C455.61 123.62 451.61 111.7 458.72 110.62C465.83 109.54 466.03 112.62 469.05 119.75C472.07 126.88 462.4 108.94 468.79 105.4C475.18 101.86 478.59 105.15 483.04 114.24C487.49 123.33 474.38 103.93 480.04 99.86C485.7 95.79 491.09 103.08 494.12 109.26C497.15 115.44 545.45 197.57 569.79 208.64" fill="#F2BF98"/>
<path d="M527 228.96C527 228.96 484 193.96 455.61 123.62C455.61 123.62 451.61 111.7 458.72 110.62C465.83 109.54 466.03 112.62 469.05 119.75C472.07 126.88 462.4 108.94 468.79 105.4C475.18 101.86 478.59 105.15 483.04 114.24C487.49 123.33 474.38 103.93 480.04 99.86C485.7 95.79 491.09 103.08 494.12 109.26C497.15 115.44 545.45 197.57 569.79 208.64" stroke="#DEA881" stroke-width="8" stroke-linecap="round" stroke-linejoin="round"/>
</g>
<g id="Vector_24">
<path d="M572.82 210.63L558.82 194.76L517.29 222.03L543 247.96" fill="#D68D80"/>
<path d="M572.82 210.63L558.82 194.76L517.29 222.03L543 247.96" stroke="#B97265" stroke-width="8" stroke-linecap="round" stroke-linejoin="round"/>
</g>
</g>
</g>
<g id="leaf-r">
<g id="leaf-r_2">
<path id="Vector_25" d="M649.35 62.32C642.35 67.67 630.26 63.64 630.26 63.64C630.26 63.64 629.61 50.95 636.65 45.64C643.69 40.33 655.74 44.32 655.74 44.32C655.74 44.32 656.39 56.97 649.35 62.32Z" fill="#A3AD80" stroke="#858E69" stroke-width="6" stroke-linecap="round" stroke-linejoin="round"/>
<g id="Vector_26">
<path d="M629.74 63.64C629.74 63.64 636 54.96 643 53.96Z" fill="#A3AD80"/>
<path d="M629.74 63.64C629.74 63.64 636 54.96 643 53.96" stroke="#858E69" stroke-width="6" stroke-linecap="round" stroke-linejoin="round"/>
</g>
</g>
</g>
<g id="leaf-l">
<g id="leaf-l_2">
<path id="Vector_27" d="M610.65 62.32C617.65 67.67 629.74 63.64 629.74 63.64C629.74 63.64 630.39 50.95 623.35 45.64C616.31 40.33 604.26 44.32 604.26 44.32C604.26 44.32 603.61 56.97 610.65 62.32Z" fill="#A3AD80" stroke="#858E69" stroke-width="6" stroke-linecap="round" stroke-linejoin="round"/>
<g id="Vector_28">
<path d="M628 63.64C628 63.64 621.74 54.96 614.74 53.96Z" fill="#A3AD80"/>
<path d="M628 63.64C628 63.64 621.74 54.96 614.74 53.96" stroke="#858E69" stroke-width="6" stroke-linecap="round" stroke-linejoin="round"/>
</g>
</g>
</g>
<g id="mouse">
<g id="mouse_2">
<path id="Vector_29" d="M629 283.96C629 270.15 614 258.96 590 258.96C583.37 258.96 577.011 261.594 572.322 266.282C567.634 270.971 565 277.33 565 283.96H629Z" fill="#AB9D9A" stroke="#948885" stroke-width="6" stroke-linecap="round" stroke-linejoin="round"/>
<g id="Vector_30">
<path d="M578.68 283.96C578.68 283.96 577.21 263.34 591.61 263.15Z" fill="#AB9D9A"/>
<path d="M578.68 283.96C578.68 283.96 577.21 263.34 591.61 263.15" stroke="#948885" stroke-width="6" stroke-linecap="round" stroke-linejoin="round"/>
</g>
<g id="Vector_31">
<path d="M596 263.96C596 263.96 606 270.96 607 282.96Z" fill="#AB9D9A"/>
<path d="M596 263.96C596 263.96 606 270.96 607 282.96" stroke="#948885" stroke-width="6" stroke-linecap="round" stroke-linejoin="round"/>
</g>
<path id="Vector_32" d="M722.13 262.82C726.83 278.63 708.89 280.42 683.96 282.52C659.03 284.62 626.4 271.05 610.55 274.75C594.7 278.45 599.11 265.24 608.06 263.85C608.06 263.85 589.38 272.68 588.67 266.62C587.86 259.74 591.67 260.35 600.67 254.17C600.67 254.17 584.08 265.83 581.04 263.04C575.82 258.27 578.13 242.46 612.04 240.65C645.95 238.84 717.43 247.01 722.13 262.82Z" fill="#F2BF98" stroke="#DEA881" stroke-width="8" stroke-linecap="round" stroke-linejoin="round"/>
</g>
</g>
<g id="Layer 13">
<g id="Vector_33">
<path d="M978 283.96H948.5L946.5 252.46L944.5 220.96H976H974.5H1006L1004 252.46L1002 283.96H972.5" fill="#AFBED3"/>
<path d="M978 283.96H948.5L946.5 252.46L944.5 220.96H976H974.5H1006L1004 252.46L1002 283.96H972.5" stroke="#9AADC7" stroke-width="8" stroke-linecap="round" stroke-linejoin="round"/>
</g>
</g>
<g id="paintbrush">
<path id="Vector_34" d="M973.74 238.54C975.29 233.25 999.07 168.22 1004.37 169.77C1009.67 171.32 994.48 238.88 992.93 244.18C992.56 245.44 991.945 246.615 991.121 247.637C990.296 248.66 989.279 249.51 988.126 250.139C986.973 250.768 985.707 251.164 984.402 251.304C983.096 251.444 981.775 251.325 980.515 250.955C979.255 250.585 978.08 249.97 977.058 249.145C976.035 248.321 975.185 247.303 974.556 246.151C973.927 244.998 973.531 243.732 973.391 242.426C973.251 241.121 973.37 239.8 973.74 238.54V238.54Z" fill="#D68D80" stroke="#B97265" stroke-width="8" stroke-linecap="round" stroke-linejoin="round"/>
<path id="Vector_35" d="M968.21 257.33C968.921 254.913 970.563 252.876 972.775 251.67C974.987 250.463 977.588 250.184 980.005 250.895C982.422 251.606 984.459 253.248 985.665 255.46C986.872 257.672 987.151 260.273 986.44 262.69C984.96 267.69 972.51 276.42 972.51 276.42C972.51 276.42 966.74 262.37 968.21 257.33Z" fill="#794E2F" stroke="#503A2E" stroke-width="6" stroke-linecap="round" stroke-linejoin="round"/>
<path id="Vector_36" d="M976.68 262.22C973.921 261.408 970.996 261.336 968.2 262.01C969.11 268.14 972.51 276.42 972.51 276.42C972.51 276.42 979.85 271.29 983.93 266.64C981.945 264.553 979.444 263.028 976.68 262.22V262.22Z" fill="#A3AD80" stroke="#858E69" stroke-width="8" stroke-linecap="round" stroke-linejoin="round"/>
</g>
<g id="Layer 11">
<path id="Vector_37" d="M978 283.96H948.5L946.5 252.46L944.5 220.96H976H974.5H1006L1004 252.46L1002 283.96H972.5" stroke="#9AADC7" stroke-width="8" stroke-linecap="round" stroke-linejoin="round"/>
</g>
<g id="misc">
<g id="Layer 30">
<path id="Vector_38" d="M895 231.96H770V247.96H895V231.96Z" fill="#C7996B" stroke="#B78558" stroke-width="8" stroke-linecap="round" stroke-linejoin="round"/>
</g>
<g id="Layer 26">
<path id="Vector_39" d="M906 145.96H758V228.96H906V145.96Z" fill="#E9D8D3" stroke="#E3D3CE" stroke-width="8" stroke-linecap="round" stroke-linejoin="round"/>
</g>
<g id="Layer 18">
<path id="Vector_40" d="M550.61 263.96H341.76V283.18H550.61V263.96Z" fill="#AB9D9A" stroke="#948885" stroke-width="6" stroke-linecap="round" stroke-linejoin="round"/>
</g>
<g id="Layer 17">
<path id="Vector_41" d="M496 114.16H341.76V262.96H496V114.16Z" fill="#AB9D9A" stroke="#948885" stroke-width="6" stroke-linecap="round" stroke-linejoin="round"/>
</g>
<g id="Layer 16">
<path id="Vector_42" d="M413.74 203.12C420.246 203.12 425.52 196.606 425.52 188.57C425.52 180.534 420.246 174.02 413.74 174.02C407.234 174.02 401.96 180.534 401.96 188.57C401.96 196.606 407.234 203.12 413.74 203.12Z" fill="#F1E8E6" stroke="#E9D8D3" stroke-width="6" stroke-linecap="round" stroke-linejoin="round"/>
<g id="Vector_43">
<path d="M415.52 176.68C415.52 176.68 414.92 169.98 418.38 169.09Z" fill="#F1E8E6"/>
<path d="M415.52 176.68C415.52 176.68 414.92 169.98 418.38 169.09" stroke="#E9D8D3" stroke-width="6" stroke-linecap="round" stroke-linejoin="round"/>
</g>
</g>
<g id="Layer 15">
<path id="Vector_44" d="M795 283.96H778L815 138.96H833L795 283.96Z" fill="#C7996B" stroke="#B78558" stroke-width="8" stroke-linecap="round" stroke-linejoin="round"/>
</g>
<g id="Layer 14">
<path id="Vector_45" d="M874 283.96H891L854 138.96H836L874 283.96Z" fill="#C7996B" stroke="#B78558" stroke-width="8" stroke-linecap="round" stroke-linejoin="round"/>
</g>
<g id="Layer 10">
<g id="Vector_46">
<path d="M208 282.96H98C93.7565 282.96 89.6869 281.274 86.6863 278.274C83.6857 275.273 82 271.203 82 266.96C82 262.717 83.6857 258.647 86.6863 255.646C89.6869 252.646 93.7565 250.96 98 250.96H208" fill="#AFBED3"/>
<path d="M208 282.96H98C93.7565 282.96 89.6869 281.274 86.6863 278.274C83.6857 275.273 82 271.203 82 266.96C82 262.717 83.6857 258.647 86.6863 255.646C89.6869 252.646 93.7565 250.96 98 250.96H208" stroke="#9AADC7" stroke-width="8" stroke-linecap="round" stroke-linejoin="round"/>
</g>
<path id="Vector_47" d="M199 266.96H82" stroke="#9AADC7" stroke-width="8" stroke-linecap="round" stroke-linejoin="round"/>
<path id="Vector_48" d="M204 282.96V250.96" stroke="#9AADC7" stroke-width="8" stroke-linecap="round" stroke-linejoin="round"/>
</g>
<g id="Layer 9">
<g id="Vector_49">
<path d="M91 211.96H201C205.243 211.96 209.313 213.646 212.314 216.646C215.314 219.647 217 223.717 217 227.96C217 232.203 215.314 236.273 212.314 239.274C209.313 242.274 205.243 243.96 201 243.96H91" fill="#F7C65F"/>
<path d="M91 211.96H201C205.243 211.96 209.313 213.646 212.314 216.646C215.314 219.647 217 223.717 217 227.96C217 232.203 215.314 236.273 212.314 239.274C209.313 242.274 205.243 243.96 201 243.96H91" stroke="#EDB642" stroke-width="8" stroke-linecap="round" stroke-linejoin="round"/>
</g>
<path id="Vector_50" d="M100 227.96H217" stroke="#EDB642" stroke-width="8" stroke-linecap="round" stroke-linejoin="round"/>
<path id="Vector_51" d="M95 211.96V243.96" stroke="#EDB642" stroke-width="8" stroke-linecap="round" stroke-linejoin="round"/>
</g>
</g>
<g id="Layer 8">
<path id="Vector_52" d="M804.23 72.03C797.23 68.37 795.08 65.8 791.9 57.56C791.61 56.8043 791.098 56.1543 790.431 55.6957C789.765 55.2372 788.974 54.9917 788.165 54.9917C787.356 54.9917 786.565 55.2372 785.899 55.6957C785.232 56.1543 784.72 56.8043 784.43 57.56C781.25 65.8 779.06 68.37 772.1 72.03C771.455 72.3693 770.915 72.8784 770.538 73.5023C770.161 74.1262 769.962 74.8412 769.962 75.57C769.962 76.2988 770.161 77.0138 770.538 77.6377C770.915 78.2616 771.455 78.7707 772.1 79.11C779.1 82.77 781.25 85.34 784.43 93.58C784.72 94.3357 785.232 94.9857 785.899 95.4443C786.565 95.9028 787.356 96.1483 788.165 96.1483C788.974 96.1483 789.765 95.9028 790.431 95.4443C791.098 94.9857 791.61 94.3357 791.9 93.58C795.08 85.34 797.27 82.77 804.23 79.11C804.875 78.7707 805.415 78.2616 805.792 77.6377C806.168 77.0138 806.368 76.2988 806.368 75.57C806.368 74.8412 806.168 74.1262 805.792 73.5023C805.415 72.8784 804.875 72.3693 804.23 72.03ZM788.17 82.77C786.494 79.9499 784.262 77.5002 781.61 75.57C784.262 73.6398 786.494 71.1901 788.17 68.37C789.839 71.1922 792.068 73.6426 794.72 75.57C792.068 77.4974 789.839 79.9478 788.17 82.77V82.77Z" fill="#EEB743"/>
<path id="Vector_53" d="M794.72 75.57C792.068 77.4974 789.839 79.9478 788.17 82.77C786.494 79.9499 784.262 77.5002 781.61 75.57C784.262 73.6398 786.494 71.1901 788.17 68.37C789.839 71.1922 792.068 73.6426 794.72 75.57V75.57Z" fill="#F7C65F"/>
</g>
<g id="sparkle-l">
<path id="Vector_54" d="M482.17 41.14C481.361 41.1417 480.57 40.8979 479.902 40.4408C479.235 39.9837 478.721 39.3349 478.43 38.58C475.25 30.34 473.06 27.77 466.1 24.11C465.455 23.7707 464.915 23.2616 464.538 22.6377C464.162 22.0138 463.962 21.2988 463.962 20.57C463.962 19.8412 464.162 19.1262 464.538 18.5023C464.915 17.8784 465.455 17.3693 466.1 17.03C473.1 13.37 475.25 10.8 478.43 2.56C478.72 1.80432 479.232 1.15428 479.899 0.695731C480.565 0.237184 481.356 -0.00830078 482.165 -0.00830078C482.974 -0.00830078 483.765 0.237184 484.431 0.695731C485.098 1.15428 485.61 1.80432 485.9 2.56C489.08 10.8 491.27 13.37 498.23 17.03C498.875 17.3693 499.415 17.8784 499.792 18.5023C500.169 19.1262 500.368 19.8412 500.368 20.57C500.368 21.2988 500.169 22.0138 499.792 22.6377C499.415 23.2616 498.875 23.7707 498.23 24.11C491.23 27.77 489.08 30.34 485.9 38.58C485.609 39.3333 485.097 39.981 484.432 40.438C483.766 40.8949 482.977 41.1396 482.17 41.14Z" fill="#EEB743"/>
<path id="Vector_55" d="M488.72 20.57C486.068 22.4974 483.839 24.9478 482.17 27.77C480.494 24.9499 478.262 22.5002 475.61 20.57C478.262 18.6398 480.494 16.1901 482.17 13.37C483.839 16.1922 486.068 18.6426 488.72 20.57V20.57Z" fill="#F7C65F"/>
</g>
<g id="Layer 6">
<path id="Vector_56" d="M288 236.74V217.96H276V236.74C270.982 238.067 266.544 241.017 263.378 245.131C260.213 249.244 258.498 254.289 258.5 259.48V282.98H305.5V259.48C305.502 254.289 303.787 249.244 300.622 245.131C297.456 241.017 293.018 238.067 288 236.74Z" fill="#D68D80" stroke="#B97265" stroke-width="8" stroke-linecap="round" stroke-linejoin="round"/>
</g>
<g id="Layer 5">
<path id="Vector_57" d="M1092.75 205.48V195.93H1073.75V205.48C1067.78 207.473 1062.59 211.292 1058.91 216.398C1055.23 221.504 1053.25 227.637 1053.25 233.93V283.93H1113.25V233.93C1113.25 227.637 1111.27 221.504 1107.59 216.398C1103.91 211.292 1098.72 207.473 1092.75 205.48V205.48Z" fill="#F7C65F" stroke="#EDB642" stroke-width="8" stroke-linecap="round" stroke-linejoin="round"/>
</g>
<g id="face">
<path id="Vector_58" d="M655.5 109.96C659.09 109.96 662 107.05 662 103.46C662 99.8701 659.09 96.96 655.5 96.96C651.91 96.96 649 99.8701 649 103.46C649 107.05 651.91 109.96 655.5 109.96Z" fill="#794E2F" stroke="#DDA780" stroke-width="8" stroke-linecap="round" stroke-linejoin="round"/>
<path id="Vector_59" d="M564 110.96C564 110.96 594 105.11 601 86.96C601 86.96 617.37 114.96 652.68 110.96C652.68 110.96 663 131.96 695 130.96C695 130.96 725 226.96 630 222.96C547 219.48 539 165.96 564 110.96Z" fill="#F1BE96" stroke="#DDA780" stroke-width="6" stroke-linecap="round" stroke-linejoin="round"/>
<path id="Vector_60" d="M674 208.96C684.493 208.96 693 200.453 693 189.96C693 179.467 684.493 170.96 674 170.96C663.507 170.96 655 179.467 655 189.96C655 200.453 663.507 208.96 674 208.96Z" fill="#ECB397"/>
<path id="Vector_61" d="M573 196.96C583.493 196.96 592 188.453 592 177.96C592 167.467 583.493 158.96 573 158.96C562.507 158.96 554 167.467 554 177.96C554 188.453 562.507 196.96 573 196.96Z" fill="#ECB397"/>
<path id="Vector_62" d="M564 110.96C564 110.96 594 105.11 601 86.96C601 86.96 617.37 114.96 652.68 110.96C652.68 110.96 663 131.96 695 130.96C695 130.96 725 226.96 630 222.96C547 219.48 539 165.96 564 110.96Z" stroke="#DDA780" stroke-width="8" stroke-linecap="round" stroke-linejoin="round"/>
<path id="Vector_63" d="M670.18 185.74L667.93 189.34" stroke="#D7766F" stroke-width="6" stroke-linecap="round" stroke-linejoin="round"/>
<path id="Vector_64" d="M680.07 188.58L677.82 192.18" stroke="#D7766F" stroke-width="6" stroke-linecap="round" stroke-linejoin="round"/>
<path id="Vector_65" d="M577.86 174.79L578.26 179.02" stroke="#D7766F" stroke-width="6" stroke-linecap="round" stroke-linejoin="round"/>
<path id="Vector_66" d="M567.74 172.91L568.14 177.13" stroke="#D7766F" stroke-width="6" stroke-linecap="round" stroke-linejoin="round"/>
</g>
<g id="eyes">
<g id="eyes_2">
<path id="Vector_67" d="M590.97 158.9C593.715 158.9 595.94 156.675 595.94 153.93C595.94 151.185 593.715 148.96 590.97 148.96C588.225 148.96 586 151.185 586 153.93C586 156.675 588.225 158.9 590.97 158.9Z" fill="#2F2A1B"/>
<path id="Vector_68" d="M662.85 163.96C665.595 163.96 667.82 161.735 667.82 158.99C667.82 156.245 665.595 154.02 662.85 154.02C660.105 154.02 657.88 156.245 657.88 158.99C657.88 161.735 660.105 163.96 662.85 163.96Z" fill="#2F2A1B"/>
</g>
</g>
<g id="mouth">
<path id="mouth_2" d="M613 166.96C613 166.96 627 176.96 642 167.96" stroke="#2F2A1B" stroke-width="8" stroke-linecap="round" stroke-linejoin="round"/>
</g>
</g>
<defs>
<clipPath id="clip0_204_109">
<rect width="1232" height="327.5" fill="white"/>
</clipPath>
</defs>
</svg>
