<svg xmlns="http://www.w3.org/2000/svg" viewBox="0 0 98.79 24.28"><defs><style>.cls-1{fill:#2f2a1b;}.cls-2{fill:#a3ad80;stroke:#858e69;stroke-linecap:round;stroke-linejoin:round;}</style></defs><g id="Layer_2" data-name="Layer 2"><g id="Layer_3" data-name="Layer 3"><path class="cls-1" d="M18.32,7.65V23.86H14V21.52a9.08,9.08,0,0,1-2.38,1.9,6.92,6.92,0,0,1-3.49.86A8.73,8.73,0,0,1,4,23.3a7.13,7.13,0,0,1-2.92-2.89A9.42,9.42,0,0,1,0,15.77a9.46,9.46,0,0,1,1.11-4.65,7.88,7.88,0,0,1,7.05-4.2,6.62,6.62,0,0,1,5.9,2.91l.31-2.18Zm-6,12.2A4.89,4.89,0,0,0,14,17.31V13.78a4.48,4.48,0,0,0-1.79-2.41,5.13,5.13,0,0,0-3-.92,4.67,4.67,0,0,0-3.45,1.43,5,5,0,0,0-1.42,3.66A5.19,5.19,0,0,0,5,18.19a5.08,5.08,0,0,0,1.84,1.87,4.77,4.77,0,0,0,2.49.69A4.77,4.77,0,0,0,12.32,19.85Z"/><path class="cls-1" d="M30.27,9.07a9.79,9.79,0,0,1,2.44-1.59,5.36,5.36,0,0,1,2.08-.56l-.19,4.29a5.25,5.25,0,0,0-3.14.64A5.5,5.5,0,0,0,29.32,14a5.72,5.72,0,0,0-.77,2.89v7H24.26V7.65h3.87l.3,3.75A7.8,7.8,0,0,1,30.27,9.07Z"/><path class="cls-1" d="M43.49,7.65V23.86H39.2V7.65Z"/><path class="cls-1" d="M50.72,23.53A7,7,0,0,1,48,21.64l1.8-2.42a5.93,5.93,0,0,0,4.14,2,3.6,3.6,0,0,0,1.89-.44,1.43,1.43,0,0,0,.75-1.32,1.5,1.5,0,0,0-.77-1.38,7.94,7.94,0,0,0-1.7-.74L52.88,17a6.42,6.42,0,0,1-3.14-1.9,4.42,4.42,0,0,1-1-2.93,4.94,4.94,0,0,1,.67-2.51,4.84,4.84,0,0,1,2-1.89A6.86,6.86,0,0,1,54.72,7a10.89,10.89,0,0,1,3.2.42,8,8,0,0,1,2.55,1.34l-1.65,2.57a5.49,5.49,0,0,0-3.45-1.42,2.74,2.74,0,0,0-1.64.46,1.39,1.39,0,0,0-.66,1.19,1.39,1.39,0,0,0,.66,1.32,10.42,10.42,0,0,0,2.22.94l.84.27a7.17,7.17,0,0,1,3,1.7,3.89,3.89,0,0,1,1.07,2.86,5.21,5.21,0,0,1-1.7,4,6.92,6.92,0,0,1-4.89,1.59A9.33,9.33,0,0,1,50.72,23.53Z"/><path class="cls-1" d="M66.93,23.53a7,7,0,0,1-2.74-1.89L66,19.22a5.93,5.93,0,0,0,4.14,2A3.62,3.62,0,0,0,72,20.77a1.43,1.43,0,0,0,.75-1.32A1.52,1.52,0,0,0,72,18.07a7.94,7.94,0,0,0-1.7-.74L69.09,17A6.42,6.42,0,0,1,66,15.06a4.43,4.43,0,0,1-1-2.93,5,5,0,0,1,.67-2.51,4.93,4.93,0,0,1,2-1.89A6.86,6.86,0,0,1,70.93,7a10.89,10.89,0,0,1,3.2.42,8,8,0,0,1,2.55,1.34L75,11.33a5.49,5.49,0,0,0-3.45-1.42,2.79,2.79,0,0,0-1.65.46,1.41,1.41,0,0,0-.65,1.19,1.39,1.39,0,0,0,.65,1.32,10.32,10.32,0,0,0,2.23.94l.84.27a7.17,7.17,0,0,1,3,1.7,3.93,3.93,0,0,1,1.07,2.86,5.21,5.21,0,0,1-1.7,4,6.92,6.92,0,0,1-4.89,1.59A9.33,9.33,0,0,1,66.93,23.53Z"/><path class="cls-1" d="M98.79,7.65V23.86H94.5V21.52a9.08,9.08,0,0,1-2.38,1.9,6.89,6.89,0,0,1-3.49.86,8.76,8.76,0,0,1-4.17-1,7,7,0,0,1-2.91-2.89,9.31,9.31,0,0,1-1.08-4.64,9.46,9.46,0,0,1,1.11-4.65,7.88,7.88,0,0,1,7-4.2,6.64,6.64,0,0,1,5.91,2.91l.3-2.18Zm-6,12.2a4.77,4.77,0,0,0,1.71-2.54V13.78a4.46,4.46,0,0,0-1.78-2.41,5.18,5.18,0,0,0-3-.92,4.69,4.69,0,0,0-3.45,1.43,5,5,0,0,0-1.42,3.66,5.19,5.19,0,0,0,2.53,4.52,5.11,5.11,0,0,0,5.46-.21Z"/><path class="cls-2" d="M45.48,5C43.84,6.29,41,5.35,41,5.35s-.15-3,1.49-4.2S47,.84,47,.84,47.12,3.8,45.48,5Z"/><path class="cls-2" d="M36.46,5c1.64,1.25,4.45.31,4.45.31s.15-3-1.49-4.2S35,.84,35,.84,34.82,3.8,36.46,5Z"/><path class="cls-2" d="M42.46,3.8A3.55,3.55,0,0,1,44,3.09"/><path class="cls-2" d="M40.91,5.35A7.8,7.8,0,0,1,42.46,3.8"/><path class="cls-2" d="M40.51,5.35s-1.46-2-3.09-2.26"/></g></g></svg>