<svg id="Layer_1" data-name="Layer 1" xmlns="http://www.w3.org/2000/svg" viewBox="0 0 367 222.47"><defs><style>.cls-1{fill:#c7996b;}.cls-2{fill:#a5744c;}.cls-3{fill:#b78558;}.cls-4{fill:#f7c65f;}.cls-4,.cls-5{stroke:#edb642;}.cls-11,.cls-4,.cls-5{stroke-linecap:round;stroke-linejoin:round;stroke-width:5px;}.cls-5{fill:#eeb642;}.cls-6{font-size:13.57px;font-family:FuturaPT-Demi, Futura PT;font-weight:300;}.cls-7{letter-spacing:-0.01em;}.cls-8{letter-spacing:-0.01em;}.cls-9{letter-spacing:-0.02em;}.cls-10{letter-spacing:-0.02em;}.cls-11{fill:#d68d80;stroke:#b97265;}</style></defs><path class="cls-1" d="M.61,0H366.39a.62.62,0,0,1,.61.63h0V221.84a.63.63,0,0,1-.61.63H.61a.62.62,0,0,1-.61-.63H0V.63A.64.64,0,0,1,.61,0Z"/><path class="cls-2" d="M357.66,9.86V212a.6.6,0,0,1-.6.6H9.94a.6.6,0,0,1-.6-.6V10.46a.6.6,0,0,1,.6-.6H357.66m5.39-6.14H4a.62.62,0,0,0-.61.6V218.15a.62.62,0,0,0,.61.6h359.1a.62.62,0,0,0,.61-.6V4.32a.6.6,0,0,0-.58-.6Z"/><path class="cls-3" d="M360.89,6.37V215.5a.64.64,0,0,1-.61.63H6.72a.62.62,0,0,1-.61-.63h0V7a.64.64,0,0,1,.61-.63H360.89M366.39,0H.61A.64.64,0,0,0,0,.63V221.84a.63.63,0,0,0,.61.63H366.39a.62.62,0,0,0,.61-.63h0V.63A.64.64,0,0,0,366.39,0Z"/><polygon class="cls-4" points="261.65 39.05 117.28 39.05 117.28 183.42 216.19 183.42 261.65 137.96 261.65 39.05"/><path class="cls-5" d="M216.19,183.42,261.65,138H236.7a20.52,20.52,0,0,0-20.51,20.51Z"/><text class="cls-6" transform="translate(139.27 100.22)"><tspan class="cls-7">w</tspan><tspan x="10.6" y="0">ork in p</tspan><tspan class="cls-8" x="54.68" y="0">r</tspan><tspan x="59.44" y="0">og</tspan><tspan class="cls-9" x="74.85" y="0">r</tspan><tspan x="79.46" y="0">e</tspan><tspan class="cls-10" x="86.54" y="0">s</tspan><tspan x="91.75" y="0">s </tspan><tspan x="18.77" y="18">for mobile!</tspan></text><circle class="cls-11" cx="189.46" cy="39.05" r="7.96"/></svg>