<?xml version="1.0" encoding="utf-8"?>
<!-- Generator: Adobe Illustrator 26.0.2, SVG Export Plug-In . SVG Version: 6.00 Build 0)  -->
<svg version="1.1" id="Layer_1" xmlns="http://www.w3.org/2000/svg" xmlns:xlink="http://www.w3.org/1999/xlink" x="0px" y="0px"
	 viewBox="0 0 367 222.5" style="enable-background:new 0 0 367 222.5;" xml:space="preserve">
<style type="text/css">
	.st0{fill:#C7996B;}
	.st1{fill:#A5744C;}
	.st2{fill:#B78558;}
	.st3{fill:#F7C65F;stroke:#EDB642;stroke-width:5;stroke-linecap:round;stroke-linejoin:round;}
	.st4{fill:#EEB642;stroke:#EDB642;stroke-width:5;stroke-linecap:round;stroke-linejoin:round;}
	.st5{fill:#D68D80;stroke:#B97265;stroke-width:5;stroke-linecap:round;stroke-linejoin:round;}
</style>
<path class="st0" d="M0.6,0h365.8c0.3,0,0.6,0.3,0.6,0.6c0,0,0,0,0,0l0,0v221.2c0,0.3-0.3,0.6-0.6,0.6H0.6c-0.3,0-0.6-0.3-0.6-0.6
	c0,0,0,0,0,0l0,0V0.6C0,0.3,0.3,0,0.6,0z"/>
<path class="st1" d="M357.7,9.9V212c0,0.3-0.3,0.6-0.6,0.6l0,0H9.9c-0.3,0-0.6-0.3-0.6-0.6l0,0V10.5c0-0.3,0.3-0.6,0.6-0.6h0H357.7
	 M363.1,3.7H4C3.7,3.7,3.4,4,3.4,4.3v213.8c0,0.3,0.3,0.6,0.6,0.6h359.1c0.3,0,0.6-0.3,0.6-0.6V4.3C363.7,4,363.5,3.7,363.1,3.7
	L363.1,3.7z"/>
<path class="st2" d="M360.9,6.4v209.1c0,0.3-0.3,0.6-0.6,0.6H6.7c-0.3,0-0.6-0.3-0.6-0.6c0,0,0,0,0,0l0,0V7c0-0.3,0.3-0.6,0.6-0.6
	H360.9 M366.4,0H0.6C0.3,0,0,0.3,0,0.6v221.2c0,0.3,0.3,0.6,0.6,0.6h365.8c0.3,0,0.6-0.3,0.6-0.6c0,0,0,0,0,0l0,0V0.6
	C367,0.3,366.7,0,366.4,0z"/>
<g>
	<polygon class="st3" points="255.7,39 111.3,39 111.3,183.4 210.2,183.4 255.7,138 	"/>
	<path class="st4" d="M210.2,183.4l45.5-45.4h-24.9c-11.3,0-20.5,9.2-20.5,20.5V183.4z"/>
</g>
<circle class="st5" cx="183.5" cy="39" r="8"/>
<g>
	<path d="M143.9,96.4h-0.7l-2.6-5.2h1.6l1.4,3l1.4-3h0.7l1.4,3l1.4-3h1.6l-2.6,5.2h-0.7l-1.4-3.1L143.9,96.4z"/>
	<path d="M155.4,91.8c0.5,0.5,0.9,1.2,0.9,2c0,0.8-0.4,1.6-0.9,2c-0.4,0.4-1.1,0.7-2.1,0.7s-1.7-0.3-2.1-0.7c-0.5-0.5-0.9-1.2-0.9-2
		c0-0.9,0.4-1.6,0.9-2c0.4-0.4,1.1-0.7,2.1-0.7S154.9,91.4,155.4,91.8z M154.8,93.8c0-0.8-0.6-1.5-1.5-1.5c-0.8,0-1.5,0.7-1.5,1.5
		c0,0.8,0.6,1.5,1.5,1.5S154.8,94.6,154.8,93.8z"/>
	<path d="M157.4,91.2h1.5V92c0.2-0.4,0.5-0.7,0.6-0.7c0.2-0.1,0.5-0.2,0.9-0.2c0.3,0,0.5,0.1,0.6,0.1l-0.2,1.4
		c-0.2-0.1-0.4-0.2-0.7-0.2c-0.3,0-0.7,0.1-1,0.4c-0.3,0.3-0.3,0.8-0.3,1.2v2.5h-1.5V91.2z"/>
	<path d="M163.2,87.7v5.4l1.9-1.9h1.9l-2.4,2.3l2.6,2.9h-1.9l-1.9-2.2l-0.2,0.1v2.1h-1.5v-8.7H163.2z"/>
	<path d="M171.4,88.1c0.5,0,0.9,0.4,0.9,0.9c0,0.5-0.4,0.9-0.9,0.9c-0.5,0-0.9-0.4-0.9-0.9C170.5,88.5,170.9,88.1,171.4,88.1z
		 M172.1,91.2v5.2h-1.5v-5.2H172.1z"/>
	<path d="M173.5,91.2h1.5v0.7c0.3-0.4,0.8-0.8,1.6-0.8c0.5,0,1.1,0.1,1.5,0.6c0.4,0.4,0.4,1,0.4,1.5v3.3h-1.5v-2.8
		c0-0.3,0-0.7-0.3-1c-0.2-0.2-0.5-0.3-0.7-0.3c-0.4,0-0.7,0.1-0.9,0.5c-0.2,0.3-0.2,0.7-0.2,1v2.7h-1.5V91.2z"/>
	<path d="M184.2,99.1h-1.5v-7.9h1.5v0.7c0.2-0.3,0.7-0.8,1.7-0.8c0.5,0,1.2,0.1,1.8,0.7c0.4,0.4,0.8,1,0.8,2.1
		c0,1.2-0.5,1.8-0.8,2.1c-0.4,0.4-1,0.7-1.8,0.7c-0.4,0-1.1-0.1-1.7-0.8V99.1z M184.5,92.7c-0.3,0.3-0.5,0.6-0.5,1.1
		s0.2,0.9,0.5,1.1c0.2,0.2,0.5,0.3,1,0.3c0.5,0,0.8-0.2,1-0.4c0.3-0.3,0.5-0.7,0.5-1.1s-0.2-0.8-0.4-1.1c-0.3-0.2-0.6-0.4-1-0.4
		C185.1,92.3,184.8,92.4,184.5,92.7z"/>
	<path d="M189.6,91.2h1.5V92c0.2-0.4,0.5-0.7,0.6-0.7c0.2-0.1,0.5-0.2,0.9-0.2c0.3,0,0.5,0.1,0.6,0.1l-0.2,1.4
		c-0.2-0.1-0.4-0.2-0.7-0.2c-0.3,0-0.7,0.1-1,0.4c-0.3,0.3-0.3,0.8-0.3,1.2v2.5h-1.5V91.2z"/>
	<path d="M198.6,91.8c0.5,0.5,0.9,1.2,0.9,2c0,0.8-0.4,1.6-0.9,2c-0.4,0.4-1.1,0.7-2.1,0.7s-1.7-0.3-2.1-0.7c-0.5-0.5-0.9-1.2-0.9-2
		c0-0.9,0.4-1.6,0.9-2c0.4-0.4,1.1-0.7,2.1-0.7S198.1,91.4,198.6,91.8z M197.9,93.8c0-0.8-0.6-1.5-1.5-1.5c-0.8,0-1.5,0.7-1.5,1.5
		c0,0.8,0.6,1.5,1.5,1.5S197.9,94.6,197.9,93.8z"/>
	<path d="M204.5,91.2h1.5v5c0,0.8-0.1,1.6-0.7,2.3c-0.4,0.4-1,0.7-2.1,0.7c-1,0-1.6-0.3-1.9-0.6c-0.4-0.3-0.7-1-0.8-1.5h1.6
		c0.1,0.2,0.2,0.5,0.4,0.6c0.3,0.3,0.7,0.3,0.9,0.3c0.4,0,0.7-0.1,0.9-0.3c0.3-0.3,0.4-0.7,0.4-1.2v-0.7c-0.5,0.8-1.2,0.9-1.6,0.9
		c-0.7,0-1.3-0.2-1.8-0.7c-0.4-0.4-0.8-1.1-0.8-2.1c0-0.8,0.3-1.6,0.8-2.1c0.5-0.4,1.1-0.7,1.8-0.7c1,0,1.4,0.5,1.6,0.8V91.2z
		 M202.3,92.7c-0.2,0.2-0.5,0.6-0.5,1.1c0,0.5,0.2,0.8,0.4,1c0.3,0.3,0.7,0.5,1.1,0.5c0.4,0,0.7-0.1,1-0.4c0.3-0.3,0.5-0.7,0.5-1.1
		c0-0.5-0.2-0.8-0.4-1c-0.3-0.3-0.6-0.4-1-0.4C202.8,92.3,202.5,92.5,202.3,92.7z"/>
	<path d="M207.4,91.2h1.5V92c0.2-0.4,0.5-0.7,0.6-0.7c0.2-0.1,0.5-0.2,0.9-0.2c0.3,0,0.5,0.1,0.6,0.1l-0.2,1.4
		c-0.2-0.1-0.4-0.2-0.7-0.2c-0.3,0-0.7,0.1-1,0.4c-0.3,0.3-0.3,0.8-0.3,1.2v2.5h-1.5V91.2z"/>
	<path d="M216.6,94.9c-0.2,0.4-0.7,1.6-2.6,1.6c-0.8,0-1.5-0.2-2-0.7c-0.6-0.5-0.8-1.2-0.8-2c0-1,0.4-1.7,0.8-2
		c0.6-0.6,1.3-0.7,2-0.7c1.1,0,1.7,0.4,2,0.9c0.6,0.7,0.6,1.5,0.6,2V94h-3.9c0,0.3,0.1,0.6,0.3,0.9c0.2,0.2,0.5,0.5,1,0.5
		c0.6,0,1-0.3,1.2-0.7L216.6,94.9z M215.2,93.1c-0.1-0.7-0.7-1-1.2-1c-0.5,0-1.1,0.3-1.2,1H215.2z"/>
	<path d="M220.6,92.4c-0.3-0.3-0.7-0.3-0.9-0.3c-0.3,0-0.6,0.2-0.6,0.4c0,0.1,0.1,0.3,0.5,0.5l0.3,0.1c0.4,0.1,1,0.3,1.3,0.7
		c0.2,0.2,0.3,0.5,0.3,0.9c0,0.5-0.2,0.9-0.6,1.3s-0.9,0.6-1.6,0.6c-1.1,0-1.7-0.5-2-0.9l0.8-0.9c0.3,0.3,0.7,0.6,1.2,0.6
		c0.4,0,0.7-0.2,0.7-0.6c0-0.3-0.3-0.5-0.5-0.5l-0.3-0.1c-0.4-0.1-0.8-0.3-1.1-0.6c-0.2-0.3-0.4-0.6-0.4-1c0-0.5,0.2-0.9,0.5-1.2
		c0.4-0.3,0.9-0.4,1.4-0.4c0.4,0,1,0,1.7,0.6L220.6,92.4z"/>
	<path d="M225.2,92.4c-0.3-0.3-0.7-0.3-0.9-0.3c-0.3,0-0.6,0.2-0.6,0.4c0,0.1,0.1,0.3,0.5,0.5l0.3,0.1c0.4,0.1,1,0.3,1.3,0.7
		c0.2,0.2,0.3,0.5,0.3,0.9c0,0.5-0.2,0.9-0.6,1.3s-0.9,0.6-1.6,0.6c-1.1,0-1.7-0.5-2-0.9l0.8-0.9c0.3,0.3,0.7,0.6,1.2,0.6
		c0.4,0,0.7-0.2,0.7-0.6c0-0.3-0.3-0.5-0.5-0.5l-0.3-0.1c-0.4-0.1-0.8-0.3-1.1-0.6c-0.2-0.3-0.4-0.6-0.4-1c0-0.5,0.2-0.9,0.5-1.2
		c0.4-0.3,0.9-0.4,1.4-0.4c0.4,0,1,0,1.7,0.6L225.2,92.4z"/>
	<path d="M133.8,109.5v3.9h-1.5v-3.9h-0.6v-1.2h0.6v-1.4c0-0.5,0-1.3,0.7-1.8c0.3-0.3,0.7-0.4,1.3-0.4c0.3,0,0.6,0.1,0.8,0.2v1.3
		c-0.2-0.2-0.4-0.2-0.7-0.2c-0.2,0-0.4,0-0.5,0.3c-0.1,0.2-0.2,0.5-0.2,0.9v1.2h1.3v1.2H133.8z"/>
	<path d="M140.6,108.8c0.5,0.5,0.9,1.2,0.9,2c0,0.8-0.4,1.6-0.9,2c-0.4,0.4-1.1,0.7-2.1,0.7s-1.7-0.3-2.1-0.7
		c-0.5-0.5-0.9-1.2-0.9-2c0-0.9,0.4-1.6,0.9-2c0.4-0.4,1.1-0.7,2.1-0.7S140.2,108.4,140.6,108.8z M140,110.8c0-0.8-0.6-1.5-1.5-1.5
		c-0.8,0-1.5,0.7-1.5,1.5c0,0.8,0.6,1.5,1.5,1.5S140,111.6,140,110.8z"/>
	<path d="M142.6,108.2h1.5v0.8c0.2-0.4,0.5-0.7,0.6-0.7c0.2-0.1,0.5-0.2,0.9-0.2c0.3,0,0.5,0.1,0.6,0.1l-0.2,1.4
		c-0.2-0.1-0.4-0.2-0.7-0.2c-0.3,0-0.7,0.1-1,0.4c-0.3,0.3-0.3,0.8-0.3,1.2v2.5h-1.5V108.2z"/>
	<path d="M151.2,109.5v3.9h-1.5v-3.9h-0.6v-1.2h0.6v-1.8h1.5v1.8h1v1.2H151.2z"/>
	<path d="M156.9,108.2h1.5v5.2h-1.5v-0.7c-0.5,0.8-1.2,0.8-1.6,0.8c-1.6,0-2.7-1.2-2.7-2.8c0-1.5,1-2.8,2.6-2.8
		c0.4,0,1.2,0.1,1.7,0.8V108.2z M154.2,110.8c0,0.8,0.6,1.5,1.4,1.5c0.8,0,1.4-0.6,1.4-1.5s-0.6-1.5-1.4-1.5
		C154.8,109.3,154.2,110,154.2,110.8z"/>
	<path d="M161.3,108.9c0.5-0.7,1.2-0.8,1.7-0.8c1.5,0,2.6,1.2,2.6,2.8c0,1.6-1.1,2.8-2.6,2.8c-0.3,0-1.1-0.1-1.7-0.8v0.7h-1.5v-8.7
		h1.5V108.9z M161.1,110.8c0,0.8,0.6,1.5,1.4,1.5s1.4-0.6,1.4-1.5s-0.6-1.5-1.4-1.5S161.1,110,161.1,110.8z"/>
	<path d="M168.1,104.7v8.7h-1.5v-8.7H168.1z"/>
	<path d="M174.6,111.9c-0.2,0.4-0.7,1.6-2.6,1.6c-0.8,0-1.5-0.2-2-0.7c-0.6-0.5-0.8-1.2-0.8-2c0-1,0.4-1.7,0.8-2
		c0.6-0.6,1.3-0.7,2-0.7c1.1,0,1.7,0.4,2,0.9c0.6,0.7,0.6,1.5,0.6,2v0.1h-3.9c0,0.3,0.1,0.6,0.3,0.9c0.2,0.2,0.5,0.5,1,0.5
		c0.6,0,1-0.3,1.2-0.7L174.6,111.9z M173.3,110.1c-0.1-0.7-0.7-1-1.2-1c-0.5,0-1.1,0.3-1.2,1H173.3z"/>
	<path d="M177.2,109.5v3.9h-1.5v-3.9h-0.6v-1.2h0.6v-1.8h1.5v1.8h1v1.2H177.2z"/>
	<path d="M181.8,109.4c-0.3-0.3-0.7-0.3-0.9-0.3c-0.3,0-0.6,0.2-0.6,0.4c0,0.1,0.1,0.3,0.5,0.5l0.3,0.1c0.4,0.1,1,0.3,1.3,0.7
		c0.2,0.2,0.3,0.5,0.3,0.9c0,0.5-0.2,0.9-0.6,1.3c-0.4,0.4-0.9,0.6-1.6,0.6c-1.1,0-1.7-0.5-2-0.9l0.8-0.9c0.3,0.3,0.7,0.6,1.2,0.6
		c0.4,0,0.7-0.2,0.7-0.6c0-0.3-0.3-0.5-0.5-0.5l-0.3-0.1c-0.4-0.1-0.8-0.3-1.1-0.6c-0.2-0.3-0.4-0.6-0.4-1c0-0.5,0.2-0.9,0.5-1.2
		c0.4-0.3,0.9-0.4,1.4-0.4c0.4,0,1,0,1.7,0.6L181.8,109.4z"/>
	<path d="M193.8,110.4c-0.5,0.6-0.6,0.7-0.9,1l-0.2,0.2l1.6,1.8h-1.9l-0.8-0.9c-0.4,0.3-1.3,1.1-2.6,1.1c-1.6,0-2.5-1.1-2.5-2.3
		c0-1.2,0.9-1.8,1.3-2l0.6-0.4c-0.3-0.3-0.8-0.9-0.8-1.7c0-1,0.7-2,2.2-2c1.4,0,2.1,0.9,2.1,1.9c0,0.6-0.3,1.3-1.1,1.8l-0.3,0.2
		l1.3,1.5c0.5-0.5,0.8-0.9,1-1.1L193.8,110.4z M189.3,109.8c-0.6,0.3-1.1,0.8-1.1,1.4c0,0.6,0.5,1.1,1.2,1.1c0.6,0,1.2-0.4,1.5-0.7
		L189.3,109.8z M189.8,108.3l0.4-0.3c0.4-0.3,0.6-0.6,0.6-0.9c0-0.4-0.2-0.8-0.8-0.8c-0.6,0-0.8,0.4-0.8,0.7c0,0.3,0.2,0.6,0.3,0.8
		L189.8,108.3z"/>
	<path d="M198,108.2h1.5v0.6c0.6-0.7,1.2-0.8,1.5-0.8c1.1,0,1.5,0.7,1.6,0.9c0.3-0.4,0.8-0.9,1.7-0.9c0.8,0,1.2,0.4,1.4,0.6
		c0.3,0.4,0.4,0.9,0.4,1.5v3.3h-1.5v-2.8c0-0.6-0.1-0.9-0.2-1c-0.2-0.2-0.5-0.3-0.6-0.3c-0.4,0-0.6,0.2-0.8,0.5
		c-0.2,0.3-0.2,0.7-0.2,1v2.7h-1.5v-2.8c0-0.6-0.1-0.9-0.2-1c-0.2-0.2-0.5-0.3-0.6-0.3c-0.4,0-0.6,0.2-0.8,0.5
		c-0.2,0.3-0.2,0.7-0.2,1v2.7H198V108.2z"/>
	<path d="M212.3,108.8c0.5,0.5,0.9,1.2,0.9,2c0,0.8-0.4,1.6-0.9,2c-0.4,0.4-1.1,0.7-2.1,0.7s-1.7-0.3-2.1-0.7
		c-0.5-0.5-0.9-1.2-0.9-2c0-0.9,0.4-1.6,0.9-2c0.4-0.4,1.1-0.7,2.1-0.7S211.8,108.4,212.3,108.8z M211.6,110.8
		c0-0.8-0.6-1.5-1.5-1.5s-1.5,0.7-1.5,1.5c0,0.8,0.6,1.5,1.5,1.5S211.6,111.6,211.6,110.8z"/>
	<path d="M215.7,108.9c0.5-0.7,1.2-0.8,1.7-0.8c1.5,0,2.6,1.2,2.6,2.8c0,1.6-1.1,2.8-2.6,2.8c-0.3,0-1.1-0.1-1.7-0.8v0.7h-1.5v-8.7
		h1.5V108.9z M215.6,110.8c0,0.8,0.6,1.5,1.4,1.5s1.4-0.6,1.4-1.5s-0.6-1.5-1.4-1.5S215.6,110,215.6,110.8z"/>
	<path d="M221.8,105.1c0.5,0,0.9,0.4,0.9,0.9c0,0.5-0.4,0.9-0.9,0.9c-0.5,0-0.9-0.4-0.9-0.9C221,105.5,221.4,105.1,221.8,105.1z
		 M222.6,108.2v5.2h-1.5v-5.2H222.6z"/>
	<path d="M225.4,104.7v8.7H224v-8.7H225.4z"/>
	<path d="M231.9,111.9c-0.2,0.4-0.7,1.6-2.6,1.6c-0.8,0-1.5-0.2-2-0.7c-0.6-0.5-0.8-1.2-0.8-2c0-1,0.4-1.7,0.8-2
		c0.6-0.6,1.3-0.7,2-0.7c1.1,0,1.7,0.4,2,0.9c0.6,0.7,0.6,1.5,0.6,2v0.1h-3.9c0,0.3,0.1,0.6,0.3,0.9c0.2,0.2,0.5,0.5,1,0.5
		c0.6,0,1-0.3,1.2-0.7L231.9,111.9z M230.6,110.1c-0.1-0.7-0.7-1-1.2-1c-0.5,0-1.1,0.3-1.2,1H230.6z"/>
	<path d="M233.9,111.7c0.5,0,0.9,0.4,0.9,0.9c0,0.5-0.4,0.9-0.9,0.9c-0.5,0-0.9-0.4-0.9-0.9C233,112.1,233.4,111.7,233.9,111.7z
		 M233.1,111v-5.6h1.5v5.6H233.1z"/>
</g>
</svg>
