<?xml version="1.0" encoding="UTF-8"?>
<svg id="Layer_1" data-name="Layer 1" xmlns="http://www.w3.org/2000/svg" version="1.1" viewBox="0 0 1986 424.3">
  <defs>
    <style>
      .cls-1 {
        fill: none;
        stroke: #30c1d2;
        stroke-linecap: round;
        stroke-linejoin: round;
        stroke-width: 10px;
      }

      .cls-2 {
        fill: #30c1d2;
      }

      .cls-2, .cls-3, .cls-4, .cls-5 {
        stroke-width: 0px;
      }

      .cls-3 {
        fill: #000;
      }

      .cls-4 {
        fill: #e5f4f8;
      }

      .cls-5 {
        fill: #fff;
      }
    </style>
  </defs>
  <g>
    <path class="cls-4" d="M1410.3,0h514.7C1958.7,0,1985.9,20.3,1985.9,45.4v333.5c0,25.1-27.2,45.4-60.8,45.4h-514.7c-33.6,0-60.8-20.3-60.8-45.4V45.4C1349.5,20.3,1376.7,0,1410.3,0Z"/>
    <g>
      <path class="cls-3" d="M1491.5,328.9l-6.3-11h-3.5v11h-4.5v-27.6h9.5c2.1,0,3.9.4,5.4,1.1s2.6,1.7,3.3,3c.7,1.2,1.1,2.6,1.1,4.2s-.5,3.4-1.6,4.9c-1,1.5-2.7,2.5-4.8,3l6.8,11.4h-5.4ZM1481.7,314.2h5c1.7,0,3-.4,3.8-1.3.9-.8,1.3-2,1.3-3.4s-.4-2.5-1.3-3.4c-.8-.8-2.1-1.2-3.8-1.2h-5v9.2h0Z"/>
      <path class="cls-3" d="M1522.2,319.6h-16.7c0,1.7.8,3.1,1.9,4.2,1.2,1.1,2.6,1.6,4.3,1.6s4.2-1,5.2-3.1h4.9c-.7,2-1.9,3.7-3.6,4.9-1.7,1.3-3.9,1.9-6.4,1.9s-4-.5-5.6-1.4c-1.7-.9-3-2.3-3.9-4s-1.4-3.7-1.4-5.9.5-4.2,1.4-5.9c.9-1.7,2.2-3,3.8-3.9,1.7-.9,3.6-1.4,5.7-1.4s3.9.5,5.5,1.3c1.6.9,2.9,2.2,3.8,3.8.9,1.6,1.3,3.5,1.3,5.6s0,1.6-.2,2.2h0ZM1517.6,316c0-1.7-.6-3-1.8-4s-2.6-1.5-4.3-1.5-2.9.5-4,1.5-1.8,2.3-2,4h12.1Z"/>
      <path class="cls-3" d="M1535.2,324.8l6.2-17.8h4.8l-8.3,21.9h-5.4l-8.3-21.9h4.8l6.2,17.8Z"/>
      <path class="cls-3" d="M1549.9,303.3c-.6-.6-.8-1.2-.8-2.1s.3-1.5.8-2.1,1.2-.8,2.1-.8,1.5.3,2,.8c.6.6.8,1.2.8,2.1s-.3,1.5-.8,2.1c-.6.6-1.2.8-2,.8s-1.5-.3-2.1-.8ZM1554.2,307v21.9h-4.5v-21.9h4.5Z"/>
      <path class="cls-3" d="M1580,319.6h-16.7c0,1.7.8,3.1,1.9,4.2,1.2,1.1,2.6,1.6,4.3,1.6s4.2-1,5.2-3.1h4.9c-.7,2-1.9,3.7-3.6,4.9-1.7,1.3-3.9,1.9-6.4,1.9s-4-.5-5.6-1.4c-1.7-.9-3-2.3-3.9-4s-1.4-3.7-1.4-5.9.5-4.2,1.4-5.9c.9-1.7,2.2-3,3.8-3.9,1.7-.9,3.6-1.4,5.7-1.4s3.9.5,5.5,1.3c1.6.9,2.9,2.2,3.8,3.8.9,1.6,1.3,3.5,1.3,5.6s0,1.6-.2,2.2h0ZM1575.4,316c0-1.7-.6-3-1.8-4s-2.6-1.5-4.3-1.5-2.9.5-4,1.5-1.8,2.3-2,4h12.1Z"/>
      <path class="cls-3" d="M1614,307l-6.8,21.9h-4.8l-4.4-16.2-4.4,16.2h-4.8l-6.8-21.9h4.6l4.6,17.6,4.6-17.6h4.7l4.4,17.5,4.5-17.5h4.6Z"/>
      <path class="cls-3" d="M1620.6,328.3c-1.4-.6-2.4-1.5-3.2-2.5-.8-1.1-1.2-2.3-1.3-3.6h4.7c0,.9.5,1.7,1.3,2.3.8.6,1.8.9,3,.9s2.3-.2,3-.7,1.1-1.1,1.1-1.9-.4-1.4-1.2-1.8-2-.8-3.7-1.3c-1.6-.4-3-.9-4-1.3s-1.9-1.1-2.7-1.9-1.1-2-1.1-3.5.3-2.2,1-3.2,1.7-1.7,3-2.3c1.3-.6,2.8-.8,4.4-.8,2.5,0,4.5.6,6,1.9s2.3,3,2.4,5.1h-4.5c0-1-.5-1.8-1.2-2.3s-1.7-.9-2.9-.9-2.1.2-2.7.7-1,1-1,1.8.2,1.1.6,1.5c.4.4.9.7,1.5.9.6.2,1.5.5,2.7.9,1.6.4,2.9.9,3.9,1.3s1.9,1.1,2.6,1.9c.7.8,1.1,2,1.2,3.4,0,1.2-.3,2.4-1,3.3-.7,1-1.7,1.7-2.9,2.3-1.3.6-2.7.8-4.4.8s-3.3-.3-4.6-.9h0Z"/>
      <path class="cls-3" d="M1643.5,323.4l-4.8,11h-2.9l2.8-11h4.9Z"/>
      <path class="cls-3" d="M1658.1,307.7c1.3-2.1,3-3.8,5.1-5,2.2-1.2,4.5-1.8,7.1-1.8s5.5.7,7.8,2.2c2.3,1.4,3.9,3.5,5,6.1h-5.4c-.7-1.5-1.7-2.5-3-3.3-1.3-.7-2.7-1.1-4.4-1.1s-3.5.4-4.9,1.2c-1.4.8-2.5,2-3.4,3.5-.8,1.5-1.2,3.3-1.2,5.4s.4,3.8,1.2,5.4c.8,1.5,1.9,2.7,3.4,3.6,1.4.8,3.1,1.2,4.9,1.2s3.1-.4,4.4-1.1c1.3-.7,2.3-1.8,3-3.3h5.4c-1,2.6-2.7,4.7-5,6.1s-4.9,2.1-7.8,2.1-5-.6-7.1-1.8c-2.1-1.2-3.8-2.9-5.1-5s-1.9-4.6-1.9-7.3.6-5.1,1.9-7.3v.2h0Z"/>
      <path class="cls-3" d="M1695.6,307.6c1.1-.6,2.4-.9,3.9-.9v4.7h-1.2c-1.8,0-3.1.5-4,1.3-.9.9-1.4,2.5-1.4,4.7v11.5h-4.5v-21.9h4.5v3.2c.7-1.1,1.5-2,2.6-2.6h0Z"/>
      <path class="cls-3" d="M1723.6,319.6h-16.7c0,1.7.8,3.1,1.9,4.2,1.2,1.1,2.6,1.6,4.3,1.6s4.2-1,5.2-3.1h4.9c-.7,2-1.9,3.7-3.6,4.9-1.7,1.3-3.9,1.9-6.4,1.9s-4-.5-5.6-1.4c-1.7-.9-3-2.3-3.9-4s-1.4-3.7-1.4-5.9.5-4.2,1.4-5.9c.9-1.7,2.2-3,3.8-3.9,1.7-.9,3.6-1.4,5.7-1.4s3.9.5,5.5,1.3c1.6.9,2.9,2.2,3.8,3.8s1.3,3.5,1.3,5.6,0,1.6-.2,2.2h0ZM1719,316c0-1.7-.6-3-1.8-4-1.2-1-2.6-1.5-4.3-1.5s-2.9.5-4,1.5-1.8,2.3-2,4h12.1Z"/>
      <path class="cls-3" d="M1728,312c.9-1.7,2.2-3,3.7-3.9,1.6-.9,3.3-1.4,5.3-1.4s2.8.3,4.2.9c1.4.6,2.5,1.4,3.3,2.5v-10.6h4.6v29.4h-4.6v-3.3c-.7,1.1-1.8,1.9-3.1,2.6s-2.8,1-4.5,1-3.6-.5-5.2-1.4c-1.6-1-2.8-2.3-3.7-4-.9-1.7-1.4-3.7-1.4-5.9s.5-4.1,1.4-5.8h0ZM1743.6,314c-.6-1.1-1.4-2-2.4-2.5-1-.6-2.1-.9-3.3-.9s-2.2.3-3.3.9c-1,.6-1.8,1.4-2.4,2.5s-.9,2.4-.9,3.9.3,2.8.9,4c.6,1.1,1.4,2,2.5,2.6s2.1.9,3.2.9,2.2-.3,3.3-.9c1-.6,1.8-1.4,2.4-2.6.6-1.1.9-2.4.9-3.9s-.3-2.8-.9-3.9h0Z"/>
      <path class="cls-3" d="M1755.3,303.3c-.6-.6-.8-1.2-.8-2.1s.3-1.5.8-2.1,1.2-.8,2.1-.8,1.5.3,2,.8.8,1.2.8,2.1-.3,1.5-.8,2.1-1.2.8-2,.8-1.5-.3-2.1-.8ZM1759.6,307v21.9h-4.5v-21.9h4.5Z"/>
      <path class="cls-3" d="M1773.2,307.6c1.3-.7,2.8-1,4.5-1s3.7.5,5.2,1.4c1.6.9,2.8,2.2,3.7,3.9.9,1.7,1.3,3.7,1.3,5.9s-.5,4.2-1.3,5.9c-.9,1.7-2.1,3.1-3.7,4-1.6,1-3.3,1.4-5.2,1.4s-3.2-.3-4.5-1-2.3-1.5-3.1-2.5v3.2h-4.5v-29.4h4.5v10.8c.8-1.1,1.8-1.9,3.2-2.6h0ZM1782.4,313.9c-.6-1.1-1.4-1.9-2.5-2.5-1-.6-2.1-.9-3.3-.9s-2.2.3-3.2.9-1.8,1.4-2.5,2.5c-.6,1.1-.9,2.4-.9,3.9s.3,2.8.9,3.9,1.4,2,2.5,2.6c1,.6,2.1.9,3.2.9s2.3-.3,3.3-.9,1.8-1.5,2.5-2.6c.6-1.1.9-2.5.9-4s-.3-2.8-.9-3.9h0Z"/>
      <path class="cls-3" d="M1792.7,303.3c-.6-.6-.8-1.2-.8-2.1s.3-1.5.8-2.1,1.2-.8,2.1-.8,1.5.3,2,.8.8,1.2.8,2.1-.3,1.5-.8,2.1-1.2.8-2,.8-1.5-.3-2.1-.8ZM1797,307v21.9h-4.5v-21.9h4.5Z"/>
      <path class="cls-3" d="M1807.5,299.5v29.4h-4.5v-29.4h4.5Z"/>
      <path class="cls-3" d="M1813.6,303.3c-.6-.6-.8-1.2-.8-2.1s.3-1.5.8-2.1,1.2-.8,2.1-.8,1.5.3,2,.8.8,1.2.8,2.1-.3,1.5-.8,2.1-1.2.8-2,.8-1.5-.3-2.1-.8ZM1817.9,307v21.9h-4.5v-21.9h4.5Z"/>
      <path class="cls-3" d="M1829.2,310.7v12.1c0,.8.2,1.4.6,1.8s1,.5,2,.5h2.8v3.8h-3.6c-2,0-3.6-.5-4.7-1.4s-1.6-2.5-1.6-4.6v-12.1h-2.6v-3.7h2.6v-5.4h4.6v5.4h5.3v3.7h-5.4Z"/>
      <path class="cls-3" d="M1858.3,307l-13.4,32.1h-4.7l4.4-10.6-8.6-21.5h5l6.2,16.7,6.4-16.7h4.7Z"/>
    </g>
    <circle class="cls-5" cx="1667.8" cy="122.1" r="59.2" transform="translate(402.1 1215) rotate(-45)"/>
    <path class="cls-2" d="M1667.9,159.9c-7.5,0-17.2-8.3-23.2-15.4-5.2-6.1-13.9-18.6-13.9-33.3s9.4-21,21-21,12.2,2.9,16,7.4c3.9-4.5,9.6-7.4,16-7.4,11.6,0,21,9.4,21,21s-8.7,27.1-13.9,33.3c-6,7.1-15.7,15.4-23.2,15.4h.2ZM1651.9,100.2c-6.1,0-11,5-11,11s4.2,18.2,11.5,26.8c7,8.3,13.7,11.8,15.5,11.8s8.6-3.6,15.5-11.8c7.3-8.7,11.5-18.4,11.5-26.8s-5-11-11-11-11,5-11,11-2.2,5-5,5-5-2.2-5-5c0-6.1-5-11-11-11Z"/>
    <g>
      <path class="cls-3" d="M1436.8,242.6v7.4h9.9v4.7h-9.9v7.8h11.2v4.8h-17.1v-29.6h17.1v4.8h-11.2Z"/>
      <path class="cls-3" d="M1489.5,246.2c1.8,1.8,2.6,4.2,2.6,7.4v13.8h-5.9v-13c0-1.8-.5-3.2-1.4-4.2-.9-1-2.2-1.5-3.8-1.5s-2.9.5-3.8,1.5c-.9,1-1.4,2.4-1.4,4.2v13h-5.9v-13c0-1.8-.5-3.2-1.4-4.2-.9-1-2.2-1.5-3.8-1.5s-2.9.5-3.9,1.5c-.9,1-1.4,2.4-1.4,4.2v13h-5.9v-23.4h5.9v2.8c.8-1,1.7-1.8,2.9-2.3s2.5-.8,4-.8,3.5.4,4.9,1.2c1.4.8,2.6,1.9,3.3,3.3.8-1.4,1.9-2.4,3.3-3.3,1.5-.8,3-1.2,4.7-1.2,2.9,0,5.2.9,7,2.6Z"/>
      <path class="cls-3" d="M1502.1,266.2c-1.8-1-3.2-2.4-4.3-4.3-1-1.8-1.5-4-1.5-6.3s.5-4.5,1.6-6.3,2.5-3.3,4.3-4.3c1.8-1,3.9-1.5,6.1-1.5s4.3.5,6.1,1.5,3.3,2.4,4.3,4.3c1.1,1.8,1.6,4,1.6,6.3s-.5,4.5-1.6,6.3c-1.1,1.8-2.6,3.3-4.4,4.3-1.8,1-3.9,1.5-6.2,1.5s-4.3-.5-6.1-1.5ZM1511.2,261.8c.9-.5,1.7-1.3,2.3-2.3s.8-2.3.8-3.8c0-2.2-.6-3.9-1.8-5.1s-2.6-1.8-4.3-1.8-3.1.6-4.3,1.8-1.7,2.9-1.7,5.1.6,3.9,1.7,5.1c1.1,1.2,2.5,1.8,4.2,1.8s2.1-.3,3-.8Z"/>
      <path class="cls-3" d="M1531.6,248.7v11.3c0,.8.2,1.4.6,1.7s1,.5,1.9.5h2.8v5h-3.7c-5,0-7.5-2.4-7.5-7.3v-11.3h-2.8v-4.9h2.8v-5.8h6v5.8h5.2v4.9h-5.2Z"/>
      <path class="cls-3" d="M1541.6,240.1c-.7-.7-1-1.5-1-2.5s.3-1.8,1-2.5,1.6-1,2.6-1,1.9.3,2.6,1c.7.7,1,1.5,1,2.5s-.3,1.8-1,2.5c-.7.7-1.6,1-2.6,1s-1.9-.3-2.6-1ZM1547.1,243.9v23.4h-5.9v-23.4h5.9Z"/>
      <path class="cls-3" d="M1557.3,266.2c-1.8-1-3.2-2.4-4.3-4.3-1-1.8-1.5-4-1.5-6.3s.5-4.5,1.6-6.3,2.5-3.3,4.3-4.3c1.8-1,3.9-1.5,6.1-1.5s4.3.5,6.1,1.5,3.3,2.4,4.3,4.3c1.1,1.8,1.6,4,1.6,6.3s-.5,4.5-1.6,6.3c-1.1,1.8-2.6,3.3-4.4,4.3-1.8,1-3.9,1.5-6.2,1.5s-4.3-.5-6.1-1.5ZM1566.4,261.8c.9-.5,1.7-1.3,2.3-2.3s.8-2.3.8-3.8c0-2.2-.6-3.9-1.8-5.1s-2.6-1.8-4.3-1.8-3.1.6-4.3,1.8-1.7,2.9-1.7,5.1.6,3.9,1.7,5.1c1.1,1.2,2.5,1.8,4.2,1.8s2.1-.3,3-.8Z"/>
      <path class="cls-3" d="M1599.7,246.2c1.7,1.8,2.6,4.2,2.6,7.4v13.8h-5.9v-13c0-1.9-.5-3.3-1.4-4.3-.9-1-2.2-1.5-3.8-1.5s-2.9.5-3.9,1.5c-.9,1-1.4,2.4-1.4,4.3v13h-5.9v-23.4h5.9v2.9c.8-1,1.8-1.8,3-2.4s2.6-.9,4-.9c2.8,0,5.1.9,6.8,2.6Z"/>
      <path class="cls-3" d="M1607.8,249.2c.9-1.8,2.2-3.2,3.9-4.2,1.6-1,3.4-1.5,5.4-1.5s3.3.4,4.6,1.1c1.3.7,2.4,1.6,3.2,2.7v-3.3h6v23.4h-6v-3.4c-.8,1.1-1.8,2-3.2,2.7-1.3.7-2.9,1.1-4.6,1.1s-3.8-.5-5.4-1.5c-1.6-1-2.9-2.4-3.9-4.3-.9-1.8-1.4-4-1.4-6.4s.5-4.5,1.4-6.3ZM1624,251.9c-.6-1-1.3-1.8-2.3-2.4-1-.5-2-.8-3.1-.8s-2.1.3-3,.8c-.9.5-1.7,1.3-2.3,2.3-.6,1-.9,2.3-.9,3.7s.3,2.6.9,3.7c.6,1.1,1.3,1.9,2.3,2.4s2,.8,3,.8,2.1-.3,3.1-.8c1-.6,1.7-1.3,2.3-2.4.6-1,.8-2.3.8-3.7s-.3-2.7-.8-3.7Z"/>
      <path class="cls-3" d="M1642.5,236v31.3h-5.9v-31.3h5.9Z"/>
      <path class="cls-3" d="M1659,244.7c1.3-2.3,3.1-4.1,5.4-5.4s4.8-1.9,7.6-1.9,6.2.8,8.7,2.5c2.5,1.7,4.2,4,5.2,7h-6.8c-.7-1.4-1.6-2.5-2.9-3.2-1.2-.7-2.6-1.1-4.3-1.1s-3.3.4-4.6,1.2c-1.3.8-2.4,1.9-3.1,3.4-.7,1.5-1.1,3.2-1.1,5.2s.4,3.7,1.1,5.1c.7,1.5,1.8,2.6,3.1,3.4,1.3.8,2.9,1.2,4.6,1.2s3-.4,4.3-1.1,2.2-1.8,2.9-3.2h6.8c-1,3-2.7,5.4-5.2,7-2.5,1.7-5.4,2.5-8.7,2.5s-5.4-.6-7.6-1.9-4.1-3.1-5.4-5.4c-1.3-2.3-2-4.9-2-7.8s.7-5.5,2-7.8Z"/>
      <path class="cls-3" d="M1695.3,266.2c-1.8-1-3.2-2.4-4.3-4.3-1-1.8-1.5-4-1.5-6.3s.5-4.5,1.6-6.3,2.5-3.3,4.3-4.3c1.8-1,3.9-1.5,6.1-1.5s4.3.5,6.1,1.5,3.3,2.4,4.3,4.3c1.1,1.8,1.6,4,1.6,6.3s-.5,4.5-1.6,6.3c-1.1,1.8-2.6,3.3-4.4,4.3-1.8,1-3.9,1.5-6.2,1.5s-4.3-.5-6.1-1.5ZM1704.4,261.8c.9-.5,1.7-1.3,2.3-2.3s.8-2.3.8-3.8c0-2.2-.6-3.9-1.8-5.1s-2.6-1.8-4.3-1.8-3.1.6-4.3,1.8-1.7,2.9-1.7,5.1.6,3.9,1.7,5.1c1.1,1.2,2.5,1.8,4.2,1.8s2.1-.3,3-.8Z"/>
      <path class="cls-3" d="M1737.7,246.2c1.7,1.8,2.6,4.2,2.6,7.4v13.8h-5.9v-13c0-1.9-.5-3.3-1.4-4.3-.9-1-2.2-1.5-3.8-1.5s-2.9.5-3.9,1.5c-.9,1-1.4,2.4-1.4,4.3v13h-5.9v-23.4h5.9v2.9c.8-1,1.8-1.8,3-2.4s2.6-.9,4-.9c2.8,0,5.1.9,6.8,2.6Z"/>
      <path class="cls-3" d="M1749.8,266.7c-1.5-.7-2.7-1.6-3.6-2.8-.9-1.2-1.4-2.5-1.5-3.9h6c.1.9.6,1.7,1.3,2.2.8.6,1.7.9,2.9.9s2-.2,2.6-.7,1-1,1-1.7-.4-1.3-1.2-1.7-2-.8-3.7-1.2c-1.8-.4-3.2-.9-4.3-1.3-1.1-.5-2.1-1.1-2.9-2.1-.8-.9-1.2-2.2-1.2-3.8s.4-2.5,1.1-3.6,1.8-1.9,3.2-2.5c1.4-.6,3-.9,4.9-.9,2.8,0,5,.7,6.7,2.1,1.7,1.4,2.6,3.3,2.8,5.7h-5.7c0-.9-.5-1.7-1.2-2.2-.7-.5-1.6-.8-2.8-.8s-1.9.2-2.5.6c-.6.4-.9.9-.9,1.7s.4,1.4,1.2,1.8c.8.4,2,.8,3.7,1.2,1.7.4,3.1.9,4.2,1.3,1.1.5,2.1,1.2,2.9,2.1.8.9,1.2,2.2,1.2,3.7,0,1.4-.4,2.6-1.1,3.6-.7,1.1-1.8,1.9-3.2,2.5-1.4.6-3,.9-4.9.9s-3.6-.3-5.2-1Z"/>
      <path class="cls-3" d="M1775.9,248.7v11.3c0,.8.2,1.4.6,1.7s1,.5,1.9.5h2.8v5h-3.7c-5,0-7.5-2.4-7.5-7.3v-11.3h-2.8v-4.9h2.8v-5.8h6v5.8h5.2v4.9h-5.2Z"/>
      <path class="cls-3" d="M1794.3,244.6c1.2-.7,2.6-1.1,4.2-1.1v6.2h-1.6c-1.9,0-3.3.4-4.2,1.3-.9.9-1.4,2.4-1.4,4.6v11.7h-5.9v-23.4h5.9v3.6c.8-1.2,1.8-2.2,3-2.9Z"/>
      <path class="cls-3" d="M1802.4,249.2c.9-1.8,2.2-3.2,3.9-4.2,1.6-1,3.4-1.5,5.4-1.5s3.3.4,4.6,1.1c1.3.7,2.4,1.6,3.2,2.7v-3.3h6v23.4h-6v-3.4c-.8,1.1-1.8,2-3.2,2.7-1.3.7-2.9,1.1-4.6,1.1s-3.8-.5-5.4-1.5c-1.6-1-2.9-2.4-3.9-4.3-.9-1.8-1.4-4-1.4-6.4s.5-4.5,1.4-6.3ZM1818.6,251.9c-.6-1-1.3-1.8-2.3-2.4-1-.5-2-.8-3.1-.8s-2.1.3-3,.8c-.9.5-1.7,1.3-2.3,2.3-.6,1-.9,2.3-.9,3.7s.3,2.6.9,3.7c.6,1.1,1.3,1.9,2.3,2.4s2,.8,3,.8,2.1-.3,3.1-.8c1-.6,1.7-1.3,2.3-2.4.6-1,.8-2.3.8-3.7s-.3-2.7-.8-3.7Z"/>
      <path class="cls-3" d="M1831.6,240.1c-.7-.7-1-1.5-1-2.5s.3-1.8,1-2.5,1.6-1,2.6-1,1.9.3,2.6,1c.7.7,1,1.5,1,2.5s-.3,1.8-1,2.5c-.7.7-1.6,1-2.6,1s-1.9-.3-2.6-1ZM1837.2,243.9v23.4h-5.9v-23.4h5.9Z"/>
      <path class="cls-3" d="M1862.8,246.2c1.7,1.8,2.6,4.2,2.6,7.4v13.8h-5.9v-13c0-1.9-.5-3.3-1.4-4.3-.9-1-2.2-1.5-3.8-1.5s-2.9.5-3.9,1.5c-.9,1-1.4,2.4-1.4,4.3v13h-5.9v-23.4h5.9v2.9c.8-1,1.8-1.8,3-2.4s2.6-.9,4-.9c2.8,0,5.1.9,6.8,2.6Z"/>
      <path class="cls-3" d="M1877.9,248.7v11.3c0,.8.2,1.4.6,1.7s1,.5,1.9.5h2.8v5h-3.7c-5,0-7.5-2.4-7.5-7.3v-11.3h-2.8v-4.9h2.8v-5.8h6v5.8h5.2v4.9h-5.2Z"/>
      <path class="cls-3" d="M1891.2,266.7c-1.5-.7-2.7-1.6-3.6-2.8-.9-1.2-1.4-2.5-1.5-3.9h6c.1.9.6,1.7,1.3,2.2.8.6,1.7.9,2.9.9s2-.2,2.6-.7,1-1,1-1.7-.4-1.3-1.2-1.7-2-.8-3.7-1.2c-1.8-.4-3.2-.9-4.3-1.3-1.1-.5-2.1-1.1-2.9-2.1-.8-.9-1.2-2.2-1.2-3.8s.4-2.5,1.1-3.6,1.8-1.9,3.2-2.5c1.4-.6,3-.9,4.9-.9,2.8,0,5,.7,6.7,2.1,1.7,1.4,2.6,3.3,2.8,5.7h-5.7c0-.9-.5-1.7-1.2-2.2-.7-.5-1.6-.8-2.8-.8s-1.9.2-2.5.6c-.6.4-.9.9-.9,1.7s.4,1.4,1.2,1.8c.8.4,2,.8,3.7,1.2,1.7.4,3.1.9,4.2,1.3,1.1.5,2.1,1.2,2.9,2.1.8.9,1.2,2.2,1.2,3.7,0,1.4-.4,2.6-1.1,3.6-.7,1.1-1.8,1.9-3.2,2.5-1.4.6-3,.9-4.9.9s-3.6-.3-5.2-1Z"/>
    </g>
  </g>
  <path class="cls-4" d="M60.8,0h514.7C609.1,0,636.4,20.3,636.4,45.4v333.5c0,25.1-27.2,45.4-60.8,45.4H60.8c-33.6,0-60.8-20.3-60.8-45.4V45.4C0,20.3,27.2,0,60.8,0Z"/>
  <circle class="cls-5" cx="318.2" cy="129.9" r="59.2"/>
  <g>
    <path class="cls-3" d="M118.7,262.4h9.8v4.7h-15.7v-29.7h6v25h-.1Z"/>
    <path class="cls-3" d="M136.6,266c-1.8-1-3.2-2.4-4.3-4.3-1-1.8-1.6-4-1.6-6.4s.5-4.5,1.6-6.4c1.1-1.8,2.5-3.3,4.4-4.3,1.8-1,3.9-1.5,6.2-1.5s4.3.5,6.2,1.5c1.8,1,3.3,2.4,4.4,4.3,1.1,1.8,1.6,4,1.6,6.4s-.5,4.5-1.6,6.4c-1.1,1.8-2.6,3.3-4.4,4.3-1.9,1-3.9,1.5-6.2,1.5s-4.3-.5-6.1-1.5h-.2,0ZM145.7,261.5c.9-.5,1.7-1.3,2.3-2.4.6-1,.9-2.3.9-3.8,0-2.2-.6-4-1.8-5.2s-2.6-1.8-4.3-1.8-3.1.6-4.3,1.8c-1.1,1.2-1.7,2.9-1.7,5.2s.6,4,1.7,5.2c1.1,1.2,2.5,1.8,4.2,1.8s2.1-.3,3-.8h0Z"/>
    <path class="cls-3" d="M173.2,244.2c1.3.7,2.4,1.6,3.1,2.7v-3.4h6v23.7c0,2.2-.4,4.1-1.3,5.8-.9,1.7-2.2,3.1-4,4.1s-3.9,1.5-6.4,1.5-6.1-.8-8.2-2.3c-2.1-1.6-3.4-3.7-3.6-6.4h5.9c.3,1.1,1,1.9,2,2.6,1,.6,2.3,1,3.8,1s3.1-.5,4.2-1.6c1.1-1,1.6-2.6,1.6-4.7v-3.7c-.8,1.1-1.8,2-3.2,2.8-1.3.7-2.9,1.1-4.6,1.1s-3.8-.5-5.4-1.5c-1.6-1-2.9-2.5-3.9-4.3-1-1.9-1.4-4-1.4-6.4s.5-4.5,1.4-6.3,2.2-3.3,3.9-4.3c1.6-1,3.5-1.5,5.5-1.5s3.3.3,4.6,1h0ZM175.5,251.6c-.6-1-1.3-1.8-2.3-2.4-1-.6-2-.8-3.1-.8s-2.1.3-3.1.8c-.9.5-1.7,1.3-2.3,2.4-.6,1-.9,2.3-.9,3.7s.3,2.7.9,3.7c.6,1.1,1.3,1.9,2.3,2.4.9.6,2,.9,3,.9s2.1-.3,3.1-.8c1-.6,1.7-1.3,2.3-2.4.6-1,.9-2.3.9-3.7s-.3-2.7-.9-3.7h.1Z"/>
    <path class="cls-3" d="M188.6,239.8c-.7-.7-1-1.5-1-2.5s.3-1.8,1-2.5,1.6-1,2.6-1,1.9.3,2.6,1c.7.7,1,1.5,1,2.5s-.3,1.8-1,2.5-1.6,1-2.6,1-1.9-.3-2.6-1ZM194.1,243.6v23.6h-6v-23.6h6Z"/>
    <path class="cls-3" d="M200,249c1-1.8,2.4-3.2,4.1-4.3,1.8-1,3.8-1.5,6-1.5s5.3.7,7.2,2.2,3.2,3.5,3.8,6.1h-6.4c-.3-1-.9-1.8-1.7-2.4-.8-.6-1.8-.9-3-.9-1.7,0-3,.6-4,1.8s-1.5,3-1.5,5.3.5,4,1.5,5.2,2.3,1.8,4,1.8,4-1.1,4.7-3.2h6.4c-.7,2.6-1.9,4.6-3.9,6.1-1.9,1.5-4.3,2.3-7.2,2.3s-4.3-.5-6-1.5c-1.8-1-3.1-2.4-4.1-4.3s-1.5-4-1.5-6.4.5-4.6,1.5-6.4h0Z"/>
    <path class="cls-3" d="M225.5,248.9c.9-1.8,2.2-3.3,3.9-4.3,1.6-1,3.5-1.5,5.5-1.5s3.3.4,4.6,1.1c1.3.7,2.4,1.6,3.2,2.7v-3.4h6v23.6h-6v-3.4c-.8,1.1-1.8,2-3.2,2.7-1.3.7-2.9,1.1-4.7,1.1s-3.8-.5-5.4-1.5c-1.6-1-2.9-2.5-3.9-4.3-1-1.9-1.4-4-1.4-6.4s.5-4.5,1.4-6.3h0ZM241.8,251.6c-.6-1-1.3-1.8-2.3-2.4-1-.6-2-.8-3.1-.8s-2.1.3-3.1.8c-.9.5-1.7,1.3-2.3,2.4-.6,1-.9,2.3-.9,3.7s.3,2.7.9,3.7c.6,1.1,1.3,1.9,2.3,2.4.9.6,2,.9,3,.9s2.1-.3,3.1-.8c1-.6,1.7-1.3,2.3-2.4.6-1,.9-2.3.9-3.7s-.3-2.7-.9-3.7h.1Z"/>
    <path class="cls-3" d="M260.4,235.7v31.5h-6v-31.5h6Z"/>
    <path class="cls-3" d="M276.9,244.4c1.3-2.3,3.1-4.1,5.4-5.4,2.3-1.3,4.8-1.9,7.7-1.9s6.2.9,8.7,2.6c2.5,1.7,4.2,4.1,5.2,7.1h-6.8c-.7-1.4-1.6-2.5-2.9-3.2-1.2-.7-2.7-1.1-4.3-1.1s-3.3.4-4.6,1.2c-1.3.8-2.4,1.9-3.1,3.4-.8,1.5-1.1,3.2-1.1,5.2s.4,3.7,1.1,5.2c.8,1.5,1.8,2.6,3.1,3.4,1.3.8,2.9,1.2,4.6,1.2s3-.4,4.3-1.1c1.2-.7,2.2-1.8,2.9-3.2h6.8c-1,3-2.7,5.4-5.2,7.1s-5.4,2.5-8.7,2.5-5.4-.6-7.7-1.9c-2.3-1.3-4.1-3.1-5.4-5.4s-2-4.9-2-7.8.7-5.5,2-7.8h0Z"/>
    <path class="cls-3" d="M313.4,266c-1.8-1-3.2-2.4-4.3-4.3-1-1.8-1.6-4-1.6-6.4s.5-4.5,1.6-6.4c1.1-1.8,2.5-3.3,4.4-4.3,1.8-1,3.9-1.5,6.2-1.5s4.3.5,6.2,1.5c1.8,1,3.3,2.4,4.4,4.3,1.1,1.8,1.6,4,1.6,6.4s-.5,4.5-1.6,6.4c-1.1,1.8-2.6,3.3-4.4,4.3-1.9,1-3.9,1.5-6.2,1.5s-4.3-.5-6.1-1.5h-.2ZM322.5,261.5c.9-.5,1.7-1.3,2.3-2.4.6-1,.9-2.3.9-3.8,0-2.2-.6-4-1.8-5.2-1.2-1.2-2.6-1.8-4.3-1.8s-3.1.6-4.3,1.8c-1.1,1.2-1.7,2.9-1.7,5.2s.6,4,1.7,5.2,2.5,1.8,4.2,1.8,2.1-.3,3-.8h0Z"/>
    <path class="cls-3" d="M356,245.9c1.7,1.8,2.6,4.2,2.6,7.4v13.8h-6v-13c0-1.9-.5-3.3-1.4-4.3s-2.2-1.5-3.8-1.5-2.9.5-3.9,1.5-1.4,2.4-1.4,4.3v13h-6v-23.6h6v2.9c.8-1,1.8-1.8,3-2.4s2.6-.9,4.1-.9c2.8,0,5.1.9,6.8,2.7h0Z"/>
    <path class="cls-3" d="M368.1,266.5c-1.5-.7-2.7-1.6-3.6-2.8s-1.4-2.5-1.5-4h6c.1.9.6,1.7,1.3,2.3.8.6,1.8.9,2.9.9s2-.2,2.7-.7,1-1,1-1.7-.4-1.3-1.2-1.7c-.8-.4-2-.8-3.7-1.3-1.8-.4-3.2-.9-4.3-1.3-1.1-.5-2.1-1.1-2.9-2.1-.8-.9-1.2-2.2-1.2-3.8s.4-2.5,1.1-3.6c.8-1.1,1.8-1.9,3.2-2.6,1.4-.6,3.1-.9,5-.9,2.8,0,5,.7,6.7,2.1,1.7,1.4,2.6,3.3,2.8,5.7h-5.7c0-.9-.5-1.7-1.2-2.2-.7-.6-1.6-.8-2.8-.8s-1.9.2-2.5.6c-.6.4-.9,1-.9,1.7s.4,1.4,1.2,1.8,2,.8,3.7,1.3c1.7.4,3.1.9,4.2,1.3,1.1.5,2.1,1.2,2.9,2.1.8,1,1.2,2.2,1.3,3.8,0,1.4-.4,2.6-1.1,3.7s-1.8,1.9-3.2,2.5c-1.4.6-3,.9-4.9.9s-3.7-.3-5.2-1v-.2h0Z"/>
    <path class="cls-3" d="M394.4,248.5v11.4c0,.8.2,1.4.6,1.7s1,.5,1.9.5h2.8v5h-3.7c-5,0-7.5-2.4-7.5-7.3v-11.4h-2.8v-4.9h2.8v-5.8h6v5.8h5.3v4.9h-5.4,0Z"/>
    <path class="cls-3" d="M412.9,244.3c1.2-.7,2.6-1.1,4.2-1.1v6.3h-1.6c-1.9,0-3.3.4-4.2,1.3-1,.9-1.4,2.4-1.4,4.6v11.7h-6v-23.6h6v3.7c.8-1.2,1.8-2.2,3-2.9Z"/>
    <path class="cls-3" d="M421,248.9c.9-1.8,2.2-3.3,3.9-4.3,1.6-1,3.5-1.5,5.5-1.5s3.3.4,4.6,1.1c1.3.7,2.4,1.6,3.2,2.7v-3.4h6v23.6h-6v-3.4c-.8,1.1-1.8,2-3.2,2.7-1.3.7-2.9,1.1-4.7,1.1s-3.8-.5-5.4-1.5-2.9-2.5-3.9-4.3c-1-1.9-1.4-4-1.4-6.4s.5-4.5,1.4-6.3h0ZM437.3,251.6c-.6-1-1.3-1.8-2.3-2.4-1-.6-2-.8-3.1-.8s-2.1.3-3.1.8c-.9.5-1.7,1.3-2.3,2.4-.6,1-.9,2.3-.9,3.7s.3,2.7.9,3.7c.6,1.1,1.3,1.9,2.3,2.4.9.6,2,.9,3,.9s2.1-.3,3.1-.8c1-.6,1.7-1.3,2.3-2.4.6-1,.9-2.3.9-3.7s-.3-2.7-.9-3.7h.1Z"/>
    <path class="cls-3" d="M450.3,239.8c-.7-.7-1-1.5-1-2.5s.3-1.8,1-2.5,1.6-1,2.6-1,1.9.3,2.6,1,1,1.5,1,2.5-.3,1.8-1,2.5-1.6,1-2.6,1-1.9-.3-2.6-1ZM455.9,243.6v23.6h-6v-23.6h6Z"/>
    <path class="cls-3" d="M481.6,245.9c1.7,1.8,2.6,4.2,2.6,7.4v13.8h-6v-13c0-1.9-.5-3.3-1.4-4.3s-2.2-1.5-3.8-1.5-2.9.5-3.9,1.5-1.4,2.4-1.4,4.3v13h-6v-23.6h6v2.9c.8-1,1.8-1.8,3-2.4s2.6-.9,4.1-.9c2.8,0,5.1.9,6.8,2.7h0Z"/>
    <path class="cls-3" d="M496.8,248.5v11.4c0,.8.2,1.4.6,1.7s1,.5,1.9.5h2.8v5h-3.7c-5,0-7.5-2.4-7.5-7.3v-11.4h-2.8v-4.9h2.8v-5.8h6v5.8h5.3v4.9h-5.4,0Z"/>
    <path class="cls-3" d="M510.2,266.5c-1.5-.7-2.7-1.6-3.6-2.8s-1.4-2.5-1.5-4h6c.1.9.6,1.7,1.3,2.3.8.6,1.8.9,2.9.9s2-.2,2.7-.7,1-1,1-1.7-.4-1.3-1.2-1.7-2-.8-3.7-1.3c-1.8-.4-3.2-.9-4.3-1.3-1.1-.5-2.1-1.1-2.9-2.1-.8-.9-1.2-2.2-1.2-3.8s.4-2.5,1.1-3.6c.8-1.1,1.8-1.9,3.2-2.6,1.4-.6,3.1-.9,5-.9,2.8,0,5,.7,6.7,2.1,1.7,1.4,2.6,3.3,2.8,5.7h-5.7c0-.9-.5-1.7-1.2-2.2-.7-.6-1.6-.8-2.8-.8s-1.9.2-2.5.6c-.6.4-.9,1-.9,1.7s.4,1.4,1.2,1.8c.8.4,2,.8,3.7,1.3,1.7.4,3.1.9,4.2,1.3,1.1.5,2.1,1.2,2.9,2.1.8,1,1.2,2.2,1.3,3.8,0,1.4-.4,2.6-1.1,3.7s-1.8,1.9-3.2,2.5-3,.9-4.9.9-3.7-.3-5.2-1v-.2h-.1Z"/>
  </g>
  <g>
    <path class="cls-3" d="M293.7,323.2h-11.5l-2,5.6h-4.7l9.9-27.6h5.2l9.9,27.6h-4.8l-2-5.6h0ZM292.4,319.5l-4.5-12.8-4.5,12.8h9Z"/>
    <path class="cls-3" d="M318,307.6c1.3.7,2.3,1.5,3.1,2.5v-3.2h4.6v22.2c0,2-.4,3.8-1.3,5.4-.8,1.6-2.1,2.8-3.7,3.7-1.6.9-3.5,1.3-5.7,1.3s-5.4-.7-7.4-2.1-3.1-3.3-3.3-5.7h4.5c.3,1.1,1.1,2.1,2.2,2.8s2.5,1.1,4,1.1,3.3-.6,4.4-1.7,1.7-2.7,1.7-4.8v-3.7c-.8,1-1.8,1.9-3.1,2.6-1.3.7-2.8,1.1-4.5,1.1s-3.6-.5-5.2-1.4c-1.6-1-2.8-2.3-3.7-4s-1.4-3.7-1.4-5.9.5-4.1,1.4-5.8,2.2-3,3.7-3.9c1.6-.9,3.3-1.4,5.2-1.4s3.2.3,4.5,1h0ZM320.2,314c-.6-1.1-1.4-2-2.4-2.5-1-.6-2.1-.9-3.3-.9s-2.2.3-3.3.9c-1,.6-1.8,1.4-2.4,2.5s-.9,2.4-.9,3.9.3,2.8.9,4c.6,1.1,1.4,2,2.5,2.6s2.1.9,3.2.9,2.2-.3,3.3-.9c1-.6,1.8-1.4,2.4-2.6.6-1.1.9-2.4.9-3.9s-.3-2.8-.9-3.9h0Z"/>
    <path class="cls-3" d="M351.5,319.6h-16.7c.1,1.7.8,3.1,1.9,4.2,1.2,1.1,2.6,1.6,4.3,1.6s4.2-1,5.2-3.1h4.9c-.7,2-1.9,3.7-3.6,4.9-1.7,1.3-3.9,1.9-6.4,1.9s-4-.5-5.6-1.4c-1.7-.9-3-2.3-3.9-4s-1.4-3.7-1.4-5.9.5-4.2,1.4-5.9c.9-1.7,2.2-3,3.8-3.9,1.7-.9,3.6-1.4,5.7-1.4s3.9.5,5.5,1.3c1.6.9,2.9,2.2,3.8,3.8.9,1.6,1.3,3.5,1.3,5.6s0,1.6-.2,2.2h0ZM346.9,316c0-1.7-.6-3-1.8-4-1.2-1-2.6-1.5-4.3-1.5s-2.9.5-4,1.5-1.8,2.3-2,4h12.1,0Z"/>
  </g>
  <path class="cls-4" d="M735.7,0h514.7C1284,0,1311.2,20.3,1311.2,45.4v333.5c0,25.1-27.2,45.4-60.8,45.4h-514.7c-33.6,0-60.8-20.3-60.8-45.4V45.4C674.8,20.3,702.1,0,735.7,0Z"/>
  <circle class="cls-5" cx="993" cy="122" r="59.2" transform="translate(204.6 737.9) rotate(-45)"/>
  <path class="cls-1" d="M1030.5,113.1c-1-4.1-2.6-7.9-4.7-11.4h-12.4v-12.6c-3.5-2.1-7.3-3.8-11.4-4.7l-8.9,8.7-8.9-8.7c-4.1,1-7.9,2.6-11.4,4.7v12.5h-12.6c-2.1,3.5-3.8,7.3-4.7,11.4l8.7,8.9-8.7,8.9c1,4.1,2.6,7.9,4.7,11.4h12.5v12.6c3.5,2.1,7.3,3.7,11.4,4.7l8.9-8.7,8.9,8.7c4.1-1,7.9-2.6,11.4-4.7v-12.5h12.6c2.1-3.5,3.8-7.3,4.7-11.4l-8.7-8.9,8.7-8.9h0ZM993,136.2c-7.8,0-14.1-6.3-14.1-14.1s6.3-14.1,14.1-14.1,14.1,6.3,14.1,14.1-6.3,14.1-14.1,14.1Z"/>
  <g>
    <path class="cls-3" d="M765,303c2.2,1.1,3.9,2.7,5.1,4.8,1.2,2.1,1.8,4.6,1.8,7.4s-.6,5.2-1.8,7.3c-1.2,2.1-2.9,3.6-5.1,4.7s-4.8,1.6-7.7,1.6h-9v-27.6h9c2.9,0,5.5.6,7.7,1.7h0ZM764.7,322.5c1.7-1.7,2.6-4.2,2.6-7.4s-.9-5.7-2.6-7.5-4.2-2.7-7.4-2.7h-4.5v20.2h4.5c3.2,0,5.7-.9,7.4-2.6Z"/>
    <path class="cls-3" d="M776.7,303.3c-.6-.6-.8-1.2-.8-2.1s.3-1.5.8-2.1c.6-.6,1.2-.8,2.1-.8s1.5.3,2,.8c.6.6.8,1.2.8,2.1s-.3,1.5-.8,2.1c-.6.6-1.2.8-2,.8s-1.5-.3-2.1-.8ZM780.9,307v21.9h-4.5v-21.9h4.5Z"/>
    <path class="cls-3" d="M790.2,328.3c-1.4-.6-2.4-1.5-3.2-2.5-.8-1.1-1.2-2.3-1.3-3.6h4.7c0,.9.5,1.7,1.3,2.3.8.6,1.8.9,3,.9s2.3-.2,3-.7,1.1-1.1,1.1-1.9-.4-1.4-1.2-1.8c-.8-.4-2-.8-3.7-1.3-1.6-.4-3-.9-4-1.3s-1.9-1.1-2.7-1.9-1.1-2-1.1-3.5.3-2.2,1-3.2,1.7-1.7,3-2.3,2.8-.8,4.4-.8c2.5,0,4.5.6,6,1.9s2.3,3,2.4,5.1h-4.5c0-1-.5-1.8-1.2-2.3-.7-.6-1.7-.9-2.9-.9s-2.1.2-2.7.7-1,1-1,1.8.2,1.1.6,1.5.9.7,1.5.9c.6.2,1.5.5,2.7.9,1.6.4,2.9.9,3.9,1.3s1.9,1.1,2.6,1.9,1.1,2,1.2,3.4c0,1.2-.3,2.4-1,3.3-.7,1-1.7,1.7-2.9,2.3-1.3.6-2.7.8-4.4.8s-3.3-.3-4.6-.9h0Z"/>
    <path class="cls-3" d="M813.4,310.7v12.1c0,.8.2,1.4.6,1.8s1,.5,2,.5h2.8v3.8h-3.6c-2,0-3.6-.5-4.7-1.4-1.1-1-1.6-2.5-1.6-4.6v-12.1h-2.6v-3.7h2.6v-5.4h4.6v5.4h5.3v3.7h-5.4Z"/>
    <path class="cls-3" d="M822.7,312c.9-1.7,2.2-3,3.7-3.9,1.6-.9,3.3-1.4,5.2-1.4s3.2.3,4.5,1,2.3,1.5,3.1,2.5v-3.2h4.6v21.9h-4.6v-3.3c-.8,1-1.8,1.9-3.1,2.6-1.3.7-2.8,1-4.5,1s-3.6-.5-5.2-1.4c-1.6-1-2.8-2.3-3.7-4-.9-1.7-1.4-3.7-1.4-5.9s.5-4.1,1.4-5.8h0ZM838.3,314c-.6-1.1-1.4-2-2.4-2.5-1-.6-2.1-.9-3.3-.9s-2.2.3-3.3.9c-1,.6-1.8,1.4-2.4,2.5s-.9,2.4-.9,3.9.3,2.8.9,4c.6,1.1,1.4,2,2.5,2.6,1,.6,2.1.9,3.2.9s2.2-.3,3.3-.9c1-.6,1.8-1.4,2.4-2.6.6-1.1.9-2.4.9-3.9s-.3-2.8-.9-3.9h0Z"/>
    <path class="cls-3" d="M865.4,307.7c1.4.7,2.4,1.8,3.2,3.2.8,1.4,1.2,3.1,1.2,5.1v12.9h-4.5v-12.2c0-2-.5-3.5-1.5-4.5s-2.3-1.6-4-1.6-3,.5-4,1.6c-1,1-1.5,2.5-1.5,4.5v12.2h-4.5v-21.9h4.5v2.5c.7-.9,1.7-1.6,2.8-2.1,1.2-.5,2.4-.8,3.7-.8s3.3.4,4.6,1.1h0Z"/>
    <path class="cls-3" d="M875.4,312c.9-1.7,2.2-3,3.8-3.9,1.6-.9,3.5-1.4,5.6-1.4s4.8.6,6.6,1.9c1.7,1.3,2.9,3,3.5,5.4h-4.9c-.4-1.1-1-1.9-1.9-2.5s-2-.9-3.3-.9-3.3.7-4.4,2-1.6,3.1-1.6,5.5.5,4.2,1.6,5.5,2.6,2,4.4,2,4.4-1.2,5.2-3.5h4.9c-.6,2.2-1.8,4-3.6,5.3s-3.9,2-6.5,2-3.9-.5-5.6-1.4c-1.6-.9-2.9-2.3-3.8-4s-1.4-3.7-1.4-5.9.5-4.2,1.4-5.9v-.2h0Z"/>
    <path class="cls-3" d="M919.2,319.6h-16.7c0,1.7.8,3.1,1.9,4.2,1.2,1.1,2.6,1.6,4.3,1.6s4.2-1,5.2-3.1h4.9c-.7,2-1.9,3.7-3.6,4.9-1.7,1.3-3.9,1.9-6.4,1.9s-4-.5-5.6-1.4c-1.7-.9-3-2.3-3.9-4s-1.4-3.7-1.4-5.9.5-4.2,1.4-5.9c.9-1.7,2.2-3,3.8-3.9,1.7-.9,3.6-1.4,5.7-1.4s3.9.5,5.5,1.3c1.6.9,2.9,2.2,3.8,3.8.9,1.6,1.3,3.5,1.3,5.6s0,1.6-.2,2.2h0ZM914.6,316c0-1.7-.6-3-1.8-4-1.2-1-2.6-1.5-4.3-1.5s-2.9.5-4,1.5-1.8,2.3-2,4h12.1Z"/>
    <path class="cls-3" d="M928.8,323.4l-4.8,11h-2.9l2.8-11h4.9Z"/>
    <path class="cls-3" d="M1042.8,323.4l-4.8,11h-2.9l2.8-11h4.9Z"/>
    <path class="cls-3" d="M1060.4,328.2c-1.5-.6-2.6-1.6-3.5-2.8-.8-1.2-1.3-2.6-1.3-4.2h4.8c0,1.2.6,2.2,1.4,2.9.8.8,2,1.2,3.5,1.2s2.8-.4,3.7-1.1,1.3-1.7,1.3-2.9-.3-1.7-.8-2.3c-.5-.6-1.2-1-2-1.3s-1.9-.7-3.4-1c-1.8-.5-3.3-1-4.4-1.4-1.1-.5-2.1-1.2-2.9-2.3-.8-1-1.2-2.4-1.2-4.1s.4-3,1.2-4.2c.8-1.2,1.9-2.1,3.3-2.7s3.1-1,5-1c2.7,0,4.9.7,6.6,2s2.7,3.2,2.8,5.5h-5c0-1-.6-1.9-1.4-2.6s-2-1.1-3.5-1.1-2.4.3-3.2,1-1.2,1.6-1.2,2.9.3,1.5.8,2.1c.5.5,1.2,1,2,1.3s1.9.7,3.3,1c1.8.5,3.3,1,4.5,1.5s2.1,1.3,2.9,2.3,1.2,2.4,1.2,4.2-.4,2.7-1.1,4c-.8,1.2-1.9,2.2-3.3,3s-3.1,1.1-5.1,1.1-3.5-.3-5-1h0Z"/>
    <path class="cls-3" d="M1080.2,312c.9-1.7,2.2-3,3.8-3.9,1.6-.9,3.5-1.4,5.6-1.4s4.8.6,6.6,1.9c1.7,1.3,2.9,3,3.5,5.4h-4.9c-.4-1.1-1-1.9-1.9-2.5s-2-.9-3.3-.9-3.3.7-4.4,2-1.6,3.1-1.6,5.5.5,4.2,1.6,5.5,2.6,2,4.4,2c2.6,0,4.4-1.2,5.2-3.5h4.9c-.6,2.2-1.8,4-3.6,5.3-1.7,1.3-3.9,2-6.5,2s-3.9-.5-5.6-1.4c-1.6-.9-2.9-2.3-3.8-4s-1.4-3.7-1.4-5.9.5-4.2,1.4-5.9v-.2h0Z"/>
    <path class="cls-3" d="M1119.9,307.7c1.3.7,2.3,1.8,3.1,3.2s1.1,3.1,1.1,5.1v12.9h-4.5v-12.2c0-2-.5-3.5-1.5-4.5s-2.3-1.6-4-1.6-3,.5-4,1.6c-1,1-1.5,2.5-1.5,4.5v12.2h-4.5v-29.4h4.5v10c.8-.9,1.7-1.6,2.9-2.1,1.2-.5,2.5-.8,3.9-.8s3.2.4,4.5,1.1h0Z"/>
    <path class="cls-3" d="M1149.8,319.6h-16.7c0,1.7.8,3.1,1.9,4.2,1.2,1.1,2.6,1.6,4.3,1.6s4.2-1,5.2-3.1h4.9c-.7,2-1.9,3.7-3.6,4.9s-3.9,1.9-6.4,1.9-4-.5-5.6-1.4c-1.7-.9-3-2.3-3.9-4s-1.4-3.7-1.4-5.9.5-4.2,1.4-5.9c.9-1.7,2.2-3,3.8-3.9,1.7-.9,3.6-1.4,5.7-1.4s3.9.5,5.5,1.3c1.6.9,2.9,2.2,3.8,3.8.9,1.6,1.3,3.5,1.3,5.6s0,1.6-.2,2.2h0ZM1145.2,316c0-1.7-.6-3-1.8-4-1.2-1-2.6-1.5-4.3-1.5s-2.9.5-4,1.5-1.8,2.3-2,4h12.1Z"/>
    <path class="cls-3" d="M1154.2,312c.9-1.7,2.2-3,3.7-3.9,1.6-.9,3.3-1.4,5.3-1.4s2.8.3,4.2.9c1.4.6,2.5,1.4,3.3,2.5v-10.6h4.6v29.4h-4.6v-3.3c-.7,1.1-1.8,1.9-3.1,2.6s-2.8,1-4.5,1-3.6-.5-5.2-1.4c-1.6-1-2.8-2.3-3.7-4-.9-1.7-1.4-3.7-1.4-5.9s.5-4.1,1.4-5.8h0ZM1169.8,314c-.6-1.1-1.4-2-2.4-2.5-1-.6-2.1-.9-3.3-.9s-2.2.3-3.3.9c-1,.6-1.8,1.4-2.4,2.5s-.9,2.4-.9,3.9.3,2.8.9,4c.6,1.1,1.4,2,2.5,2.6s2.1.9,3.2.9,2.2-.3,3.3-.9c1-.6,1.8-1.4,2.4-2.6.6-1.1.9-2.4.9-3.9s-.3-2.8-.9-3.9h0Z"/>
    <path class="cls-3" d="M1201.1,307v21.9h-4.5v-2.6c-.7.9-1.6,1.6-2.8,2.1-1.2.5-2.4.8-3.7.8s-3.3-.4-4.6-1.1c-1.4-.7-2.4-1.8-3.2-3.2-.8-1.4-1.2-3.1-1.2-5.1v-12.9h4.5v12.2c0,2,.5,3.5,1.5,4.5s2.3,1.6,4,1.6,3-.5,4-1.6,1.5-2.5,1.5-4.5v-12.2h4.5,0Z"/>
    <path class="cls-3" d="M1211.6,299.5v29.4h-4.5v-29.4h4.5Z"/>
    <path class="cls-3" d="M1237.4,319.6h-16.7c0,1.7.8,3.1,1.9,4.2,1.2,1.1,2.6,1.6,4.3,1.6s4.2-1,5.2-3.1h4.9c-.7,2-1.9,3.7-3.6,4.9s-3.9,1.9-6.4,1.9-4-.5-5.6-1.4c-1.7-.9-3-2.3-3.9-4s-1.4-3.7-1.4-5.9.5-4.2,1.4-5.9c.9-1.7,2.2-3,3.8-3.9,1.7-.9,3.6-1.4,5.7-1.4s3.9.5,5.5,1.3c1.6.9,2.9,2.2,3.8,3.8.9,1.6,1.3,3.5,1.3,5.6s0,1.6-.2,2.2h0ZM1232.8,316c0-1.7-.6-3-1.8-4-1.2-1-2.6-1.5-4.3-1.5s-2.9.5-4,1.5-1.8,2.3-2,4h12.1Z"/>
    <g>
      <path class="cls-3" d="M940.8,306.8c1.3-2.1,3-3.8,5.1-5,2.2-1.2,4.5-1.8,7.1-1.8s5.5.7,7.8,2.2c2.3,1.4,3.9,3.5,5,6.1h-5.4c-.7-1.5-1.7-2.5-3-3.3-1.3-.7-2.7-1.1-4.4-1.1s-3.5.4-4.9,1.2c-1.4.8-2.5,2-3.4,3.5-.8,1.5-1.2,3.3-1.2,5.4s.4,3.8,1.2,5.4c.8,1.5,1.9,2.7,3.4,3.6,1.4.8,3.1,1.2,4.9,1.2s3.1-.4,4.4-1.1,2.3-1.8,3-3.3h5.4c-1,2.6-2.7,4.7-5,6.1s-4.9,2.1-7.8,2.1-5-.6-7.1-1.8c-2.1-1.2-3.8-2.9-5.1-5-1.3-2.1-1.9-4.6-1.9-7.3s.6-5.1,1.9-7.3v.2h0Z"/>
      <path class="cls-3" d="M975,326.9c-1.7-.9-3-2.3-3.9-4-1-1.7-1.4-3.7-1.4-5.9s.5-4.2,1.5-5.9c1-1.7,2.3-3,4-4,1.7-.9,3.6-1.4,5.7-1.4s4,.5,5.7,1.4,3,2.2,4,4c1,1.7,1.5,3.7,1.5,5.9s-.5,4.2-1.5,5.9c-1,1.7-2.4,3-4.1,4-1.7.9-3.6,1.4-5.7,1.4s-3.9-.5-5.6-1.4h-.2ZM983.9,323.6c1-.6,1.8-1.4,2.5-2.5.6-1.1,1-2.5,1-4s-.3-2.9-.9-4-1.4-1.9-2.4-2.5-2.1-.8-3.3-.8-2.2.3-3.2.8-1.8,1.4-2.4,2.5-.9,2.4-.9,4c0,2.4.6,4.2,1.8,5.5,1.2,1.3,2.7,1.9,4.5,1.9s2.3-.3,3.3-.8h0Z"/>
      <path class="cls-3" d="M999.7,327.4c-1.4-.6-2.4-1.5-3.2-2.5-.8-1.1-1.2-2.3-1.3-3.6h4.7c0,.9.5,1.7,1.3,2.3.8.6,1.8.9,3,.9s2.3-.2,3-.7,1.1-1.1,1.1-1.9-.4-1.4-1.2-1.8c-.8-.4-2-.8-3.7-1.3-1.6-.4-3-.9-4-1.3s-1.9-1.1-2.7-1.9-1.1-2-1.1-3.5.3-2.2,1-3.2,1.7-1.7,3-2.3c1.3-.6,2.8-.8,4.4-.8,2.5,0,4.5.6,6,1.9s2.3,3,2.4,5.1h-4.5c0-1-.5-1.8-1.2-2.3s-1.7-.9-2.9-.9-2.1.2-2.7.7-1,1-1,1.8.2,1.1.6,1.5.9.7,1.5.9c.6.2,1.5.5,2.7.9,1.6.4,2.9.9,3.9,1.3s1.9,1.1,2.6,1.9,1.1,2,1.2,3.4c0,1.2-.3,2.4-1,3.3-.7,1-1.7,1.7-2.9,2.3-1.3.6-2.7.8-4.4.8s-3.3-.3-4.6-.9h0Z"/>
      <path class="cls-3" d="M1022.9,309.8v12.1c0,.8.2,1.4.6,1.8s1,.5,2,.5h2.8v3.8h-3.6c-2,0-3.6-.5-4.7-1.4-1.1-1-1.6-2.5-1.6-4.6v-12.1h-2.6v-3.7h2.6v-5.4h4.6v5.4h5.3v3.7h-5.4,0Z"/>
    </g>
  </g>
  <g>
    <path class="cls-3" d="M788.3,251.1c-.8,1.4-1.9,2.5-3.5,3.4s-3.6,1.3-6.1,1.3h-5v11.4h-6v-29.7h10.9c2.3,0,4.3.4,5.9,1.2s2.8,1.9,3.6,3.3c.8,1.4,1.2,3,1.2,4.7s-.4,3.1-1.1,4.5h0ZM782.1,249.8c.8-.8,1.2-1.8,1.2-3.2,0-2.9-1.6-4.3-4.8-4.3h-4.7v8.6h4.7c1.6,0,2.9-.4,3.7-1.1h0Z"/>
    <path class="cls-3" d="M802.6,244.3c1.2-.7,2.6-1.1,4.2-1.1v6.3h-1.6c-1.9,0-3.3.4-4.2,1.3-1,.9-1.4,2.4-1.4,4.6v11.7h-6v-23.6h6v3.7c.8-1.2,1.8-2.2,3-2.9Z"/>
    <path class="cls-3" d="M810.7,248.9c.9-1.8,2.2-3.3,3.9-4.3s3.5-1.5,5.5-1.5,3.3.4,4.6,1.1c1.3.7,2.4,1.6,3.2,2.7v-3.4h6v23.6h-6v-3.4c-.8,1.1-1.8,2-3.2,2.7-1.3.7-2.9,1.1-4.7,1.1s-3.8-.5-5.4-1.5-2.9-2.5-3.9-4.3c-1-1.9-1.4-4-1.4-6.4s.5-4.5,1.4-6.3h0ZM827,251.6c-.6-1-1.3-1.8-2.3-2.4s-2-.8-3.1-.8-2.1.3-3.1.8c-.9.5-1.7,1.3-2.3,2.4-.6,1-.9,2.3-.9,3.7s.3,2.7.9,3.7c.6,1.1,1.3,1.9,2.3,2.4.9.6,2,.9,3,.9s2.1-.3,3.1-.8,1.7-1.3,2.3-2.4c.6-1,.9-2.3.9-3.7s-.3-2.7-.9-3.7h0Z"/>
    <path class="cls-3" d="M839.6,249c1-1.8,2.4-3.2,4.1-4.3,1.8-1,3.8-1.5,6-1.5s5.3.7,7.2,2.2,3.2,3.5,3.8,6.1h-6.4c-.3-1-.9-1.8-1.7-2.4-.8-.6-1.8-.9-3-.9-1.7,0-3,.6-4,1.8s-1.5,3-1.5,5.3.5,4,1.5,5.2,2.3,1.8,4,1.8,4-1.1,4.7-3.2h6.4c-.7,2.6-1.9,4.6-3.9,6.1-1.9,1.5-4.3,2.3-7.2,2.3s-4.3-.5-6-1.5c-1.8-1-3.1-2.4-4.1-4.3s-1.5-4-1.5-6.4.5-4.6,1.5-6.4h0Z"/>
    <path class="cls-3" d="M872.2,248.5v11.4c0,.8.2,1.4.6,1.7s1,.5,1.9.5h2.8v5h-3.7c-5,0-7.5-2.4-7.5-7.3v-11.4h-2.8v-4.9h2.8v-5.8h6v5.8h5.3v4.9h-5.4Z"/>
    <path class="cls-3" d="M882.2,239.8c-.7-.7-1-1.5-1-2.5s.3-1.8,1-2.5,1.6-1,2.6-1,1.9.3,2.6,1,1,1.5,1,2.5-.3,1.8-1,2.5-1.6,1-2.6,1-1.9-.3-2.6-1ZM887.7,243.6v23.6h-6v-23.6h6Z"/>
    <path class="cls-3" d="M893.5,249c1-1.8,2.4-3.2,4.1-4.3,1.8-1,3.8-1.5,6-1.5s5.3.7,7.2,2.2,3.2,3.5,3.8,6.1h-6.4c-.3-1-.9-1.8-1.7-2.4-.8-.6-1.8-.9-3-.9-1.7,0-3,.6-4,1.8s-1.5,3-1.5,5.3.5,4,1.5,5.2,2.3,1.8,4,1.8,4-1.1,4.7-3.2h6.4c-.7,2.6-1.9,4.6-3.9,6.1-1.9,1.5-4.3,2.3-7.2,2.3s-4.3-.5-6-1.5c-1.8-1-3.1-2.4-4.1-4.3s-1.5-4-1.5-6.4.5-4.6,1.5-6.4h0Z"/>
    <path class="cls-3" d="M919.1,248.9c.9-1.8,2.2-3.3,3.9-4.3,1.6-1,3.5-1.5,5.5-1.5s3.3.4,4.6,1.1c1.3.7,2.4,1.6,3.2,2.7v-3.4h6v23.6h-6v-3.4c-.8,1.1-1.8,2-3.2,2.7-1.3.7-2.9,1.1-4.7,1.1s-3.8-.5-5.4-1.5-2.9-2.5-3.9-4.3c-1-1.9-1.4-4-1.4-6.4s.5-4.5,1.4-6.3h0ZM935.3,251.6c-.6-1-1.3-1.8-2.3-2.4-1-.6-2-.8-3.1-.8s-2.1.3-3.1.8c-.9.5-1.7,1.3-2.3,2.4-.6,1-.9,2.3-.9,3.7s.3,2.7.9,3.7c.6,1.1,1.3,1.9,2.3,2.4.9.6,2,.9,3,.9s2.1-.3,3.1-.8c1-.6,1.7-1.3,2.3-2.4.6-1,.9-2.3.9-3.7s-.3-2.7-.9-3.7h0Z"/>
    <path class="cls-3" d="M954,235.7v31.5h-6v-31.5h6Z"/>
    <path class="cls-3" d="M970.5,244.4c1.3-2.3,3.1-4.1,5.4-5.4,2.3-1.3,4.8-1.9,7.7-1.9s6.2.9,8.7,2.6c2.5,1.7,4.2,4.1,5.2,7.1h-6.8c-.7-1.4-1.6-2.5-2.9-3.2-1.2-.7-2.7-1.1-4.3-1.1s-3.3.4-4.6,1.2-2.4,1.9-3.1,3.4-1.1,3.2-1.1,5.2.4,3.7,1.1,5.2,1.8,2.6,3.1,3.4c1.3.8,2.9,1.2,4.6,1.2s3-.4,4.3-1.1,2.2-1.8,2.9-3.2h6.8c-1,3-2.7,5.4-5.2,7.1s-5.4,2.5-8.7,2.5-5.4-.6-7.7-1.9c-2.3-1.3-4.1-3.1-5.4-5.4s-2-4.9-2-7.8.7-5.5,2-7.8h0Z"/>
    <path class="cls-3" d="M1006.9,266c-1.8-1-3.2-2.4-4.3-4.3-1-1.8-1.6-4-1.6-6.4s.5-4.5,1.6-6.4c1.1-1.8,2.5-3.3,4.4-4.3,1.8-1,3.9-1.5,6.2-1.5s4.3.5,6.2,1.5c1.8,1,3.3,2.4,4.4,4.3,1.1,1.8,1.6,4,1.6,6.4s-.5,4.5-1.6,6.4c-1.1,1.8-2.6,3.3-4.4,4.3-1.9,1-3.9,1.5-6.2,1.5s-4.3-.5-6.1-1.5h-.2ZM1016.1,261.5c.9-.5,1.7-1.3,2.3-2.4.6-1,.9-2.3.9-3.8,0-2.2-.6-4-1.8-5.2-1.2-1.2-2.6-1.8-4.3-1.8s-3.1.6-4.3,1.8c-1.1,1.2-1.7,2.9-1.7,5.2s.6,4,1.7,5.2,2.5,1.8,4.2,1.8,2.1-.3,3-.8h0Z"/>
    <path class="cls-3" d="M1049.6,245.9c1.7,1.8,2.6,4.2,2.6,7.4v13.8h-6v-13c0-1.9-.5-3.3-1.4-4.3s-2.2-1.5-3.8-1.5-2.9.5-3.9,1.5-1.4,2.4-1.4,4.3v13h-6v-23.6h6v2.9c.8-1,1.8-1.8,3-2.4,1.2-.6,2.6-.9,4.1-.9,2.8,0,5.1.9,6.8,2.7h0Z"/>
    <path class="cls-3" d="M1061.7,266.5c-1.5-.7-2.7-1.6-3.6-2.8s-1.4-2.5-1.5-4h6c0,.9.6,1.7,1.3,2.3.8.6,1.8.9,2.9.9s2-.2,2.7-.7,1-1,1-1.7-.4-1.3-1.2-1.7c-.8-.4-2-.8-3.7-1.3-1.8-.4-3.2-.9-4.3-1.3-1.1-.5-2.1-1.1-2.9-2.1-.8-.9-1.2-2.2-1.2-3.8s.4-2.5,1.1-3.6c.8-1.1,1.8-1.9,3.2-2.6,1.4-.6,3.1-.9,5-.9,2.8,0,5,.7,6.7,2.1s2.6,3.3,2.8,5.7h-5.7c0-.9-.5-1.7-1.2-2.2-.7-.6-1.6-.8-2.8-.8s-1.9.2-2.5.6c-.6.4-.9,1-.9,1.7s.4,1.4,1.2,1.8,2,.8,3.7,1.3c1.7.4,3.1.9,4.2,1.3,1.1.5,2.1,1.2,2.9,2.1.8,1,1.2,2.2,1.3,3.8,0,1.4-.4,2.6-1.1,3.7s-1.8,1.9-3.2,2.5c-1.4.6-3,.9-4.9.9s-3.7-.3-5.2-1v-.2h-.1Z"/>
    <path class="cls-3" d="M1087.9,248.5v11.4c0,.8.2,1.4.6,1.7s1,.5,1.9.5h2.8v5h-3.7c-5,0-7.5-2.4-7.5-7.3v-11.4h-2.8v-4.9h2.8v-5.8h6v5.8h5.3v4.9h-5.4Z"/>
    <path class="cls-3" d="M1106.4,244.3c1.2-.7,2.6-1.1,4.2-1.1v6.3h-1.6c-1.9,0-3.3.4-4.2,1.3-1,.9-1.4,2.4-1.4,4.6v11.7h-6v-23.6h6v3.7c.8-1.2,1.8-2.2,3-2.9Z"/>
    <path class="cls-3" d="M1114.6,248.9c.9-1.8,2.2-3.3,3.9-4.3,1.6-1,3.5-1.5,5.5-1.5s3.3.4,4.6,1.1c1.3.7,2.4,1.6,3.2,2.7v-3.4h6v23.6h-6v-3.4c-.8,1.1-1.8,2-3.2,2.7-1.3.7-2.9,1.1-4.7,1.1s-3.8-.5-5.4-1.5-2.9-2.5-3.9-4.3c-1-1.9-1.4-4-1.4-6.4s.5-4.5,1.4-6.3h0ZM1130.8,251.6c-.6-1-1.3-1.8-2.3-2.4-1-.6-2-.8-3.1-.8s-2.1.3-3.1.8c-.9.5-1.7,1.3-2.3,2.4-.6,1-.9,2.3-.9,3.7s.3,2.7.9,3.7c.6,1.1,1.3,1.9,2.3,2.4.9.6,2,.9,3,.9s2.1-.3,3.1-.8c1-.6,1.7-1.3,2.3-2.4.6-1,.9-2.3.9-3.7s-.3-2.7-.9-3.7h0Z"/>
    <path class="cls-3" d="M1143.9,239.8c-.7-.7-1-1.5-1-2.5s.3-1.8,1-2.5,1.6-1,2.6-1,1.9.3,2.6,1,1,1.5,1,2.5-.3,1.8-1,2.5-1.6,1-2.6,1-1.9-.3-2.6-1ZM1149.5,243.6v23.6h-6v-23.6h6Z"/>
    <path class="cls-3" d="M1175.2,245.9c1.7,1.8,2.6,4.2,2.6,7.4v13.8h-6v-13c0-1.9-.5-3.3-1.4-4.3s-2.2-1.5-3.8-1.5-2.9.5-3.9,1.5-1.4,2.4-1.4,4.3v13h-6v-23.6h6v2.9c.8-1,1.8-1.8,3-2.4,1.2-.6,2.6-.9,4.1-.9,2.8,0,5.1.9,6.8,2.7h0Z"/>
    <path class="cls-3" d="M1190.4,248.5v11.4c0,.8.2,1.4.6,1.7s1,.5,1.9.5h2.8v5h-3.7c-5,0-7.5-2.4-7.5-7.3v-11.4h-2.8v-4.9h2.8v-5.8h6v5.8h5.3v4.9h-5.4Z"/>
    <path class="cls-3" d="M1203.8,266.5c-1.5-.7-2.7-1.6-3.6-2.8s-1.4-2.5-1.5-4h6c0,.9.6,1.7,1.3,2.3.8.6,1.8.9,2.9.9s2-.2,2.7-.7,1-1,1-1.7-.4-1.3-1.2-1.7c-.8-.4-2-.8-3.7-1.3-1.8-.4-3.2-.9-4.3-1.3-1.1-.5-2.1-1.1-2.9-2.1-.8-.9-1.2-2.2-1.2-3.8s.4-2.5,1.1-3.6c.8-1.1,1.8-1.9,3.2-2.6,1.4-.6,3.1-.9,5-.9,2.8,0,5,.7,6.7,2.1s2.6,3.3,2.8,5.7h-5.7c0-.9-.5-1.7-1.2-2.2-.7-.6-1.6-.8-2.8-.8s-1.9.2-2.5.6c-.6.4-.9,1-.9,1.7s.4,1.4,1.2,1.8,2,.8,3.7,1.3c1.7.4,3.1.9,4.2,1.3,1.1.5,2.1,1.2,2.9,2.1.8,1,1.2,2.2,1.3,3.8,0,1.4-.4,2.6-1.1,3.7s-1.8,1.9-3.2,2.5c-1.4.6-3,.9-4.9.9s-3.7-.3-5.2-1v-.2h-.1Z"/>
  </g>
  <path class="cls-1" d="M335.8,120.6v-13.2h-13.2c0-4.9-3.9-8.8-8.8-8.8s-8.8,3.9-8.8,8.8h-13.2v13.2c4.9,0,8.8,3.9,8.8,8.8s-3.9,8.8-8.8,8.8v13.2h13.2c0-4.9,3.9-8.8,8.8-8.8s8.8,3.9,8.8,8.8h13.2v-13.2c4.9,0,8.8-3.9,8.8-8.8s-3.9-8.8-8.8-8.8Z"/>
</svg>