<?xml version="1.0" encoding="UTF-8"?>
<svg id="Layer_1" data-name="Layer 1" xmlns="http://www.w3.org/2000/svg" version="1.1" viewBox="0 0 1986 424.3">
  <defs>
    <style>
      .cls-1 {
        fill: none;
        stroke: #30c1d2;
        stroke-linecap: round;
        stroke-linejoin: round;
        stroke-width: 10px;
      }

      .cls-2 {
        fill: #30c1d2;
      }

      .cls-2, .cls-3, .cls-4, .cls-5 {
        stroke-width: 0px;
      }

      .cls-3 {
        fill: #000;
      }

      .cls-4 {
        fill: #e5f4f8;
      }

      .cls-5 {
        fill: #fff;
      }
    </style>
  </defs>
  <path class="cls-4" d="M735.6,0h514.7C1284,0,1311.2,20.3,1311.2,45.4v333.5c0,25.1-27.2,45.4-60.8,45.4h-514.7c-33.6,0-60.8-20.3-60.8-45.4V45.4C674.8,20.3,702,0,735.6,0Z"/>
  <g>
    <path class="cls-3" d="M818,301.4l-6.3-11h-3.5v11h-4.5v-27.6h9.5c2.1,0,3.9.4,5.4,1.1,1.5.7,2.6,1.7,3.3,3,.7,1.2,1.1,2.6,1.1,4.2s-.5,3.4-1.6,4.9c-1,1.5-2.7,2.5-4.8,3l6.8,11.4h-5.4ZM808.2,286.7h5c1.7,0,3-.4,3.8-1.3.9-.8,1.3-2,1.3-3.4s-.4-2.5-1.3-3.4c-.8-.8-2.1-1.2-3.8-1.2h-5v9.2Z"/>
    <path class="cls-3" d="M848.7,292.1h-16.7c.1,1.7.8,3.1,1.9,4.2,1.2,1.1,2.6,1.6,4.3,1.6,2.4,0,4.2-1,5.2-3.1h4.9c-.7,2-1.9,3.7-3.6,4.9-1.7,1.3-3.9,1.9-6.4,1.9s-4-.5-5.6-1.4c-1.7-.9-3-2.3-3.9-4-.9-1.7-1.4-3.7-1.4-5.9s.5-4.2,1.4-5.9c.9-1.7,2.2-3,3.8-3.9,1.7-.9,3.6-1.4,5.7-1.4s3.9.5,5.5,1.3c1.6.9,2.9,2.2,3.8,3.8.9,1.6,1.3,3.5,1.3,5.6s0,1.6-.2,2.2ZM844.1,288.5c0-1.7-.6-3-1.8-4-1.2-1-2.6-1.5-4.3-1.5s-2.9.5-4,1.5c-1.1,1-1.8,2.3-2,4h12.1Z"/>
    <path class="cls-3" d="M861.7,297.3l6.2-17.8h4.8l-8.3,21.9h-5.4l-8.3-21.9h4.8l6.2,17.8Z"/>
    <path class="cls-3" d="M876.4,275.8c-.6-.6-.8-1.2-.8-2.1s.3-1.5.8-2.1,1.2-.8,2.1-.8,1.5.3,2,.8c.6.6.8,1.2.8,2.1s-.3,1.5-.8,2.1c-.6.6-1.2.8-2,.8s-1.5-.3-2.1-.8ZM880.7,279.5v21.9h-4.5v-21.9h4.5Z"/>
    <path class="cls-3" d="M906.5,292.1h-16.7c.1,1.7.8,3.1,1.9,4.2,1.2,1.1,2.6,1.6,4.3,1.6,2.4,0,4.2-1,5.2-3.1h4.9c-.7,2-1.9,3.7-3.6,4.9-1.7,1.3-3.9,1.9-6.4,1.9s-4-.5-5.6-1.4c-1.7-.9-3-2.3-3.9-4-.9-1.7-1.4-3.7-1.4-5.9s.5-4.2,1.4-5.9c.9-1.7,2.2-3,3.8-3.9,1.7-.9,3.6-1.4,5.7-1.4s3.9.5,5.5,1.3c1.6.9,2.9,2.2,3.8,3.8.9,1.6,1.3,3.5,1.3,5.6s0,1.6-.2,2.2ZM901.9,288.5c0-1.7-.6-3-1.8-4-1.2-1-2.6-1.5-4.3-1.5s-2.9.5-4,1.5c-1.1,1-1.8,2.3-2,4h12.1Z"/>
    <path class="cls-3" d="M940.5,279.5l-6.8,21.9h-4.8l-4.4-16.2-4.4,16.2h-4.8l-6.8-21.9h4.6l4.6,17.6,4.6-17.6h4.7l4.4,17.5,4.5-17.5h4.4Z"/>
    <path class="cls-3" d="M947.1,300.8c-1.4-.6-2.4-1.5-3.2-2.5-.8-1.1-1.2-2.3-1.3-3.6h4.7c0,.9.5,1.7,1.3,2.3.8.6,1.8.9,3,.9s2.3-.2,3-.7c.7-.5,1.1-1.1,1.1-1.9s-.4-1.4-1.2-1.8c-.8-.4-2-.8-3.7-1.3-1.6-.4-3-.9-4-1.3s-1.9-1.1-2.7-1.9-1.1-2-1.1-3.5.3-2.2,1-3.2c.7-1,1.7-1.7,3-2.3,1.3-.6,2.8-.8,4.4-.8,2.5,0,4.5.6,6,1.9,1.5,1.3,2.3,3,2.4,5.1h-4.5c0-1-.5-1.8-1.2-2.3s-1.7-.9-2.9-.9-2.1.2-2.7.7-1,1-1,1.8.2,1.1.6,1.5c.4.4.9.7,1.5.9.6.2,1.5.5,2.7.9,1.6.4,2.9.9,3.9,1.3,1,.4,1.9,1.1,2.6,1.9.7.8,1.1,2,1.2,3.4,0,1.2-.3,2.4-1,3.3-.7,1-1.7,1.7-2.9,2.3-1.3.6-2.7.8-4.4.8s-3.3-.3-4.6-.9Z"/>
    <path class="cls-3" d="M970,295.9l-4.8,11h-2.9l2.8-11h4.9Z"/>
    <path class="cls-3" d="M984.6,280.2c1.3-2.1,3-3.8,5.1-5,2.2-1.2,4.5-1.8,7.1-1.8s5.5.7,7.8,2.2c2.3,1.4,3.9,3.5,5,6.1h-5.4c-.7-1.5-1.7-2.5-3-3.3-1.3-.7-2.7-1.1-4.4-1.1s-3.5.4-4.9,1.2c-1.4.8-2.5,2-3.4,3.5-.8,1.5-1.2,3.3-1.2,5.4s.4,3.8,1.2,5.4c.8,1.5,1.9,2.7,3.4,3.6,1.4.8,3.1,1.2,4.9,1.2s3.1-.4,4.4-1.1c1.3-.7,2.3-1.8,3-3.3h5.4c-1,2.6-2.7,4.7-5,6.1-2.3,1.4-4.9,2.1-7.8,2.1s-5-.6-7.1-1.8c-2.1-1.2-3.8-2.9-5.1-5-1.3-2.1-1.9-4.6-1.9-7.3s.6-5.1,1.9-7.3Z"/>
    <path class="cls-3" d="M1022.1,280.1c1.1-.6,2.4-.9,3.9-.9v4.7h-1.2c-1.8,0-3.1.5-4,1.3-.9.9-1.4,2.5-1.4,4.7v11.5h-4.5v-21.9h4.5v3.2c.7-1.1,1.5-2,2.6-2.6Z"/>
    <path class="cls-3" d="M1050.1,292.1h-16.7c.1,1.7.8,3.1,1.9,4.2,1.2,1.1,2.6,1.6,4.3,1.6,2.4,0,4.2-1,5.2-3.1h4.9c-.7,2-1.9,3.7-3.6,4.9-1.7,1.3-3.9,1.9-6.4,1.9s-4-.5-5.6-1.4c-1.7-.9-3-2.3-3.9-4-.9-1.7-1.4-3.7-1.4-5.9s.5-4.2,1.4-5.9c.9-1.7,2.2-3,3.8-3.9,1.7-.9,3.6-1.4,5.7-1.4s3.9.5,5.5,1.3c1.6.9,2.9,2.2,3.8,3.8s1.3,3.5,1.3,5.6,0,1.6-.2,2.2ZM1045.5,288.5c0-1.7-.6-3-1.8-4-1.2-1-2.6-1.5-4.3-1.5s-2.9.5-4,1.5c-1.1,1-1.8,2.3-2,4h12.1Z"/>
    <path class="cls-3" d="M1054.5,284.5c.9-1.7,2.2-3,3.7-3.9,1.6-.9,3.3-1.4,5.3-1.4s2.8.3,4.2.9c1.4.6,2.5,1.4,3.3,2.5v-10.6h4.6v29.4h-4.6v-3.3c-.7,1.1-1.8,1.9-3.1,2.6s-2.8,1-4.5,1-3.6-.5-5.2-1.4c-1.6-1-2.8-2.3-3.7-4-.9-1.7-1.4-3.7-1.4-5.9s.5-4.1,1.4-5.8ZM1070.1,286.5c-.6-1.1-1.4-2-2.4-2.5-1-.6-2.1-.9-3.3-.9s-2.2.3-3.3.9c-1,.6-1.8,1.4-2.4,2.5-.6,1.1-.9,2.4-.9,3.9s.3,2.8.9,4c.6,1.1,1.4,2,2.5,2.6s2.1.9,3.2.9,2.2-.3,3.3-.9c1-.6,1.8-1.4,2.4-2.6.6-1.1.9-2.4.9-3.9s-.3-2.8-.9-3.9Z"/>
    <path class="cls-3" d="M1081.8,275.8c-.6-.6-.8-1.2-.8-2.1s.3-1.5.8-2.1,1.2-.8,2.1-.8,1.5.3,2,.8.8,1.2.8,2.1-.3,1.5-.8,2.1-1.2.8-2,.8-1.5-.3-2.1-.8ZM1086.1,279.5v21.9h-4.5v-21.9h4.5Z"/>
    <path class="cls-3" d="M1099.7,280.1c1.3-.7,2.8-1,4.5-1s3.7.5,5.2,1.4c1.6.9,2.8,2.2,3.7,3.9.9,1.7,1.3,3.7,1.3,5.9s-.5,4.2-1.3,5.9c-.9,1.7-2.1,3.1-3.7,4-1.6,1-3.3,1.4-5.2,1.4s-3.2-.3-4.5-1c-1.3-.7-2.3-1.5-3.1-2.5v3.2h-4.5v-29.4h4.5v10.8c.8-1.1,1.8-1.9,3.2-2.6ZM1108.9,286.4c-.6-1.1-1.4-1.9-2.5-2.5-1-.6-2.1-.9-3.3-.9s-2.2.3-3.2.9c-1,.6-1.8,1.4-2.5,2.5-.6,1.1-.9,2.4-.9,3.9s.3,2.8.9,3.9c.6,1.1,1.4,2,2.5,2.6,1,.6,2.1.9,3.2.9s2.3-.3,3.3-.9,1.8-1.5,2.5-2.6c.6-1.1.9-2.5.9-4s-.3-2.8-.9-3.9Z"/>
    <path class="cls-3" d="M1119.2,275.8c-.6-.6-.8-1.2-.8-2.1s.3-1.5.8-2.1,1.2-.8,2.1-.8,1.5.3,2,.8.8,1.2.8,2.1-.3,1.5-.8,2.1-1.2.8-2,.8-1.5-.3-2.1-.8ZM1123.5,279.5v21.9h-4.5v-21.9h4.5Z"/>
    <path class="cls-3" d="M1134,272v29.4h-4.5v-29.4h4.5Z"/>
    <path class="cls-3" d="M1140.1,275.8c-.6-.6-.8-1.2-.8-2.1s.3-1.5.8-2.1,1.2-.8,2.1-.8,1.5.3,2,.8.8,1.2.8,2.1-.3,1.5-.8,2.1-1.2.8-2,.8-1.5-.3-2.1-.8ZM1144.4,279.5v21.9h-4.5v-21.9h4.5Z"/>
    <path class="cls-3" d="M1155.7,283.2v12.1c0,.8.2,1.4.6,1.8.4.4,1,.5,2,.5h2.8v3.8h-3.6c-2,0-3.6-.5-4.7-1.4s-1.6-2.5-1.6-4.6v-12.1h-2.6v-3.7h2.6v-5.4h4.6v5.4h5.3v3.7h-5.3Z"/>
    <path class="cls-3" d="M1184.8,279.5l-13.4,32.1h-4.7l4.4-10.6-8.6-21.5h5l6.2,16.7,6.4-16.7h4.7Z"/>
  </g>
  <g>
    <path class="cls-3" d="M731.8,214.8v7.4h10v4.7h-10v7.9h11.3v4.8h-17.2v-29.7h17.2v4.8h-11.3Z"/>
    <path class="cls-3" d="M784.7,218.4c1.8,1.8,2.7,4.2,2.7,7.4v13.8h-6v-13c0-1.8-.5-3.3-1.4-4.2-.9-1-2.2-1.5-3.8-1.5s-2.9.5-3.8,1.5c-1,1-1.4,2.4-1.4,4.2v13h-6v-13c0-1.8-.5-3.3-1.4-4.2-.9-1-2.2-1.5-3.8-1.5s-2.9.5-3.9,1.5c-1,1-1.4,2.4-1.4,4.2v13h-6v-23.6h6v2.8c.8-1,1.8-1.8,3-2.3,1.2-.6,2.5-.9,4-.9s3.5.4,4.9,1.2,2.6,1.9,3.4,3.3c.8-1.4,1.9-2.5,3.3-3.3s3-1.2,4.7-1.2c2.9,0,5.2.9,7,2.7Z"/>
    <path class="cls-3" d="M797.4,238.5c-1.8-1-3.2-2.4-4.3-4.3-1-1.8-1.6-4-1.6-6.4s.5-4.5,1.6-6.4c1.1-1.8,2.5-3.3,4.4-4.3,1.8-1,3.9-1.5,6.2-1.5s4.3.5,6.2,1.5c1.8,1,3.3,2.4,4.4,4.3,1.1,1.8,1.6,4,1.6,6.4s-.5,4.5-1.6,6.4c-1.1,1.8-2.6,3.3-4.4,4.3-1.9,1-3.9,1.5-6.2,1.5s-4.3-.5-6.1-1.5ZM806.5,234c.9-.5,1.7-1.3,2.3-2.4.6-1,.9-2.3.9-3.8,0-2.2-.6-4-1.8-5.2-1.2-1.2-2.6-1.8-4.3-1.8s-3.1.6-4.3,1.8c-1.1,1.2-1.7,2.9-1.7,5.2s.6,4,1.7,5.2c1.1,1.2,2.5,1.8,4.2,1.8s2.1-.3,3-.8Z"/>
    <path class="cls-3" d="M827.1,221v11.4c0,.8.2,1.4.6,1.7s1,.5,1.9.5h2.8v5h-3.7c-5,0-7.5-2.4-7.5-7.3v-11.4h-2.8v-4.9h2.8v-5.8h6v5.8h5.3v4.9h-5.3Z"/>
    <path class="cls-3" d="M837.1,212.3c-.7-.7-1-1.5-1-2.5s.3-1.8,1-2.5c.7-.7,1.6-1,2.6-1s1.9.3,2.6,1c.7.7,1,1.5,1,2.5s-.3,1.8-1,2.5c-.7.7-1.6,1-2.6,1s-1.9-.3-2.6-1ZM842.6,216.1v23.6h-6v-23.6h6Z"/>
    <path class="cls-3" d="M852.8,238.5c-1.8-1-3.2-2.4-4.3-4.3-1-1.8-1.6-4-1.6-6.4s.5-4.5,1.6-6.4c1.1-1.8,2.5-3.3,4.4-4.3,1.8-1,3.9-1.5,6.2-1.5s4.3.5,6.2,1.5c1.8,1,3.3,2.4,4.4,4.3,1.1,1.8,1.6,4,1.6,6.4s-.5,4.5-1.6,6.4c-1.1,1.8-2.6,3.3-4.4,4.3-1.9,1-3.9,1.5-6.2,1.5s-4.3-.5-6.1-1.5ZM862,234c.9-.5,1.7-1.3,2.3-2.4.6-1,.9-2.3.9-3.8,0-2.2-.6-4-1.8-5.2-1.2-1.2-2.6-1.8-4.3-1.8s-3.1.6-4.3,1.8c-1.1,1.2-1.7,2.9-1.7,5.2s.6,4,1.7,5.2c1.1,1.2,2.5,1.8,4.2,1.8s2.1-.3,3-.8Z"/>
    <path class="cls-3" d="M895.5,218.4c1.7,1.8,2.6,4.2,2.6,7.4v13.8h-6v-13c0-1.9-.5-3.3-1.4-4.3-.9-1-2.2-1.5-3.8-1.5s-2.9.5-3.9,1.5c-1,1-1.4,2.4-1.4,4.3v13h-6v-23.6h6v2.9c.8-1,1.8-1.8,3-2.4s2.6-.9,4.1-.9c2.8,0,5.1.9,6.8,2.7Z"/>
    <path class="cls-3" d="M903.6,221.4c.9-1.8,2.2-3.3,3.9-4.3,1.6-1,3.5-1.5,5.5-1.5s3.3.4,4.6,1.1c1.3.7,2.4,1.6,3.2,2.7v-3.4h6v23.6h-6v-3.4c-.8,1.1-1.8,2-3.2,2.7-1.3.7-2.9,1.1-4.7,1.1s-3.8-.5-5.4-1.5c-1.6-1-2.9-2.5-3.9-4.3-1-1.9-1.4-4-1.4-6.4s.5-4.5,1.4-6.3ZM919.9,224.1c-.6-1-1.3-1.8-2.3-2.4-1-.6-2-.8-3.1-.8s-2.1.3-3.1.8c-.9.5-1.7,1.3-2.3,2.4-.6,1-.9,2.3-.9,3.7s.3,2.7.9,3.7c.6,1.1,1.3,1.9,2.3,2.4.9.6,2,.9,3,.9s2.1-.3,3.1-.8c1-.6,1.7-1.3,2.3-2.4.6-1,.9-2.3.9-3.7s-.3-2.7-.9-3.7Z"/>
    <path class="cls-3" d="M938.5,208.2v31.5h-6v-31.5h6Z"/>
    <path class="cls-3" d="M969.8,239.6l-6.5-11.6h-2.8v11.6h-6v-29.7h11.1c2.3,0,4.3.4,5.9,1.2,1.6.8,2.8,1.9,3.6,3.3.8,1.4,1.2,2.9,1.2,4.6s-.6,3.7-1.7,5.3c-1.1,1.6-2.8,2.7-5.1,3.3l7.1,12h-6.9ZM960.4,223.6h5c1.6,0,2.8-.4,3.6-1.2.8-.8,1.2-1.9,1.2-3.3s-.4-2.4-1.2-3.2c-.8-.8-2-1.1-3.6-1.1h-5v8.7Z"/>
    <path class="cls-3" d="M1003.5,229.6h-17.2c.1,1.7.7,3,1.8,4s2.3,1.4,3.9,1.4c2.2,0,3.8-.9,4.7-2.8h6.4c-.7,2.3-2,4.1-3.9,5.6-1.9,1.5-4.3,2.2-7.1,2.2s-4.3-.5-6.1-1.5c-1.8-1-3.2-2.4-4.2-4.3-1-1.8-1.5-4-1.5-6.4s.5-4.6,1.5-6.4,2.4-3.3,4.2-4.3c1.8-1,3.8-1.5,6.2-1.5s4.2.5,6,1.4c1.8,1,3.1,2.3,4.1,4.1,1,1.8,1.5,3.8,1.5,6.1s0,1.6-.2,2.3ZM997.5,225.6c0-1.5-.6-2.8-1.7-3.7s-2.4-1.4-4-1.4-2.7.4-3.7,1.3c-1,.9-1.6,2.1-1.8,3.7h11.2Z"/>
    <path class="cls-3" d="M1007.9,221.4c.9-1.8,2.2-3.3,3.9-4.3s3.5-1.5,5.5-1.5,3.3.4,4.6,1.1c1.3.7,2.4,1.6,3.2,2.7v-3.4h6v23.6h-6v-3.4c-.8,1.1-1.8,2-3.2,2.7-1.3.7-2.9,1.1-4.7,1.1s-3.8-.5-5.4-1.5-2.9-2.5-3.9-4.3c-1-1.9-1.4-4-1.4-6.4s.5-4.5,1.4-6.3ZM1024.1,224.1c-.6-1-1.3-1.8-2.3-2.4s-2-.8-3.1-.8-2.1.3-3.1.8c-.9.5-1.7,1.3-2.3,2.4-.6,1-.9,2.3-.9,3.7s.3,2.7.9,3.7c.6,1.1,1.3,1.9,2.3,2.4.9.6,2,.9,3,.9s2.1-.3,3.1-.8,1.7-1.3,2.3-2.4c.6-1,.9-2.3.9-3.7s-.3-2.7-.9-3.7Z"/>
    <path class="cls-3" d="M1040.6,239c-1.5-.7-2.7-1.6-3.6-2.8-.9-1.2-1.4-2.5-1.5-4h6c.1.9.6,1.7,1.3,2.3.8.6,1.8.9,2.9.9s2-.2,2.7-.7,1-1,1-1.7-.4-1.3-1.2-1.7c-.8-.4-2-.8-3.7-1.3-1.8-.4-3.2-.9-4.3-1.3-1.1-.5-2.1-1.1-2.9-2.1-.8-.9-1.2-2.2-1.2-3.8s.4-2.5,1.1-3.6c.8-1.1,1.8-1.9,3.2-2.6,1.4-.6,3.1-.9,5-.9,2.8,0,5,.7,6.7,2.1s2.6,3.3,2.8,5.7h-5.7c0-.9-.5-1.7-1.2-2.2-.7-.6-1.6-.8-2.8-.8s-1.9.2-2.5.6c-.6.4-.9,1-.9,1.7s.4,1.4,1.2,1.8,2,.8,3.7,1.3c1.7.4,3.1.9,4.2,1.3,1.1.5,2.1,1.2,2.9,2.1.8,1,1.2,2.2,1.3,3.8,0,1.4-.4,2.6-1.1,3.7s-1.8,1.9-3.2,2.5c-1.4.6-3,.9-4.9.9s-3.7-.3-5.2-1Z"/>
    <path class="cls-3" d="M1063.8,239c-1.5-.7-2.7-1.6-3.6-2.8-.9-1.2-1.4-2.5-1.5-4h6c.1.9.6,1.7,1.3,2.3.8.6,1.8.9,2.9.9s2-.2,2.7-.7,1-1,1-1.7-.4-1.3-1.2-1.7c-.8-.4-2-.8-3.7-1.3-1.8-.4-3.2-.9-4.3-1.3-1.1-.5-2.1-1.1-2.9-2.1s-1.2-2.2-1.2-3.8.4-2.5,1.1-3.6,1.8-1.9,3.2-2.6c1.4-.6,3.1-.9,5-.9,2.8,0,5,.7,6.7,2.1,1.7,1.4,2.6,3.3,2.8,5.7h-5.7c0-.9-.5-1.7-1.2-2.2s-1.6-.8-2.8-.8-1.9.2-2.5.6c-.6.4-.9,1-.9,1.7s.4,1.4,1.2,1.8c.8.4,2,.8,3.7,1.3,1.7.4,3.1.9,4.2,1.3,1.1.5,2.1,1.2,2.9,2.1.8,1,1.2,2.2,1.3,3.8,0,1.4-.4,2.6-1.1,3.7s-1.8,1.9-3.2,2.5c-1.4.6-3,.9-4.9.9s-3.7-.3-5.2-1Z"/>
    <path class="cls-3" d="M1105.4,216.1v23.6h-6v-3c-.8,1-1.8,1.8-3,2.4-1.2.6-2.6.9-4,.9s-3.5-.4-4.9-1.2c-1.4-.8-2.5-1.9-3.3-3.4-.8-1.5-1.2-3.3-1.2-5.4v-13.8h6v13c0,1.9.5,3.3,1.4,4.3s2.2,1.5,3.8,1.5,2.9-.5,3.9-1.5,1.4-2.4,1.4-4.3v-13h6Z"/>
    <path class="cls-3" d="M1111.1,221.4c.9-1.8,2.2-3.3,3.9-4.3,1.6-1,3.5-1.5,5.5-1.5s3.3.4,4.6,1.1c1.3.7,2.4,1.6,3.2,2.7v-3.4h6v23.6h-6v-3.4c-.8,1.1-1.8,2-3.2,2.7-1.3.7-2.9,1.1-4.7,1.1s-3.8-.5-5.4-1.5c-1.6-1-2.9-2.5-3.9-4.3-1-1.9-1.4-4-1.4-6.4s.5-4.5,1.4-6.3ZM1127.4,224.1c-.6-1-1.3-1.8-2.3-2.4-1-.6-2-.8-3.1-.8s-2.1.3-3.1.8c-.9.5-1.7,1.3-2.3,2.4-.6,1-.9,2.3-.9,3.7s.3,2.7.9,3.7c.6,1.1,1.3,1.9,2.3,2.4.9.6,2,.9,3,.9s2.1-.3,3.1-.8c1-.6,1.7-1.3,2.3-2.4.6-1,.9-2.3.9-3.7s-.3-2.7-.9-3.7Z"/>
    <path class="cls-3" d="M1149,216.8c1.2-.7,2.6-1.1,4.2-1.1v6.3h-1.6c-1.9,0-3.3.4-4.2,1.3-1,.9-1.4,2.4-1.4,4.6v11.7h-6v-23.6h6v3.7c.8-1.2,1.8-2.2,3-2.9Z"/>
    <path class="cls-3" d="M1157.1,221.4c.9-1.8,2.2-3.3,3.9-4.3,1.6-1,3.5-1.5,5.5-1.5s3.3.4,4.6,1.1c1.3.7,2.4,1.6,3.2,2.7v-3.4h6v23.6h-6v-3.4c-.8,1.1-1.8,2-3.2,2.7-1.3.7-2.9,1.1-4.7,1.1s-3.8-.5-5.4-1.5c-1.6-1-2.9-2.5-3.9-4.3-1-1.9-1.4-4-1.4-6.4s.5-4.5,1.4-6.3ZM1173.4,224.1c-.6-1-1.3-1.8-2.3-2.4-1-.6-2-.8-3.1-.8s-2.1.3-3.1.8c-.9.5-1.7,1.3-2.3,2.4-.6,1-.9,2.3-.9,3.7s.3,2.7.9,3.7c.6,1.1,1.3,1.9,2.3,2.4.9.6,2,.9,3,.9s2.1-.3,3.1-.8c1-.6,1.7-1.3,2.3-2.4.6-1,.9-2.3.9-3.7s-.3-2.7-.9-3.7Z"/>
    <path class="cls-3" d="M1205.9,218.4c1.7,1.8,2.6,4.2,2.6,7.4v13.8h-6v-13c0-1.9-.5-3.3-1.4-4.3-.9-1-2.2-1.5-3.8-1.5s-2.9.5-3.9,1.5c-1,1-1.4,2.4-1.4,4.3v13h-6v-23.6h6v2.9c.8-1,1.8-1.8,3-2.4,1.2-.6,2.6-.9,4.1-.9,2.8,0,5.1.9,6.8,2.7Z"/>
    <path class="cls-3" d="M1214.1,221.5c1-1.8,2.4-3.2,4.1-4.3,1.8-1,3.8-1.5,6-1.5s5.3.7,7.2,2.2,3.2,3.5,3.8,6.1h-6.4c-.3-1-.9-1.8-1.7-2.4-.8-.6-1.8-.9-3-.9-1.7,0-3,.6-4,1.8-1,1.2-1.5,3-1.5,5.3s.5,4,1.5,5.2c1,1.2,2.3,1.8,4,1.8,2.4,0,4-1.1,4.7-3.2h6.4c-.7,2.6-1.9,4.6-3.9,6.1-1.9,1.5-4.3,2.3-7.2,2.3s-4.3-.5-6-1.5c-1.8-1-3.1-2.4-4.1-4.3s-1.5-4-1.5-6.4.5-4.6,1.5-6.4Z"/>
    <path class="cls-3" d="M1261.5,229.6h-17.2c.1,1.7.7,3,1.8,4s2.3,1.4,3.9,1.4c2.2,0,3.8-.9,4.7-2.8h6.4c-.7,2.3-2,4.1-3.9,5.6-1.9,1.5-4.3,2.2-7.1,2.2s-4.3-.5-6.1-1.5c-1.8-1-3.2-2.4-4.2-4.3-1-1.8-1.5-4-1.5-6.4s.5-4.6,1.5-6.4,2.4-3.3,4.2-4.3c1.8-1,3.8-1.5,6.2-1.5s4.2.5,6,1.4c1.8,1,3.1,2.3,4.1,4.1s1.5,3.8,1.5,6.1,0,1.6-.2,2.3ZM1255.5,225.6c0-1.5-.6-2.8-1.7-3.7-1.1-.9-2.4-1.4-4-1.4s-2.7.4-3.7,1.3c-1,.9-1.6,2.1-1.8,3.7h11.2Z"/>
  </g>
  <circle class="cls-5" cx="979.2" cy="94.5" r="59.2" transform="translate(220 720.1) rotate(-45)"/>
  <path class="cls-2" d="M979.2,132.4c-7.5,0-17.2-8.3-23.2-15.4-5.2-6.1-13.9-18.6-13.9-33.3s9.4-21,21-21,12.2,2.9,16,7.4c3.9-4.5,9.6-7.4,16-7.4,11.6,0,21,9.4,21,21s-8.7,27.1-13.9,33.3c-6,7.1-15.7,15.4-23.2,15.4ZM963.2,72.7c-6.1,0-11,5-11,11s4.2,18.2,11.5,26.8c7,8.3,13.7,11.8,15.5,11.8s8.6-3.6,15.5-11.8c7.3-8.7,11.5-18.4,11.5-26.8s-5-11-11-11-11,5-11,11-2.2,5-5,5-5-2.2-5-5c0-6.1-5-11-11-11Z"/>
  <path class="cls-4" d="M60.8,0h514.7C609.1,0,636.4,20.3,636.4,45.4v333.5c0,25.1-27.2,45.4-60.8,45.4H60.8c-33.6,0-60.8-20.3-60.8-45.4V45.4C0,20.3,27.2,0,60.8,0Z"/>
  <circle class="cls-5" cx="318.2" cy="102.4" r="59.2"/>
  <g>
    <path class="cls-3" d="M118.7,234.9h9.8v4.7h-15.7v-29.7h6v25Z"/>
    <path class="cls-3" d="M136.6,238.5c-1.8-1-3.2-2.4-4.3-4.3-1-1.8-1.6-4-1.6-6.4s.5-4.5,1.6-6.4c1.1-1.8,2.5-3.3,4.4-4.3,1.8-1,3.9-1.5,6.2-1.5s4.3.5,6.2,1.5c1.8,1,3.3,2.4,4.4,4.3,1.1,1.8,1.6,4,1.6,6.4s-.5,4.5-1.6,6.4c-1.1,1.8-2.6,3.3-4.4,4.3-1.9,1-3.9,1.5-6.2,1.5s-4.3-.5-6.1-1.5ZM145.7,234c.9-.5,1.7-1.3,2.3-2.4.6-1,.9-2.3.9-3.8,0-2.2-.6-4-1.8-5.2-1.2-1.2-2.6-1.8-4.3-1.8s-3.1.6-4.3,1.8c-1.1,1.2-1.7,2.9-1.7,5.2s.6,4,1.7,5.2c1.1,1.2,2.5,1.8,4.2,1.8s2.1-.3,3-.8Z"/>
    <path class="cls-3" d="M173.2,216.7c1.3.7,2.4,1.6,3.1,2.7v-3.4h6v23.7c0,2.2-.4,4.1-1.3,5.8-.9,1.7-2.2,3.1-4,4.1-1.8,1-3.9,1.5-6.4,1.5s-6.1-.8-8.2-2.3c-2.1-1.6-3.4-3.7-3.6-6.4h5.9c.3,1.1,1,1.9,2,2.6,1,.6,2.3,1,3.8,1s3.1-.5,4.2-1.6c1.1-1,1.6-2.6,1.6-4.7v-3.7c-.8,1.1-1.8,2-3.2,2.8-1.3.7-2.9,1.1-4.6,1.1s-3.8-.5-5.4-1.5c-1.6-1-2.9-2.5-3.9-4.3-1-1.9-1.4-4-1.4-6.4s.5-4.5,1.4-6.3c.9-1.8,2.2-3.3,3.9-4.3,1.6-1,3.5-1.5,5.5-1.5s3.3.3,4.6,1ZM175.5,224.1c-.6-1-1.3-1.8-2.3-2.4-1-.6-2-.8-3.1-.8s-2.1.3-3.1.8c-.9.5-1.7,1.3-2.3,2.4-.6,1-.9,2.3-.9,3.7s.3,2.7.9,3.7c.6,1.1,1.3,1.9,2.3,2.4.9.6,2,.9,3,.9s2.1-.3,3.1-.8c1-.6,1.7-1.3,2.3-2.4.6-1,.9-2.3.9-3.7s-.3-2.7-.9-3.7Z"/>
    <path class="cls-3" d="M188.6,212.3c-.7-.7-1-1.5-1-2.5s.3-1.8,1-2.5c.7-.7,1.6-1,2.6-1s1.9.3,2.6,1c.7.7,1,1.5,1,2.5s-.3,1.8-1,2.5c-.7.7-1.6,1-2.6,1s-1.9-.3-2.6-1ZM194.1,216.1v23.6h-6v-23.6h6Z"/>
    <path class="cls-3" d="M200,221.5c1-1.8,2.4-3.2,4.1-4.3,1.8-1,3.8-1.5,6-1.5s5.3.7,7.2,2.2c1.9,1.5,3.2,3.5,3.8,6.1h-6.4c-.3-1-.9-1.8-1.7-2.4-.8-.6-1.8-.9-3-.9-1.7,0-3,.6-4,1.8-1,1.2-1.5,3-1.5,5.3s.5,4,1.5,5.2c1,1.2,2.3,1.8,4,1.8,2.4,0,4-1.1,4.7-3.2h6.4c-.7,2.6-1.9,4.6-3.9,6.1-1.9,1.5-4.3,2.3-7.2,2.3s-4.3-.5-6-1.5c-1.8-1-3.1-2.4-4.1-4.3s-1.5-4-1.5-6.4.5-4.6,1.5-6.4Z"/>
    <path class="cls-3" d="M225.5,221.4c.9-1.8,2.2-3.3,3.9-4.3,1.6-1,3.5-1.5,5.5-1.5s3.3.4,4.6,1.1c1.3.7,2.4,1.6,3.2,2.7v-3.4h6v23.6h-6v-3.4c-.8,1.1-1.8,2-3.2,2.7-1.3.7-2.9,1.1-4.7,1.1s-3.8-.5-5.4-1.5c-1.6-1-2.9-2.5-3.9-4.3-1-1.9-1.4-4-1.4-6.4s.5-4.5,1.4-6.3ZM241.8,224.1c-.6-1-1.3-1.8-2.3-2.4-1-.6-2-.8-3.1-.8s-2.1.3-3.1.8c-.9.5-1.7,1.3-2.3,2.4-.6,1-.9,2.3-.9,3.7s.3,2.7.9,3.7c.6,1.1,1.3,1.9,2.3,2.4.9.6,2,.9,3,.9s2.1-.3,3.1-.8c1-.6,1.7-1.3,2.3-2.4.6-1,.9-2.3.9-3.7s-.3-2.7-.9-3.7Z"/>
    <path class="cls-3" d="M260.4,208.2v31.5h-6v-31.5h6Z"/>
    <path class="cls-3" d="M276.9,216.9c1.3-2.3,3.1-4.1,5.4-5.4,2.3-1.3,4.8-1.9,7.7-1.9s6.2.9,8.7,2.6c2.5,1.7,4.2,4.1,5.2,7.1h-6.8c-.7-1.4-1.6-2.5-2.9-3.2-1.2-.7-2.7-1.1-4.3-1.1s-3.3.4-4.6,1.2c-1.3.8-2.4,1.9-3.1,3.4-.8,1.5-1.1,3.2-1.1,5.2s.4,3.7,1.1,5.2c.8,1.5,1.8,2.6,3.1,3.4,1.3.8,2.9,1.2,4.6,1.2s3-.4,4.3-1.1c1.2-.7,2.2-1.8,2.9-3.2h6.8c-1,3-2.7,5.4-5.2,7.1-2.5,1.7-5.4,2.5-8.7,2.5s-5.4-.6-7.7-1.9c-2.3-1.3-4.1-3.1-5.4-5.4-1.3-2.3-2-4.9-2-7.8s.7-5.5,2-7.8Z"/>
    <path class="cls-3" d="M313.4,238.5c-1.8-1-3.2-2.4-4.3-4.3-1-1.8-1.6-4-1.6-6.4s.5-4.5,1.6-6.4c1.1-1.8,2.5-3.3,4.4-4.3,1.8-1,3.9-1.5,6.2-1.5s4.3.5,6.2,1.5c1.8,1,3.3,2.4,4.4,4.3,1.1,1.8,1.6,4,1.6,6.4s-.5,4.5-1.6,6.4c-1.1,1.8-2.6,3.3-4.4,4.3-1.9,1-3.9,1.5-6.2,1.5s-4.3-.5-6.1-1.5ZM322.5,234c.9-.5,1.7-1.3,2.3-2.4.6-1,.9-2.3.9-3.8,0-2.2-.6-4-1.8-5.2-1.2-1.2-2.6-1.8-4.3-1.8s-3.1.6-4.3,1.8c-1.1,1.2-1.7,2.9-1.7,5.2s.6,4,1.7,5.2c1.1,1.2,2.5,1.8,4.2,1.8s2.1-.3,3-.8Z"/>
    <path class="cls-3" d="M356,218.4c1.7,1.8,2.6,4.2,2.6,7.4v13.8h-6v-13c0-1.9-.5-3.3-1.4-4.3-.9-1-2.2-1.5-3.8-1.5s-2.9.5-3.9,1.5c-1,1-1.4,2.4-1.4,4.3v13h-6v-23.6h6v2.9c.8-1,1.8-1.8,3-2.4s2.6-.9,4.1-.9c2.8,0,5.1.9,6.8,2.7Z"/>
    <path class="cls-3" d="M368.1,239c-1.5-.7-2.7-1.6-3.6-2.8-.9-1.2-1.4-2.5-1.5-4h6c.1.9.6,1.7,1.3,2.3.8.6,1.8.9,2.9.9s2-.2,2.7-.7,1-1,1-1.7-.4-1.3-1.2-1.7c-.8-.4-2-.8-3.7-1.3-1.8-.4-3.2-.9-4.3-1.3-1.1-.5-2.1-1.1-2.9-2.1-.8-.9-1.2-2.2-1.2-3.8s.4-2.5,1.1-3.6c.8-1.1,1.8-1.9,3.2-2.6,1.4-.6,3.1-.9,5-.9,2.8,0,5,.7,6.7,2.1,1.7,1.4,2.6,3.3,2.8,5.7h-5.7c0-.9-.5-1.7-1.2-2.2-.7-.6-1.6-.8-2.8-.8s-1.9.2-2.5.6c-.6.4-.9,1-.9,1.7s.4,1.4,1.2,1.8c.8.4,2,.8,3.7,1.3,1.7.4,3.1.9,4.2,1.3,1.1.5,2.1,1.2,2.9,2.1.8,1,1.2,2.2,1.3,3.8,0,1.4-.4,2.6-1.1,3.7s-1.8,1.9-3.2,2.5c-1.4.6-3,.9-4.9.9s-3.7-.3-5.2-1Z"/>
    <path class="cls-3" d="M394.4,221v11.4c0,.8.2,1.4.6,1.7s1,.5,1.9.5h2.8v5h-3.7c-5,0-7.5-2.4-7.5-7.3v-11.4h-2.8v-4.9h2.8v-5.8h6v5.8h5.3v4.9h-5.3Z"/>
    <path class="cls-3" d="M412.9,216.8c1.2-.7,2.6-1.1,4.2-1.1v6.3h-1.6c-1.9,0-3.3.4-4.2,1.3-1,.9-1.4,2.4-1.4,4.6v11.7h-6v-23.6h6v3.7c.8-1.2,1.8-2.2,3-2.9Z"/>
    <path class="cls-3" d="M421,221.4c.9-1.8,2.2-3.3,3.9-4.3,1.6-1,3.5-1.5,5.5-1.5s3.3.4,4.6,1.1c1.3.7,2.4,1.6,3.2,2.7v-3.4h6v23.6h-6v-3.4c-.8,1.1-1.8,2-3.2,2.7-1.3.7-2.9,1.1-4.7,1.1s-3.8-.5-5.4-1.5c-1.6-1-2.9-2.5-3.9-4.3-1-1.9-1.4-4-1.4-6.4s.5-4.5,1.4-6.3ZM437.3,224.1c-.6-1-1.3-1.8-2.3-2.4-1-.6-2-.8-3.1-.8s-2.1.3-3.1.8c-.9.5-1.7,1.3-2.3,2.4-.6,1-.9,2.3-.9,3.7s.3,2.7.9,3.7c.6,1.1,1.3,1.9,2.3,2.4.9.6,2,.9,3,.9s2.1-.3,3.1-.8c1-.6,1.7-1.3,2.3-2.4.6-1,.9-2.3.9-3.7s-.3-2.7-.9-3.7Z"/>
    <path class="cls-3" d="M450.3,212.3c-.7-.7-1-1.5-1-2.5s.3-1.8,1-2.5c.7-.7,1.6-1,2.6-1s1.9.3,2.6,1c.7.7,1,1.5,1,2.5s-.3,1.8-1,2.5c-.7.7-1.6,1-2.6,1s-1.9-.3-2.6-1ZM455.9,216.1v23.6h-6v-23.6h6Z"/>
    <path class="cls-3" d="M481.6,218.4c1.7,1.8,2.6,4.2,2.6,7.4v13.8h-6v-13c0-1.9-.5-3.3-1.4-4.3-.9-1-2.2-1.5-3.8-1.5s-2.9.5-3.9,1.5c-1,1-1.4,2.4-1.4,4.3v13h-6v-23.6h6v2.9c.8-1,1.8-1.8,3-2.4s2.6-.9,4.1-.9c2.8,0,5.1.9,6.8,2.7Z"/>
    <path class="cls-3" d="M496.8,221v11.4c0,.8.2,1.4.6,1.7s1,.5,1.9.5h2.8v5h-3.7c-5,0-7.5-2.4-7.5-7.3v-11.4h-2.8v-4.9h2.8v-5.8h6v5.8h5.3v4.9h-5.3Z"/>
    <path class="cls-3" d="M510.2,239c-1.5-.7-2.7-1.6-3.6-2.8-.9-1.2-1.4-2.5-1.5-4h6c.1.9.6,1.7,1.3,2.3.8.6,1.8.9,2.9.9s2-.2,2.7-.7,1-1,1-1.7-.4-1.3-1.2-1.7c-.8-.4-2-.8-3.7-1.3-1.8-.4-3.2-.9-4.3-1.3-1.1-.5-2.1-1.1-2.9-2.1-.8-.9-1.2-2.2-1.2-3.8s.4-2.5,1.1-3.6c.8-1.1,1.8-1.9,3.2-2.6,1.4-.6,3.1-.9,5-.9,2.8,0,5,.7,6.7,2.1,1.7,1.4,2.6,3.3,2.8,5.7h-5.7c0-.9-.5-1.7-1.2-2.2-.7-.6-1.6-.8-2.8-.8s-1.9.2-2.5.6c-.6.4-.9,1-.9,1.7s.4,1.4,1.2,1.8c.8.4,2,.8,3.7,1.3,1.7.4,3.1.9,4.2,1.3,1.1.5,2.1,1.2,2.9,2.1.8,1,1.2,2.2,1.3,3.8,0,1.4-.4,2.6-1.1,3.7s-1.8,1.9-3.2,2.5c-1.4.6-3,.9-4.9.9s-3.7-.3-5.2-1Z"/>
  </g>
  <g>
    <path class="cls-3" d="M242.7,295.7h-11.5l-2,5.6h-4.7l9.9-27.6h5.2l9.9,27.6h-4.8l-2-5.6ZM241.4,292l-4.5-12.8-4.5,12.8h9Z"/>
    <path class="cls-3" d="M267,280.1c1.3.7,2.3,1.5,3.1,2.5v-3.2h4.6v22.2c0,2-.4,3.8-1.3,5.4-.8,1.6-2.1,2.8-3.7,3.7-1.6.9-3.5,1.3-5.7,1.3s-5.4-.7-7.4-2.1c-2-1.4-3.1-3.3-3.3-5.7h4.5c.3,1.1,1.1,2.1,2.2,2.8s2.5,1.1,4,1.1,3.3-.6,4.4-1.7c1.1-1.1,1.7-2.7,1.7-4.8v-3.7c-.8,1-1.8,1.9-3.1,2.6-1.3.7-2.8,1.1-4.5,1.1s-3.6-.5-5.2-1.4c-1.6-1-2.8-2.3-3.7-4-.9-1.7-1.4-3.7-1.4-5.9s.5-4.1,1.4-5.8,2.2-3,3.7-3.9c1.6-.9,3.3-1.4,5.2-1.4s3.2.3,4.5,1ZM269.2,286.5c-.6-1.1-1.4-2-2.4-2.5-1-.6-2.1-.9-3.3-.9s-2.2.3-3.3.9c-1,.6-1.8,1.4-2.4,2.5s-.9,2.4-.9,3.9.3,2.8.9,4c.6,1.1,1.4,2,2.5,2.6s2.1.9,3.2.9,2.2-.3,3.3-.9c1-.6,1.8-1.4,2.4-2.6.6-1.1.9-2.4.9-3.9s-.3-2.8-.9-3.9Z"/>
    <path class="cls-3" d="M300.5,292.1h-16.7c.1,1.7.8,3.1,1.9,4.2,1.2,1.1,2.6,1.6,4.3,1.6,2.4,0,4.2-1,5.2-3.1h4.9c-.7,2-1.9,3.7-3.6,4.9-1.7,1.3-3.9,1.9-6.4,1.9s-4-.5-5.6-1.4c-1.7-.9-3-2.3-3.9-4-.9-1.7-1.4-3.7-1.4-5.9s.5-4.2,1.4-5.9c.9-1.7,2.2-3,3.8-3.9,1.7-.9,3.6-1.4,5.7-1.4s3.9.5,5.5,1.3c1.6.9,2.9,2.2,3.8,3.8.9,1.6,1.3,3.5,1.3,5.6s0,1.6-.2,2.2ZM295.9,288.5c0-1.7-.6-3-1.8-4-1.2-1-2.6-1.5-4.3-1.5s-2.9.5-4,1.5c-1.1,1-1.8,2.3-2,4h12.1Z"/>
    <path class="cls-3" d="M310,295.9l-4.8,11h-2.9l2.8-11h4.9Z"/>
    <path class="cls-3" d="M324.7,280.2c1.3-2.1,3-3.8,5.1-5,2.2-1.2,4.5-1.8,7.1-1.8s5.5.7,7.8,2.2c2.3,1.4,3.9,3.5,5,6.1h-5.4c-.7-1.5-1.7-2.5-3-3.3-1.3-.7-2.7-1.1-4.4-1.1s-3.5.4-4.9,1.2c-1.4.8-2.5,2-3.4,3.5-.8,1.5-1.2,3.3-1.2,5.4s.4,3.8,1.2,5.4c.8,1.5,1.9,2.7,3.4,3.6,1.4.8,3.1,1.2,4.9,1.2s3.1-.4,4.4-1.1c1.3-.7,2.3-1.8,3-3.3h5.4c-1,2.6-2.7,4.7-5,6.1-2.3,1.4-4.9,2.1-7.8,2.1s-5-.6-7.1-1.8c-2.1-1.2-3.8-2.9-5.1-5-1.3-2.1-1.9-4.6-1.9-7.3s.6-5.1,1.9-7.3Z"/>
    <path class="cls-3" d="M358.9,300.3c-1.7-.9-3-2.3-3.9-4-1-1.7-1.4-3.7-1.4-5.9s.5-4.2,1.5-5.9c1-1.7,2.3-3,4-4,1.7-.9,3.6-1.4,5.7-1.4s4,.5,5.7,1.4c1.7.9,3,2.2,4,4,1,1.7,1.5,3.7,1.5,5.9s-.5,4.2-1.5,5.9c-1,1.7-2.4,3-4.1,4-1.7.9-3.6,1.4-5.7,1.4s-3.9-.5-5.6-1.4ZM367.8,297c1-.6,1.8-1.4,2.5-2.5.6-1.1,1-2.5,1-4s-.3-2.9-.9-4c-.6-1.1-1.4-1.9-2.4-2.5-1-.6-2.1-.8-3.3-.8s-2.2.3-3.2.8-1.8,1.4-2.4,2.5c-.6,1.1-.9,2.4-.9,4,0,2.4.6,4.2,1.8,5.5,1.2,1.3,2.7,1.9,4.5,1.9s2.3-.3,3.3-.8Z"/>
    <path class="cls-3" d="M383.6,300.8c-1.4-.6-2.4-1.5-3.2-2.5-.8-1.1-1.2-2.3-1.3-3.6h4.7c0,.9.5,1.7,1.3,2.3.8.6,1.8.9,3,.9s2.3-.2,3-.7c.7-.5,1.1-1.1,1.1-1.9s-.4-1.4-1.2-1.8c-.8-.4-2-.8-3.7-1.3-1.6-.4-3-.9-4-1.3s-1.9-1.1-2.7-1.9-1.1-2-1.1-3.5.3-2.2,1-3.2c.7-1,1.7-1.7,3-2.3,1.3-.6,2.8-.8,4.4-.8,2.5,0,4.5.6,6,1.9,1.5,1.3,2.3,3,2.4,5.1h-4.5c0-1-.5-1.8-1.2-2.3s-1.7-.9-2.9-.9-2.1.2-2.7.7-1,1-1,1.8.2,1.1.6,1.5c.4.4.9.7,1.5.9.6.2,1.5.5,2.7.9,1.6.4,2.9.9,3.9,1.3,1,.4,1.9,1.1,2.6,1.9.7.8,1.1,2,1.2,3.4,0,1.2-.3,2.4-1,3.3-.7,1-1.7,1.7-2.9,2.3-1.3.6-2.7.8-4.4.8s-3.3-.3-4.6-.9Z"/>
    <path class="cls-3" d="M406.8,283.2v12.1c0,.8.2,1.4.6,1.8.4.4,1,.5,2,.5h2.8v3.8h-3.6c-2,0-3.6-.5-4.7-1.4-1.1-1-1.6-2.5-1.6-4.6v-12.1h-2.6v-3.7h2.6v-5.4h4.6v5.4h5.3v3.7h-5.3Z"/>
  </g>
  <path class="cls-4" d="M1410.5,0h514.7C1958.8,0,1986,20.3,1986,45.4v333.5c0,25.1-27.2,45.4-60.8,45.4h-514.7c-33.6,0-60.8-20.3-60.8-45.4V45.4C1349.6,20.3,1376.9,0,1410.5,0Z"/>
  <circle class="cls-5" cx="1667.8" cy="94.5" r="59.2" transform="translate(421.7 1207) rotate(-45)"/>
  <path class="cls-1" d="M1705.3,85.6c-1-4.1-2.6-7.9-4.7-11.4h-12.4c0-.1-.1-12.6-.1-12.6-3.5-2.1-7.3-3.8-11.4-4.7l-8.9,8.7-8.9-8.7c-4.1,1-7.9,2.6-11.4,4.7v12.5c-.1,0-12.6.1-12.6.1-2.1,3.5-3.8,7.3-4.7,11.4l8.7,8.9-8.7,8.9c1,4.1,2.6,7.9,4.7,11.4h12.5c0,.1.1,12.6.1,12.6,3.5,2.1,7.3,3.7,11.4,4.7l8.9-8.7,8.9,8.7c4.1-1,7.9-2.6,11.4-4.7v-12.5c.1,0,12.6-.1,12.6-.1,2.1-3.5,3.8-7.3,4.7-11.4l-8.7-8.9,8.7-8.9ZM1667.8,108.7c-7.8,0-14.1-6.3-14.1-14.1s6.3-14.1,14.1-14.1,14.1,6.3,14.1,14.1-6.3,14.1-14.1,14.1Z"/>
  <g>
    <path class="cls-3" d="M1497.3,275.5c2.2,1.1,3.9,2.7,5.1,4.8,1.2,2.1,1.8,4.6,1.8,7.4s-.6,5.2-1.8,7.3c-1.2,2.1-2.9,3.6-5.1,4.7-2.2,1.1-4.8,1.6-7.7,1.6h-9v-27.6h9c2.9,0,5.5.6,7.7,1.7ZM1497,295c1.7-1.7,2.6-4.2,2.6-7.4s-.9-5.7-2.6-7.5c-1.7-1.8-4.2-2.7-7.4-2.7h-4.5v20.2h4.5c3.2,0,5.7-.9,7.4-2.6Z"/>
    <path class="cls-3" d="M1509,275.8c-.6-.6-.8-1.2-.8-2.1s.3-1.5.8-2.1c.6-.6,1.2-.8,2.1-.8s1.5.3,2,.8c.6.6.8,1.2.8,2.1s-.3,1.5-.8,2.1c-.6.6-1.2.8-2,.8s-1.5-.3-2.1-.8ZM1513.2,279.5v21.9h-4.5v-21.9h4.5Z"/>
    <path class="cls-3" d="M1522.5,300.8c-1.4-.6-2.4-1.5-3.2-2.5-.8-1.1-1.2-2.3-1.3-3.6h4.7c0,.9.5,1.7,1.3,2.3.8.6,1.8.9,3,.9s2.3-.2,3-.7c.7-.5,1.1-1.1,1.1-1.9s-.4-1.4-1.2-1.8c-.8-.4-2-.8-3.7-1.3-1.6-.4-3-.9-4-1.3-1-.4-1.9-1.1-2.7-1.9s-1.1-2-1.1-3.5.3-2.2,1-3.2c.7-1,1.7-1.7,3-2.3s2.8-.8,4.4-.8c2.5,0,4.5.6,6,1.9,1.5,1.3,2.3,3,2.4,5.1h-4.5c0-1-.5-1.8-1.2-2.3-.7-.6-1.7-.9-2.9-.9s-2.1.2-2.7.7-1,1-1,1.8.2,1.1.6,1.5c.4.4.9.7,1.5.9.6.2,1.5.5,2.7.9,1.6.4,2.9.9,3.9,1.3s1.9,1.1,2.6,1.9c.7.8,1.1,2,1.2,3.4,0,1.2-.3,2.4-1,3.3-.7,1-1.7,1.7-2.9,2.3-1.3.6-2.7.8-4.4.8s-3.3-.3-4.6-.9Z"/>
    <path class="cls-3" d="M1545.7,283.2v12.1c0,.8.2,1.4.6,1.8.4.4,1,.5,2,.5h2.8v3.8h-3.6c-2,0-3.6-.5-4.7-1.4-1.1-1-1.6-2.5-1.6-4.6v-12.1h-2.6v-3.7h2.6v-5.4h4.6v5.4h5.3v3.7h-5.3Z"/>
    <path class="cls-3" d="M1555,284.5c.9-1.7,2.2-3,3.7-3.9,1.6-.9,3.3-1.4,5.2-1.4s3.2.3,4.5,1,2.3,1.5,3.1,2.5v-3.2h4.6v21.9h-4.6v-3.3c-.8,1-1.8,1.9-3.1,2.6-1.3.7-2.8,1-4.5,1s-3.6-.5-5.2-1.4c-1.6-1-2.8-2.3-3.7-4-.9-1.7-1.4-3.7-1.4-5.9s.5-4.1,1.4-5.8ZM1570.6,286.5c-.6-1.1-1.4-2-2.4-2.5-1-.6-2.1-.9-3.3-.9s-2.2.3-3.3.9c-1,.6-1.8,1.4-2.4,2.5s-.9,2.4-.9,3.9.3,2.8.9,4c.6,1.1,1.4,2,2.5,2.6,1,.6,2.1.9,3.2.9s2.2-.3,3.3-.9c1-.6,1.8-1.4,2.4-2.6.6-1.1.9-2.4.9-3.9s-.3-2.8-.9-3.9Z"/>
    <path class="cls-3" d="M1597.7,280.2c1.4.7,2.4,1.8,3.2,3.2.8,1.4,1.2,3.1,1.2,5.1v12.9h-4.5v-12.2c0-2-.5-3.5-1.5-4.5-1-1-2.3-1.6-4-1.6s-3,.5-4,1.6c-1,1-1.5,2.5-1.5,4.5v12.2h-4.5v-21.9h4.5v2.5c.7-.9,1.7-1.6,2.8-2.1,1.2-.5,2.4-.8,3.7-.8s3.3.4,4.6,1.1Z"/>
    <path class="cls-3" d="M1607.7,284.5c.9-1.7,2.2-3,3.8-3.9,1.6-.9,3.5-1.4,5.6-1.4s4.8.6,6.6,1.9c1.7,1.3,2.9,3,3.5,5.4h-4.9c-.4-1.1-1-1.9-1.9-2.5s-2-.9-3.3-.9-3.3.7-4.4,2c-1.1,1.3-1.6,3.1-1.6,5.5s.5,4.2,1.6,5.5c1.1,1.3,2.6,2,4.4,2s4.4-1.2,5.2-3.5h4.9c-.6,2.2-1.8,4-3.6,5.3s-3.9,2-6.5,2-3.9-.5-5.6-1.4c-1.6-.9-2.9-2.3-3.8-4-.9-1.7-1.4-3.7-1.4-5.9s.5-4.2,1.4-5.9Z"/>
    <path class="cls-3" d="M1651.5,292.1h-16.7c.1,1.7.8,3.1,1.9,4.2,1.2,1.1,2.6,1.6,4.3,1.6,2.4,0,4.2-1,5.2-3.1h4.9c-.7,2-1.9,3.7-3.6,4.9-1.7,1.3-3.9,1.9-6.4,1.9s-4-.5-5.6-1.4c-1.7-.9-3-2.3-3.9-4-.9-1.7-1.4-3.7-1.4-5.9s.5-4.2,1.4-5.9c.9-1.7,2.2-3,3.8-3.9,1.7-.9,3.6-1.4,5.7-1.4s3.9.5,5.5,1.3c1.6.9,2.9,2.2,3.8,3.8.9,1.6,1.3,3.5,1.3,5.6s0,1.6-.2,2.2ZM1646.9,288.5c0-1.7-.6-3-1.8-4-1.2-1-2.6-1.5-4.3-1.5s-2.9.5-4,1.5-1.8,2.3-2,4h12.1Z"/>
    <path class="cls-3" d="M1661.1,295.9l-4.8,11h-2.9l2.8-11h4.9Z"/>
    <path class="cls-3" d="M1679.4,300.7c-1.5-.6-2.6-1.6-3.5-2.8-.8-1.2-1.3-2.6-1.3-4.2h4.8c.1,1.2.6,2.2,1.4,2.9.8.8,2,1.2,3.5,1.2s2.8-.4,3.7-1.1,1.3-1.7,1.3-2.9-.3-1.7-.8-2.3c-.5-.6-1.2-1-2-1.3-.8-.3-1.9-.7-3.4-1-1.8-.5-3.3-1-4.4-1.4-1.1-.5-2.1-1.2-2.9-2.3-.8-1-1.2-2.4-1.2-4.1s.4-3,1.2-4.2c.8-1.2,1.9-2.1,3.3-2.7s3.1-1,5-1c2.7,0,4.9.7,6.6,2s2.7,3.2,2.8,5.5h-5c0-1-.6-1.9-1.4-2.6s-2-1.1-3.5-1.1-2.4.3-3.2,1-1.2,1.6-1.2,2.9.3,1.5.8,2.1c.5.5,1.2,1,2,1.3.8.3,1.9.7,3.3,1,1.8.5,3.3,1,4.5,1.5s2.1,1.3,2.9,2.3c.8,1,1.2,2.4,1.2,4.2s-.4,2.7-1.1,4c-.8,1.2-1.9,2.2-3.3,3-1.4.8-3.1,1.1-5.1,1.1s-3.5-.3-5-1Z"/>
    <path class="cls-3" d="M1699.2,284.5c.9-1.7,2.2-3,3.8-3.9,1.6-.9,3.5-1.4,5.6-1.4s4.8.6,6.6,1.9c1.7,1.3,2.9,3,3.5,5.4h-4.9c-.4-1.1-1-1.9-1.9-2.5s-2-.9-3.3-.9-3.3.7-4.4,2c-1.1,1.3-1.6,3.1-1.6,5.5s.5,4.2,1.6,5.5c1.1,1.3,2.6,2,4.4,2,2.6,0,4.4-1.2,5.2-3.5h4.9c-.6,2.2-1.8,4-3.6,5.3-1.7,1.3-3.9,2-6.5,2s-3.9-.5-5.6-1.4c-1.6-.9-2.9-2.3-3.8-4-.9-1.7-1.4-3.7-1.4-5.9s.5-4.2,1.4-5.9Z"/>
    <path class="cls-3" d="M1738.9,280.2c1.3.7,2.3,1.8,3.1,3.2s1.1,3.1,1.1,5.1v12.9h-4.5v-12.2c0-2-.5-3.5-1.5-4.5-1-1-2.3-1.6-4-1.6s-3,.5-4,1.6c-1,1-1.5,2.5-1.5,4.5v12.2h-4.5v-29.4h4.5v10c.8-.9,1.7-1.6,2.9-2.1,1.2-.5,2.5-.8,3.9-.8s3.2.4,4.5,1.1Z"/>
    <path class="cls-3" d="M1768.8,292.1h-16.7c.1,1.7.8,3.1,1.9,4.2,1.2,1.1,2.6,1.6,4.3,1.6,2.4,0,4.2-1,5.2-3.1h4.9c-.7,2-1.9,3.7-3.6,4.9s-3.9,1.9-6.4,1.9-4-.5-5.6-1.4c-1.7-.9-3-2.3-3.9-4-.9-1.7-1.4-3.7-1.4-5.9s.5-4.2,1.4-5.9c.9-1.7,2.2-3,3.8-3.9,1.7-.9,3.6-1.4,5.7-1.4s3.9.5,5.5,1.3c1.6.9,2.9,2.2,3.8,3.8.9,1.6,1.3,3.5,1.3,5.6s0,1.6-.2,2.2ZM1764.2,288.5c0-1.7-.6-3-1.8-4-1.2-1-2.6-1.5-4.3-1.5s-2.9.5-4,1.5c-1.1,1-1.8,2.3-2,4h12.1Z"/>
    <path class="cls-3" d="M1773.2,284.5c.9-1.7,2.2-3,3.7-3.9,1.6-.9,3.3-1.4,5.3-1.4s2.8.3,4.2.9c1.4.6,2.5,1.4,3.3,2.5v-10.6h4.6v29.4h-4.6v-3.3c-.7,1.1-1.8,1.9-3.1,2.6s-2.8,1-4.5,1-3.6-.5-5.2-1.4c-1.6-1-2.8-2.3-3.7-4-.9-1.7-1.4-3.7-1.4-5.9s.5-4.1,1.4-5.8ZM1788.8,286.5c-.6-1.1-1.4-2-2.4-2.5-1-.6-2.1-.9-3.3-.9s-2.2.3-3.3.9c-1,.6-1.8,1.4-2.4,2.5-.6,1.1-.9,2.4-.9,3.9s.3,2.8.9,4c.6,1.1,1.4,2,2.5,2.6s2.1.9,3.2.9,2.2-.3,3.3-.9c1-.6,1.8-1.4,2.4-2.6.6-1.1.9-2.4.9-3.9s-.3-2.8-.9-3.9Z"/>
    <path class="cls-3" d="M1820.1,279.5v21.9h-4.5v-2.6c-.7.9-1.6,1.6-2.8,2.1-1.2.5-2.4.8-3.7.8s-3.3-.4-4.6-1.1c-1.4-.7-2.4-1.8-3.2-3.2-.8-1.4-1.2-3.1-1.2-5.1v-12.9h4.5v12.2c0,2,.5,3.5,1.5,4.5s2.3,1.6,4,1.6,3-.5,4-1.6,1.5-2.5,1.5-4.5v-12.2h4.5Z"/>
    <path class="cls-3" d="M1830.6,272v29.4h-4.5v-29.4h4.5Z"/>
    <path class="cls-3" d="M1856.4,292.1h-16.7c.1,1.7.8,3.1,1.9,4.2,1.2,1.1,2.6,1.6,4.3,1.6,2.4,0,4.2-1,5.2-3.1h4.9c-.7,2-1.9,3.7-3.6,4.9s-3.9,1.9-6.4,1.9-4-.5-5.6-1.4c-1.7-.9-3-2.3-3.9-4-.9-1.7-1.4-3.7-1.4-5.9s.5-4.2,1.4-5.9c.9-1.7,2.2-3,3.8-3.9,1.7-.9,3.6-1.4,5.7-1.4s3.9.5,5.5,1.3c1.6.9,2.9,2.2,3.8,3.8.9,1.6,1.3,3.5,1.3,5.6s0,1.6-.2,2.2ZM1851.8,288.5c0-1.7-.6-3-1.8-4-1.2-1-2.6-1.5-4.3-1.5s-2.9.5-4,1.5c-1.1,1-1.8,2.3-2,4h12.1Z"/>
  </g>
  <g>
    <path class="cls-3" d="M1463.6,223.6c-.8,1.4-1.9,2.5-3.5,3.4-1.6.9-3.6,1.3-6.1,1.3h-5v11.4h-6v-29.7h10.9c2.3,0,4.3.4,5.9,1.2,1.6.8,2.8,1.9,3.6,3.3.8,1.4,1.2,3,1.2,4.7s-.4,3.1-1.1,4.5ZM1457.4,222.3c.8-.8,1.2-1.8,1.2-3.2,0-2.9-1.6-4.3-4.8-4.3h-4.7v8.6h4.7c1.6,0,2.9-.4,3.7-1.1Z"/>
    <path class="cls-3" d="M1477.9,216.8c1.2-.7,2.6-1.1,4.2-1.1v6.3h-1.6c-1.9,0-3.3.4-4.2,1.3-1,.9-1.4,2.4-1.4,4.6v11.7h-6v-23.6h6v3.7c.8-1.2,1.8-2.2,3-2.9Z"/>
    <path class="cls-3" d="M1486,221.4c.9-1.8,2.2-3.3,3.9-4.3s3.5-1.5,5.5-1.5,3.3.4,4.6,1.1c1.3.7,2.4,1.6,3.2,2.7v-3.4h6v23.6h-6v-3.4c-.8,1.1-1.8,2-3.2,2.7-1.3.7-2.9,1.1-4.7,1.1s-3.8-.5-5.4-1.5-2.9-2.5-3.9-4.3c-1-1.9-1.4-4-1.4-6.4s.5-4.5,1.4-6.3ZM1502.3,224.1c-.6-1-1.3-1.8-2.3-2.4s-2-.8-3.1-.8-2.1.3-3.1.8c-.9.5-1.7,1.3-2.3,2.4-.6,1-.9,2.3-.9,3.7s.3,2.7.9,3.7c.6,1.1,1.3,1.9,2.3,2.4.9.6,2,.9,3,.9s2.1-.3,3.1-.8,1.7-1.3,2.3-2.4c.6-1,.9-2.3.9-3.7s-.3-2.7-.9-3.7Z"/>
    <path class="cls-3" d="M1514.9,221.5c1-1.8,2.4-3.2,4.1-4.3,1.8-1,3.8-1.5,6-1.5s5.3.7,7.2,2.2,3.2,3.5,3.8,6.1h-6.4c-.3-1-.9-1.8-1.7-2.4-.8-.6-1.8-.9-3-.9-1.7,0-3,.6-4,1.8-1,1.2-1.5,3-1.5,5.3s.5,4,1.5,5.2c1,1.2,2.3,1.8,4,1.8,2.4,0,4-1.1,4.7-3.2h6.4c-.7,2.6-1.9,4.6-3.9,6.1-1.9,1.5-4.3,2.3-7.2,2.3s-4.3-.5-6-1.5c-1.8-1-3.1-2.4-4.1-4.3s-1.5-4-1.5-6.4.5-4.6,1.5-6.4Z"/>
    <path class="cls-3" d="M1547.5,221v11.4c0,.8.2,1.4.6,1.7s1,.5,1.9.5h2.8v5h-3.7c-5,0-7.5-2.4-7.5-7.3v-11.4h-2.8v-4.9h2.8v-5.8h6v5.8h5.3v4.9h-5.3Z"/>
    <path class="cls-3" d="M1557.5,212.3c-.7-.7-1-1.5-1-2.5s.3-1.8,1-2.5c.7-.7,1.6-1,2.6-1s1.9.3,2.6,1c.7.7,1,1.5,1,2.5s-.3,1.8-1,2.5c-.7.7-1.6,1-2.6,1s-1.9-.3-2.6-1ZM1563,216.1v23.6h-6v-23.6h6Z"/>
    <path class="cls-3" d="M1568.8,221.5c1-1.8,2.4-3.2,4.1-4.3,1.8-1,3.8-1.5,6-1.5s5.3.7,7.2,2.2,3.2,3.5,3.8,6.1h-6.4c-.3-1-.9-1.8-1.7-2.4-.8-.6-1.8-.9-3-.9-1.7,0-3,.6-4,1.8-1,1.2-1.5,3-1.5,5.3s.5,4,1.5,5.2c1,1.2,2.3,1.8,4,1.8,2.4,0,4-1.1,4.7-3.2h6.4c-.7,2.6-1.9,4.6-3.9,6.1-1.9,1.5-4.3,2.3-7.2,2.3s-4.3-.5-6-1.5c-1.8-1-3.1-2.4-4.1-4.3s-1.5-4-1.5-6.4.5-4.6,1.5-6.4Z"/>
    <path class="cls-3" d="M1594.4,221.4c.9-1.8,2.2-3.3,3.9-4.3,1.6-1,3.5-1.5,5.5-1.5s3.3.4,4.6,1.1c1.3.7,2.4,1.6,3.2,2.7v-3.4h6v23.6h-6v-3.4c-.8,1.1-1.8,2-3.2,2.7-1.3.7-2.9,1.1-4.7,1.1s-3.8-.5-5.4-1.5c-1.6-1-2.9-2.5-3.9-4.3-1-1.9-1.4-4-1.4-6.4s.5-4.5,1.4-6.3ZM1610.6,224.1c-.6-1-1.3-1.8-2.3-2.4-1-.6-2-.8-3.1-.8s-2.1.3-3.1.8c-.9.5-1.7,1.3-2.3,2.4-.6,1-.9,2.3-.9,3.7s.3,2.7.9,3.7c.6,1.1,1.3,1.9,2.3,2.4.9.6,2,.9,3,.9s2.1-.3,3.1-.8c1-.6,1.7-1.3,2.3-2.4.6-1,.9-2.3.9-3.7s-.3-2.7-.9-3.7Z"/>
    <path class="cls-3" d="M1629.3,208.2v31.5h-6v-31.5h6Z"/>
    <path class="cls-3" d="M1645.8,216.9c1.3-2.3,3.1-4.1,5.4-5.4,2.3-1.3,4.8-1.9,7.7-1.9s6.2.9,8.7,2.6c2.5,1.7,4.2,4.1,5.2,7.1h-6.8c-.7-1.4-1.6-2.5-2.9-3.2-1.2-.7-2.7-1.1-4.3-1.1s-3.3.4-4.6,1.2-2.4,1.9-3.1,3.4-1.1,3.2-1.1,5.2.4,3.7,1.1,5.2,1.8,2.6,3.1,3.4c1.3.8,2.9,1.2,4.6,1.2s3-.4,4.3-1.1,2.2-1.8,2.9-3.2h6.8c-1,3-2.7,5.4-5.2,7.1-2.5,1.7-5.4,2.5-8.7,2.5s-5.4-.6-7.7-1.9c-2.3-1.3-4.1-3.1-5.4-5.4-1.3-2.3-2-4.9-2-7.8s.7-5.5,2-7.8Z"/>
    <path class="cls-3" d="M1682.2,238.5c-1.8-1-3.2-2.4-4.3-4.3-1-1.8-1.6-4-1.6-6.4s.5-4.5,1.6-6.4c1.1-1.8,2.5-3.3,4.4-4.3,1.8-1,3.9-1.5,6.2-1.5s4.3.5,6.2,1.5c1.8,1,3.3,2.4,4.4,4.3,1.1,1.8,1.6,4,1.6,6.4s-.5,4.5-1.6,6.4c-1.1,1.8-2.6,3.3-4.4,4.3-1.9,1-3.9,1.5-6.2,1.5s-4.3-.5-6.1-1.5ZM1691.4,234c.9-.5,1.7-1.3,2.3-2.4.6-1,.9-2.3.9-3.8,0-2.2-.6-4-1.8-5.2-1.2-1.2-2.6-1.8-4.3-1.8s-3.1.6-4.3,1.8c-1.1,1.2-1.7,2.9-1.7,5.2s.6,4,1.7,5.2c1.1,1.2,2.5,1.8,4.2,1.8s2.1-.3,3-.8Z"/>
    <path class="cls-3" d="M1724.9,218.4c1.7,1.8,2.6,4.2,2.6,7.4v13.8h-6v-13c0-1.9-.5-3.3-1.4-4.3-.9-1-2.2-1.5-3.8-1.5s-2.9.5-3.9,1.5c-1,1-1.4,2.4-1.4,4.3v13h-6v-23.6h6v2.9c.8-1,1.8-1.8,3-2.4,1.2-.6,2.6-.9,4.1-.9,2.8,0,5.1.9,6.8,2.7Z"/>
    <path class="cls-3" d="M1737,239c-1.5-.7-2.7-1.6-3.6-2.8-.9-1.2-1.4-2.5-1.5-4h6c.1.9.6,1.7,1.3,2.3.8.6,1.8.9,2.9.9s2-.2,2.7-.7,1-1,1-1.7-.4-1.3-1.2-1.7c-.8-.4-2-.8-3.7-1.3-1.8-.4-3.2-.9-4.3-1.3-1.1-.5-2.1-1.1-2.9-2.1-.8-.9-1.2-2.2-1.2-3.8s.4-2.5,1.1-3.6c.8-1.1,1.8-1.9,3.2-2.6,1.4-.6,3.1-.9,5-.9,2.8,0,5,.7,6.7,2.1s2.6,3.3,2.8,5.7h-5.7c0-.9-.5-1.7-1.2-2.2-.7-.6-1.6-.8-2.8-.8s-1.9.2-2.5.6c-.6.4-.9,1-.9,1.7s.4,1.4,1.2,1.8,2,.8,3.7,1.3c1.7.4,3.1.9,4.2,1.3,1.1.5,2.1,1.2,2.9,2.1.8,1,1.2,2.2,1.3,3.8,0,1.4-.4,2.6-1.1,3.7s-1.8,1.9-3.2,2.5c-1.4.6-3,.9-4.9.9s-3.7-.3-5.2-1Z"/>
    <path class="cls-3" d="M1763.2,221v11.4c0,.8.2,1.4.6,1.7s1,.5,1.9.5h2.8v5h-3.7c-5,0-7.5-2.4-7.5-7.3v-11.4h-2.8v-4.9h2.8v-5.8h6v5.8h5.3v4.9h-5.3Z"/>
    <path class="cls-3" d="M1781.7,216.8c1.2-.7,2.6-1.1,4.2-1.1v6.3h-1.6c-1.9,0-3.3.4-4.2,1.3-1,.9-1.4,2.4-1.4,4.6v11.7h-6v-23.6h6v3.7c.8-1.2,1.8-2.2,3-2.9Z"/>
    <path class="cls-3" d="M1789.9,221.4c.9-1.8,2.2-3.3,3.9-4.3,1.6-1,3.5-1.5,5.5-1.5s3.3.4,4.6,1.1c1.3.7,2.4,1.6,3.2,2.7v-3.4h6v23.6h-6v-3.4c-.8,1.1-1.8,2-3.2,2.7-1.3.7-2.9,1.1-4.7,1.1s-3.8-.5-5.4-1.5c-1.6-1-2.9-2.5-3.9-4.3-1-1.9-1.4-4-1.4-6.4s.5-4.5,1.4-6.3ZM1806.1,224.1c-.6-1-1.3-1.8-2.3-2.4-1-.6-2-.8-3.1-.8s-2.1.3-3.1.8c-.9.5-1.7,1.3-2.3,2.4-.6,1-.9,2.3-.9,3.7s.3,2.7.9,3.7c.6,1.1,1.3,1.9,2.3,2.4.9.6,2,.9,3,.9s2.1-.3,3.1-.8c1-.6,1.7-1.3,2.3-2.4.6-1,.9-2.3.9-3.7s-.3-2.7-.9-3.7Z"/>
    <path class="cls-3" d="M1819.2,212.3c-.7-.7-1-1.5-1-2.5s.3-1.8,1-2.5c.7-.7,1.6-1,2.6-1s1.9.3,2.6,1c.7.7,1,1.5,1,2.5s-.3,1.8-1,2.5c-.7.7-1.6,1-2.6,1s-1.9-.3-2.6-1ZM1824.8,216.1v23.6h-6v-23.6h6Z"/>
    <path class="cls-3" d="M1850.5,218.4c1.7,1.8,2.6,4.2,2.6,7.4v13.8h-6v-13c0-1.9-.5-3.3-1.4-4.3-.9-1-2.2-1.5-3.8-1.5s-2.9.5-3.9,1.5c-1,1-1.4,2.4-1.4,4.3v13h-6v-23.6h6v2.9c.8-1,1.8-1.8,3-2.4,1.2-.6,2.6-.9,4.1-.9,2.8,0,5.1.9,6.8,2.7Z"/>
    <path class="cls-3" d="M1865.7,221v11.4c0,.8.2,1.4.6,1.7s1,.5,1.9.5h2.8v5h-3.7c-5,0-7.5-2.4-7.5-7.3v-11.4h-2.8v-4.9h2.8v-5.8h6v5.8h5.3v4.9h-5.3Z"/>
    <path class="cls-3" d="M1879.1,239c-1.5-.7-2.7-1.6-3.6-2.8-.9-1.2-1.4-2.5-1.5-4h6c.1.9.6,1.7,1.3,2.3.8.6,1.8.9,2.9.9s2-.2,2.7-.7,1-1,1-1.7-.4-1.3-1.2-1.7c-.8-.4-2-.8-3.7-1.3-1.8-.4-3.2-.9-4.3-1.3-1.1-.5-2.1-1.1-2.9-2.1-.8-.9-1.2-2.2-1.2-3.8s.4-2.5,1.1-3.6c.8-1.1,1.8-1.9,3.2-2.6,1.4-.6,3.1-.9,5-.9,2.8,0,5,.7,6.7,2.1s2.6,3.3,2.8,5.7h-5.7c0-.9-.5-1.7-1.2-2.2-.7-.6-1.6-.8-2.8-.8s-1.9.2-2.5.6c-.6.4-.9,1-.9,1.7s.4,1.4,1.2,1.8,2,.8,3.7,1.3c1.7.4,3.1.9,4.2,1.3,1.1.5,2.1,1.2,2.9,2.1.8,1,1.2,2.2,1.3,3.8,0,1.4-.4,2.6-1.1,3.7s-1.8,1.9-3.2,2.5c-1.4.6-3,.9-4.9.9s-3.7-.3-5.2-1Z"/>
  </g>
  <path class="cls-1" d="M335.8,93.1v-13.2h-13.2c0-4.9-3.9-8.8-8.8-8.8s-8.8,3.9-8.8,8.8h-13.2v13.2c4.9,0,8.8,3.9,8.8,8.8s-3.9,8.8-8.8,8.8v13.2h13.2c0-4.9,3.9-8.8,8.8-8.8s8.8,3.9,8.8,8.8h13.2v-13.2c4.9,0,8.8-3.9,8.8-8.8s-3.9-8.8-8.8-8.8Z"/>
</svg>