<?xml version="1.0" encoding="UTF-8"?>
<svg id="Layer_1" data-name="Layer 1" xmlns="http://www.w3.org/2000/svg" version="1.1" viewBox="0 0 1986 347.3">
  <defs>
    <style>
      .cls-1 {
        fill: none;
      }

      .cls-1, .cls-2 {
        stroke: #30c1d2;
        stroke-linecap: round;
        stroke-linejoin: round;
        stroke-width: 10px;
      }

      .cls-2, .cls-3 {
        fill: #fff;
      }

      .cls-4 {
        fill: #000;
      }

      .cls-4, .cls-5, .cls-3 {
        stroke-width: 0px;
      }

      .cls-5 {
        fill: #e5f4f8;
      }
    </style>
  </defs>
  <path class="cls-5" d="M45.4,0h384.2C454.7,0,475,16.6,475,37.2v273c0,20.5-20.3,37.2-45.4,37.2H45.4c-25.1,0-45.4-16.6-45.4-37.2V37.2C0,16.6,20.3,0,45.4,0Z"/>
  <path class="cls-5" d="M549.1,0h384.2C958.4,0,978.7,16.6,978.7,37.2v273c0,20.5-20.3,37.2-45.4,37.2h-384.2c-25.1,0-45.4-16.6-45.4-37.2V37.2C503.7,16.6,524,0,549.1,0Z"/>
  <path class="cls-5" d="M1052.8,0h384.2C1462.1,0,1482.4,16.6,1482.4,37.2v273c0,20.5-20.3,37.2-45.4,37.2h-384.2c-25.1,0-45.4-16.6-45.4-37.2V37.2C1007.4,16.6,1027.7,0,1052.8,0Z"/>
  <path class="cls-5" d="M1556.4,0h384.2C1965.7,0,1986,16.6,1986,37.2v273c0,20.5-20.3,37.2-45.4,37.2h-384.2c-25.1,0-45.4-16.6-45.4-37.2V37.2C1511,16.6,1531.3,0,1556.4,0Z"/>
  <circle class="cls-3" cx="237.5" cy="118.4" r="59.2"/>
  <circle class="cls-3" cx="741.1" cy="118.4" r="59.2" transform="translate(133.3 558.7) rotate(-45)"/>
  <circle class="cls-3" cx="1244.8" cy="118.4" r="59.2" transform="translate(280.9 914.9) rotate(-45)"/>
  <circle class="cls-3" cx="1748.5" cy="118.4" r="59.2" transform="translate(428.4 1271.1) rotate(-45)"/>
  <line class="cls-1" x1="271.2" y1="101.9" x2="204.1" y2="101.9"/>
  <g>
    <path class="cls-4" d="M180.2,245.5v4.2h-10.8v6.6h8.2v4.1h-8.2v10.9h-5.2v-25.8h15.9Z"/>
    <path class="cls-4" d="M184.2,247.5c-.6-.6-.9-1.3-.9-2.2s.3-1.6.9-2.2c.6-.6,1.4-.9,2.3-.9s1.7.3,2.3.9c.6.6.9,1.3.9,2.2s-.3,1.6-.9,2.2c-.6.6-1.4.9-2.3.9s-1.7-.3-2.3-.9ZM189,250.9v20.5h-5.2v-20.5h5.2Z"/>
    <path class="cls-4" d="M199.3,244v27.3h-5.2v-27.3h5.2Z"/>
    <path class="cls-4" d="M210.4,255.1v9.9c0,.7.2,1.2.5,1.5.3.3.9.5,1.7.5h2.4v4.4h-3.3c-4.4,0-6.5-2.1-6.5-6.4v-9.9h-2.4v-4.2h2.4v-5.1h5.2v5.1h4.6v4.2h-4.6Z"/>
    <path class="cls-4" d="M237.6,262.6h-15c.1,1.5.6,2.6,1.6,3.5.9.8,2,1.3,3.4,1.3,1.9,0,3.3-.8,4.1-2.5h5.6c-.6,2-1.7,3.6-3.4,4.9-1.7,1.3-3.7,1.9-6.2,1.9s-3.7-.4-5.3-1.3-2.8-2.1-3.7-3.7c-.9-1.6-1.3-3.4-1.3-5.5s.4-4,1.3-5.6c.9-1.6,2.1-2.8,3.6-3.7,1.6-.9,3.3-1.3,5.4-1.3s3.7.4,5.2,1.3c1.5.8,2.7,2,3.6,3.6s1.3,3.3,1.3,5.3,0,1.4-.1,2ZM232.4,259.2c0-1.3-.5-2.4-1.4-3.2-.9-.8-2.1-1.2-3.4-1.2s-2.4.4-3.2,1.2c-.9.8-1.4,1.9-1.6,3.2h9.7Z"/>
    <path class="cls-4" d="M249.3,251.5c1.1-.6,2.3-.9,3.7-.9v5.4h-1.4c-1.6,0-2.9.4-3.7,1.1-.8.8-1.2,2.1-1.2,4v10.2h-5.2v-20.5h5.2v3.2c.7-1.1,1.5-1.9,2.6-2.5Z"/>
    <path class="cls-4" d="M256.8,247.5c-.6-.6-.9-1.3-.9-2.2s.3-1.6.9-2.2c.6-.6,1.4-.9,2.3-.9s1.7.3,2.3.9c.6.6.9,1.3.9,2.2s-.3,1.6-.9,2.2c-.6.6-1.4.9-2.3.9s-1.7-.3-2.3-.9ZM261.6,250.9v20.5h-5.2v-20.5h5.2Z"/>
    <path class="cls-4" d="M283.9,252.9c1.5,1.5,2.3,3.7,2.3,6.4v12h-5.2v-11.3c0-1.6-.4-2.9-1.2-3.8-.8-.9-1.9-1.3-3.3-1.3s-2.6.4-3.4,1.3c-.8.9-1.2,2.1-1.2,3.8v11.3h-5.2v-20.5h5.2v2.5c.7-.9,1.6-1.6,2.6-2.1,1.1-.5,2.2-.8,3.5-.8,2.4,0,4.4.8,5.9,2.3Z"/>
    <path class="cls-4" d="M303.1,251.4c1.2.6,2.1,1.4,2.7,2.3v-2.9h5.2v20.6c0,1.9-.4,3.6-1.1,5.1-.8,1.5-1.9,2.7-3.4,3.5s-3.4,1.3-5.5,1.3-5.3-.7-7.1-2c-1.9-1.4-2.9-3.2-3.2-5.5h5.1c.3.9.9,1.7,1.8,2.2.9.6,2,.8,3.3.8s2.7-.4,3.7-1.3,1.4-2.3,1.4-4.1v-3.2c-.7,1-1.6,1.8-2.8,2.4-1.2.6-2.5,1-4,1s-3.3-.4-4.7-1.3c-1.4-.9-2.6-2.1-3.4-3.8-.8-1.6-1.2-3.5-1.2-5.6s.4-3.9,1.2-5.5c.8-1.6,1.9-2.8,3.4-3.7,1.4-.9,3-1.3,4.7-1.3s2.9.3,4,.9ZM305.1,257.9c-.5-.9-1.2-1.6-2-2.1-.8-.5-1.7-.7-2.7-.7s-1.8.2-2.7.7c-.8.5-1.5,1.2-2,2-.5.9-.8,2-.8,3.2s.3,2.3.8,3.2c.5.9,1.2,1.6,2,2.1.8.5,1.7.7,2.6.7s1.9-.2,2.7-.7c.8-.5,1.5-1.2,2-2.1s.7-2,.7-3.2-.2-2.3-.7-3.2Z"/>
  </g>
  <g>
    <path class="cls-4" d="M680.3,270.7c-1.4-.6-2.6-1.5-3.4-2.7-.8-1.2-1.3-2.5-1.3-4.1h5.5c0,1.1.4,1.9,1.1,2.5.7.6,1.6.9,2.8.9s2.2-.3,2.8-.9c.7-.6,1-1.3,1-2.3s-.2-1.4-.7-1.9c-.5-.5-1.1-.9-1.8-1.2-.7-.3-1.7-.6-2.9-.9-1.7-.5-3-1-4.1-1.5-1-.5-1.9-1.2-2.7-2.2-.8-1-1.1-2.3-1.1-3.9s.4-2.9,1.1-4c.8-1.1,1.8-2,3.2-2.6,1.4-.6,3-.9,4.7-.9,2.7,0,4.8.6,6.5,1.9,1.7,1.3,2.6,3.1,2.8,5.4h-5.7c0-.9-.4-1.6-1.1-2.2-.7-.6-1.6-.9-2.8-.9s-1.8.3-2.4.8c-.6.5-.9,1.3-.9,2.3s.2,1.3.7,1.7c.5.5,1,.8,1.7,1.1.7.3,1.6.6,2.9,1,1.7.5,3,1,4.1,1.5,1.1.5,2,1.2,2.7,2.2.8,1,1.1,2.3,1.1,3.9s-.4,2.7-1.1,3.8c-.7,1.2-1.8,2.1-3.1,2.8-1.4.7-3,1.1-4.9,1.1s-3.4-.3-4.9-.9Z"/>
    <path class="cls-4" d="M702.5,270.3c-1.6-.9-2.8-2.1-3.7-3.7-.9-1.6-1.3-3.4-1.3-5.5s.5-3.9,1.4-5.5c.9-1.6,2.2-2.8,3.8-3.7,1.6-.9,3.4-1.3,5.4-1.3s3.8.4,5.4,1.3c1.6.9,2.9,2.1,3.8,3.7.9,1.6,1.4,3.4,1.4,5.5s-.5,3.9-1.4,5.5c-.9,1.6-2.2,2.8-3.8,3.7-1.6.9-3.4,1.3-5.4,1.3s-3.7-.4-5.3-1.3ZM710.4,266.5c.8-.5,1.5-1.1,2-2.1.5-.9.7-2,.7-3.3,0-1.9-.5-3.4-1.5-4.5-1-1-2.3-1.6-3.7-1.6s-2.7.5-3.7,1.6c-1,1-1.5,2.5-1.5,4.5s.5,3.4,1.5,4.5c1,1,2.2,1.6,3.7,1.6s1.8-.2,2.6-.7Z"/>
    <path class="cls-4" d="M730.1,251.5c1.1-.6,2.3-.9,3.7-.9v5.4h-1.4c-1.6,0-2.9.4-3.7,1.1-.8.8-1.2,2.1-1.2,4v10.2h-5.2v-20.5h5.2v3.2c.7-1.1,1.5-1.9,2.6-2.5Z"/>
    <path class="cls-4" d="M743.2,255.1v9.9c0,.7.2,1.2.5,1.5.3.3.9.5,1.7.5h2.4v4.4h-3.3c-4.4,0-6.5-2.1-6.5-6.4v-9.9h-2.4v-4.2h2.4v-5.1h5.2v5.1h4.6v4.2h-4.6Z"/>
    <path class="cls-4" d="M751.9,247.5c-.6-.6-.9-1.3-.9-2.2s.3-1.6.9-2.2c.6-.6,1.4-.9,2.3-.9s1.7.3,2.3.9c.6.6.9,1.3.9,2.2s-.3,1.6-.9,2.2c-.6.6-1.4.9-2.3.9s-1.7-.3-2.3-.9ZM756.7,250.9v20.5h-5.2v-20.5h5.2Z"/>
    <path class="cls-4" d="M779.1,252.9c1.5,1.5,2.3,3.7,2.3,6.4v12h-5.2v-11.3c0-1.6-.4-2.9-1.2-3.8-.8-.9-1.9-1.3-3.3-1.3s-2.6.4-3.4,1.3c-.8.9-1.2,2.1-1.2,3.8v11.3h-5.2v-20.5h5.2v2.5c.7-.9,1.6-1.6,2.6-2.1,1.1-.5,2.2-.8,3.5-.8,2.4,0,4.4.8,5.9,2.3Z"/>
    <path class="cls-4" d="M798.3,251.4c1.2.6,2.1,1.4,2.7,2.3v-2.9h5.2v20.6c0,1.9-.4,3.6-1.1,5.1-.8,1.5-1.9,2.7-3.4,3.5s-3.4,1.3-5.5,1.3-5.3-.7-7.1-2c-1.9-1.4-2.9-3.2-3.2-5.5h5.1c.3.9.9,1.7,1.8,2.2.9.6,2,.8,3.3.8s2.7-.4,3.7-1.3,1.4-2.3,1.4-4.1v-3.2c-.7,1-1.6,1.8-2.8,2.4-1.2.6-2.5,1-4,1s-3.3-.4-4.7-1.3c-1.4-.9-2.6-2.1-3.4-3.8-.8-1.6-1.2-3.5-1.2-5.6s.4-3.9,1.2-5.5c.8-1.6,1.9-2.8,3.4-3.7,1.4-.9,3-1.3,4.7-1.3s2.9.3,4,.9ZM800.3,257.9c-.5-.9-1.2-1.6-2-2.1-.8-.5-1.7-.7-2.7-.7s-1.8.2-2.7.7c-.8.5-1.5,1.2-2,2-.5.9-.8,2-.8,3.2s.3,2.3.8,3.2c.5.9,1.2,1.6,2,2.1.8.5,1.7.7,2.6.7s1.9-.2,2.7-.7c.8-.5,1.5-1.2,2-2.1s.7-2,.7-3.2-.2-2.3-.7-3.2Z"/>
  </g>
  <g>
    <path class="cls-4" d="M1120.6,251.6c1.1-2,2.7-3.6,4.7-4.7,2-1.1,4.2-1.7,6.7-1.7s5.4.7,7.6,2.2c2.2,1.5,3.7,3.5,4.5,6.1h-5.9c-.6-1.2-1.4-2.2-2.5-2.8s-2.3-.9-3.7-.9-2.8.4-4,1.1-2.1,1.7-2.7,3c-.7,1.3-1,2.8-1,4.5s.3,3.2,1,4.5c.7,1.3,1.6,2.3,2.7,3,1.2.7,2.5,1.1,4,1.1s2.6-.3,3.7-.9,1.9-1.6,2.5-2.8h5.9c-.9,2.6-2.4,4.7-4.5,6.2-2.2,1.5-4.7,2.2-7.6,2.2s-4.7-.6-6.7-1.7c-2-1.1-3.5-2.7-4.7-4.7-1.1-2-1.7-4.3-1.7-6.8s.6-4.8,1.7-6.8Z"/>
    <path class="cls-4" d="M1153.7,244v27.3h-5.2v-27.3h5.2Z"/>
    <path class="cls-4" d="M1158.7,255.5c.8-1.6,1.9-2.8,3.4-3.7,1.4-.9,3-1.3,4.7-1.3s2.9.3,4,.9c1.1.6,2.1,1.4,2.8,2.3v-2.9h5.2v20.5h-5.2v-3c-.7,1-1.6,1.8-2.8,2.4-1.2.6-2.5.9-4,.9s-3.3-.4-4.7-1.3c-1.4-.9-2.5-2.1-3.4-3.8-.8-1.6-1.2-3.5-1.2-5.6s.4-3.9,1.2-5.5ZM1172.8,257.9c-.5-.9-1.2-1.6-2-2.1-.8-.5-1.7-.7-2.7-.7s-1.8.2-2.7.7c-.8.5-1.5,1.2-2,2-.5.9-.8,2-.8,3.2s.3,2.3.8,3.2c.5.9,1.2,1.6,2,2.1.8.5,1.7.7,2.6.7s1.9-.2,2.7-.7c.8-.5,1.5-1.2,2-2.1.5-.9.7-2,.7-3.2s-.2-2.3-.7-3.2Z"/>
    <path class="cls-4" d="M1187.2,270.7c-1.3-.6-2.4-1.4-3.2-2.5s-1.2-2.2-1.3-3.4h5.2c0,.8.5,1.4,1.2,2s1.5.8,2.5.8,1.8-.2,2.3-.6c.6-.4.8-.9.8-1.5s-.3-1.2-1-1.5c-.7-.3-1.8-.7-3.2-1.1-1.5-.4-2.8-.8-3.8-1.1s-1.8-1-2.5-1.8-1.1-1.9-1.1-3.3.3-2.2,1-3.1c.7-.9,1.6-1.7,2.8-2.2,1.2-.5,2.7-.8,4.3-.8,2.4,0,4.4.6,5.8,1.8,1.5,1.2,2.3,2.9,2.4,4.9h-5c0-.8-.4-1.5-1-1.9-.6-.5-1.4-.7-2.4-.7s-1.7.2-2.2.5c-.5.3-.8.8-.8,1.4s.3,1.2,1,1.6c.7.4,1.8.7,3.2,1.1,1.5.4,2.7.8,3.7,1.1,1,.4,1.8,1,2.5,1.8.7.8,1.1,1.9,1.1,3.3,0,1.2-.3,2.2-1,3.2-.7.9-1.6,1.7-2.8,2.2-1.2.5-2.6.8-4.3.8s-3.2-.3-4.5-.9Z"/>
    <path class="cls-4" d="M1207.3,270.7c-1.3-.6-2.4-1.4-3.2-2.5s-1.2-2.2-1.3-3.4h5.2c0,.8.5,1.4,1.2,2s1.5.8,2.5.8,1.8-.2,2.3-.6c.6-.4.8-.9.8-1.5s-.3-1.2-1-1.5c-.7-.3-1.8-.7-3.2-1.1-1.5-.4-2.8-.8-3.8-1.1s-1.8-1-2.5-1.8-1.1-1.9-1.1-3.3.3-2.2,1-3.1c.7-.9,1.6-1.7,2.8-2.2,1.2-.5,2.7-.8,4.3-.8,2.4,0,4.4.6,5.8,1.8,1.5,1.2,2.3,2.9,2.4,4.9h-5c0-.8-.4-1.5-1-1.9-.6-.5-1.4-.7-2.4-.7s-1.7.2-2.2.5c-.5.3-.8.8-.8,1.4s.3,1.2,1,1.6c.7.4,1.8.7,3.2,1.1,1.5.4,2.7.8,3.7,1.1,1,.4,1.8,1,2.5,1.8.7.8,1.1,1.9,1.1,3.3,0,1.2-.3,2.2-1,3.2-.7.9-1.6,1.7-2.8,2.2-1.2.5-2.6.8-4.3.8s-3.2-.3-4.5-.9Z"/>
    <path class="cls-4" d="M1238.1,267.2h8.5v4.1h-13.7v-25.8h5.2v21.7Z"/>
    <path class="cls-4" d="M1250.2,247.5c-.6-.6-.9-1.3-.9-2.2s.3-1.6.9-2.2c.6-.6,1.4-.9,2.3-.9s1.7.3,2.3.9c.6.6.9,1.3.9,2.2s-.3,1.6-.9,2.2c-.6.6-1.4.9-2.3.9s-1.7-.3-2.3-.9ZM1255,250.9v20.5h-5.2v-20.5h5.2Z"/>
    <path class="cls-4" d="M1263.5,270.7c-1.3-.6-2.4-1.4-3.2-2.5-.8-1-1.2-2.2-1.3-3.4h5.2c0,.8.5,1.4,1.2,2,.7.5,1.5.8,2.5.8s1.8-.2,2.3-.6c.6-.4.8-.9.8-1.5s-.3-1.2-1-1.5c-.7-.3-1.8-.7-3.2-1.1-1.5-.4-2.8-.8-3.7-1.1-1-.4-1.8-1-2.5-1.8-.7-.8-1.1-1.9-1.1-3.3s.3-2.2,1-3.1c.7-.9,1.6-1.7,2.8-2.2,1.2-.5,2.7-.8,4.3-.8,2.4,0,4.4.6,5.8,1.8,1.5,1.2,2.3,2.9,2.4,4.9h-5c0-.8-.4-1.5-1-1.9-.6-.5-1.4-.7-2.4-.7s-1.7.2-2.2.5c-.5.3-.8.8-.8,1.4s.3,1.2,1,1.6c.7.4,1.8.7,3.2,1.1,1.5.4,2.7.8,3.7,1.1,1,.4,1.8,1,2.5,1.8.7.8,1.1,1.9,1.1,3.3,0,1.2-.3,2.2-1,3.2-.7.9-1.6,1.7-2.8,2.2s-2.6.8-4.3.8-3.2-.3-4.5-.9Z"/>
    <path class="cls-4" d="M1286.3,255.1v9.9c0,.7.2,1.2.5,1.5.3.3.9.5,1.7.5h2.4v4.4h-3.3c-4.4,0-6.5-2.1-6.5-6.4v-9.9h-2.4v-4.2h2.4v-5.1h5.2v5.1h4.6v4.2h-4.6Z"/>
    <path class="cls-4" d="M1295,247.5c-.6-.6-.9-1.3-.9-2.2s.3-1.6.9-2.2c.6-.6,1.4-.9,2.3-.9s1.7.3,2.3.9c.6.6.9,1.3.9,2.2s-.3,1.6-.9,2.2c-.6.6-1.4.9-2.3.9s-1.7-.3-2.3-.9ZM1299.8,250.9v20.5h-5.2v-20.5h5.2Z"/>
    <path class="cls-4" d="M1322.1,252.9c1.5,1.5,2.3,3.7,2.3,6.4v12h-5.2v-11.3c0-1.6-.4-2.9-1.2-3.8-.8-.9-1.9-1.3-3.3-1.3s-2.6.4-3.4,1.3c-.8.9-1.2,2.1-1.2,3.8v11.3h-5.2v-20.5h5.2v2.5c.7-.9,1.6-1.6,2.6-2.1,1.1-.5,2.2-.8,3.5-.8,2.4,0,4.4.8,5.9,2.3Z"/>
    <path class="cls-4" d="M1341.3,251.4c1.2.6,2.1,1.4,2.7,2.3v-2.9h5.2v20.6c0,1.9-.4,3.6-1.1,5.1-.8,1.5-1.9,2.7-3.4,3.5-1.5.9-3.4,1.3-5.5,1.3s-5.3-.7-7.1-2-2.9-3.2-3.2-5.5h5.1c.3.9.9,1.7,1.8,2.2.9.6,2,.8,3.3.8s2.7-.4,3.7-1.3c.9-.9,1.4-2.3,1.4-4.1v-3.2c-.7,1-1.6,1.8-2.8,2.4-1.2.6-2.5,1-4,1s-3.3-.4-4.7-1.3c-1.4-.9-2.6-2.1-3.4-3.8-.8-1.6-1.2-3.5-1.2-5.6s.4-3.9,1.2-5.5,1.9-2.8,3.4-3.7c1.4-.9,3-1.3,4.7-1.3s2.9.3,4,.9ZM1343.3,257.9c-.5-.9-1.2-1.6-2-2.1-.8-.5-1.7-.7-2.7-.7s-1.8.2-2.7.7c-.8.5-1.5,1.2-2,2-.5.9-.8,2-.8,3.2s.3,2.3.8,3.2c.5.9,1.2,1.6,2,2.1.8.5,1.7.7,2.6.7s1.9-.2,2.7-.7c.8-.5,1.5-1.2,2-2.1.5-.9.7-2,.7-3.2s-.2-2.3-.7-3.2Z"/>
    <path class="cls-4" d="M1357.7,270.7c-1.3-.6-2.4-1.4-3.2-2.5s-1.2-2.2-1.3-3.4h5.2c0,.8.5,1.4,1.2,2s1.5.8,2.5.8,1.8-.2,2.3-.6c.6-.4.8-.9.8-1.5s-.3-1.2-1-1.5c-.7-.3-1.8-.7-3.2-1.1-1.5-.4-2.8-.8-3.8-1.1s-1.8-1-2.5-1.8-1.1-1.9-1.1-3.3.3-2.2,1-3.1c.7-.9,1.6-1.7,2.8-2.2,1.2-.5,2.7-.8,4.3-.8,2.4,0,4.4.6,5.8,1.8,1.5,1.2,2.3,2.9,2.4,4.9h-5c0-.8-.4-1.5-1-1.9-.6-.5-1.4-.7-2.4-.7s-1.7.2-2.2.5c-.5.3-.8.8-.8,1.4s.3,1.2,1,1.6c.7.4,1.8.7,3.2,1.1,1.5.4,2.7.8,3.7,1.1,1,.4,1.8,1,2.5,1.8.7.8,1.1,1.9,1.1,3.3,0,1.2-.3,2.2-1,3.2-.7.9-1.6,1.7-2.8,2.2-1.2.5-2.6.8-4.3.8s-3.2-.3-4.5-.9Z"/>
  </g>
  <g>
    <path class="cls-4" d="M1668.9,249.9l-5.7-10h-2.4v10h-5.2v-25.8h9.7c2,0,3.7.4,5.1,1.1,1.4.7,2.5,1.7,3.2,2.8.7,1.2,1.1,2.5,1.1,4s-.5,3.2-1.5,4.6c-1,1.4-2.5,2.3-4.4,2.8l6.2,10.5h-6ZM1660.8,236h4.3c1.4,0,2.5-.3,3.1-1s1-1.6,1-2.8-.3-2.1-1-2.8-1.7-1-3.1-1h-4.3v7.6Z"/>
    <path class="cls-4" d="M1698.2,241.2h-15c.1,1.5.6,2.6,1.6,3.5.9.8,2,1.3,3.4,1.3,1.9,0,3.3-.8,4.1-2.5h5.6c-.6,2-1.7,3.6-3.4,4.9-1.7,1.3-3.7,1.9-6.2,1.9s-3.7-.4-5.3-1.3-2.8-2.1-3.7-3.7-1.3-3.4-1.3-5.5.4-4,1.3-5.6c.9-1.6,2.1-2.8,3.6-3.7,1.6-.9,3.3-1.3,5.4-1.3s3.7.4,5.2,1.3c1.5.8,2.7,2,3.6,3.6s1.3,3.3,1.3,5.3,0,1.4-.1,2ZM1693,237.7c0-1.3-.5-2.4-1.4-3.2-.9-.8-2.1-1.2-3.4-1.2s-2.4.4-3.2,1.2c-.9.8-1.4,1.9-1.6,3.2h9.7Z"/>
    <path class="cls-4" d="M1710.6,245.1l5.2-15.7h5.5l-7.6,20.5h-6.3l-7.5-20.5h5.5l5.2,15.7Z"/>
    <path class="cls-4" d="M1724.6,226.1c-.6-.6-.9-1.3-.9-2.2s.3-1.6.9-2.2c.6-.6,1.4-.9,2.3-.9s1.7.3,2.3.9c.6.6.9,1.3.9,2.2s-.3,1.6-.9,2.2c-.6.6-1.4.9-2.3.9s-1.7-.3-2.3-.9ZM1729.4,229.4v20.5h-5.2v-20.5h5.2Z"/>
    <path class="cls-4" d="M1753.4,241.2h-15c.1,1.5.6,2.6,1.6,3.5.9.8,2,1.3,3.4,1.3,1.9,0,3.3-.8,4.1-2.5h5.6c-.6,2-1.7,3.6-3.4,4.9-1.7,1.3-3.7,1.9-6.2,1.9s-3.7-.4-5.3-1.3c-1.6-.9-2.8-2.1-3.7-3.7-.9-1.6-1.3-3.4-1.3-5.5s.4-4,1.3-5.6c.9-1.6,2.1-2.8,3.6-3.7,1.6-.9,3.3-1.3,5.4-1.3s3.7.4,5.2,1.3c1.5.8,2.7,2,3.6,3.6s1.3,3.3,1.3,5.3,0,1.4-.1,2ZM1748.2,237.7c0-1.3-.5-2.4-1.4-3.2-.9-.8-2.1-1.2-3.4-1.2s-2.4.4-3.2,1.2c-.9.8-1.4,1.9-1.6,3.2h9.7Z"/>
    <path class="cls-4" d="M1785.7,229.4l-6,20.5h-5.6l-3.7-14.3-3.7,14.3h-5.6l-6-20.5h5.2l3.6,15.6,3.9-15.6h5.5l3.8,15.6,3.6-15.6h5Z"/>
    <path class="cls-4" d="M1791.8,249.3c-1.3-.6-2.4-1.4-3.2-2.5s-1.2-2.2-1.3-3.4h5.2c0,.8.5,1.4,1.2,2s1.5.8,2.5.8,1.8-.2,2.3-.6c.6-.4.8-.9.8-1.5s-.3-1.2-1-1.5c-.7-.3-1.8-.7-3.2-1.1-1.5-.4-2.8-.8-3.7-1.1-1-.4-1.8-1-2.5-1.8s-1.1-1.9-1.1-3.3.3-2.2,1-3.1c.7-.9,1.6-1.7,2.8-2.2,1.2-.5,2.7-.8,4.3-.8,2.4,0,4.4.6,5.8,1.8,1.5,1.2,2.3,2.9,2.4,4.9h-5c0-.8-.4-1.5-1-1.9-.6-.5-1.4-.7-2.4-.7s-1.7.2-2.2.5c-.5.3-.8.8-.8,1.4s.3,1.2,1,1.6c.7.4,1.8.7,3.2,1.1,1.5.4,2.7.8,3.7,1.1,1,.4,1.8,1,2.5,1.8.7.8,1.1,1.9,1.1,3.3,0,1.2-.3,2.2-1,3.2-.7.9-1.6,1.7-2.8,2.2-1.2.5-2.6.8-4.3.8s-3.2-.3-4.5-.9Z"/>
    <path class="cls-4" d="M1837.2,249.9l-2.8-2.8c-2.4,2.1-5.3,3.2-8.8,3.2s-3.6-.3-5-1c-1.4-.7-2.6-1.6-3.3-2.8-.8-1.2-1.2-2.6-1.2-4.2s.5-3.2,1.4-4.6c1-1.4,2.4-2.5,4.2-3.3-.7-.8-1.1-1.6-1.4-2.3-.3-.8-.4-1.6-.4-2.4s.3-2.2.9-3.2,1.5-1.7,2.6-2.2c1.1-.5,2.5-.8,4-.8s2.9.3,4,.9c1.1.6,1.9,1.4,2.5,2.4s.8,2.1.7,3.3h-5c0-.8-.2-1.4-.6-1.9-.4-.4-1-.6-1.7-.6s-1.3.2-1.7.6-.7.9-.7,1.6.2,1.2.6,1.8c.4.6,1,1.3,1.8,2.2l6.5,6.4s0,0,.1-.1c0,0,0,0,0-.1l2.1-3.5h5.4l-2.6,4.5c-.5,1-1,1.9-1.6,2.7l6.2,6.2h-6.4ZM1831.2,243.9l-6.4-6.3c-2.4,1.1-3.6,2.6-3.6,4.5s.4,2,1.3,2.8c.8.8,1.9,1.1,3.3,1.1,2,0,3.8-.7,5.4-2.1Z"/>
    <path class="cls-4" d="M1581.1,274.5c1.1-2,2.7-3.6,4.7-4.7,2-1.1,4.2-1.7,6.7-1.7s5.4.7,7.6,2.2c2.2,1.5,3.7,3.5,4.5,6.1h-5.9c-.6-1.2-1.4-2.2-2.5-2.8-1.1-.6-2.3-.9-3.7-.9s-2.8.4-4,1.1-2.1,1.7-2.7,3c-.7,1.3-1,2.8-1,4.5s.3,3.2,1,4.5c.7,1.3,1.6,2.3,2.7,3,1.2.7,2.5,1.1,4,1.1s2.6-.3,3.7-.9c1.1-.6,1.9-1.6,2.5-2.8h5.9c-.9,2.6-2.4,4.7-4.5,6.2-2.2,1.5-4.7,2.2-7.6,2.2s-4.7-.6-6.7-1.7c-2-1.1-3.5-2.7-4.7-4.7-1.1-2-1.7-4.3-1.7-6.8s.6-4.8,1.7-6.8Z"/>
    <path class="cls-4" d="M1616.8,274.4c1.1-.6,2.3-.9,3.7-.9v5.4h-1.4c-1.6,0-2.9.4-3.7,1.1-.8.8-1.2,2.1-1.2,4v10.2h-5.2v-20.5h5.2v3.2c.7-1.1,1.5-1.9,2.6-2.5Z"/>
    <path class="cls-4" d="M1642.8,285.5h-15c.1,1.5.6,2.6,1.6,3.5.9.8,2,1.3,3.4,1.3,1.9,0,3.3-.8,4.1-2.5h5.6c-.6,2-1.7,3.6-3.4,4.9-1.7,1.3-3.7,1.9-6.2,1.9s-3.7-.4-5.3-1.3-2.8-2.1-3.7-3.7c-.9-1.6-1.3-3.4-1.3-5.5s.4-4,1.3-5.6c.9-1.6,2.1-2.8,3.6-3.7,1.6-.9,3.3-1.3,5.4-1.3s3.7.4,5.2,1.3c1.5.8,2.7,2,3.6,3.6s1.3,3.3,1.3,5.3,0,1.4-.1,2ZM1637.6,282.1c0-1.3-.5-2.4-1.4-3.2-.9-.8-2.1-1.2-3.4-1.2s-2.4.4-3.2,1.2c-.9.8-1.4,1.9-1.6,3.2h9.7Z"/>
    <path class="cls-4" d="M1646.7,278.4c.8-1.6,2-2.8,3.4-3.7,1.4-.9,3-1.3,4.8-1.3s2.6.3,3.8.9c1.2.6,2.2,1.3,2.9,2.3v-9.7h5.2v27.3h-5.2v-3c-.6,1-1.5,1.8-2.7,2.4-1.2.6-2.5.9-4,.9s-3.3-.4-4.7-1.3c-1.4-.9-2.6-2.1-3.4-3.8-.8-1.6-1.2-3.5-1.2-5.6s.4-3.9,1.2-5.5ZM1660.8,280.7c-.5-.9-1.2-1.6-2-2.1-.8-.5-1.7-.7-2.7-.7s-1.8.2-2.7.7c-.8.5-1.5,1.2-2,2-.5.9-.8,2-.8,3.2s.3,2.3.8,3.2,1.2,1.6,2,2.1c.8.5,1.7.7,2.6.7s1.9-.2,2.7-.7c.8-.5,1.5-1.2,2-2.1.5-.9.7-2,.7-3.2s-.2-2.3-.7-3.2Z"/>
    <path class="cls-4" d="M1672.2,270.4c-.6-.6-.9-1.3-.9-2.2s.3-1.6.9-2.2c.6-.6,1.4-.9,2.3-.9s1.7.3,2.3.9c.6.6.9,1.3.9,2.2s-.3,1.6-.9,2.2c-.6.6-1.4.9-2.3.9s-1.7-.3-2.3-.9ZM1677,273.7v20.5h-5.2v-20.5h5.2Z"/>
    <path class="cls-4" d="M1690,274.3c1.2-.6,2.5-.9,4-.9s3.3.4,4.7,1.3c1.4.9,2.5,2.1,3.4,3.7.8,1.6,1.2,3.4,1.2,5.5s-.4,3.9-1.2,5.6c-.8,1.6-1.9,2.9-3.4,3.8s-3,1.3-4.7,1.3-2.9-.3-4-.9c-1.1-.6-2.1-1.4-2.8-2.3v2.9h-5.2v-27.3h5.2v9.9c.7-1,1.6-1.8,2.8-2.4ZM1697.3,280.7c-.5-.9-1.2-1.6-2-2s-1.7-.7-2.7-.7-1.8.2-2.6.7c-.8.5-1.5,1.2-2,2.1-.5.9-.8,2-.8,3.2s.3,2.3.8,3.2c.5.9,1.2,1.6,2,2.1s1.7.7,2.6.7,1.9-.2,2.7-.7c.8-.5,1.5-1.2,2-2.1s.8-2,.8-3.3-.3-2.3-.8-3.2Z"/>
    <path class="cls-4" d="M1707.5,270.4c-.6-.6-.9-1.3-.9-2.2s.3-1.6.9-2.2c.6-.6,1.4-.9,2.3-.9s1.7.3,2.3.9c.6.6.9,1.3.9,2.2s-.3,1.6-.9,2.2c-.6.6-1.4.9-2.3.9s-1.7-.3-2.3-.9ZM1712.3,273.7v20.5h-5.2v-20.5h5.2Z"/>
    <path class="cls-4" d="M1722.6,266.9v27.3h-5.2v-27.3h5.2Z"/>
    <path class="cls-4" d="M1728,270.4c-.6-.6-.9-1.3-.9-2.2s.3-1.6.9-2.2c.6-.6,1.4-.9,2.3-.9s1.7.3,2.3.9c.6.6.9,1.3.9,2.2s-.3,1.6-.9,2.2c-.6.6-1.4.9-2.3.9s-1.7-.3-2.3-.9ZM1732.8,273.7v20.5h-5.2v-20.5h5.2Z"/>
    <path class="cls-4" d="M1744,278v9.9c0,.7.2,1.2.5,1.5.3.3.9.5,1.7.5h2.4v4.4h-3.2c-4.4,0-6.5-2.1-6.5-6.4v-9.9h-2.4v-4.2h2.4v-5.1h5.2v5.1h4.6v4.2h-4.6Z"/>
    <path class="cls-4" d="M1771.8,273.7l-12.7,30.1h-5.5l4.4-10.2-8.2-19.9h5.8l5.3,14.3,5.4-14.3h5.5Z"/>
    <path class="cls-4" d="M1787.5,293.5c-1.4-.6-2.6-1.5-3.4-2.7-.8-1.2-1.3-2.5-1.3-4.1h5.5c0,1.1.4,1.9,1.1,2.5.7.6,1.6.9,2.8.9s2.2-.3,2.8-.9c.7-.6,1-1.3,1-2.3s-.2-1.4-.7-1.9c-.5-.5-1.1-.9-1.8-1.2-.7-.3-1.7-.6-2.9-.9-1.7-.5-3-1-4.1-1.5-1-.5-1.9-1.2-2.7-2.2-.8-1-1.1-2.3-1.1-3.9s.4-2.9,1.1-4,1.8-2,3.2-2.6c1.4-.6,3-.9,4.7-.9,2.7,0,4.8.6,6.5,1.9s2.6,3.1,2.8,5.4h-5.7c0-.9-.4-1.6-1.1-2.2-.7-.6-1.6-.9-2.8-.9s-1.8.3-2.4.8c-.6.5-.9,1.3-.9,2.3s.2,1.3.7,1.7,1,.8,1.7,1.1,1.6.6,2.9,1c1.7.5,3,1,4.1,1.5,1.1.5,2,1.2,2.7,2.2.8,1,1.1,2.3,1.1,3.9s-.4,2.7-1.1,3.8c-.7,1.2-1.8,2.1-3.1,2.8-1.4.7-3,1.1-4.9,1.1s-3.4-.3-4.9-.9Z"/>
    <path class="cls-4" d="M1806.3,270.4c-.6-.6-.9-1.3-.9-2.2s.3-1.6.9-2.2c.6-.6,1.4-.9,2.3-.9s1.7.3,2.3.9c.6.6.9,1.3.9,2.2s-.3,1.6-.9,2.2c-.6.6-1.4.9-2.3.9s-1.7-.3-2.3-.9ZM1811.1,273.7v20.5h-5.2v-20.5h5.2Z"/>
    <path class="cls-4" d="M1828.2,274.3c1.2.6,2.1,1.4,2.7,2.3v-2.9h5.2v20.6c0,1.9-.4,3.6-1.1,5.1-.8,1.5-1.9,2.7-3.4,3.5s-3.4,1.3-5.5,1.3-5.3-.7-7.1-2-2.9-3.2-3.2-5.5h5.1c.3.9.9,1.7,1.8,2.2.9.6,2,.8,3.3.8s2.7-.4,3.7-1.3c.9-.9,1.4-2.3,1.4-4.1v-3.2c-.7,1-1.6,1.8-2.8,2.4-1.2.6-2.5,1-4,1s-3.3-.4-4.7-1.3c-1.4-.9-2.6-2.1-3.4-3.8-.8-1.6-1.2-3.5-1.2-5.6s.4-3.9,1.2-5.5c.8-1.6,1.9-2.8,3.4-3.7,1.4-.9,3-1.3,4.7-1.3s2.9.3,4,.9ZM1830.2,280.7c-.5-.9-1.2-1.6-2-2.1-.8-.5-1.7-.7-2.7-.7s-1.8.2-2.7.7c-.8.5-1.5,1.2-2,2-.5.9-.8,2-.8,3.2s.3,2.3.8,3.2,1.2,1.6,2,2.1c.8.5,1.7.7,2.6.7s1.9-.2,2.7-.7c.8-.5,1.5-1.2,2-2.1.5-.9.7-2,.7-3.2s-.2-2.3-.7-3.2Z"/>
    <path class="cls-4" d="M1858.5,275.8c1.5,1.5,2.3,3.7,2.3,6.4v12h-5.2v-11.3c0-1.6-.4-2.9-1.2-3.8-.8-.9-1.9-1.3-3.3-1.3s-2.6.4-3.4,1.3c-.8.9-1.2,2.1-1.2,3.8v11.3h-5.2v-20.5h5.2v2.5c.7-.9,1.6-1.6,2.6-2.1,1.1-.5,2.2-.8,3.5-.8,2.4,0,4.4.8,5.9,2.3Z"/>
    <path class="cls-4" d="M1865.5,278.4c.8-1.6,1.9-2.8,3.4-3.7,1.4-.9,3-1.3,4.7-1.3s2.9.3,4,.9c1.1.6,2.1,1.4,2.8,2.3v-2.9h5.2v20.5h-5.2v-3c-.7,1-1.6,1.8-2.8,2.4-1.2.6-2.5.9-4,.9s-3.3-.4-4.7-1.3-2.5-2.1-3.4-3.8c-.8-1.6-1.2-3.5-1.2-5.6s.4-3.9,1.2-5.5ZM1879.7,280.7c-.5-.9-1.2-1.6-2-2.1-.8-.5-1.7-.7-2.7-.7s-1.8.2-2.7.7c-.8.5-1.5,1.2-2,2-.5.9-.8,2-.8,3.2s.3,2.3.8,3.2c.5.9,1.2,1.6,2,2.1.8.5,1.7.7,2.6.7s1.9-.2,2.7-.7c.8-.5,1.5-1.2,2-2.1s.7-2,.7-3.2-.2-2.3-.7-3.2Z"/>
    <path class="cls-4" d="M1895.9,266.9v27.3h-5.2v-27.3h5.2Z"/>
    <path class="cls-4" d="M1904.3,293.6c-1.3-.6-2.4-1.4-3.2-2.5s-1.2-2.2-1.3-3.4h5.2c0,.8.5,1.4,1.2,2s1.5.8,2.5.8,1.8-.2,2.3-.6c.6-.4.8-.9.8-1.5s-.3-1.2-1-1.5c-.7-.3-1.8-.7-3.2-1.1-1.5-.4-2.8-.8-3.7-1.1-1-.4-1.8-1-2.5-1.8-.7-.8-1.1-1.9-1.1-3.3s.3-2.2,1-3.1c.7-.9,1.6-1.7,2.8-2.2,1.2-.5,2.7-.8,4.3-.8,2.4,0,4.4.6,5.8,1.8,1.5,1.2,2.3,2.9,2.4,4.9h-4.9c0-.8-.4-1.5-1-1.9-.6-.5-1.4-.7-2.4-.7s-1.7.2-2.2.5c-.5.3-.8.8-.8,1.4s.3,1.2,1,1.6c.7.4,1.8.7,3.2,1.1,1.5.4,2.7.8,3.7,1.1,1,.4,1.8,1,2.5,1.8.7.8,1.1,1.9,1.1,3.3,0,1.2-.3,2.2-1,3.2-.7.9-1.6,1.7-2.8,2.2s-2.6.8-4.3.8-3.2-.3-4.5-.9Z"/>
  </g>
  <circle class="cls-2" cx="242" cy="101.9" r="10.8"/>
  <line class="cls-1" x1="271.2" y1="138.1" x2="204.1" y2="138.1"/>
  <circle class="cls-2" cx="224" cy="138.1" r="10.8"/>
  <g>
    <line class="cls-1" x1="721.6" y1="95.6" x2="721.6" y2="143.2"/>
    <polyline class="cls-1" points="709.3 107.9 721.6 95.6 733.8 107.9"/>
  </g>
  <g>
    <line class="cls-1" x1="760.7" y1="95.6" x2="760.7" y2="143.2"/>
    <polyline class="cls-1" points="773 130.9 760.7 143.2 748.4 130.9"/>
  </g>
  <g>
    <path class="cls-1" d="M1246,153.3l-3.4-3.3c-7.1-6.9-16.1-10.6-25.3-10.5h0s0-43.4,0-43.4h.4c9.2,0,18.3,2.5,26.5,7.3l1.9,1.1v48.8Z"/>
    <path class="cls-1" d="M1246,153.3l3.4-3.3c7.1-6.9,16.1-10.6,25.3-10.5h0s0-43.4,0-43.4h-.4c-9.2,0-18.3,2.5-26.5,7.3l-1.9,1.1v48.8Z"/>
  </g>
  <polygon class="cls-1" points="1748.4 138.2 1728.8 148.5 1732.5 126.7 1716.7 111.3 1738.6 108.1 1748.4 88.3 1758.1 108.1 1780 111.3 1764.2 126.7 1767.9 148.5 1748.4 138.2"/>
</svg>