<svg id="Layer_1" data-name="Layer 1" xmlns="http://www.w3.org/2000/svg" viewBox="0 0 1985.44 665.35"><defs><style>.cls-1{fill:#e5f4f8;}.cls-2{font-size:55.87px;}.cls-2,.cls-3,.cls-4,.cls-6{fill:#231f20;}.cls-2,.cls-3{font-family:Poppins-SemiBold, Poppins;font-weight:600;}.cls-3{font-size:32.92px;}.cls-4{font-size:30px;font-family:Poppins-Regular, Poppins;}.cls-5{fill:#fff;}.cls-7{fill:none;stroke:#30c1d2;stroke-linecap:round;stroke-linejoin:round;stroke-width:10px;}</style></defs><rect class="cls-1" x="-26.97" y="-20.82" width="2043.68" height="1247.19"/><text class="cls-2" transform="translate(97.3 114.58)">Current User Journey</text><text class="cls-3" transform="translate(104.91 445.27)">Initial Interest</text><text class="cls-4" transform="translate(98.5 504.44)">Parent wants to <tspan x="-1.89" y="42">find enrichment </tspan><tspan x="1.1" y="84">classes for child</tspan></text><circle class="cls-5" cx="219.7" cy="289.85" r="88.92"/><text class="cls-3" transform="translate(486.18 445.27)">Searching</text><path class="cls-6" d="M455.37,483.53v2.22h-9.09v7.05h7.38V495h-7.38v9.42h-2.73V483.53Z"/><path class="cls-6" d="M458.76,484.79a1.86,1.86,0,0,1,1.32-3.18,1.7,1.7,0,0,1,1.27.54,1.91,1.91,0,0,1,0,2.64,1.7,1.7,0,0,1-1.27.54A1.8,1.8,0,0,1,458.76,484.79ZM461.4,488v16.44h-2.73V488Z"/><path class="cls-6" d="M478.92,489.52a7,7,0,0,1,1.86,5.23v9.69h-2.7v-9.3a5.27,5.27,0,0,0-1.23-3.76,4.4,4.4,0,0,0-3.36-1.31,4.49,4.49,0,0,0-3.43,1.35,5.47,5.47,0,0,0-1.28,3.93v9.09h-2.73V488h2.73v2.34a5.43,5.43,0,0,1,2.21-1.95,6.82,6.82,0,0,1,3.07-.69A6.67,6.67,0,0,1,478.92,489.52Z"/><path class="cls-6" d="M485.25,491.74a7.43,7.43,0,0,1,2.81-3,7.73,7.73,0,0,1,4-1,7.44,7.44,0,0,1,3.57.89,6.38,6.38,0,0,1,2.52,2.32v-8.7h2.76v22.2h-2.76v-3.09a6.4,6.4,0,0,1-2.4,2.42,7.14,7.14,0,0,1-3.72.94,7.49,7.49,0,0,1-6.78-4.11,9.44,9.44,0,0,1-1-4.44A9.21,9.21,0,0,1,485.25,491.74ZM497.4,493a5.27,5.27,0,0,0-2-2.11,5.74,5.74,0,0,0-5.6,0,5.22,5.22,0,0,0-2,2.1,6.68,6.68,0,0,0-.75,3.24,6.86,6.86,0,0,0,.75,3.29,5.31,5.31,0,0,0,2,2.13,5.43,5.43,0,0,0,2.79.73,5.53,5.53,0,0,0,2.81-.73,5.26,5.26,0,0,0,2-2.13,6.79,6.79,0,0,0,.75-3.26A6.68,6.68,0,0,0,497.4,493Z"/><path class="cls-6" d="M513.55,491.74a7.34,7.34,0,0,1,2.83-3,9,9,0,0,1,9.15.42,7,7,0,0,1,2.6,4.08h-2.94a4.23,4.23,0,0,0-1.64-2.37,5,5,0,0,0-3-.87,4.84,4.84,0,0,0-3.78,1.61,6.56,6.56,0,0,0-1.44,4.54,6.68,6.68,0,0,0,1.44,4.59,4.82,4.82,0,0,0,3.78,1.62,5.11,5.11,0,0,0,3-.84,4.26,4.26,0,0,0,1.65-2.4h2.94a7.24,7.24,0,0,1-2.64,4,7.91,7.91,0,0,1-5,1.51,8.16,8.16,0,0,1-4.16-1,7.3,7.3,0,0,1-2.83-3,9.46,9.46,0,0,1-1-4.5A9.28,9.28,0,0,1,513.55,491.74Z"/><path class="cls-6" d="M534.49,482.24v22.2h-2.73v-22.2Z"/><path class="cls-6" d="M539.14,491.74a7.4,7.4,0,0,1,2.8-3,7.71,7.71,0,0,1,4-1,7.3,7.3,0,0,1,3.75.93A6.2,6.2,0,0,1,552,491v-3h2.76v16.44H552v-3.06a6.43,6.43,0,0,1-2.41,2.39,7.24,7.24,0,0,1-3.74.94,7.45,7.45,0,0,1-4-1.08,7.57,7.57,0,0,1-2.79-3,9.44,9.44,0,0,1-1-4.44A9.21,9.21,0,0,1,539.14,491.74ZM551.29,493a5.27,5.27,0,0,0-2-2.11,5.74,5.74,0,0,0-5.6,0,5.22,5.22,0,0,0-2,2.1,6.68,6.68,0,0,0-.75,3.24,6.86,6.86,0,0,0,.75,3.29,5.31,5.31,0,0,0,2,2.13,5.43,5.43,0,0,0,2.79.73,5.53,5.53,0,0,0,2.81-.73,5.26,5.26,0,0,0,2-2.13,6.79,6.79,0,0,0,.75-3.26A6.68,6.68,0,0,0,551.29,493Z"/><path class="cls-6" d="M561.85,504.07a5.72,5.72,0,0,1-2.37-1.8,4.81,4.81,0,0,1-1-2.66h2.82a2.77,2.77,0,0,0,1.16,2,4.38,4.38,0,0,0,2.71.78,4,4,0,0,0,2.46-.69,2.11,2.11,0,0,0,.9-1.74,1.71,1.71,0,0,0-1-1.6,13.42,13.42,0,0,0-3-1,21.8,21.8,0,0,1-3-1,5.3,5.3,0,0,1-2-1.47,4.16,4.16,0,0,1-.08-4.88,5.07,5.07,0,0,1,2.13-1.66,7.66,7.66,0,0,1,3.15-.62,6.73,6.73,0,0,1,4.41,1.38,5,5,0,0,1,1.8,3.78h-2.73a2.82,2.82,0,0,0-1-2.07,4.59,4.59,0,0,0-4.88-.15,2,2,0,0,0-.87,1.65,1.82,1.82,0,0,0,.53,1.34,3.84,3.84,0,0,0,1.32.84,22.79,22.79,0,0,0,2.2.7,23.65,23.65,0,0,1,2.88.95,5,5,0,0,1,1.91,1.39,3.73,3.73,0,0,1,.82,2.43,4.16,4.16,0,0,1-.75,2.43,5,5,0,0,1-2.11,1.7,7.58,7.58,0,0,1-3.14.61A8.5,8.5,0,0,1,561.85,504.07Z"/><path class="cls-6" d="M577.51,504.07a5.72,5.72,0,0,1-2.37-1.8,4.81,4.81,0,0,1-1-2.66H577a2.77,2.77,0,0,0,1.16,2,4.38,4.38,0,0,0,2.71.78,4,4,0,0,0,2.46-.69,2.08,2.08,0,0,0,.9-1.74,1.69,1.69,0,0,0-1-1.6,13.42,13.42,0,0,0-3-1,21.8,21.8,0,0,1-3-1,5.3,5.3,0,0,1-2-1.47,4.16,4.16,0,0,1-.08-4.88,5.07,5.07,0,0,1,2.13-1.66,7.66,7.66,0,0,1,3.15-.62,6.77,6.77,0,0,1,4.42,1.38,5,5,0,0,1,1.8,3.78H584a2.82,2.82,0,0,0-1-2.07,4.59,4.59,0,0,0-4.88-.15,2,2,0,0,0-.87,1.65,1.82,1.82,0,0,0,.53,1.34,3.84,3.84,0,0,0,1.32.84,22.79,22.79,0,0,0,2.2.7,23.65,23.65,0,0,1,2.88.95,5,5,0,0,1,1.91,1.39,3.73,3.73,0,0,1,.83,2.43,4.16,4.16,0,0,1-.75,2.43,5,5,0,0,1-2.12,1.7,7.58,7.58,0,0,1-3.14.61A8.5,8.5,0,0,1,577.51,504.07Z"/><path class="cls-6" d="M605.66,497.24H592.52a5.15,5.15,0,0,0,5.34,5.16,5,5,0,0,0,2.95-.82,4.39,4.39,0,0,0,1.67-2.21h2.94a7.08,7.08,0,0,1-2.64,3.86,8,8,0,0,1-4.92,1.48,8.33,8.33,0,0,1-4.19-1,7.41,7.41,0,0,1-2.89-3,10.21,10.21,0,0,1,0-9,7.14,7.14,0,0,1,2.86-3,8.55,8.55,0,0,1,4.25-1,8.25,8.25,0,0,1,4.14,1,7.06,7.06,0,0,1,2.77,2.81,8.26,8.26,0,0,1,1,4A16.07,16.07,0,0,1,605.66,497.24Zm-3.42-4.9a4.5,4.5,0,0,0-1.88-1.71,5.83,5.83,0,0,0-2.62-.59,5.07,5.07,0,0,0-3.53,1.32,5.37,5.37,0,0,0-1.66,3.66h10.38A5,5,0,0,0,602.24,492.34Z"/><path class="cls-6" d="M611.78,504.07a5.72,5.72,0,0,1-2.37-1.8,4.81,4.81,0,0,1-1-2.66h2.82a2.76,2.76,0,0,0,1.15,2,4.41,4.41,0,0,0,2.72.78,4,4,0,0,0,2.46-.69,2.11,2.11,0,0,0,.9-1.74,1.71,1.71,0,0,0-1-1.6,13.42,13.42,0,0,0-3-1,22,22,0,0,1-3-1,5.3,5.3,0,0,1-2-1.47,3.85,3.85,0,0,1-.82-2.57,3.89,3.89,0,0,1,.75-2.31,5.07,5.07,0,0,1,2.13-1.66,7.66,7.66,0,0,1,3.15-.62,6.73,6.73,0,0,1,4.41,1.38,5,5,0,0,1,1.8,3.78h-2.73a2.83,2.83,0,0,0-1-2.07,3.84,3.84,0,0,0-2.53-.78,3.91,3.91,0,0,0-2.34.63,2,2,0,0,0-.87,1.65,1.82,1.82,0,0,0,.52,1.34,3.84,3.84,0,0,0,1.32.84,23.14,23.14,0,0,0,2.21.7,23.65,23.65,0,0,1,2.88.95,5,5,0,0,1,1.9,1.39,3.73,3.73,0,0,1,.83,2.43,4.16,4.16,0,0,1-.75,2.43,5,5,0,0,1-2.12,1.7,7.54,7.54,0,0,1-3.13.61A8.5,8.5,0,0,1,611.78,504.07Z"/><path class="cls-6" d="M639.71,490.25h-3.45v14.19h-2.73V490.25H631.4V488h2.13v-1.17a5.19,5.19,0,0,1,1.43-4,6.8,6.8,0,0,1,4.57-1.27v2.28a3.61,3.61,0,0,0-2.53.71,3.1,3.1,0,0,0-.74,2.32V488h3.45Z"/><path class="cls-6" d="M647.68,488.48a6.33,6.33,0,0,1,3.25-.78v2.82h-.72q-4.59,0-4.59,5v8.94h-2.73V488h2.73v2.67A5.25,5.25,0,0,1,647.68,488.48Z"/><path class="cls-6" d="M657.07,503.66a7.46,7.46,0,0,1-2.94-3,9.17,9.17,0,0,1-1.07-4.49,8.87,8.87,0,0,1,1.1-4.45,7.53,7.53,0,0,1,3-3,9.12,9.12,0,0,1,8.46,0,7.57,7.57,0,0,1,3,3,9.56,9.56,0,0,1,0,9,7.8,7.8,0,0,1-3,3,8.73,8.73,0,0,1-4.26,1A8.4,8.4,0,0,1,657.07,503.66Zm6.94-2a5.26,5.26,0,0,0,2.09-2.07,6.63,6.63,0,0,0,.79-3.36,6.73,6.73,0,0,0-.78-3.36,5.09,5.09,0,0,0-2-2.05,5.84,5.84,0,0,0-5.47,0,5,5,0,0,0-2,2.05,7,7,0,0,0-.75,3.36,7.14,7.14,0,0,0,.74,3.39,4.89,4.89,0,0,0,2,2.06,5.52,5.52,0,0,0,2.7.67A5.76,5.76,0,0,0,664,501.62Z"/><path class="cls-6" d="M696.48,488.5a5.72,5.72,0,0,1,2.37,2.38,8,8,0,0,1,.87,3.87v9.69H697v-9.3a5.32,5.32,0,0,0-1.22-3.76,4.26,4.26,0,0,0-3.28-1.31,4.39,4.39,0,0,0-3.39,1.37,5.6,5.6,0,0,0-1.26,3.94v9.06h-2.7v-9.3a5.32,5.32,0,0,0-1.22-3.76,4.26,4.26,0,0,0-3.28-1.31,4.39,4.39,0,0,0-3.39,1.37,5.6,5.6,0,0,0-1.26,3.94v9.06h-2.73V488H676v2.37a5.38,5.38,0,0,1,2.17-2,6.61,6.61,0,0,1,3-.69,7.11,7.11,0,0,1,3.66.93,5.67,5.67,0,0,1,2.37,2.73,5.39,5.39,0,0,1,2.28-2.7,6.72,6.72,0,0,1,3.54-1A7.19,7.19,0,0,1,696.48,488.5Z"/><path class="cls-6" d="M468.12,531.59a6.49,6.49,0,0,0-2.52-2.83,7.24,7.24,0,0,0-3.84-1,7.82,7.82,0,0,0-3.95,1,7.1,7.1,0,0,0-2.76,2.88,9.85,9.85,0,0,0,0,8.65,7.14,7.14,0,0,0,2.76,2.87,7.81,7.81,0,0,0,3.95,1,7.13,7.13,0,0,0,5-1.83,7.55,7.55,0,0,0,2.31-5h-8.34v-2.22H472v2.1A10.4,10.4,0,0,1,470.4,542a10,10,0,0,1-3.63,3.39,10.17,10.17,0,0,1-5,1.24,10.55,10.55,0,0,1-5.31-1.36,10,10,0,0,1-3.8-3.8,11.56,11.56,0,0,1,0-11,10,10,0,0,1,3.8-3.81,11.16,11.16,0,0,1,11.2.28,9.45,9.45,0,0,1,3.74,4.65Z"/><path class="cls-6" d="M478.61,545.66a7.46,7.46,0,0,1-2.94-3,9.17,9.17,0,0,1-1.07-4.49,8.87,8.87,0,0,1,1.1-4.45,7.53,7.53,0,0,1,3-3,9.12,9.12,0,0,1,8.46,0,7.57,7.57,0,0,1,3,3,9.63,9.63,0,0,1,0,9,7.8,7.8,0,0,1-3.05,3,8.73,8.73,0,0,1-4.26,1.05A8.4,8.4,0,0,1,478.61,545.66Zm6.94-2a5.26,5.26,0,0,0,2.09-2.07,6.63,6.63,0,0,0,.79-3.36,6.73,6.73,0,0,0-.78-3.36,5.09,5.09,0,0,0-2-2.05,5.84,5.84,0,0,0-5.47,0,5,5,0,0,0-2,2.05,7,7,0,0,0-.75,3.36,7.14,7.14,0,0,0,.74,3.39,4.89,4.89,0,0,0,2,2.06,5.52,5.52,0,0,0,2.7.67A5.76,5.76,0,0,0,485.55,543.62Z"/><path class="cls-6" d="M497.81,545.66a7.46,7.46,0,0,1-2.94-3,9.17,9.17,0,0,1-1.07-4.49,8.87,8.87,0,0,1,1.1-4.45,7.53,7.53,0,0,1,3-3,9.14,9.14,0,0,1,8.47,0,7.55,7.55,0,0,1,3,3,9.56,9.56,0,0,1,0,9,7.73,7.73,0,0,1-3.05,3,8.73,8.73,0,0,1-4.26,1.05A8.4,8.4,0,0,1,497.81,545.66Zm6.94-2a5.26,5.26,0,0,0,2.09-2.07,7.5,7.5,0,0,0,0-6.72,5.09,5.09,0,0,0-2-2.05,5.84,5.84,0,0,0-5.47,0,5,5,0,0,0-2,2.05,7,7,0,0,0-.75,3.36,7.14,7.14,0,0,0,.74,3.39,4.89,4.89,0,0,0,2,2.06,5.52,5.52,0,0,0,2.7.67A5.76,5.76,0,0,0,504.75,543.62Z"/><path class="cls-6" d="M524.54,530.66a6.19,6.19,0,0,1,2.39,2.34v-3h2.76v16.8a8.23,8.23,0,0,1-1,4,6.84,6.84,0,0,1-2.75,2.74,8.41,8.41,0,0,1-4.15,1,9.11,9.11,0,0,1-5.4-1.53,6,6,0,0,1-2.55-4.17h2.7a4.31,4.31,0,0,0,1.86,2.42,6.09,6.09,0,0,0,3.39.91,5,5,0,0,0,3.67-1.41,5.32,5.32,0,0,0,1.43-4v-3.45a6.57,6.57,0,0,1-2.4,2.4,7.06,7.06,0,0,1-3.72,1A7.46,7.46,0,0,1,514,542.6a9.44,9.44,0,0,1-1-4.44,9.21,9.21,0,0,1,1-4.42,7.4,7.4,0,0,1,2.8-3,7.71,7.71,0,0,1,4-1A7.3,7.3,0,0,1,524.54,530.66Zm1.64,4.29a5.29,5.29,0,0,0-2-2.11,5.72,5.72,0,0,0-5.59,0,5.22,5.22,0,0,0-2,2.1,6.68,6.68,0,0,0-.75,3.24,6.86,6.86,0,0,0,.75,3.29,5.31,5.31,0,0,0,2,2.13,5.43,5.43,0,0,0,2.79.73,5.49,5.49,0,0,0,2.8-.73,5.28,5.28,0,0,0,2-2.13,6.79,6.79,0,0,0,.75-3.26A6.68,6.68,0,0,0,526.18,535Z"/><path class="cls-6" d="M537,524.24v22.2h-2.73v-22.2Z"/><path class="cls-6" d="M556.6,539.24H543.46a5.15,5.15,0,0,0,5.34,5.16,5.06,5.06,0,0,0,3-.82,4.37,4.37,0,0,0,1.66-2.21h2.94a7.08,7.08,0,0,1-2.64,3.86,8,8,0,0,1-4.92,1.48,8.33,8.33,0,0,1-4.19-1.05,7.41,7.41,0,0,1-2.89-3,9.28,9.28,0,0,1-1.05-4.49,9.39,9.39,0,0,1,1-4.47,7.14,7.14,0,0,1,2.86-3,8.55,8.55,0,0,1,4.25-1,8.25,8.25,0,0,1,4.14,1,7.09,7.09,0,0,1,2.78,2.81,8.26,8.26,0,0,1,1,4A16.07,16.07,0,0,1,556.6,539.24Zm-3.42-4.9a4.47,4.47,0,0,0-1.87-1.71,5.87,5.87,0,0,0-2.63-.59,5.07,5.07,0,0,0-3.53,1.32,5.37,5.37,0,0,0-1.66,3.66h10.38A5,5,0,0,0,553.18,534.34Z"/><path class="cls-6" d="M563.11,542.66l-3.36,8.07h-1.83l2.19-8.07Z"/><path class="cls-6" d="M579.43,530.66a7.28,7.28,0,0,1,3.69-.93,7.73,7.73,0,0,1,4,1,7.45,7.45,0,0,1,2.79,3,9.21,9.21,0,0,1,1,4.42,9.44,9.44,0,0,1-1,4.44,7.49,7.49,0,0,1-6.79,4.11,7.3,7.3,0,0,1-3.73-.93,6.34,6.34,0,0,1-2.42-2.37v3h-2.73v-22.2H577v8.82A6.45,6.45,0,0,1,579.43,530.66Zm8,4.26a5.2,5.2,0,0,0-2-2.1,5.62,5.62,0,0,0-2.81-.72,5.45,5.45,0,0,0-2.77.74,5.37,5.37,0,0,0-2,2.13,6.58,6.58,0,0,0-.77,3.22,6.68,6.68,0,0,0,.77,3.26,5.37,5.37,0,0,0,2,2.13,5.44,5.44,0,0,0,2.77.73,5.53,5.53,0,0,0,2.81-.73,5.28,5.28,0,0,0,2-2.13,6.86,6.86,0,0,0,.75-3.29A6.68,6.68,0,0,0,587.39,534.92Z"/><path class="cls-6" d="M597.26,524.24v22.2h-2.73v-22.2Z"/><path class="cls-6" d="M604.89,545.66a7.46,7.46,0,0,1-2.94-3,9.17,9.17,0,0,1-1.06-4.49,8.87,8.87,0,0,1,1.09-4.45,7.56,7.56,0,0,1,3-3,9.12,9.12,0,0,1,8.46,0,7.55,7.55,0,0,1,3,3,9.56,9.56,0,0,1,0,9,7.77,7.77,0,0,1-3,3,8.73,8.73,0,0,1-4.26,1.05A8.44,8.44,0,0,1,604.89,545.66Zm7-2a5.24,5.24,0,0,0,2.08-2.07,6.63,6.63,0,0,0,.8-3.36,6.73,6.73,0,0,0-.78-3.36,5.09,5.09,0,0,0-2-2.05,5.86,5.86,0,0,0-5.48,0,4.93,4.93,0,0,0-2,2.05,7,7,0,0,0-.75,3.36,7.14,7.14,0,0,0,.73,3.39,4.91,4.91,0,0,0,2,2.06,5.52,5.52,0,0,0,2.7.67A5.76,5.76,0,0,0,611.84,543.62Z"/><path class="cls-6" d="M631.63,530.66A6.16,6.16,0,0,1,634,533v-3h2.76v16.8a8.23,8.23,0,0,1-1,4,6.82,6.82,0,0,1-2.74,2.74,8.45,8.45,0,0,1-4.16,1,9.11,9.11,0,0,1-5.4-1.53,6,6,0,0,1-2.55-4.17h2.7a4.31,4.31,0,0,0,1.86,2.42,6.09,6.09,0,0,0,3.39.91,5,5,0,0,0,3.68-1.41,5.32,5.32,0,0,0,1.42-4v-3.45a6.57,6.57,0,0,1-2.4,2.4,7.06,7.06,0,0,1-3.72,1,7.49,7.49,0,0,1-6.78-4.11,9.44,9.44,0,0,1-1-4.44,9.21,9.21,0,0,1,1-4.42,7.36,7.36,0,0,1,2.81-3,7.65,7.65,0,0,1,4-1A7.33,7.33,0,0,1,631.63,530.66Zm1.63,4.29a5.27,5.27,0,0,0-2-2.11,5.74,5.74,0,0,0-5.6,0,5.22,5.22,0,0,0-2,2.1,6.68,6.68,0,0,0-.75,3.24,6.86,6.86,0,0,0,.75,3.29,5.31,5.31,0,0,0,2,2.13,5.43,5.43,0,0,0,2.79.73,5.53,5.53,0,0,0,2.81-.73,5.26,5.26,0,0,0,2-2.13,6.79,6.79,0,0,0,.75-3.26A6.68,6.68,0,0,0,633.26,535Z"/><path class="cls-6" d="M643.82,546.07a5.72,5.72,0,0,1-2.37-1.8,4.81,4.81,0,0,1-1-2.66h2.82a2.77,2.77,0,0,0,1.16,2,4.38,4.38,0,0,0,2.71.78,4,4,0,0,0,2.46-.69,2.11,2.11,0,0,0,.9-1.74,1.71,1.71,0,0,0-1-1.6,13.42,13.42,0,0,0-3-1,21.8,21.8,0,0,1-3-1,5.3,5.3,0,0,1-2-1.47,4.16,4.16,0,0,1-.08-4.88,5.07,5.07,0,0,1,2.13-1.66,7.66,7.66,0,0,1,3.15-.62,6.73,6.73,0,0,1,4.41,1.38,5,5,0,0,1,1.8,3.78h-2.73a2.82,2.82,0,0,0-1-2.07,4.59,4.59,0,0,0-4.88-.15,2,2,0,0,0-.87,1.65,1.82,1.82,0,0,0,.53,1.34,3.84,3.84,0,0,0,1.32.84,22.79,22.79,0,0,0,2.2.7,23.65,23.65,0,0,1,2.88.95,5,5,0,0,1,1.91,1.39,3.73,3.73,0,0,1,.82,2.43,4.16,4.16,0,0,1-.75,2.43,5,5,0,0,1-2.11,1.7,7.58,7.58,0,0,1-3.14.61A8.5,8.5,0,0,1,643.82,546.07Z"/><path class="cls-6" d="M668.05,545.66a7.46,7.46,0,0,1-2.94-3,9.17,9.17,0,0,1-1.07-4.49,8.87,8.87,0,0,1,1.1-4.45,7.56,7.56,0,0,1,3-3,9.12,9.12,0,0,1,8.46,0,7.55,7.55,0,0,1,3,3,9.56,9.56,0,0,1,0,9,7.77,7.77,0,0,1-3,3,8.73,8.73,0,0,1-4.26,1.05A8.44,8.44,0,0,1,668.05,545.66Zm7-2a5.24,5.24,0,0,0,2.08-2.07,6.63,6.63,0,0,0,.8-3.36,6.73,6.73,0,0,0-.78-3.36,5.09,5.09,0,0,0-2-2.05,5.86,5.86,0,0,0-5.48,0,4.93,4.93,0,0,0-2,2.05,7,7,0,0,0-.75,3.36,7.14,7.14,0,0,0,.73,3.39,4.91,4.91,0,0,0,2,2.06,5.52,5.52,0,0,0,2.7.67A5.76,5.76,0,0,0,675,543.62Z"/><path class="cls-6" d="M689.05,530.48a6.37,6.37,0,0,1,3.26-.78v2.82h-.72q-4.59,0-4.59,5v8.94h-2.73V530H687v2.67A5.23,5.23,0,0,1,689.05,530.48Z"/><path class="cls-6" d="M485.87,572l-5.13,16.44h-2.82l-4-13.05-4,13.05h-2.82L462,572h2.79l3.78,13.8,4.09-13.8h2.79l4,13.83L483.17,572Z"/><path class="cls-6" d="M491.55,587.66a7.46,7.46,0,0,1-2.94-3,9.17,9.17,0,0,1-1.06-4.49,8.87,8.87,0,0,1,1.09-4.45,7.56,7.56,0,0,1,3-3,9.12,9.12,0,0,1,8.46,0,7.55,7.55,0,0,1,3,3,9.56,9.56,0,0,1,0,9,7.77,7.77,0,0,1-3,3,8.73,8.73,0,0,1-4.26,1.05A8.44,8.44,0,0,1,491.55,587.66Zm6.95-2a5.24,5.24,0,0,0,2.08-2.07,6.63,6.63,0,0,0,.8-3.36,6.73,6.73,0,0,0-.78-3.36,5.09,5.09,0,0,0-2-2.05,5.86,5.86,0,0,0-5.48,0,4.93,4.93,0,0,0-2,2.05,7,7,0,0,0-.75,3.36,7.14,7.14,0,0,0,.73,3.39,4.91,4.91,0,0,0,2,2.06,5.52,5.52,0,0,0,2.7.67A5.76,5.76,0,0,0,498.5,585.62Z"/><path class="cls-6" d="M512.56,572.48a6.31,6.31,0,0,1,3.25-.78v2.82h-.72q-4.59,0-4.59,5v8.94h-2.73V572h2.73v2.67A5.19,5.19,0,0,1,512.56,572.48Z"/><path class="cls-6" d="M519,575.74a7.43,7.43,0,0,1,2.81-3,7.73,7.73,0,0,1,4-1,7.44,7.44,0,0,1,3.57.89,6.38,6.38,0,0,1,2.52,2.32v-8.7h2.76v22.2h-2.76v-3.09a6.4,6.4,0,0,1-2.4,2.42,7.14,7.14,0,0,1-3.72.94A7.49,7.49,0,0,1,519,584.6a9.44,9.44,0,0,1-1-4.44A9.21,9.21,0,0,1,519,575.74ZM531.11,577a5.27,5.27,0,0,0-2-2.11,5.74,5.74,0,0,0-5.6,0,5.22,5.22,0,0,0-2,2.1,6.68,6.68,0,0,0-.75,3.24,6.86,6.86,0,0,0,.75,3.29,5.31,5.31,0,0,0,2,2.13,5.43,5.43,0,0,0,2.79.73,5.53,5.53,0,0,0,2.81-.73,5.26,5.26,0,0,0,2-2.13,6.79,6.79,0,0,0,.75-3.26A6.68,6.68,0,0,0,531.11,577Z"/><path class="cls-6" d="M550.24,587.66a7.46,7.46,0,0,1-2.94-3,9.17,9.17,0,0,1-1.07-4.49,8.87,8.87,0,0,1,1.1-4.45,7.53,7.53,0,0,1,3-3,9.14,9.14,0,0,1,8.47,0,7.55,7.55,0,0,1,3,3,9.56,9.56,0,0,1,0,9,7.77,7.77,0,0,1-3,3,8.73,8.73,0,0,1-4.26,1.05A8.41,8.41,0,0,1,550.24,587.66Zm7-2a5.24,5.24,0,0,0,2.08-2.07,6.63,6.63,0,0,0,.8-3.36,6.73,6.73,0,0,0-.78-3.36,5.09,5.09,0,0,0-2-2.05,5.86,5.86,0,0,0-5.48,0,5,5,0,0,0-2,2.05,7,7,0,0,0-.75,3.36,7.14,7.14,0,0,0,.74,3.39,4.89,4.89,0,0,0,2,2.06,5.53,5.53,0,0,0,2.71.67A5.79,5.79,0,0,0,557.19,585.62Z"/><path class="cls-6" d="M573.15,574.25H569.7v14.19H567V574.25h-2.13V572H567v-1.17a5.18,5.18,0,0,1,1.42-4,6.83,6.83,0,0,1,4.58-1.27v2.28a3.64,3.64,0,0,0-2.54.71,3.1,3.1,0,0,0-.73,2.32V572h3.45Z"/><path class="cls-6" d="M607.53,572.5a5.72,5.72,0,0,1,2.37,2.38,8,8,0,0,1,.87,3.87v9.69h-2.7v-9.3a5.31,5.31,0,0,0-1.21-3.76,4.29,4.29,0,0,0-3.29-1.31,4.39,4.39,0,0,0-3.39,1.37,5.6,5.6,0,0,0-1.26,3.94v9.06h-2.7v-9.3a5.31,5.31,0,0,0-1.21-3.76,4.29,4.29,0,0,0-3.29-1.31,4.39,4.39,0,0,0-3.39,1.37,5.6,5.6,0,0,0-1.26,3.94v9.06h-2.73V572h2.73v2.37a5.38,5.38,0,0,1,2.17-2,6.61,6.61,0,0,1,3-.69,7.11,7.11,0,0,1,3.66.93,5.67,5.67,0,0,1,2.37,2.73,5.39,5.39,0,0,1,2.28-2.7,6.72,6.72,0,0,1,3.54-1A7.19,7.19,0,0,1,607.53,572.5Z"/><path class="cls-6" d="M618.23,587.66a7.46,7.46,0,0,1-2.94-3,9.17,9.17,0,0,1-1.07-4.49,8.87,8.87,0,0,1,1.1-4.45,7.53,7.53,0,0,1,3-3,9.14,9.14,0,0,1,8.47,0,7.55,7.55,0,0,1,3,3,9.56,9.56,0,0,1,0,9,7.73,7.73,0,0,1-3.05,3,8.73,8.73,0,0,1-4.26,1.05A8.4,8.4,0,0,1,618.23,587.66Zm6.94-2a5.26,5.26,0,0,0,2.09-2.07,6.63,6.63,0,0,0,.8-3.36,6.73,6.73,0,0,0-.79-3.36,5.09,5.09,0,0,0-2-2.05,5.84,5.84,0,0,0-5.47,0,5,5,0,0,0-2,2.05,7,7,0,0,0-.75,3.36,7.14,7.14,0,0,0,.74,3.39,4.89,4.89,0,0,0,2,2.06,5.52,5.52,0,0,0,2.7.67A5.76,5.76,0,0,0,625.17,585.62Z"/><path class="cls-6" d="M649,572v16.44H646.3V586a5.34,5.34,0,0,1-2.18,2,6.7,6.7,0,0,1-3.07.7,7.37,7.37,0,0,1-3.45-.79,5.8,5.8,0,0,1-2.42-2.39,7.85,7.85,0,0,1-.88-3.87V572H637v9.27a5.25,5.25,0,0,0,1.23,3.74,4.39,4.39,0,0,0,3.36,1.3A4.49,4.49,0,0,0,645,585,5.56,5.56,0,0,0,646.3,581v-9Z"/><path class="cls-6" d="M657,574.25v9.69a2.32,2.32,0,0,0,.51,1.7,2.52,2.52,0,0,0,1.77.49h2v2.31h-2.46a4.9,4.9,0,0,1-3.42-1.05,4.51,4.51,0,0,1-1.14-3.45v-9.69h-2.13V572h2.13v-4.14H657V572h4.29v2.25Z"/><path class="cls-6" d="M676.09,572.5a5.64,5.64,0,0,1,2.36,2.38,8.08,8.08,0,0,1,.85,3.87v9.69h-2.7v-9.3a5.27,5.27,0,0,0-1.23-3.76,4.4,4.4,0,0,0-3.36-1.31,4.49,4.49,0,0,0-3.43,1.35,5.52,5.52,0,0,0-1.28,3.93v9.09h-2.73v-22.2h2.73v8.1a5.39,5.39,0,0,1,2.24-2,7.21,7.21,0,0,1,3.19-.69A7.07,7.07,0,0,1,676.09,572.5Z"/><circle class="cls-5" cx="571.56" cy="289.85" r="88.92"/><text class="cls-3" transform="translate(903.34 445.27)">Evaluating</text><path class="cls-6" d="M799.24,483.53v2.22h-5.7v18.69h-2.73V485.75h-5.73v-2.22Z"/><path class="cls-6" d="M802.6,491.74a7.43,7.43,0,0,1,2.81-3,7.68,7.68,0,0,1,4-1,7.3,7.3,0,0,1,3.75.93A6.2,6.2,0,0,1,815.5,491v-3h2.76v16.44H815.5v-3.06a6.43,6.43,0,0,1-2.41,2.39,7.24,7.24,0,0,1-3.74.94,7.45,7.45,0,0,1-4-1.08,7.57,7.57,0,0,1-2.79-3,9.44,9.44,0,0,1-1-4.44A9.21,9.21,0,0,1,802.6,491.74ZM814.75,493a5.27,5.27,0,0,0-2-2.11,5.74,5.74,0,0,0-5.6,0,5.22,5.22,0,0,0-2,2.1,6.68,6.68,0,0,0-.75,3.24,6.86,6.86,0,0,0,.75,3.29,5.31,5.31,0,0,0,2,2.13,5.43,5.43,0,0,0,2.79.73,5.53,5.53,0,0,0,2.81-.73,5.26,5.26,0,0,0,2-2.13,6.79,6.79,0,0,0,.75-3.26A6.68,6.68,0,0,0,814.75,493Z"/><path class="cls-6" d="M832.07,504.44l-6.45-7.26v7.26h-2.73v-22.2h2.73v13.05L832,488h3.81L828,496.19l7.77,8.25Z"/><path class="cls-6" d="M853.25,497.24H840.11a5.15,5.15,0,0,0,5.34,5.16,5,5,0,0,0,2.95-.82,4.39,4.39,0,0,0,1.67-2.21H853a7.08,7.08,0,0,1-2.64,3.86,8,8,0,0,1-4.92,1.48,8.33,8.33,0,0,1-4.19-1,7.41,7.41,0,0,1-2.89-3,9.28,9.28,0,0,1-1-4.49,9.39,9.39,0,0,1,1-4.47,7.14,7.14,0,0,1,2.86-3,8.55,8.55,0,0,1,4.25-1,8.25,8.25,0,0,1,4.14,1,7.06,7.06,0,0,1,2.77,2.81,8.26,8.26,0,0,1,1,4A16.07,16.07,0,0,1,853.25,497.24Zm-3.42-4.9a4.5,4.5,0,0,0-1.88-1.71,5.83,5.83,0,0,0-2.62-.59,5.07,5.07,0,0,0-3.53,1.32,5.37,5.37,0,0,0-1.66,3.66h10.38A5,5,0,0,0,849.83,492.34Z"/><path class="cls-6" d="M877.82,489.52a7,7,0,0,1,1.86,5.23v9.69H877v-9.3a5.27,5.27,0,0,0-1.23-3.76,4.4,4.4,0,0,0-3.36-1.31,4.49,4.49,0,0,0-3.43,1.35,5.52,5.52,0,0,0-1.28,3.93v9.09H865V488h2.73v2.34a5.43,5.43,0,0,1,2.21-1.95,6.82,6.82,0,0,1,3.07-.69A6.67,6.67,0,0,1,877.82,489.52Z"/><path class="cls-6" d="M887.14,503.66a7.46,7.46,0,0,1-2.94-3,9.17,9.17,0,0,1-1.07-4.49,8.87,8.87,0,0,1,1.1-4.45,7.53,7.53,0,0,1,3-3,9.12,9.12,0,0,1,8.46,0,7.51,7.51,0,0,1,3,3,9.56,9.56,0,0,1,0,9,7.73,7.73,0,0,1-3,3,8.73,8.73,0,0,1-4.26,1A8.4,8.4,0,0,1,887.14,503.66Zm6.94-2a5.26,5.26,0,0,0,2.09-2.07,7.58,7.58,0,0,0,0-6.72,5,5,0,0,0-2-2.05,5.84,5.84,0,0,0-5.47,0,5,5,0,0,0-2,2.05,7,7,0,0,0-.75,3.36,7.14,7.14,0,0,0,.74,3.39,4.89,4.89,0,0,0,2,2.06,5.52,5.52,0,0,0,2.7.67A5.76,5.76,0,0,0,894.08,501.62Z"/><path class="cls-6" d="M906.69,490.25v9.69a2.32,2.32,0,0,0,.51,1.7,2.52,2.52,0,0,0,1.77.49h2v2.31h-2.46a4.9,4.9,0,0,1-3.42-1.05,4.51,4.51,0,0,1-1.14-3.45v-9.69h-2.13V488H904v-4.14h2.73V488H911v2.25Z"/><path class="cls-6" d="M929.19,497.24H916.05a5.15,5.15,0,0,0,5.34,5.16,5,5,0,0,0,3-.82,4.39,4.39,0,0,0,1.67-2.21H929a7.08,7.08,0,0,1-2.64,3.86,8,8,0,0,1-4.92,1.48,8.33,8.33,0,0,1-4.19-1,7.41,7.41,0,0,1-2.89-3,9.28,9.28,0,0,1-1-4.49,9.39,9.39,0,0,1,1-4.47,7.14,7.14,0,0,1,2.86-3,8.55,8.55,0,0,1,4.25-1,8.25,8.25,0,0,1,4.14,1,7.06,7.06,0,0,1,2.77,2.81,8.26,8.26,0,0,1,1,4A16.07,16.07,0,0,1,929.19,497.24Zm-3.42-4.9a4.5,4.5,0,0,0-1.88-1.71,5.83,5.83,0,0,0-2.62-.59,5.07,5.07,0,0,0-3.53,1.32,5.37,5.37,0,0,0-1.66,3.66h10.38A5,5,0,0,0,925.77,492.34Z"/><path class="cls-6" d="M943.88,503.66a7.46,7.46,0,0,1-2.94-3,9.17,9.17,0,0,1-1.07-4.49,8.87,8.87,0,0,1,1.1-4.45,7.53,7.53,0,0,1,3-3,9.12,9.12,0,0,1,8.46,0,7.57,7.57,0,0,1,3,3,9.63,9.63,0,0,1,0,9,7.8,7.8,0,0,1-3,3,8.73,8.73,0,0,1-4.26,1A8.4,8.4,0,0,1,943.88,503.66Zm6.94-2a5.26,5.26,0,0,0,2.09-2.07,6.63,6.63,0,0,0,.79-3.36,6.73,6.73,0,0,0-.78-3.36,5.09,5.09,0,0,0-2-2.05,5.84,5.84,0,0,0-5.47,0,5,5,0,0,0-2,2.05,7,7,0,0,0-.75,3.36,7.14,7.14,0,0,0,.74,3.39,4.89,4.89,0,0,0,2,2.06,5.52,5.52,0,0,0,2.7.67A5.76,5.76,0,0,0,950.82,501.62Z"/><path class="cls-6" d="M966.79,490.25h-3.46v14.19H960.6V490.25h-2.13V488h2.13v-1.17a5.19,5.19,0,0,1,1.43-4,6.8,6.8,0,0,1,4.57-1.27v2.28a3.61,3.61,0,0,0-2.53.71,3.1,3.1,0,0,0-.74,2.32V488h3.46Z"/><path class="cls-6" d="M978,491.74a7.4,7.4,0,0,1,2.8-3,7.71,7.71,0,0,1,4-1,7.3,7.3,0,0,1,3.75.93,6.2,6.2,0,0,1,2.37,2.34v-3h2.76v16.44h-2.76v-3.06a6.46,6.46,0,0,1-2.42,2.39,7.2,7.2,0,0,1-3.73.94,7.45,7.45,0,0,1-4-1.08,7.57,7.57,0,0,1-2.79-3,9.32,9.32,0,0,1-1-4.44A9.1,9.1,0,0,1,978,491.74ZM990.13,493a5.29,5.29,0,0,0-2-2.11,5.72,5.72,0,0,0-5.59,0,5.22,5.22,0,0,0-2,2.1,6.68,6.68,0,0,0-.75,3.24,6.86,6.86,0,0,0,.75,3.29,5.31,5.31,0,0,0,2,2.13,5.43,5.43,0,0,0,2.79.73,5.49,5.49,0,0,0,2.8-.73,5.28,5.28,0,0,0,2-2.13,6.79,6.79,0,0,0,.75-3.26A6.68,6.68,0,0,0,990.13,493Z"/><path class="cls-6" d="M1001,482.24v22.2h-2.73v-22.2Z"/><path class="cls-6" d="M1008.37,482.24v22.2h-2.73v-22.2Z"/><path class="cls-6" d="M1024.36,490.25v9.69a2.32,2.32,0,0,0,.51,1.7,2.52,2.52,0,0,0,1.77.49h2v2.31h-2.46a4.9,4.9,0,0,1-3.42-1.05,4.51,4.51,0,0,1-1.14-3.45v-9.69h-2.13V488h2.13v-4.14h2.73V488h4.29v2.25Z"/><path class="cls-6" d="M1043.47,488.5a5.64,5.64,0,0,1,2.36,2.38,8.08,8.08,0,0,1,.85,3.87v9.69H1044v-9.3a5.27,5.27,0,0,0-1.23-3.76,4.4,4.4,0,0,0-3.36-1.31,4.49,4.49,0,0,0-3.43,1.35,5.52,5.52,0,0,0-1.28,3.93v9.09H1032v-22.2h2.73v8.1a5.39,5.39,0,0,1,2.24-1.95,7.21,7.21,0,0,1,3.19-.69A7.07,7.07,0,0,1,1043.47,488.5Z"/><path class="cls-6" d="M1066.07,497.24h-13.15a5.37,5.37,0,0,0,1.67,3.8,5.3,5.3,0,0,0,3.68,1.36,5,5,0,0,0,3-.82,4.39,4.39,0,0,0,1.67-2.21h2.94a7.08,7.08,0,0,1-2.64,3.86,8,8,0,0,1-4.92,1.48,8.33,8.33,0,0,1-4.19-1,7.43,7.43,0,0,1-2.9-3,10.17,10.17,0,0,1,0-9,7.08,7.08,0,0,1,2.86-3,8.55,8.55,0,0,1,4.25-1,8.25,8.25,0,0,1,4.14,1,7.06,7.06,0,0,1,2.77,2.81,8.26,8.26,0,0,1,1,4A16.07,16.07,0,0,1,1066.07,497.24Zm-3.42-4.9a4.5,4.5,0,0,0-1.88-1.71,5.83,5.83,0,0,0-2.62-.59,5.07,5.07,0,0,0-3.53,1.32A5.33,5.33,0,0,0,1053,495h10.38A5,5,0,0,0,1062.65,492.34Z"/><path class="cls-6" d="M1077.77,491.74a7.4,7.4,0,0,1,2.8-3,7.77,7.77,0,0,1,4-1,7.44,7.44,0,0,1,3.57.89,6.38,6.38,0,0,1,2.52,2.32v-8.7h2.76v22.2h-2.76v-3.09a6.4,6.4,0,0,1-2.4,2.42,7.14,7.14,0,0,1-3.72.94,7.46,7.46,0,0,1-6.78-4.11,9.44,9.44,0,0,1-1-4.44A9.21,9.21,0,0,1,1077.77,491.74Zm12.15,1.21a5.23,5.23,0,0,0-2-2.11,5.72,5.72,0,0,0-5.59,0,5.22,5.22,0,0,0-2,2.1,6.68,6.68,0,0,0-.75,3.24,6.86,6.86,0,0,0,.75,3.29,5.31,5.31,0,0,0,2,2.13,5.43,5.43,0,0,0,2.79.73,5.49,5.49,0,0,0,2.8-.73,5.22,5.22,0,0,0,2-2.13,6.79,6.79,0,0,0,.75-3.26A6.68,6.68,0,0,0,1089.92,493Z"/><path class="cls-6" d="M1098.14,484.79a1.86,1.86,0,0,1,1.32-3.18,1.72,1.72,0,0,1,1.28.54,1.94,1.94,0,0,1,0,2.64,1.72,1.72,0,0,1-1.28.54A1.8,1.8,0,0,1,1098.14,484.79Zm2.64,3.21v16.44h-2.73V488Z"/><path class="cls-6" d="M1112.12,490.25h-3.45v14.19h-2.73V490.25h-2.13V488h2.13v-1.17a5.19,5.19,0,0,1,1.43-4,6.8,6.8,0,0,1,4.57-1.27v2.28a3.61,3.61,0,0,0-2.53.71,3.1,3.1,0,0,0-.74,2.32V488h3.45Z"/><path class="cls-6" d="M1122,490.25h-3.45v14.19h-2.73V490.25h-2.13V488h2.13v-1.17a5.19,5.19,0,0,1,1.43-4,6.8,6.8,0,0,1,4.57-1.27v2.28a3.61,3.61,0,0,0-2.53.71,3.1,3.1,0,0,0-.74,2.32V488H1122Z"/><path class="cls-6" d="M1140.09,497.24h-13.15a5.17,5.17,0,0,0,5.35,5.16,5.05,5.05,0,0,0,3-.82,4.45,4.45,0,0,0,1.67-2.21h2.94a7.08,7.08,0,0,1-2.64,3.86,8,8,0,0,1-4.92,1.48,8.3,8.3,0,0,1-4.19-1,7.43,7.43,0,0,1-2.9-3,9.28,9.28,0,0,1-1-4.49,9.39,9.39,0,0,1,1-4.47,7.16,7.16,0,0,1,2.87-3,8.52,8.52,0,0,1,4.25-1,8.28,8.28,0,0,1,4.14,1,7.06,7.06,0,0,1,2.77,2.81,8.26,8.26,0,0,1,1,4A16.07,16.07,0,0,1,1140.09,497.24Zm-3.42-4.9a4.5,4.5,0,0,0-1.88-1.71,5.86,5.86,0,0,0-2.62-.59,5.05,5.05,0,0,0-3.53,1.32A5.38,5.38,0,0,0,1127,495h10.39A5.11,5.11,0,0,0,1136.67,492.34Z"/><path class="cls-6" d="M1148.56,488.48a6.37,6.37,0,0,1,3.26-.78v2.82h-.72q-4.59,0-4.59,5v8.94h-2.73V488h2.73v2.67A5.23,5.23,0,0,1,1148.56,488.48Z"/><path class="cls-6" d="M1169.88,497.24h-13.14a5.15,5.15,0,0,0,5.34,5.16,5,5,0,0,0,3-.82,4.39,4.39,0,0,0,1.67-2.21h2.94a7.08,7.08,0,0,1-2.64,3.86,8,8,0,0,1-4.92,1.48,8.33,8.33,0,0,1-4.19-1,7.41,7.41,0,0,1-2.89-3,9.28,9.28,0,0,1-1-4.49,9.39,9.39,0,0,1,1-4.47,7.14,7.14,0,0,1,2.86-3,8.55,8.55,0,0,1,4.25-1,8.25,8.25,0,0,1,4.14,1,7.15,7.15,0,0,1,2.78,2.81,8.37,8.37,0,0,1,1,4A16.07,16.07,0,0,1,1169.88,497.24Zm-3.42-4.9a4.5,4.5,0,0,0-1.88-1.71A5.83,5.83,0,0,0,1162,490a5.07,5.07,0,0,0-3.53,1.32,5.37,5.37,0,0,0-1.66,3.66h10.38A5,5,0,0,0,1166.46,492.34Z"/><path class="cls-6" d="M1186.44,489.52a7,7,0,0,1,1.86,5.23v9.69h-2.7v-9.3a5.27,5.27,0,0,0-1.23-3.76,4.4,4.4,0,0,0-3.36-1.31,4.49,4.49,0,0,0-3.43,1.35,5.47,5.47,0,0,0-1.28,3.93v9.09h-2.73V488h2.73v2.34a5.43,5.43,0,0,1,2.21-1.95,6.82,6.82,0,0,1,3.07-.69A6.67,6.67,0,0,1,1186.44,489.52Z"/><path class="cls-6" d="M1196.1,490.25v9.69a2.32,2.32,0,0,0,.51,1.7,2.52,2.52,0,0,0,1.77.49h2v2.31h-2.46a4.9,4.9,0,0,1-3.42-1.05,4.51,4.51,0,0,1-1.14-3.45v-9.69h-2.13V488h2.13v-4.14h2.73V488h4.29v2.25Z"/><path class="cls-6" d="M794.94,533.74a7.34,7.34,0,0,1,2.83-3,9,9,0,0,1,9.15.42,7,7,0,0,1,2.6,4.08h-2.94a4.23,4.23,0,0,0-1.64-2.37,5,5,0,0,0-3-.87,4.84,4.84,0,0,0-3.78,1.61,6.56,6.56,0,0,0-1.44,4.54,6.68,6.68,0,0,0,1.44,4.59,4.82,4.82,0,0,0,3.78,1.62,5.11,5.11,0,0,0,3-.84,4.26,4.26,0,0,0,1.65-2.4h2.94a7.24,7.24,0,0,1-2.64,4,7.91,7.91,0,0,1-5,1.51,8.16,8.16,0,0,1-4.16-1.05,7.3,7.3,0,0,1-2.83-3,9.46,9.46,0,0,1-1-4.5A9.28,9.28,0,0,1,794.94,533.74Z"/><path class="cls-6" d="M815.88,524.24v22.2h-2.73v-22.2Z"/><path class="cls-6" d="M820.53,533.74a7.4,7.4,0,0,1,2.8-3,7.74,7.74,0,0,1,4-1,7.3,7.3,0,0,1,3.75.93,6.2,6.2,0,0,1,2.37,2.34v-3h2.76v16.44h-2.76v-3.06a6.43,6.43,0,0,1-2.41,2.39,7.24,7.24,0,0,1-3.74.94,7.45,7.45,0,0,1-4-1.08,7.57,7.57,0,0,1-2.79-3,9.44,9.44,0,0,1-1-4.44A9.21,9.21,0,0,1,820.53,533.74ZM832.68,535a5.27,5.27,0,0,0-2-2.11,5.74,5.74,0,0,0-5.6,0,5.22,5.22,0,0,0-2,2.1,6.68,6.68,0,0,0-.75,3.24,6.86,6.86,0,0,0,.75,3.29,5.31,5.31,0,0,0,2,2.13,5.43,5.43,0,0,0,2.79.73,5.53,5.53,0,0,0,2.81-.73,5.26,5.26,0,0,0,2-2.13,6.79,6.79,0,0,0,.75-3.26A6.68,6.68,0,0,0,832.68,535Z"/><path class="cls-6" d="M843.24,546.07a5.72,5.72,0,0,1-2.37-1.8,4.81,4.81,0,0,1-1-2.66h2.82a2.77,2.77,0,0,0,1.16,2,4.38,4.38,0,0,0,2.71.78,4,4,0,0,0,2.46-.69A2.11,2.11,0,0,0,850,542a1.71,1.71,0,0,0-1-1.6,13.42,13.42,0,0,0-3-1,21.8,21.8,0,0,1-3-1,5.3,5.3,0,0,1-2-1.47A4.16,4.16,0,0,1,841,532a5.07,5.07,0,0,1,2.13-1.66,7.66,7.66,0,0,1,3.15-.62,6.73,6.73,0,0,1,4.41,1.38,5,5,0,0,1,1.8,3.78h-2.73a2.82,2.82,0,0,0-1-2.07,4.59,4.59,0,0,0-4.88-.15,2,2,0,0,0-.87,1.65,1.82,1.82,0,0,0,.53,1.34,3.84,3.84,0,0,0,1.32.84,22.79,22.79,0,0,0,2.2.7,23.65,23.65,0,0,1,2.88.95,5,5,0,0,1,1.91,1.39,3.73,3.73,0,0,1,.82,2.43,4.16,4.16,0,0,1-.75,2.43,5,5,0,0,1-2.11,1.7,7.58,7.58,0,0,1-3.14.61A8.5,8.5,0,0,1,843.24,546.07Z"/><path class="cls-6" d="M858.91,546.07a5.69,5.69,0,0,1-2.38-1.8,4.81,4.81,0,0,1-1-2.66h2.82a2.77,2.77,0,0,0,1.16,2,4.39,4.39,0,0,0,2.72.78,4,4,0,0,0,2.46-.69,2.11,2.11,0,0,0,.9-1.74,1.71,1.71,0,0,0-1-1.6,13.42,13.42,0,0,0-3-1,21.54,21.54,0,0,1-3-1,5.3,5.3,0,0,1-2-1.47,4.16,4.16,0,0,1-.08-4.88,5,5,0,0,1,2.14-1.66,7.63,7.63,0,0,1,3.15-.62,6.74,6.74,0,0,1,4.41,1.38,5,5,0,0,1,1.8,3.78h-2.73a2.83,2.83,0,0,0-1-2.07,3.84,3.84,0,0,0-2.53-.78,3.94,3.94,0,0,0-2.35.63,2,2,0,0,0-.87,1.65,1.82,1.82,0,0,0,.53,1.34,3.84,3.84,0,0,0,1.32.84,23.14,23.14,0,0,0,2.21.7,23.65,23.65,0,0,1,2.88.95,5,5,0,0,1,1.9,1.39,3.73,3.73,0,0,1,.83,2.43,4.16,4.16,0,0,1-.75,2.43,5,5,0,0,1-2.12,1.7,7.54,7.54,0,0,1-3.13.61A8.5,8.5,0,0,1,858.91,546.07Z"/><path class="cls-6" d="M880.15,533.74a7.4,7.4,0,0,1,2.8-3,7.77,7.77,0,0,1,4-1,7.44,7.44,0,0,1,3.57.89,6.38,6.38,0,0,1,2.52,2.32v-8.7h2.76v22.2h-2.76v-3.09a6.4,6.4,0,0,1-2.4,2.42,7.14,7.14,0,0,1-3.72.94,7.46,7.46,0,0,1-6.78-4.11,9.44,9.44,0,0,1-1-4.44A9.21,9.21,0,0,1,880.15,533.74ZM892.3,535a5.29,5.29,0,0,0-2-2.11,5.72,5.72,0,0,0-5.59,0,5.22,5.22,0,0,0-2,2.1,6.68,6.68,0,0,0-.75,3.24,6.86,6.86,0,0,0,.75,3.29,5.31,5.31,0,0,0,2,2.13,5.43,5.43,0,0,0,2.79.73,5.49,5.49,0,0,0,2.8-.73,5.28,5.28,0,0,0,2-2.13,6.79,6.79,0,0,0,.75-3.26A6.68,6.68,0,0,0,892.3,535Z"/><path class="cls-6" d="M915.34,539.24H902.2a5.17,5.17,0,0,0,5.34,5.16,5.06,5.06,0,0,0,3-.82,4.37,4.37,0,0,0,1.66-2.21h2.94a7.08,7.08,0,0,1-2.64,3.86,8,8,0,0,1-4.92,1.48,8.29,8.29,0,0,1-4.18-1.05,7.37,7.37,0,0,1-2.9-3,9.28,9.28,0,0,1-1.05-4.49,9.39,9.39,0,0,1,1-4.47,7.16,7.16,0,0,1,2.87-3,8.51,8.51,0,0,1,4.24-1,8.25,8.25,0,0,1,4.14,1,7.09,7.09,0,0,1,2.78,2.81,8.26,8.26,0,0,1,1,4A16.07,16.07,0,0,1,915.34,539.24Zm-3.42-4.9a4.47,4.47,0,0,0-1.87-1.71,5.87,5.87,0,0,0-2.63-.59,5,5,0,0,0-3.52,1.32,5.34,5.34,0,0,0-1.67,3.66h10.38A5,5,0,0,0,911.92,534.34Z"/><path class="cls-6" d="M922.36,532.25v9.69a2.32,2.32,0,0,0,.51,1.7,2.52,2.52,0,0,0,1.77.49h2v2.31h-2.46a4.9,4.9,0,0,1-3.42-1.05,4.51,4.51,0,0,1-1.14-3.45v-9.69H917.5V530h2.13v-4.14h2.73V530h4.29v2.25Z"/><path class="cls-6" d="M930,533.74a7.43,7.43,0,0,1,2.81-3,7.69,7.69,0,0,1,4-1,7.35,7.35,0,0,1,3.75.93,6.2,6.2,0,0,1,2.37,2.34v-3h2.76v16.44h-2.76v-3.06a6.46,6.46,0,0,1-2.42,2.39,7.23,7.23,0,0,1-3.73.94,7.49,7.49,0,0,1-4-1.08,7.57,7.57,0,0,1-2.79-3,9.44,9.44,0,0,1-1-4.44A9.21,9.21,0,0,1,930,533.74ZM942.11,535a5.29,5.29,0,0,0-2-2.11,5.73,5.73,0,0,0-5.6,0,5.22,5.22,0,0,0-2,2.1,6.68,6.68,0,0,0-.75,3.24,6.86,6.86,0,0,0,.75,3.29,5.31,5.31,0,0,0,2,2.13,5.73,5.73,0,0,0,5.6,0,5.28,5.28,0,0,0,2-2.13,6.79,6.79,0,0,0,.75-3.26A6.68,6.68,0,0,0,942.11,535Z"/><path class="cls-6" d="M950.33,526.79a1.86,1.86,0,0,1,1.32-3.18,1.7,1.7,0,0,1,1.27.54,1.91,1.91,0,0,1,0,2.64,1.7,1.7,0,0,1-1.27.54A1.8,1.8,0,0,1,950.33,526.79ZM953,530v16.44h-2.73V530Z"/><path class="cls-6" d="M960.35,524.24v22.2h-2.73v-22.2Z"/><path class="cls-6" d="M967.43,546.07a5.72,5.72,0,0,1-2.37-1.8,4.81,4.81,0,0,1-1-2.66h2.82a2.76,2.76,0,0,0,1.15,2,4.41,4.41,0,0,0,2.72.78,4,4,0,0,0,2.46-.69,2.11,2.11,0,0,0,.9-1.74,1.71,1.71,0,0,0-1-1.6,13.42,13.42,0,0,0-3-1,22,22,0,0,1-3-1,5.3,5.3,0,0,1-2-1.47,3.85,3.85,0,0,1-.82-2.57,3.89,3.89,0,0,1,.75-2.31,5.07,5.07,0,0,1,2.13-1.66,7.66,7.66,0,0,1,3.15-.62,6.73,6.73,0,0,1,4.41,1.38,5,5,0,0,1,1.8,3.78h-2.73a2.83,2.83,0,0,0-1-2.07,3.84,3.84,0,0,0-2.53-.78,3.91,3.91,0,0,0-2.34.63,2,2,0,0,0-.87,1.65,1.82,1.82,0,0,0,.52,1.34,3.84,3.84,0,0,0,1.32.84,23.14,23.14,0,0,0,2.21.7,23.65,23.65,0,0,1,2.88.95,5,5,0,0,1,1.9,1.39,3.73,3.73,0,0,1,.83,2.43,4.16,4.16,0,0,1-.75,2.43,5,5,0,0,1-2.12,1.7,7.54,7.54,0,0,1-3.13.61A8.5,8.5,0,0,1,967.43,546.07Z"/><path class="cls-6" d="M988.67,533.74a7.43,7.43,0,0,1,2.81-3,7.68,7.68,0,0,1,4-1,7.3,7.3,0,0,1,3.75.93,6.2,6.2,0,0,1,2.37,2.34v-3h2.76v16.44h-2.76v-3.06a6.43,6.43,0,0,1-2.41,2.39,7.24,7.24,0,0,1-3.74.94,7.45,7.45,0,0,1-4-1.08,7.57,7.57,0,0,1-2.79-3,9.44,9.44,0,0,1-1-4.44A9.21,9.21,0,0,1,988.67,533.74Zm12.15,1.21a5.27,5.27,0,0,0-2-2.11,5.74,5.74,0,0,0-5.6,0,5.22,5.22,0,0,0-2,2.1,6.68,6.68,0,0,0-.75,3.24,6.86,6.86,0,0,0,.75,3.29,5.31,5.31,0,0,0,2,2.13,5.43,5.43,0,0,0,2.79.73,5.53,5.53,0,0,0,2.81-.73,5.26,5.26,0,0,0,2-2.13,6.79,6.79,0,0,0,.75-3.26A6.68,6.68,0,0,0,1000.82,535Z"/><path class="cls-6" d="M1021.83,531.52a7,7,0,0,1,1.86,5.23v9.69H1021v-9.3a5.27,5.27,0,0,0-1.23-3.76,4.4,4.4,0,0,0-3.36-1.31,4.49,4.49,0,0,0-3.43,1.35,5.52,5.52,0,0,0-1.28,3.93v9.09H1009V530h2.73v2.34a5.43,5.43,0,0,1,2.21-2,6.82,6.82,0,0,1,3.07-.69A6.71,6.71,0,0,1,1021.83,531.52Z"/><path class="cls-6" d="M1028.16,533.74a7.4,7.4,0,0,1,2.8-3,7.77,7.77,0,0,1,4-1,7.44,7.44,0,0,1,3.57.89,6.38,6.38,0,0,1,2.52,2.32v-8.7h2.76v22.2h-2.76v-3.09a6.4,6.4,0,0,1-2.4,2.42,7.14,7.14,0,0,1-3.72.94,7.46,7.46,0,0,1-6.78-4.11,9.44,9.44,0,0,1-1-4.44A9.21,9.21,0,0,1,1028.16,533.74Zm12.15,1.21a5.29,5.29,0,0,0-2-2.11,5.72,5.72,0,0,0-5.59,0,5.22,5.22,0,0,0-2,2.1,6.68,6.68,0,0,0-.75,3.24,6.86,6.86,0,0,0,.75,3.29,5.31,5.31,0,0,0,2,2.13,5.43,5.43,0,0,0,2.79.73,5.49,5.49,0,0,0,2.8-.73,5.28,5.28,0,0,0,2-2.13,6.79,6.79,0,0,0,.75-3.26A6.68,6.68,0,0,0,1040.31,535Z"/><path class="cls-6" d="M1056.45,533.74a7.3,7.3,0,0,1,2.84-3,9,9,0,0,1,9.15.42,6.93,6.93,0,0,1,2.59,4.08h-2.94a4.21,4.21,0,0,0-1.63-2.37,5.06,5.06,0,0,0-3-.87,4.84,4.84,0,0,0-3.78,1.61,6.56,6.56,0,0,0-1.44,4.54,6.68,6.68,0,0,0,1.44,4.59,4.82,4.82,0,0,0,3.78,1.62,5.11,5.11,0,0,0,3-.84,4.26,4.26,0,0,0,1.65-2.4H1071a7.24,7.24,0,0,1-2.64,4,7.91,7.91,0,0,1-5,1.51,8.13,8.13,0,0,1-4.15-1.05,7.26,7.26,0,0,1-2.84-3,9.46,9.46,0,0,1-1-4.5A9.28,9.28,0,0,1,1056.45,533.74Z"/><path class="cls-6" d="M1077.65,545.66a7.46,7.46,0,0,1-2.94-3,9.17,9.17,0,0,1-1.07-4.49,8.87,8.87,0,0,1,1.1-4.45,7.53,7.53,0,0,1,3-3,9.12,9.12,0,0,1,8.46,0,7.57,7.57,0,0,1,3,3,9.63,9.63,0,0,1,0,9,7.8,7.8,0,0,1-3.05,3,8.73,8.73,0,0,1-4.26,1.05A8.4,8.4,0,0,1,1077.65,545.66Zm6.94-2a5.26,5.26,0,0,0,2.09-2.07,6.63,6.63,0,0,0,.79-3.36,6.73,6.73,0,0,0-.78-3.36,5.09,5.09,0,0,0-2-2.05,5.84,5.84,0,0,0-5.47,0,5,5,0,0,0-2,2.05,7,7,0,0,0-.75,3.36,7.14,7.14,0,0,0,.74,3.39,4.89,4.89,0,0,0,2,2.06,5.52,5.52,0,0,0,2.7.67A5.76,5.76,0,0,0,1084.59,543.62Z"/><path class="cls-6" d="M1117.06,530.5a5.72,5.72,0,0,1,2.37,2.38,8,8,0,0,1,.87,3.87v9.69h-2.7v-9.3a5.32,5.32,0,0,0-1.22-3.76,4.26,4.26,0,0,0-3.28-1.31,4.39,4.39,0,0,0-3.39,1.37,5.6,5.6,0,0,0-1.26,3.94v9.06h-2.7v-9.3a5.32,5.32,0,0,0-1.22-3.76,4.26,4.26,0,0,0-3.28-1.31,4.39,4.39,0,0,0-3.39,1.37,5.6,5.6,0,0,0-1.27,3.94v9.06h-2.72V530h2.72v2.37a5.41,5.41,0,0,1,2.18-2,6.61,6.61,0,0,1,3-.69,7.11,7.11,0,0,1,3.66.93,5.67,5.67,0,0,1,2.37,2.73,5.39,5.39,0,0,1,2.28-2.7,6.72,6.72,0,0,1,3.54-1A7.19,7.19,0,0,1,1117.06,530.5Z"/><path class="cls-6" d="M1129.92,530.68a7.18,7.18,0,0,1,3.73-.95,7.71,7.71,0,0,1,4,1,7.4,7.4,0,0,1,2.8,3,9.21,9.21,0,0,1,1,4.42,9.44,9.44,0,0,1-1,4.44,7.46,7.46,0,0,1-6.78,4.11,7.18,7.18,0,0,1-3.71-.94,6.75,6.75,0,0,1-2.44-2.36v10.83h-2.73V530h2.73v3A6.44,6.44,0,0,1,1129.92,530.68Zm8,4.24a5.18,5.18,0,0,0-2-2.1,5.62,5.62,0,0,0-2.81-.72,5.51,5.51,0,0,0-2.78.74,5.37,5.37,0,0,0-2,2.13,6.58,6.58,0,0,0-.76,3.22,6.68,6.68,0,0,0,.76,3.26,5.37,5.37,0,0,0,2,2.13,5.72,5.72,0,0,0,5.59,0,5.26,5.26,0,0,0,2-2.13,6.86,6.86,0,0,0,.75-3.29A6.68,6.68,0,0,0,1137.91,534.92Z"/><path class="cls-6" d="M1145.05,533.74a7.43,7.43,0,0,1,2.81-3,7.68,7.68,0,0,1,4-1,7.3,7.3,0,0,1,3.75.93A6.2,6.2,0,0,1,1158,533v-3h2.76v16.44H1158v-3.06a6.43,6.43,0,0,1-2.41,2.39,7.24,7.24,0,0,1-3.74.94,7.45,7.45,0,0,1-4-1.08,7.57,7.57,0,0,1-2.79-3,9.44,9.44,0,0,1-1-4.44A9.21,9.21,0,0,1,1145.05,533.74ZM1157.2,535a5.27,5.27,0,0,0-2-2.11,5.74,5.74,0,0,0-5.6,0,5.22,5.22,0,0,0-2,2.1,6.68,6.68,0,0,0-.75,3.24,6.86,6.86,0,0,0,.75,3.29,5.31,5.31,0,0,0,2,2.13,5.43,5.43,0,0,0,2.79.73,5.53,5.53,0,0,0,2.81-.73,5.26,5.26,0,0,0,2-2.13,6.79,6.79,0,0,0,.75-3.26A6.68,6.68,0,0,0,1157.2,535Z"/><path class="cls-6" d="M1170.12,530.48a6.35,6.35,0,0,1,3.26-.78v2.82h-.72q-4.61,0-4.6,5v8.94h-2.73V530h2.73v2.67A5.25,5.25,0,0,1,1170.12,530.48Z"/><path class="cls-6" d="M1191.44,539.24H1178.3a5.15,5.15,0,0,0,5.34,5.16,5,5,0,0,0,2.95-.82,4.39,4.39,0,0,0,1.67-2.21h2.94a7.08,7.08,0,0,1-2.64,3.86,8,8,0,0,1-4.92,1.48,8.33,8.33,0,0,1-4.19-1.05,7.34,7.34,0,0,1-2.89-3,10.13,10.13,0,0,1,0-9,7.14,7.14,0,0,1,2.86-3,8.55,8.55,0,0,1,4.25-1,8.25,8.25,0,0,1,4.14,1,7.06,7.06,0,0,1,2.77,2.81,8.26,8.26,0,0,1,1,4A16.07,16.07,0,0,1,1191.44,539.24Zm-3.42-4.9a4.5,4.5,0,0,0-1.88-1.71,5.83,5.83,0,0,0-2.62-.59,5.07,5.07,0,0,0-3.53,1.32,5.37,5.37,0,0,0-1.66,3.66h10.38A5,5,0,0,0,1188,534.34Z"/><path class="cls-6" d="M818.25,574.25v9.69a2.32,2.32,0,0,0,.51,1.7,2.52,2.52,0,0,0,1.77.49h2v2.31h-2.46a4.9,4.9,0,0,1-3.42-1.05,4.51,4.51,0,0,1-1.14-3.45v-9.69h-2.13V572h2.13v-4.14h2.73V572h4.29v2.25Z"/><path class="cls-6" d="M828.83,587.66a7.4,7.4,0,0,1-2.94-3,9.06,9.06,0,0,1-1.07-4.49,8.77,8.77,0,0,1,1.1-4.45,7.53,7.53,0,0,1,3-3,9.12,9.12,0,0,1,8.46,0,7.57,7.57,0,0,1,3,3,9.63,9.63,0,0,1,0,9,7.8,7.8,0,0,1-3.05,3,8.73,8.73,0,0,1-4.26,1.05A8.4,8.4,0,0,1,828.83,587.66Zm6.94-2a5.26,5.26,0,0,0,2.09-2.07,6.63,6.63,0,0,0,.79-3.36,6.73,6.73,0,0,0-.78-3.36,5.09,5.09,0,0,0-2-2.05,5.84,5.84,0,0,0-5.47,0,5,5,0,0,0-2,2.05,7,7,0,0,0-.75,3.36,7.14,7.14,0,0,0,.74,3.39,4.89,4.89,0,0,0,2,2.06,5.52,5.52,0,0,0,2.7.67A5.76,5.76,0,0,0,835.77,585.62Z"/><path class="cls-6" d="M853.05,575.74a7.43,7.43,0,0,1,2.81-3,7.74,7.74,0,0,1,4-1,7.47,7.47,0,0,1,3.57.89,6.38,6.38,0,0,1,2.52,2.32v-8.7h2.76v22.2H866v-3.09a6.4,6.4,0,0,1-2.4,2.42,7.18,7.18,0,0,1-3.73.94,7.49,7.49,0,0,1-6.78-4.11,9.44,9.44,0,0,1-1-4.44A9.21,9.21,0,0,1,853.05,575.74ZM865.21,577a5.29,5.29,0,0,0-2-2.11,5.5,5.5,0,0,0-2.8-.74,5.56,5.56,0,0,0-2.8.72,5.29,5.29,0,0,0-2,2.1,6.68,6.68,0,0,0-.75,3.24,6.86,6.86,0,0,0,.75,3.29,5.37,5.37,0,0,0,2,2.13,5.73,5.73,0,0,0,5.6,0,5.28,5.28,0,0,0,2-2.13,6.79,6.79,0,0,0,.75-3.26A6.68,6.68,0,0,0,865.21,577Z"/><path class="cls-6" d="M888.25,581.24H875.11a5.15,5.15,0,0,0,5.34,5.16,5,5,0,0,0,2.95-.82,4.39,4.39,0,0,0,1.67-2.21H888a7.08,7.08,0,0,1-2.64,3.86,8,8,0,0,1-4.92,1.48,8.33,8.33,0,0,1-4.19-1.05,7.41,7.41,0,0,1-2.89-3,9.28,9.28,0,0,1-1-4.49,9.39,9.39,0,0,1,1-4.47,7.14,7.14,0,0,1,2.86-3,8.55,8.55,0,0,1,4.25-1,8.25,8.25,0,0,1,4.14,1,7.06,7.06,0,0,1,2.77,2.81,8.26,8.26,0,0,1,1,4A16.07,16.07,0,0,1,888.25,581.24Zm-3.42-4.9a4.5,4.5,0,0,0-1.88-1.71,5.83,5.83,0,0,0-2.62-.59,5.07,5.07,0,0,0-3.53,1.32,5.37,5.37,0,0,0-1.66,3.66h10.38A5,5,0,0,0,884.83,576.34Z"/><path class="cls-6" d="M895.27,574.25v9.69a2.32,2.32,0,0,0,.51,1.7,2.52,2.52,0,0,0,1.77.49h2v2.31H897.1a4.9,4.9,0,0,1-3.42-1.05,4.51,4.51,0,0,1-1.14-3.45v-9.69h-2.13V572h2.13v-4.14h2.73V572h4.29v2.25Z"/><path class="cls-6" d="M917.77,581.24H904.63A5.17,5.17,0,0,0,910,586.4a5.06,5.06,0,0,0,3-.82,4.37,4.37,0,0,0,1.66-2.21h2.94a7.08,7.08,0,0,1-2.64,3.86,8,8,0,0,1-4.92,1.48,8.29,8.29,0,0,1-4.18-1.05,7.43,7.43,0,0,1-2.9-3,9.28,9.28,0,0,1-1-4.49,9.39,9.39,0,0,1,1-4.47,7.16,7.16,0,0,1,2.87-3,8.51,8.51,0,0,1,4.24-1,8.25,8.25,0,0,1,4.14,1,7.09,7.09,0,0,1,2.78,2.81,8.26,8.26,0,0,1,1,4A16.07,16.07,0,0,1,917.77,581.24Zm-3.42-4.9a4.47,4.47,0,0,0-1.87-1.71,5.87,5.87,0,0,0-2.63-.59,5,5,0,0,0-3.52,1.32,5.38,5.38,0,0,0-1.67,3.66H915A5,5,0,0,0,914.35,576.34Z"/><path class="cls-6" d="M926.25,572.48a6.33,6.33,0,0,1,3.25-.78v2.82h-.72q-4.59,0-4.59,5v8.94h-2.73V572h2.73v2.67A5.25,5.25,0,0,1,926.25,572.48Z"/><path class="cls-6" d="M955.85,572.5a5.72,5.72,0,0,1,2.37,2.38,8,8,0,0,1,.87,3.87v9.69h-2.7v-9.3a5.32,5.32,0,0,0-1.22-3.76,4.26,4.26,0,0,0-3.28-1.31,4.39,4.39,0,0,0-3.39,1.37,5.6,5.6,0,0,0-1.26,3.94v9.06h-2.7v-9.3a5.32,5.32,0,0,0-1.22-3.76,4.26,4.26,0,0,0-3.28-1.31,4.43,4.43,0,0,0-3.4,1.37,5.6,5.6,0,0,0-1.26,3.94v9.06h-2.73V572h2.73v2.37a5.41,5.41,0,0,1,2.18-2,6.61,6.61,0,0,1,3-.69,7.11,7.11,0,0,1,3.66.93,5.67,5.67,0,0,1,2.37,2.73,5.39,5.39,0,0,1,2.28-2.7,6.72,6.72,0,0,1,3.54-1A7.19,7.19,0,0,1,955.85,572.5Z"/><path class="cls-6" d="M963.65,568.79a1.86,1.86,0,0,1,1.32-3.18,1.7,1.7,0,0,1,1.27.54,1.91,1.91,0,0,1,0,2.64,1.7,1.7,0,0,1-1.27.54A1.8,1.8,0,0,1,963.65,568.79Zm2.64,3.21v16.44h-2.73V572Z"/><path class="cls-6" d="M983.81,573.52a7,7,0,0,1,1.86,5.23v9.69H983v-9.3a5.27,5.27,0,0,0-1.23-3.76,4.4,4.4,0,0,0-3.36-1.31,4.51,4.51,0,0,0-3.44,1.35,5.51,5.51,0,0,0-1.27,3.93v9.09h-2.73V572h2.73v2.34a5.37,5.37,0,0,1,2.21-2,6.79,6.79,0,0,1,3.07-.69A6.67,6.67,0,0,1,983.81,573.52Z"/><path class="cls-6" d="M1005.05,581.24H991.91a5.17,5.17,0,0,0,5.34,5.16,5.06,5.06,0,0,0,3-.82,4.37,4.37,0,0,0,1.66-2.21h2.94a7.08,7.08,0,0,1-2.64,3.86,8,8,0,0,1-4.92,1.48,8.29,8.29,0,0,1-4.18-1.05,7.43,7.43,0,0,1-2.9-3,9.28,9.28,0,0,1-1-4.49,9.39,9.39,0,0,1,1-4.47,7.16,7.16,0,0,1,2.87-3,8.51,8.51,0,0,1,4.24-1,8.25,8.25,0,0,1,4.14,1,7.09,7.09,0,0,1,2.78,2.81,8.26,8.26,0,0,1,1,4A16.07,16.07,0,0,1,1005.05,581.24Zm-3.42-4.9a4.47,4.47,0,0,0-1.87-1.71,5.87,5.87,0,0,0-2.63-.59,5,5,0,0,0-3.52,1.32,5.38,5.38,0,0,0-1.67,3.66h10.38A5,5,0,0,0,1001.63,576.34Z"/><path class="cls-6" d="M1020.09,574.25v9.69a2.32,2.32,0,0,0,.51,1.7,2.52,2.52,0,0,0,1.77.49h2v2.31h-2.46a4.9,4.9,0,0,1-3.42-1.05,4.51,4.51,0,0,1-1.14-3.45v-9.69h-2.13V572h2.13v-4.14h2.73V572h4.29v2.25Z"/><path class="cls-6" d="M1039.2,572.5a5.62,5.62,0,0,1,2.35,2.38,8.08,8.08,0,0,1,.86,3.87v9.69h-2.7v-9.3a5.27,5.27,0,0,0-1.23-3.76,4.4,4.4,0,0,0-3.36-1.31,4.51,4.51,0,0,0-3.44,1.35,5.51,5.51,0,0,0-1.27,3.93v9.09h-2.73v-22.2h2.73v8.1a5.36,5.36,0,0,1,2.23-2,7.26,7.26,0,0,1,3.2-.69A7.07,7.07,0,0,1,1039.2,572.5Z"/><path class="cls-6" d="M1061.79,581.24h-13.14a5.15,5.15,0,0,0,5.34,5.16,5.06,5.06,0,0,0,3-.82,4.37,4.37,0,0,0,1.66-2.21h2.94a7.08,7.08,0,0,1-2.64,3.86,8,8,0,0,1-4.92,1.48,8.36,8.36,0,0,1-4.19-1.05,7.41,7.41,0,0,1-2.89-3,9.28,9.28,0,0,1-1.05-4.49,9.39,9.39,0,0,1,1-4.47,7.1,7.1,0,0,1,2.87-3,8.48,8.48,0,0,1,4.24-1,8.25,8.25,0,0,1,4.14,1,7.09,7.09,0,0,1,2.78,2.81,8.26,8.26,0,0,1,1,4A16.07,16.07,0,0,1,1061.79,581.24Zm-3.42-4.9a4.47,4.47,0,0,0-1.87-1.71,5.87,5.87,0,0,0-2.63-.59,5.07,5.07,0,0,0-3.53,1.32,5.37,5.37,0,0,0-1.66,3.66h10.38A5,5,0,0,0,1058.37,576.34Z"/><path class="cls-6" d="M1078.68,572.66a7.28,7.28,0,0,1,3.69-.93,7.67,7.67,0,0,1,4,1,7.54,7.54,0,0,1,2.8,3,9.33,9.33,0,0,1,1,4.42,9.55,9.55,0,0,1-1,4.44,7.49,7.49,0,0,1-6.79,4.11,7.3,7.3,0,0,1-3.73-.93,6.34,6.34,0,0,1-2.42-2.37v3h-2.73v-22.2h2.73v8.82A6.45,6.45,0,0,1,1078.68,572.66Zm8,4.26a5.18,5.18,0,0,0-2-2.1,5.62,5.62,0,0,0-2.81-.72,5.45,5.45,0,0,0-2.77.74,5.37,5.37,0,0,0-2,2.13,6.58,6.58,0,0,0-.77,3.22,6.68,6.68,0,0,0,.77,3.26,5.37,5.37,0,0,0,2,2.13,5.44,5.44,0,0,0,2.77.73,5.53,5.53,0,0,0,2.81-.73,5.26,5.26,0,0,0,2-2.13,6.86,6.86,0,0,0,.75-3.29A6.68,6.68,0,0,0,1086.63,576.92Z"/><path class="cls-6" d="M1108.69,581.24h-13.14a5.15,5.15,0,0,0,5.34,5.16,5,5,0,0,0,2.95-.82,4.39,4.39,0,0,0,1.67-2.21h2.94a7.08,7.08,0,0,1-2.64,3.86,8,8,0,0,1-4.92,1.48,8.33,8.33,0,0,1-4.19-1.05,7.34,7.34,0,0,1-2.89-3,10.13,10.13,0,0,1,0-9,7.14,7.14,0,0,1,2.86-3,8.55,8.55,0,0,1,4.25-1,8.25,8.25,0,0,1,4.14,1,7.06,7.06,0,0,1,2.77,2.81,8.26,8.26,0,0,1,1,4A16.07,16.07,0,0,1,1108.69,581.24Zm-3.42-4.9a4.5,4.5,0,0,0-1.88-1.71,5.83,5.83,0,0,0-2.62-.59,5.07,5.07,0,0,0-3.53,1.32,5.37,5.37,0,0,0-1.66,3.66H1106A5,5,0,0,0,1105.27,576.34Z"/><path class="cls-6" d="M1114.81,588.07a5.72,5.72,0,0,1-2.37-1.8,4.81,4.81,0,0,1-1-2.66h2.82a2.76,2.76,0,0,0,1.15,2,4.41,4.41,0,0,0,2.72.78,4,4,0,0,0,2.46-.69,2.11,2.11,0,0,0,.9-1.74,1.71,1.71,0,0,0-1-1.6,13.42,13.42,0,0,0-3-1,22,22,0,0,1-3-1,5.3,5.3,0,0,1-2-1.47,3.85,3.85,0,0,1-.82-2.57,3.89,3.89,0,0,1,.75-2.31,5.07,5.07,0,0,1,2.13-1.66,7.66,7.66,0,0,1,3.15-.62,6.73,6.73,0,0,1,4.41,1.38,5,5,0,0,1,1.8,3.78h-2.73a2.83,2.83,0,0,0-1-2.07,3.84,3.84,0,0,0-2.53-.78,3.91,3.91,0,0,0-2.34.63,2,2,0,0,0-.87,1.65,1.82,1.82,0,0,0,.52,1.34,3.84,3.84,0,0,0,1.32.84,23.14,23.14,0,0,0,2.21.7,23.65,23.65,0,0,1,2.88.95,5,5,0,0,1,1.9,1.39,3.73,3.73,0,0,1,.83,2.43,4.16,4.16,0,0,1-.75,2.43,5,5,0,0,1-2.12,1.7,7.54,7.54,0,0,1-3.13.61A8.5,8.5,0,0,1,1114.81,588.07Z"/><path class="cls-6" d="M1131.37,574.25v9.69a2.32,2.32,0,0,0,.51,1.7,2.52,2.52,0,0,0,1.77.49h2v2.31h-2.46a4.9,4.9,0,0,1-3.42-1.05,4.51,4.51,0,0,1-1.14-3.45v-9.69h-2.13V572h2.13v-4.14h2.73V572h4.29v2.25Z"/><path class="cls-6" d="M1153.66,574.25h-3.45v14.19h-2.73V574.25h-2.13V572h2.13v-1.17a5.19,5.19,0,0,1,1.43-4,6.8,6.8,0,0,1,4.57-1.27v2.28a3.61,3.61,0,0,0-2.53.71,3.1,3.1,0,0,0-.74,2.32V572h3.45Z"/><path class="cls-6" d="M1156.93,568.79a1.86,1.86,0,0,1,1.32-3.18,1.72,1.72,0,0,1,1.28.54,1.94,1.94,0,0,1,0,2.64,1.72,1.72,0,0,1-1.28.54A1.8,1.8,0,0,1,1156.93,568.79Zm2.64,3.21v16.44h-2.73V572Z"/><path class="cls-6" d="M1167.55,574.25v9.69a2.32,2.32,0,0,0,.51,1.7,2.53,2.53,0,0,0,1.77.49h2v2.31h-2.46a4.9,4.9,0,0,1-3.42-1.05,4.51,4.51,0,0,1-1.14-3.45v-9.69h-2.13V572h2.13v-4.14h2.73V572h4.29v2.25Z"/><circle class="cls-5" cx="992.72" cy="289.85" r="88.92"/><text class="cls-3" transform="translate(1336.2 445.27)">Booking</text><path class="cls-6" d="M1280.33,483.68v20.76h-2.73V489l-6.9,15.48h-1.92l-6.93-15.51v15.51h-2.73V483.68h2.94l7.68,17.16,7.68-17.16Z"/><path class="cls-6" d="M1285,491.74a7.43,7.43,0,0,1,2.81-3,7.68,7.68,0,0,1,4-1,7.3,7.3,0,0,1,3.75.93,6.2,6.2,0,0,1,2.37,2.34v-3h2.76v16.44h-2.76v-3.06a6.43,6.43,0,0,1-2.41,2.39,7.24,7.24,0,0,1-3.74.94,7.45,7.45,0,0,1-4-1.08,7.57,7.57,0,0,1-2.79-3,9.44,9.44,0,0,1-1-4.44A9.21,9.21,0,0,1,1285,491.74ZM1297.1,493a5.27,5.27,0,0,0-2-2.11,5.74,5.74,0,0,0-5.6,0,5.22,5.22,0,0,0-2,2.1,6.68,6.68,0,0,0-.75,3.24,6.86,6.86,0,0,0,.75,3.29,5.31,5.31,0,0,0,2,2.13,5.43,5.43,0,0,0,2.79.73,5.53,5.53,0,0,0,2.81-.73,5.26,5.26,0,0,0,2-2.13,6.79,6.79,0,0,0,.75-3.26A6.68,6.68,0,0,0,1297.1,493Z"/><path class="cls-6" d="M1314.42,504.44l-6.46-7.26v7.26h-2.73v-22.2H1308v13.05l6.34-7.29h3.81l-7.74,8.19,7.77,8.25Z"/><path class="cls-6" d="M1335.6,497.24h-13.14a5.15,5.15,0,0,0,5.34,5.16,5,5,0,0,0,3-.82,4.39,4.39,0,0,0,1.67-2.21h2.94a7.08,7.08,0,0,1-2.64,3.86,8,8,0,0,1-4.92,1.48,8.33,8.33,0,0,1-4.19-1,7.41,7.41,0,0,1-2.89-3,9.28,9.28,0,0,1-1-4.49,9.39,9.39,0,0,1,1-4.47,7.14,7.14,0,0,1,2.86-3,8.55,8.55,0,0,1,4.25-1,8.25,8.25,0,0,1,4.14,1,7.06,7.06,0,0,1,2.77,2.81,8.26,8.26,0,0,1,1,4A16.07,16.07,0,0,1,1335.6,497.24Zm-3.42-4.9a4.5,4.5,0,0,0-1.88-1.71,5.83,5.83,0,0,0-2.62-.59,5.07,5.07,0,0,0-3.53,1.32,5.37,5.37,0,0,0-1.66,3.66h10.38A5,5,0,0,0,1332.18,492.34Z"/><path class="cls-6" d="M1347.3,491.74a7.34,7.34,0,0,1,2.83-3,9,9,0,0,1,9.16.42,6.93,6.93,0,0,1,2.59,4.08h-2.94a4.21,4.21,0,0,0-1.63-2.37,5.06,5.06,0,0,0-3-.87,4.84,4.84,0,0,0-3.78,1.61,6.56,6.56,0,0,0-1.44,4.54,6.68,6.68,0,0,0,1.44,4.59,4.82,4.82,0,0,0,3.78,1.62,5.11,5.11,0,0,0,3-.84,4.26,4.26,0,0,0,1.65-2.4h2.94a7.24,7.24,0,0,1-2.64,4,7.91,7.91,0,0,1-5,1.51,8.19,8.19,0,0,1-4.16-1,7.3,7.3,0,0,1-2.83-3,9.46,9.46,0,0,1-1-4.5A9.28,9.28,0,0,1,1347.3,491.74Z"/><path class="cls-6" d="M1368.24,482.24v22.2h-2.73v-22.2Z"/><path class="cls-6" d="M1372.89,491.74a7.43,7.43,0,0,1,2.81-3,7.68,7.68,0,0,1,4-1,7.3,7.3,0,0,1,3.75.93,6.2,6.2,0,0,1,2.37,2.34v-3h2.76v16.44h-2.76v-3.06a6.43,6.43,0,0,1-2.41,2.39,7.24,7.24,0,0,1-3.74.94,7.45,7.45,0,0,1-4-1.08,7.57,7.57,0,0,1-2.79-3,9.44,9.44,0,0,1-1-4.44A9.21,9.21,0,0,1,1372.89,491.74ZM1385,493a5.27,5.27,0,0,0-2-2.11,5.74,5.74,0,0,0-5.6,0,5.22,5.22,0,0,0-2,2.1,6.68,6.68,0,0,0-.75,3.24,6.86,6.86,0,0,0,.75,3.29,5.31,5.31,0,0,0,2,2.13,5.43,5.43,0,0,0,2.79.73,5.53,5.53,0,0,0,2.81-.73,5.26,5.26,0,0,0,2-2.13,6.79,6.79,0,0,0,.75-3.26A6.68,6.68,0,0,0,1385,493Z"/><path class="cls-6" d="M1395.61,504.07a5.72,5.72,0,0,1-2.37-1.8,4.73,4.73,0,0,1-1-2.66h2.82a2.73,2.73,0,0,0,1.15,2,4.41,4.41,0,0,0,2.72.78,4,4,0,0,0,2.46-.69,2.11,2.11,0,0,0,.9-1.74,1.71,1.71,0,0,0-1-1.6,13.42,13.42,0,0,0-3-1,22,22,0,0,1-3-1,5.3,5.3,0,0,1-2-1.47,3.85,3.85,0,0,1-.82-2.57,3.89,3.89,0,0,1,.75-2.31,5.07,5.07,0,0,1,2.13-1.66,7.66,7.66,0,0,1,3.15-.62,6.73,6.73,0,0,1,4.41,1.38,5,5,0,0,1,1.8,3.78h-2.73a2.83,2.83,0,0,0-1-2.07,3.84,3.84,0,0,0-2.53-.78,3.91,3.91,0,0,0-2.34.63,1.92,1.92,0,0,0-.87,1.65,1.82,1.82,0,0,0,.52,1.34,3.84,3.84,0,0,0,1.32.84,23.14,23.14,0,0,0,2.21.7,23.65,23.65,0,0,1,2.88.95,5,5,0,0,1,1.9,1.39A3.73,3.73,0,0,1,1405,500a4.16,4.16,0,0,1-.75,2.43,5,5,0,0,1-2.12,1.7,7.54,7.54,0,0,1-3.13.61A8.5,8.5,0,0,1,1395.61,504.07Z"/><path class="cls-6" d="M1411.27,504.07a5.72,5.72,0,0,1-2.37-1.8,4.81,4.81,0,0,1-1-2.66h2.82a2.76,2.76,0,0,0,1.15,2,4.41,4.41,0,0,0,2.72.78,4,4,0,0,0,2.46-.69,2.11,2.11,0,0,0,.9-1.74,1.71,1.71,0,0,0-1-1.6,13.42,13.42,0,0,0-3-1,22,22,0,0,1-3-1,5.3,5.3,0,0,1-2-1.47,3.85,3.85,0,0,1-.82-2.57A3.89,3.89,0,0,1,1409,490a5.07,5.07,0,0,1,2.13-1.66,7.66,7.66,0,0,1,3.15-.62,6.73,6.73,0,0,1,4.41,1.38,5,5,0,0,1,1.8,3.78h-2.73a2.83,2.83,0,0,0-1-2.07,3.84,3.84,0,0,0-2.53-.78,3.91,3.91,0,0,0-2.34.63,2,2,0,0,0-.87,1.65,1.82,1.82,0,0,0,.52,1.34,3.84,3.84,0,0,0,1.32.84,23.14,23.14,0,0,0,2.21.7,23.65,23.65,0,0,1,2.88.95,5,5,0,0,1,1.9,1.39,3.73,3.73,0,0,1,.83,2.43,4.16,4.16,0,0,1-.75,2.43,5,5,0,0,1-2.12,1.7,7.54,7.54,0,0,1-3.13.61A8.5,8.5,0,0,1,1411.27,504.07Z"/><path class="cls-6" d="M1437.7,488.66a7.28,7.28,0,0,1,3.69-.93,7.67,7.67,0,0,1,4,1,7.45,7.45,0,0,1,2.79,3,9.21,9.21,0,0,1,1,4.42,9.44,9.44,0,0,1-1,4.44,7.46,7.46,0,0,1-6.78,4.11,7.3,7.3,0,0,1-3.73-.93,6.34,6.34,0,0,1-2.42-2.37v3h-2.73v-22.2h2.73v8.82A6.45,6.45,0,0,1,1437.7,488.66Zm8,4.26a5.18,5.18,0,0,0-2-2.1,5.62,5.62,0,0,0-2.81-.72,5.45,5.45,0,0,0-2.77.74,5.37,5.37,0,0,0-2,2.13,6.58,6.58,0,0,0-.77,3.22,6.68,6.68,0,0,0,.77,3.26,5.37,5.37,0,0,0,2,2.13,5.44,5.44,0,0,0,2.77.73,5.53,5.53,0,0,0,2.81-.73,5.26,5.26,0,0,0,2-2.13,6.86,6.86,0,0,0,.75-3.29A6.68,6.68,0,0,0,1445.65,492.92Z"/><path class="cls-6" d="M1455.78,503.66a7.46,7.46,0,0,1-2.94-3,9.17,9.17,0,0,1-1.07-4.49,8.87,8.87,0,0,1,1.1-4.45,7.53,7.53,0,0,1,3-3,9.12,9.12,0,0,1,8.46,0,7.57,7.57,0,0,1,3,3,9.63,9.63,0,0,1,0,9,7.8,7.8,0,0,1-3,3,8.73,8.73,0,0,1-4.26,1A8.4,8.4,0,0,1,1455.78,503.66Zm6.94-2a5.26,5.26,0,0,0,2.09-2.07,6.63,6.63,0,0,0,.79-3.36,6.73,6.73,0,0,0-.78-3.36,5.09,5.09,0,0,0-2-2.05,5.84,5.84,0,0,0-5.47,0,5,5,0,0,0-2,2.05,7,7,0,0,0-.75,3.36,7.14,7.14,0,0,0,.74,3.39,4.89,4.89,0,0,0,2,2.06,5.52,5.52,0,0,0,2.7.67A5.76,5.76,0,0,0,1462.72,501.62Z"/><path class="cls-6" d="M1475,503.66a7.46,7.46,0,0,1-2.94-3,9.17,9.17,0,0,1-1.06-4.49,8.87,8.87,0,0,1,1.09-4.45,7.56,7.56,0,0,1,3-3,9.12,9.12,0,0,1,8.46,0,7.55,7.55,0,0,1,3,3,9.56,9.56,0,0,1,0,9,7.77,7.77,0,0,1-3,3,8.73,8.73,0,0,1-4.26,1A8.44,8.44,0,0,1,1475,503.66Zm7-2a5.24,5.24,0,0,0,2.08-2.07,6.63,6.63,0,0,0,.8-3.36,6.73,6.73,0,0,0-.78-3.36,5.09,5.09,0,0,0-2-2.05,5.86,5.86,0,0,0-5.48,0,4.93,4.93,0,0,0-2,2.05,7,7,0,0,0-.75,3.36,7.14,7.14,0,0,0,.73,3.39,4.91,4.91,0,0,0,2,2.06,5.52,5.52,0,0,0,2.7.67A5.76,5.76,0,0,0,1481.93,501.62Z"/><path class="cls-6" d="M1500.38,504.44l-6.45-7.26v7.26h-2.73v-22.2h2.73v13.05l6.33-7.29h3.81l-7.74,8.19,7.77,8.25Z"/><path class="cls-6" d="M1506.74,484.79a1.86,1.86,0,0,1,1.32-3.18,1.69,1.69,0,0,1,1.27.54,1.91,1.91,0,0,1,0,2.64,1.69,1.69,0,0,1-1.27.54A1.8,1.8,0,0,1,1506.74,484.79Zm2.64,3.21v16.44h-2.73V488Z"/><path class="cls-6" d="M1526.9,489.52a7,7,0,0,1,1.86,5.23v9.69h-2.7v-9.3a5.27,5.27,0,0,0-1.23-3.76,4.4,4.4,0,0,0-3.36-1.31,4.49,4.49,0,0,0-3.43,1.35,5.52,5.52,0,0,0-1.28,3.93v9.09H1514V488h2.73v2.34a5.43,5.43,0,0,1,2.21-1.95,6.82,6.82,0,0,1,3.07-.69A6.67,6.67,0,0,1,1526.9,489.52Z"/><path class="cls-6" d="M1543.75,488.66a6.09,6.09,0,0,1,2.38,2.34v-3h2.77v16.8a8.23,8.23,0,0,1-1,4,6.91,6.91,0,0,1-2.75,2.74,8.45,8.45,0,0,1-4.16,1,9.11,9.11,0,0,1-5.4-1.53,6,6,0,0,1-2.55-4.17h2.7a4.31,4.31,0,0,0,1.86,2.42,6.09,6.09,0,0,0,3.39.91,5,5,0,0,0,3.68-1.41,5.32,5.32,0,0,0,1.42-4v-3.45a6.62,6.62,0,0,1-2.39,2.4,7.12,7.12,0,0,1-3.73,1,7.49,7.49,0,0,1-6.78-4.11,9.44,9.44,0,0,1-1-4.44,9.21,9.21,0,0,1,1-4.42,7.43,7.43,0,0,1,2.81-3,7.68,7.68,0,0,1,4-1A7.33,7.33,0,0,1,1543.75,488.66Zm1.63,4.29a5.27,5.27,0,0,0-2-2.11,5.74,5.74,0,0,0-5.6,0,5.22,5.22,0,0,0-2,2.1,6.68,6.68,0,0,0-.75,3.24,6.86,6.86,0,0,0,.75,3.29,5.31,5.31,0,0,0,2,2.13,5.43,5.43,0,0,0,2.79.73,5.53,5.53,0,0,0,2.81-.73,5.26,5.26,0,0,0,2-2.13,6.79,6.79,0,0,0,.75-3.26A6.68,6.68,0,0,0,1545.38,493Z"/><path class="cls-6" d="M1264.8,532.25v9.69a2.32,2.32,0,0,0,.51,1.7,2.52,2.52,0,0,0,1.77.49h2v2.31h-2.46a4.9,4.9,0,0,1-3.42-1.05,4.51,4.51,0,0,1-1.14-3.45v-9.69h-2.13V530h2.13v-4.14h2.73V530h4.29v2.25Z"/><path class="cls-6" d="M1283.92,530.5a5.62,5.62,0,0,1,2.35,2.38,8.08,8.08,0,0,1,.86,3.87v9.69h-2.7v-9.3a5.27,5.27,0,0,0-1.23-3.76,4.4,4.4,0,0,0-3.36-1.31,4.51,4.51,0,0,0-3.44,1.35,5.52,5.52,0,0,0-1.28,3.93v9.09h-2.73v-22.2h2.73v8.1a5.45,5.45,0,0,1,2.24-2,7.26,7.26,0,0,1,3.2-.69A7.07,7.07,0,0,1,1283.92,530.5Z"/><path class="cls-6" d="M1296.38,530.48a6.37,6.37,0,0,1,3.26-.78v2.82h-.72q-4.59,0-4.59,5v8.94h-2.73V530h2.73v2.67A5.23,5.23,0,0,1,1296.38,530.48Z"/><path class="cls-6" d="M1305.77,545.66a7.46,7.46,0,0,1-2.94-3,9.17,9.17,0,0,1-1.06-4.49,8.87,8.87,0,0,1,1.09-4.45,7.56,7.56,0,0,1,3-3,9.12,9.12,0,0,1,8.46,0,7.57,7.57,0,0,1,3,3,9.63,9.63,0,0,1,0,9,7.8,7.8,0,0,1-3,3,8.73,8.73,0,0,1-4.26,1.05A8.44,8.44,0,0,1,1305.77,545.66Zm7-2a5.26,5.26,0,0,0,2.09-2.07,7.58,7.58,0,0,0,0-6.72,5.09,5.09,0,0,0-2-2.05,5.86,5.86,0,0,0-5.48,0,4.93,4.93,0,0,0-2,2.05,7,7,0,0,0-.75,3.36,7.14,7.14,0,0,0,.73,3.39,4.91,4.91,0,0,0,2,2.06,5.52,5.52,0,0,0,2.7.67A5.76,5.76,0,0,0,1312.72,543.62Z"/><path class="cls-6" d="M1336.57,530v16.44h-2.73V544a5.31,5.31,0,0,1-2.17,2,6.74,6.74,0,0,1-3.08.7,7.37,7.37,0,0,1-3.45-.79,5.78,5.78,0,0,1-2.41-2.39,7.85,7.85,0,0,1-.89-3.87V530h2.7v9.27a5.25,5.25,0,0,0,1.23,3.74,4.39,4.39,0,0,0,3.36,1.3,4.49,4.49,0,0,0,3.45-1.35,5.56,5.56,0,0,0,1.26-3.93v-9Z"/><path class="cls-6" d="M1351.71,530.66a6.19,6.19,0,0,1,2.39,2.34v-3h2.76v16.8a8.23,8.23,0,0,1-1,4,6.84,6.84,0,0,1-2.75,2.74,8.41,8.41,0,0,1-4.15,1,9.12,9.12,0,0,1-5.41-1.53,6,6,0,0,1-2.55-4.17h2.7a4.31,4.31,0,0,0,1.86,2.42,6.1,6.1,0,0,0,3.4.91,5,5,0,0,0,3.67-1.41,5.32,5.32,0,0,0,1.43-4v-3.45a6.65,6.65,0,0,1-2.4,2.4,7.12,7.12,0,0,1-3.73,1,7.49,7.49,0,0,1-6.78-4.11,9.44,9.44,0,0,1-1-4.44,9.21,9.21,0,0,1,1-4.42,7.43,7.43,0,0,1,2.81-3,7.68,7.68,0,0,1,4-1A7.33,7.33,0,0,1,1351.71,530.66Zm1.64,4.29a5.29,5.29,0,0,0-2-2.11,5.74,5.74,0,0,0-5.6,0,5.22,5.22,0,0,0-2,2.1,6.68,6.68,0,0,0-.75,3.24,6.86,6.86,0,0,0,.75,3.29,5.31,5.31,0,0,0,2,2.13,5.73,5.73,0,0,0,5.6,0,5.28,5.28,0,0,0,2-2.13,6.79,6.79,0,0,0,.75-3.26A6.68,6.68,0,0,0,1353.35,535Z"/><path class="cls-6" d="M1373,530.5a5.62,5.62,0,0,1,2.35,2.38,8.08,8.08,0,0,1,.86,3.87v9.69h-2.7v-9.3a5.27,5.27,0,0,0-1.23-3.76,4.4,4.4,0,0,0-3.36-1.31,4.51,4.51,0,0,0-3.44,1.35,5.51,5.51,0,0,0-1.27,3.93v9.09h-2.73v-22.2h2.73v8.1a5.36,5.36,0,0,1,2.23-2,7.26,7.26,0,0,1,3.2-.69A7.07,7.07,0,0,1,1373,530.5Z"/><path class="cls-6" d="M1410.59,530l-5.13,16.44h-2.82l-4-13.05-4,13.05h-2.82L1386.74,530h2.79l3.78,13.8,4.08-13.8h2.79l4,13.83,3.72-13.83Z"/><path class="cls-6" d="M1428.21,539.24h-13.15a5.17,5.17,0,0,0,5.34,5.16,5.06,5.06,0,0,0,3-.82,4.37,4.37,0,0,0,1.66-2.21H1428a7.08,7.08,0,0,1-2.64,3.86,8,8,0,0,1-4.92,1.48,8.29,8.29,0,0,1-4.18-1.05,7.43,7.43,0,0,1-2.9-3,9.28,9.28,0,0,1-1-4.49,9.39,9.39,0,0,1,1-4.47,7.16,7.16,0,0,1,2.87-3,8.51,8.51,0,0,1,4.24-1,8.25,8.25,0,0,1,4.14,1,7,7,0,0,1,2.78,2.81,8.26,8.26,0,0,1,1,4C1428.29,538.11,1428.26,538.66,1428.21,539.24Zm-3.43-4.9a4.47,4.47,0,0,0-1.87-1.71,5.87,5.87,0,0,0-2.63-.59,5,5,0,0,0-3.52,1.32,5.38,5.38,0,0,0-1.67,3.66h10.38A5,5,0,0,0,1424.78,534.34Z"/><path class="cls-6" d="M1437.09,530.66a7.28,7.28,0,0,1,3.69-.93,7.67,7.67,0,0,1,4,1,7.45,7.45,0,0,1,2.79,3,9.21,9.21,0,0,1,1,4.42,9.44,9.44,0,0,1-1,4.44,7.49,7.49,0,0,1-6.78,4.11,7.33,7.33,0,0,1-3.74-.93,6.31,6.31,0,0,1-2.41-2.37v3h-2.73v-22.2h2.73v8.82A6.45,6.45,0,0,1,1437.09,530.66Zm8,4.26a5.2,5.2,0,0,0-2-2.1,5.59,5.59,0,0,0-2.8-.72,5.48,5.48,0,0,0-2.78.74,5.37,5.37,0,0,0-2,2.13,6.58,6.58,0,0,0-.76,3.22,6.68,6.68,0,0,0,.76,3.26,5.37,5.37,0,0,0,2,2.13,5.7,5.7,0,0,0,5.58,0,5.28,5.28,0,0,0,2-2.13,6.86,6.86,0,0,0,.75-3.29A6.68,6.68,0,0,0,1445,534.92Z"/><path class="cls-6" d="M1454.61,546.07a5.72,5.72,0,0,1-2.37-1.8,4.81,4.81,0,0,1-1-2.66h2.82a2.76,2.76,0,0,0,1.15,2,4.41,4.41,0,0,0,2.72.78,4,4,0,0,0,2.46-.69,2.11,2.11,0,0,0,.9-1.74,1.71,1.71,0,0,0-1-1.6,13.42,13.42,0,0,0-3-1,22,22,0,0,1-3-1,5.3,5.3,0,0,1-2-1.47,3.85,3.85,0,0,1-.82-2.57,3.89,3.89,0,0,1,.75-2.31,5.07,5.07,0,0,1,2.13-1.66,7.66,7.66,0,0,1,3.15-.62,6.73,6.73,0,0,1,4.41,1.38,5,5,0,0,1,1.8,3.78h-2.73a2.83,2.83,0,0,0-1-2.07,3.84,3.84,0,0,0-2.53-.78,3.91,3.91,0,0,0-2.34.63,2,2,0,0,0-.87,1.65,1.82,1.82,0,0,0,.52,1.34,3.84,3.84,0,0,0,1.32.84,23.14,23.14,0,0,0,2.21.7,23.65,23.65,0,0,1,2.88.95,5,5,0,0,1,1.9,1.39A3.73,3.73,0,0,1,1464,542a4.16,4.16,0,0,1-.75,2.43,5,5,0,0,1-2.12,1.7,7.54,7.54,0,0,1-3.13.61A8.5,8.5,0,0,1,1454.61,546.07Z"/><path class="cls-6" d="M1467.93,526.79a1.86,1.86,0,0,1,1.32-3.18,1.74,1.74,0,0,1,1.28.54,1.94,1.94,0,0,1,0,2.64,1.74,1.74,0,0,1-1.28.54A1.8,1.8,0,0,1,1467.93,526.79Zm2.64,3.21v16.44h-2.73V530Z"/><path class="cls-6" d="M1478.55,532.25v9.69a2.32,2.32,0,0,0,.51,1.7,2.52,2.52,0,0,0,1.77.49h2v2.31h-2.46a4.9,4.9,0,0,1-3.42-1.05,4.51,4.51,0,0,1-1.14-3.45v-9.69h-2.13V530h2.13v-4.14h2.73V530h4.29v2.25Z"/><path class="cls-6" d="M1501.05,539.24h-13.14a5.17,5.17,0,0,0,5.34,5.16,5.06,5.06,0,0,0,3-.82,4.37,4.37,0,0,0,1.66-2.21h2.94a7.08,7.08,0,0,1-2.64,3.86,8,8,0,0,1-4.92,1.48,8.29,8.29,0,0,1-4.18-1.05,7.43,7.43,0,0,1-2.9-3,9.28,9.28,0,0,1-1.05-4.49,9.39,9.39,0,0,1,1-4.47,7.16,7.16,0,0,1,2.87-3,8.51,8.51,0,0,1,4.24-1,8.25,8.25,0,0,1,4.14,1,7.09,7.09,0,0,1,2.78,2.81,8.26,8.26,0,0,1,1,4A16.07,16.07,0,0,1,1501.05,539.24Zm-3.42-4.9a4.47,4.47,0,0,0-1.87-1.71,5.87,5.87,0,0,0-2.63-.59,5,5,0,0,0-3.52,1.32,5.38,5.38,0,0,0-1.67,3.66h10.38A5,5,0,0,0,1497.63,534.34Z"/><path class="cls-6" d="M1515.74,545.66a7.46,7.46,0,0,1-2.94-3,9.17,9.17,0,0,1-1.06-4.49,8.87,8.87,0,0,1,1.09-4.45,7.56,7.56,0,0,1,3-3,9.12,9.12,0,0,1,8.46,0,7.55,7.55,0,0,1,3,3,9.56,9.56,0,0,1,0,9,7.77,7.77,0,0,1-3,3,8.73,8.73,0,0,1-4.26,1.05A8.44,8.44,0,0,1,1515.74,545.66Zm7-2a5.24,5.24,0,0,0,2.08-2.07,6.63,6.63,0,0,0,.8-3.36,6.73,6.73,0,0,0-.78-3.36,5.09,5.09,0,0,0-2-2.05,5.86,5.86,0,0,0-5.48,0,4.93,4.93,0,0,0-2,2.05,7,7,0,0,0-.75,3.36,7.14,7.14,0,0,0,.73,3.39,4.91,4.91,0,0,0,2,2.06,5.52,5.52,0,0,0,2.7.67A5.76,5.76,0,0,0,1522.69,543.62Z"/><path class="cls-6" d="M1536.74,530.48a6.37,6.37,0,0,1,3.26-.78v2.82h-.72q-4.59,0-4.59,5v8.94H1532V530h2.73v2.67A5.23,5.23,0,0,1,1536.74,530.48Z"/><path class="cls-6" d="M1295.77,587.66a7.46,7.46,0,0,1-2.94-3,9.17,9.17,0,0,1-1.07-4.49,8.87,8.87,0,0,1,1.1-4.45,7.53,7.53,0,0,1,3-3,9.12,9.12,0,0,1,8.46,0,7.57,7.57,0,0,1,3,3,9.63,9.63,0,0,1,0,9,7.8,7.8,0,0,1-3,3,8.73,8.73,0,0,1-4.26,1.05A8.4,8.4,0,0,1,1295.77,587.66Zm6.94-2a5.26,5.26,0,0,0,2.09-2.07,6.63,6.63,0,0,0,.79-3.36,6.73,6.73,0,0,0-.78-3.36,5.09,5.09,0,0,0-2-2.05,5.84,5.84,0,0,0-5.47,0,5,5,0,0,0-2,2.05,7,7,0,0,0-.75,3.36,7.14,7.14,0,0,0,.74,3.39,4.89,4.89,0,0,0,2,2.06,5.52,5.52,0,0,0,2.7.67A5.76,5.76,0,0,0,1302.71,585.62Z"/><path class="cls-6" d="M1318.11,585.92l5.1-13.92h2.91l-6.45,16.44h-3.18L1310,572H1313Z"/><path class="cls-6" d="M1343.73,581.24h-13.14a5.15,5.15,0,0,0,5.34,5.16,5,5,0,0,0,3-.82,4.39,4.39,0,0,0,1.67-2.21h2.94a7.08,7.08,0,0,1-2.64,3.86,8,8,0,0,1-4.92,1.48,8.33,8.33,0,0,1-4.19-1.05,7.41,7.41,0,0,1-2.89-3,9.28,9.28,0,0,1-1-4.49,9.39,9.39,0,0,1,1-4.47,7.14,7.14,0,0,1,2.86-3,8.55,8.55,0,0,1,4.25-1,8.25,8.25,0,0,1,4.14,1,7.06,7.06,0,0,1,2.77,2.81,8.26,8.26,0,0,1,1,4A16.07,16.07,0,0,1,1343.73,581.24Zm-3.42-4.9a4.5,4.5,0,0,0-1.88-1.71,5.83,5.83,0,0,0-2.62-.59,5.07,5.07,0,0,0-3.53,1.32,5.37,5.37,0,0,0-1.66,3.66H1341A5,5,0,0,0,1340.31,576.34Z"/><path class="cls-6" d="M1352.21,572.48a6.31,6.31,0,0,1,3.25-.78v2.82h-.72q-4.59,0-4.59,5v8.94h-2.73V572h2.73v2.67A5.19,5.19,0,0,1,1352.21,572.48Z"/><path class="cls-6" d="M1370,574.25v9.69a2.32,2.32,0,0,0,.51,1.7,2.52,2.52,0,0,0,1.77.49h2v2.31h-2.46a4.9,4.9,0,0,1-3.42-1.05,4.51,4.51,0,0,1-1.14-3.45v-9.69h-2.13V572h2.13v-4.14H1370V572h4.29v2.25Z"/><path class="cls-6" d="M1389.06,572.5a5.64,5.64,0,0,1,2.36,2.38,8.08,8.08,0,0,1,.85,3.87v9.69h-2.7v-9.3a5.27,5.27,0,0,0-1.23-3.76,4.4,4.4,0,0,0-3.36-1.31,4.49,4.49,0,0,0-3.43,1.35,5.52,5.52,0,0,0-1.28,3.93v9.09h-2.73v-22.2h2.73v8.1a5.39,5.39,0,0,1,2.24-2,7.21,7.21,0,0,1,3.19-.69A7.07,7.07,0,0,1,1389.06,572.5Z"/><path class="cls-6" d="M1411.66,581.24h-13.14a5.15,5.15,0,0,0,5.34,5.16,5,5,0,0,0,3-.82,4.39,4.39,0,0,0,1.67-2.21h2.94a7.08,7.08,0,0,1-2.64,3.86,8,8,0,0,1-4.92,1.48,8.33,8.33,0,0,1-4.19-1.05,7.34,7.34,0,0,1-2.89-3,10.13,10.13,0,0,1,0-9,7.08,7.08,0,0,1,2.86-3,8.55,8.55,0,0,1,4.25-1,8.25,8.25,0,0,1,4.14,1,7.06,7.06,0,0,1,2.77,2.81,8.26,8.26,0,0,1,1,4A16.07,16.07,0,0,1,1411.66,581.24Zm-3.42-4.9a4.5,4.5,0,0,0-1.88-1.71,5.83,5.83,0,0,0-2.62-.59,5.07,5.07,0,0,0-3.53,1.32,5.43,5.43,0,0,0-1.67,3.66h10.39A5,5,0,0,0,1408.24,576.34Z"/><path class="cls-6" d="M1428.5,572.68a7.25,7.25,0,0,1,3.74-.95,7.68,7.68,0,0,1,4,1,7.36,7.36,0,0,1,2.81,3,9.21,9.21,0,0,1,1,4.42,9.44,9.44,0,0,1-1,4.44,7.49,7.49,0,0,1-6.78,4.11,7.18,7.18,0,0,1-3.71-.94,6.75,6.75,0,0,1-2.44-2.36v10.83h-2.73V572h2.73v3A6.48,6.48,0,0,1,1428.5,572.68Zm8,4.24a5.14,5.14,0,0,0-2-2.1,5.59,5.59,0,0,0-2.8-.72,5.48,5.48,0,0,0-2.78.74,5.37,5.37,0,0,0-2,2.13,6.58,6.58,0,0,0-.76,3.22,6.68,6.68,0,0,0,.76,3.26,5.37,5.37,0,0,0,2,2.13,5.7,5.7,0,0,0,5.58,0,5.22,5.22,0,0,0,2-2.13,6.86,6.86,0,0,0,.75-3.29A6.68,6.68,0,0,0,1436.5,576.92Z"/><path class="cls-6" d="M1455.16,572.5a5.64,5.64,0,0,1,2.36,2.38,8.08,8.08,0,0,1,.85,3.87v9.69h-2.7v-9.3a5.27,5.27,0,0,0-1.23-3.76,4.4,4.4,0,0,0-3.36-1.31,4.49,4.49,0,0,0-3.43,1.35,5.52,5.52,0,0,0-1.28,3.93v9.09h-2.73v-22.2h2.73v8.1a5.39,5.39,0,0,1,2.24-2,7.21,7.21,0,0,1,3.19-.69A7.07,7.07,0,0,1,1455.16,572.5Z"/><path class="cls-6" d="M1465.83,587.66a7.46,7.46,0,0,1-2.94-3,9.17,9.17,0,0,1-1.07-4.49,8.87,8.87,0,0,1,1.1-4.45,7.53,7.53,0,0,1,3-3,9.14,9.14,0,0,1,8.47,0,7.55,7.55,0,0,1,3,3,9.56,9.56,0,0,1,0,9,7.77,7.77,0,0,1-3,3,8.74,8.74,0,0,1-4.27,1.05A8.4,8.4,0,0,1,1465.83,587.66Zm7-2a5.3,5.3,0,0,0,2.08-2.07,6.63,6.63,0,0,0,.8-3.36,6.73,6.73,0,0,0-.78-3.36,5.12,5.12,0,0,0-2.05-2.05,5.84,5.84,0,0,0-5.47,0,5,5,0,0,0-2,2.05,7,7,0,0,0-.75,3.36,7.14,7.14,0,0,0,.74,3.39,4.89,4.89,0,0,0,2,2.06,5.52,5.52,0,0,0,2.7.67A5.8,5.8,0,0,0,1472.78,585.62Z"/><path class="cls-6" d="M1494.92,573.52a7,7,0,0,1,1.86,5.23v9.69h-2.7v-9.3a5.27,5.27,0,0,0-1.23-3.76,4.4,4.4,0,0,0-3.36-1.31,4.51,4.51,0,0,0-3.44,1.35,5.51,5.51,0,0,0-1.27,3.93v9.09h-2.73V572h2.73v2.34a5.41,5.41,0,0,1,2.2-2,6.86,6.86,0,0,1,3.08-.69A6.67,6.67,0,0,1,1494.92,573.52Z"/><path class="cls-6" d="M1516.16,581.24H1503a5.15,5.15,0,0,0,5.34,5.16,5.06,5.06,0,0,0,3-.82,4.37,4.37,0,0,0,1.66-2.21h2.94a7.08,7.08,0,0,1-2.64,3.86,8,8,0,0,1-4.92,1.48,8.33,8.33,0,0,1-4.19-1.05,7.41,7.41,0,0,1-2.89-3,9.28,9.28,0,0,1-1-4.49,9.39,9.39,0,0,1,1-4.47,7.14,7.14,0,0,1,2.86-3,8.55,8.55,0,0,1,4.25-1,8.25,8.25,0,0,1,4.14,1,7.09,7.09,0,0,1,2.78,2.81,8.26,8.26,0,0,1,1,4A16.07,16.07,0,0,1,1516.16,581.24Zm-3.42-4.9a4.47,4.47,0,0,0-1.87-1.71,5.87,5.87,0,0,0-2.63-.59,5.07,5.07,0,0,0-3.53,1.32,5.37,5.37,0,0,0-1.66,3.66h10.38A5,5,0,0,0,1512.74,576.34Z"/><circle class="cls-5" cx="1404.01" cy="289.85" r="88.92"/><text class="cls-3" transform="translate(1658.7 445.27)">Keeping Track</text><path class="cls-6" d="M1653.21,483.68v20.76h-2.73V489l-6.9,15.48h-1.92l-6.93-15.51v15.51H1632V483.68h2.94l7.68,17.16,7.68-17.16Z"/><path class="cls-6" d="M1657.83,491.74a7.43,7.43,0,0,1,2.81-3,7.68,7.68,0,0,1,4-1,7.3,7.3,0,0,1,3.75.93,6.2,6.2,0,0,1,2.37,2.34v-3h2.76v16.44h-2.76v-3.06a6.43,6.43,0,0,1-2.41,2.39,7.24,7.24,0,0,1-3.74.94,7.45,7.45,0,0,1-4-1.08,7.57,7.57,0,0,1-2.79-3,9.44,9.44,0,0,1-1-4.44A9.21,9.21,0,0,1,1657.83,491.74ZM1670,493a5.27,5.27,0,0,0-2-2.11,5.74,5.74,0,0,0-5.6,0,5.22,5.22,0,0,0-2,2.1,6.68,6.68,0,0,0-.75,3.24,6.86,6.86,0,0,0,.75,3.29,5.31,5.31,0,0,0,2,2.13,5.43,5.43,0,0,0,2.79.73,5.53,5.53,0,0,0,2.81-.73,5.26,5.26,0,0,0,2-2.13,6.79,6.79,0,0,0,.75-3.26A6.68,6.68,0,0,0,1670,493Z"/><path class="cls-6" d="M1691,489.52a7,7,0,0,1,1.86,5.23v9.69h-2.71v-9.3a5.32,5.32,0,0,0-1.22-3.76,4.44,4.44,0,0,0-3.37-1.31,4.49,4.49,0,0,0-3.43,1.35,5.52,5.52,0,0,0-1.28,3.93v9.09h-2.73V488h2.73v2.34a5.43,5.43,0,0,1,2.21-1.95,6.82,6.82,0,0,1,3.07-.69A6.71,6.71,0,0,1,1691,489.52Z"/><path class="cls-6" d="M1711.9,488v16.44h-2.73V502a5.34,5.34,0,0,1-2.18,2,6.7,6.7,0,0,1-3.07.7,7.37,7.37,0,0,1-3.45-.79,5.8,5.8,0,0,1-2.42-2.39,7.85,7.85,0,0,1-.88-3.87V488h2.7v9.27a5.25,5.25,0,0,0,1.23,3.74,4.39,4.39,0,0,0,3.36,1.3,4.49,4.49,0,0,0,3.45-1.35,5.56,5.56,0,0,0,1.26-3.93v-9Z"/><path class="cls-6" d="M1716.52,491.74a7.4,7.4,0,0,1,2.8-3,7.71,7.71,0,0,1,4-1,7.3,7.3,0,0,1,3.75.93,6.2,6.2,0,0,1,2.37,2.34v-3h2.76v16.44h-2.76v-3.06a6.39,6.39,0,0,1-2.42,2.39,7.2,7.2,0,0,1-3.73.94,7.45,7.45,0,0,1-4-1.08,7.57,7.57,0,0,1-2.79-3,9.44,9.44,0,0,1-1-4.44A9.21,9.21,0,0,1,1716.52,491.74Zm12.15,1.21a5.23,5.23,0,0,0-2-2.11,5.72,5.72,0,0,0-5.59,0,5.22,5.22,0,0,0-2,2.1,6.68,6.68,0,0,0-.75,3.24,6.86,6.86,0,0,0,.75,3.29,5.31,5.31,0,0,0,2,2.13,5.43,5.43,0,0,0,2.79.73,5.49,5.49,0,0,0,2.8-.73,5.22,5.22,0,0,0,2-2.13,6.79,6.79,0,0,0,.75-3.26A6.68,6.68,0,0,0,1728.67,493Z"/><path class="cls-6" d="M1739.53,482.24v22.2h-2.73v-22.2Z"/><path class="cls-6" d="M1746.91,482.24v22.2h-2.73v-22.2Z"/><path class="cls-6" d="M1765.72,488l-9.9,24.18H1753l3.24-7.92L1749.61,488h3l5.16,13.32,5.1-13.32Z"/><path class="cls-6" d="M1776.47,491.74a7.4,7.4,0,0,1,2.8-3,7.71,7.71,0,0,1,4-1,7.3,7.3,0,0,1,3.75.93,6.2,6.2,0,0,1,2.37,2.34v-3h2.76v16.44h-2.76v-3.06a6.46,6.46,0,0,1-2.42,2.39,7.2,7.2,0,0,1-3.73.94,7.45,7.45,0,0,1-4-1.08,7.57,7.57,0,0,1-2.79-3,9.44,9.44,0,0,1-1-4.44A9.21,9.21,0,0,1,1776.47,491.74Zm12.15,1.21a5.29,5.29,0,0,0-2-2.11,5.72,5.72,0,0,0-5.59,0,5.22,5.22,0,0,0-2,2.1,6.68,6.68,0,0,0-.75,3.24,6.86,6.86,0,0,0,.75,3.29,5.31,5.31,0,0,0,2,2.13,5.43,5.43,0,0,0,2.79.73,5.49,5.49,0,0,0,2.8-.73,5.28,5.28,0,0,0,2-2.13,6.79,6.79,0,0,0,.75-3.26A6.68,6.68,0,0,0,1788.62,493Z"/><path class="cls-6" d="M1796.75,491.74a7.4,7.4,0,0,1,2.8-3,7.77,7.77,0,0,1,4-1,7.44,7.44,0,0,1,3.57.89,6.38,6.38,0,0,1,2.52,2.32v-8.7h2.76v22.2h-2.76v-3.09a6.4,6.4,0,0,1-2.4,2.42,7.14,7.14,0,0,1-3.72.94,7.46,7.46,0,0,1-6.78-4.11,9.44,9.44,0,0,1-1-4.44A9.21,9.21,0,0,1,1796.75,491.74ZM1808.9,493a5.29,5.29,0,0,0-2-2.11,5.72,5.72,0,0,0-5.59,0,5.22,5.22,0,0,0-2,2.1,6.68,6.68,0,0,0-.75,3.24,6.86,6.86,0,0,0,.75,3.29,5.31,5.31,0,0,0,2,2.13,5.43,5.43,0,0,0,2.79.73,5.49,5.49,0,0,0,2.8-.73,5.28,5.28,0,0,0,2-2.13,6.79,6.79,0,0,0,.75-3.26A6.68,6.68,0,0,0,1808.9,493Z"/><path class="cls-6" d="M1817,491.74a7.43,7.43,0,0,1,2.81-3,7.73,7.73,0,0,1,4-1,7.44,7.44,0,0,1,3.57.89,6.38,6.38,0,0,1,2.52,2.32v-8.7h2.76v22.2h-2.76v-3.09a6.4,6.4,0,0,1-2.4,2.42,7.14,7.14,0,0,1-3.72.94,7.49,7.49,0,0,1-6.78-4.11,9.44,9.44,0,0,1-1-4.44A9.21,9.21,0,0,1,1817,491.74Zm12.15,1.21a5.27,5.27,0,0,0-2-2.11,5.74,5.74,0,0,0-5.6,0,5.22,5.22,0,0,0-2,2.1,6.68,6.68,0,0,0-.75,3.24,6.86,6.86,0,0,0,.75,3.29,5.31,5.31,0,0,0,2,2.13,5.43,5.43,0,0,0,2.79.73,5.53,5.53,0,0,0,2.81-.73,5.26,5.26,0,0,0,2-2.13,6.79,6.79,0,0,0,.75-3.26A6.68,6.68,0,0,0,1829.18,493Z"/><path class="cls-6" d="M1860.24,497.24h-13.15a5.17,5.17,0,0,0,5.35,5.16,5,5,0,0,0,3-.82,4.39,4.39,0,0,0,1.67-2.21H1860a7.08,7.08,0,0,1-2.64,3.86,8,8,0,0,1-4.92,1.48,8.33,8.33,0,0,1-4.19-1,7.43,7.43,0,0,1-2.9-3,9.28,9.28,0,0,1-1-4.49,9.39,9.39,0,0,1,1-4.47,7.16,7.16,0,0,1,2.87-3,8.52,8.52,0,0,1,4.25-1,8.25,8.25,0,0,1,4.14,1,7.06,7.06,0,0,1,2.77,2.81,8.26,8.26,0,0,1,1,4A16.07,16.07,0,0,1,1860.24,497.24Zm-3.42-4.9a4.5,4.5,0,0,0-1.88-1.71,5.83,5.83,0,0,0-2.62-.59,5.05,5.05,0,0,0-3.53,1.32,5.38,5.38,0,0,0-1.67,3.66h10.39A5,5,0,0,0,1856.82,492.34Z"/><path class="cls-6" d="M1870.05,501.92l5.1-13.92h2.91l-6.45,16.44h-3.18L1862,488h2.94Z"/><path class="cls-6" d="M1895.67,497.24h-13.14a5.15,5.15,0,0,0,5.34,5.16,5.06,5.06,0,0,0,3-.82,4.37,4.37,0,0,0,1.66-2.21h2.94a7.08,7.08,0,0,1-2.64,3.86,8,8,0,0,1-4.92,1.48,8.33,8.33,0,0,1-4.19-1,7.41,7.41,0,0,1-2.89-3,9.28,9.28,0,0,1-1-4.49,9.39,9.39,0,0,1,1-4.47,7.14,7.14,0,0,1,2.86-3,8.55,8.55,0,0,1,4.25-1,8.25,8.25,0,0,1,4.14,1,7.09,7.09,0,0,1,2.78,2.81,8.26,8.26,0,0,1,1,4A16.07,16.07,0,0,1,1895.67,497.24Zm-3.42-4.9a4.47,4.47,0,0,0-1.87-1.71,5.9,5.9,0,0,0-2.63-.59,5.07,5.07,0,0,0-3.53,1.32,5.37,5.37,0,0,0-1.66,3.66h10.38A5,5,0,0,0,1892.25,492.34Z"/><path class="cls-6" d="M1912.23,489.52a7,7,0,0,1,1.86,5.23v9.69h-2.7v-9.3a5.27,5.27,0,0,0-1.23-3.76,4.4,4.4,0,0,0-3.36-1.31,4.49,4.49,0,0,0-3.43,1.35,5.52,5.52,0,0,0-1.28,3.93v9.09h-2.73V488h2.73v2.34a5.43,5.43,0,0,1,2.21-1.95,6.82,6.82,0,0,1,3.07-.69A6.67,6.67,0,0,1,1912.23,489.52Z"/><path class="cls-6" d="M1921.89,490.25v9.69a2.32,2.32,0,0,0,.51,1.7,2.52,2.52,0,0,0,1.77.49h2v2.31h-2.46a4.9,4.9,0,0,1-3.42-1.05,4.51,4.51,0,0,1-1.14-3.45v-9.69H1917V488h2.13v-4.14h2.73V488h4.29v2.25Z"/><path class="cls-6" d="M1634.23,533.74a7.43,7.43,0,0,1,2.81-3,7.73,7.73,0,0,1,4-1,7.44,7.44,0,0,1,3.57.89,6.38,6.38,0,0,1,2.52,2.32v-8.7h2.77v22.2h-2.77v-3.09a6.4,6.4,0,0,1-2.4,2.42,7.14,7.14,0,0,1-3.72.94,7.49,7.49,0,0,1-6.78-4.11,9.44,9.44,0,0,1-1-4.44A9.21,9.21,0,0,1,1634.23,533.74Zm12.15,1.21a5.27,5.27,0,0,0-2-2.11,5.74,5.74,0,0,0-5.6,0,5.22,5.22,0,0,0-2,2.1,6.68,6.68,0,0,0-.75,3.24,6.86,6.86,0,0,0,.75,3.29,5.31,5.31,0,0,0,2,2.13,5.43,5.43,0,0,0,2.79.73,5.53,5.53,0,0,0,2.81-.73,5.26,5.26,0,0,0,2-2.13,6.79,6.79,0,0,0,.75-3.26A6.68,6.68,0,0,0,1646.38,535Z"/><path class="cls-6" d="M1669.43,539.24h-13.14a5.15,5.15,0,0,0,5.34,5.16,5,5,0,0,0,2.95-.82,4.39,4.39,0,0,0,1.67-2.21h2.94a7.08,7.08,0,0,1-2.64,3.86,8,8,0,0,1-4.92,1.48,8.33,8.33,0,0,1-4.19-1.05,7.41,7.41,0,0,1-2.89-3,10.21,10.21,0,0,1,0-9,7.14,7.14,0,0,1,2.86-3,8.55,8.55,0,0,1,4.25-1,8.25,8.25,0,0,1,4.14,1,7.06,7.06,0,0,1,2.77,2.81,8.26,8.26,0,0,1,1,4A16.07,16.07,0,0,1,1669.43,539.24Zm-3.42-4.9a4.5,4.5,0,0,0-1.88-1.71,5.83,5.83,0,0,0-2.62-.59,5.07,5.07,0,0,0-3.53,1.32,5.37,5.37,0,0,0-1.66,3.66h10.38A5,5,0,0,0,1666,534.34Z"/><path class="cls-6" d="M1676.45,532.25v9.69a2.32,2.32,0,0,0,.51,1.7,2.52,2.52,0,0,0,1.77.49h2v2.31h-2.46a4.9,4.9,0,0,1-3.42-1.05,4.51,4.51,0,0,1-1.14-3.45v-9.69h-2.13V530h2.13v-4.14h2.73V530h4.29v2.25Z"/><path class="cls-6" d="M1684,533.74a7.4,7.4,0,0,1,2.8-3,7.74,7.74,0,0,1,4-1,7.3,7.3,0,0,1,3.75.93,6.2,6.2,0,0,1,2.37,2.34v-3h2.76v16.44h-2.76v-3.06a6.43,6.43,0,0,1-2.41,2.39,7.24,7.24,0,0,1-3.74.94,7.45,7.45,0,0,1-4-1.08,7.57,7.57,0,0,1-2.79-3,9.44,9.44,0,0,1-1-4.44A9.21,9.21,0,0,1,1684,533.74Zm12.15,1.21a5.27,5.27,0,0,0-2-2.11,5.74,5.74,0,0,0-5.6,0,5.22,5.22,0,0,0-2,2.1,6.68,6.68,0,0,0-.75,3.24,6.86,6.86,0,0,0,.75,3.29,5.31,5.31,0,0,0,2,2.13,5.43,5.43,0,0,0,2.79.73,5.53,5.53,0,0,0,2.81-.73,5.26,5.26,0,0,0,2-2.13,6.79,6.79,0,0,0,.75-3.26A6.68,6.68,0,0,0,1696.19,535Z"/><path class="cls-6" d="M1704.41,526.79a1.86,1.86,0,0,1,1.32-3.18,1.72,1.72,0,0,1,1.28.54,1.94,1.94,0,0,1,0,2.64,1.72,1.72,0,0,1-1.28.54A1.8,1.8,0,0,1,1704.41,526.79Zm2.64,3.21v16.44h-2.73V530Z"/><path class="cls-6" d="M1714.43,524.24v22.2h-2.73v-22.2Z"/><path class="cls-6" d="M1727.18,526.79a1.86,1.86,0,0,1,1.32-3.18,1.72,1.72,0,0,1,1.28.54,1.94,1.94,0,0,1,0,2.64,1.72,1.72,0,0,1-1.28.54A1.8,1.8,0,0,1,1727.18,526.79Zm2.64,3.21v16.44h-2.73V530Z"/><path class="cls-6" d="M1747.35,531.52a7,7,0,0,1,1.86,5.23v9.69h-2.7v-9.3a5.27,5.27,0,0,0-1.23-3.76,4.4,4.4,0,0,0-3.36-1.31,4.51,4.51,0,0,0-3.44,1.35,5.51,5.51,0,0,0-1.27,3.93v9.09h-2.73V530h2.73v2.34a5.41,5.41,0,0,1,2.2-2,6.86,6.86,0,0,1,3.08-.69A6.67,6.67,0,0,1,1747.35,531.52Z"/><path class="cls-6" d="M1757,532.25v9.69a2.32,2.32,0,0,0,.51,1.7,2.52,2.52,0,0,0,1.77.49h2v2.31h-2.46a4.9,4.9,0,0,1-3.42-1.05,4.51,4.51,0,0,1-1.14-3.45v-9.69h-2.13V530h2.13v-4.14H1757V530h4.29v2.25Z"/><path class="cls-6" d="M1767.58,545.66a7.46,7.46,0,0,1-2.94-3,9.17,9.17,0,0,1-1.06-4.49,8.87,8.87,0,0,1,1.09-4.45,7.56,7.56,0,0,1,3-3,9.12,9.12,0,0,1,8.46,0,7.57,7.57,0,0,1,3,3,9.63,9.63,0,0,1,0,9,7.8,7.8,0,0,1-3,3,8.73,8.73,0,0,1-4.26,1.05A8.44,8.44,0,0,1,1767.58,545.66Zm7-2a5.26,5.26,0,0,0,2.09-2.07,6.63,6.63,0,0,0,.79-3.36,6.73,6.73,0,0,0-.78-3.36,5.09,5.09,0,0,0-2-2.05,5.7,5.7,0,0,0-2.73-.68,5.62,5.62,0,0,0-2.74.68,4.89,4.89,0,0,0-2,2.05,7,7,0,0,0-.75,3.36,7.14,7.14,0,0,0,.73,3.39,4.91,4.91,0,0,0,2,2.06,5.52,5.52,0,0,0,2.7.67A5.76,5.76,0,0,0,1774.53,543.62Z"/><path class="cls-6" d="M1791.81,533.74a7.36,7.36,0,0,1,2.84-3,9,9,0,0,1,9.15.42,7,7,0,0,1,2.6,4.08h-2.94a4.28,4.28,0,0,0-1.64-2.37,5.06,5.06,0,0,0-3-.87,4.84,4.84,0,0,0-3.78,1.61,6.56,6.56,0,0,0-1.44,4.54,6.68,6.68,0,0,0,1.44,4.59,4.82,4.82,0,0,0,3.78,1.62,5.11,5.11,0,0,0,3-.84,4.32,4.32,0,0,0,1.66-2.4h2.94a7.21,7.21,0,0,1-2.65,4,7.91,7.91,0,0,1-5,1.51,8.13,8.13,0,0,1-4.15-1.05,7.33,7.33,0,0,1-2.84-3,9.46,9.46,0,0,1-1-4.5A9.28,9.28,0,0,1,1791.81,533.74Z"/><path class="cls-6" d="M1810,533.74a7.4,7.4,0,0,1,2.8-3,7.71,7.71,0,0,1,4-1,7.3,7.3,0,0,1,3.75.93,6.2,6.2,0,0,1,2.37,2.34v-3h2.76v16.44h-2.76v-3.06a6.46,6.46,0,0,1-2.42,2.39,7.2,7.2,0,0,1-3.73.94,7.45,7.45,0,0,1-4-1.08,7.57,7.57,0,0,1-2.79-3,9.32,9.32,0,0,1-1-4.44A9.1,9.1,0,0,1,1810,533.74Zm12.15,1.21a5.29,5.29,0,0,0-2-2.11,5.72,5.72,0,0,0-5.59,0,5.22,5.22,0,0,0-2,2.1,6.68,6.68,0,0,0-.75,3.24,6.86,6.86,0,0,0,.75,3.29,5.31,5.31,0,0,0,2,2.13,5.43,5.43,0,0,0,2.79.73,5.49,5.49,0,0,0,2.8-.73,5.28,5.28,0,0,0,2-2.13,6.79,6.79,0,0,0,.75-3.26A6.68,6.68,0,0,0,1822.18,535Z"/><path class="cls-6" d="M1833,524.24v22.2h-2.73v-22.2Z"/><path class="cls-6" d="M1852.6,539.24h-13.14a5.15,5.15,0,0,0,5.34,5.16,5,5,0,0,0,3-.82,4.39,4.39,0,0,0,1.67-2.21h2.94a7.08,7.08,0,0,1-2.64,3.86,8,8,0,0,1-4.92,1.48,8.33,8.33,0,0,1-4.19-1.05,7.41,7.41,0,0,1-2.89-3,9.28,9.28,0,0,1-1-4.49,9.39,9.39,0,0,1,1-4.47,7.14,7.14,0,0,1,2.86-3,8.55,8.55,0,0,1,4.25-1,8.25,8.25,0,0,1,4.14,1,7.09,7.09,0,0,1,2.78,2.81,8.26,8.26,0,0,1,1,4A16.07,16.07,0,0,1,1852.6,539.24Zm-3.42-4.9a4.5,4.5,0,0,0-1.88-1.71,5.83,5.83,0,0,0-2.62-.59,5.07,5.07,0,0,0-3.53,1.32,5.37,5.37,0,0,0-1.66,3.66h10.38A5,5,0,0,0,1849.18,534.34Z"/><path class="cls-6" d="M1869.16,531.52a7,7,0,0,1,1.86,5.23v9.69h-2.7v-9.3a5.27,5.27,0,0,0-1.23-3.76,4.4,4.4,0,0,0-3.36-1.31,4.49,4.49,0,0,0-3.43,1.35,5.52,5.52,0,0,0-1.28,3.93v9.09h-2.73V530H1859v2.34a5.43,5.43,0,0,1,2.21-2,6.82,6.82,0,0,1,3.07-.69A6.67,6.67,0,0,1,1869.16,531.52Z"/><path class="cls-6" d="M1875.49,533.74a7.43,7.43,0,0,1,2.81-3,7.73,7.73,0,0,1,4-1,7.51,7.51,0,0,1,3.58.89,6.44,6.44,0,0,1,2.52,2.32v-8.7h2.76v22.2h-2.76v-3.09a6.47,6.47,0,0,1-2.4,2.42,7.2,7.2,0,0,1-3.73.94,7.49,7.49,0,0,1-6.78-4.11,9.44,9.44,0,0,1-1-4.44A9.21,9.21,0,0,1,1875.49,533.74Zm12.16,1.21a5.29,5.29,0,0,0-2-2.11,5.74,5.74,0,0,0-5.6,0,5.22,5.22,0,0,0-2,2.1,6.68,6.68,0,0,0-.75,3.24,6.86,6.86,0,0,0,.75,3.29,5.31,5.31,0,0,0,2,2.13,5.43,5.43,0,0,0,2.79.73,5.53,5.53,0,0,0,2.81-.73,5.28,5.28,0,0,0,2-2.13,6.79,6.79,0,0,0,.75-3.26A6.68,6.68,0,0,0,1887.65,535Z"/><path class="cls-6" d="M1895.78,533.74a7.4,7.4,0,0,1,2.8-3,7.71,7.71,0,0,1,4-1,7.3,7.3,0,0,1,3.75.93,6.2,6.2,0,0,1,2.37,2.34v-3h2.76v16.44h-2.76v-3.06a6.46,6.46,0,0,1-2.42,2.39,7.2,7.2,0,0,1-3.73.94,7.45,7.45,0,0,1-4-1.08,7.57,7.57,0,0,1-2.79-3,9.44,9.44,0,0,1-1-4.44A9.21,9.21,0,0,1,1895.78,533.74Zm12.15,1.21a5.29,5.29,0,0,0-2-2.11,5.72,5.72,0,0,0-5.59,0,5.22,5.22,0,0,0-2,2.1,6.68,6.68,0,0,0-.75,3.24,6.86,6.86,0,0,0,.75,3.29,5.31,5.31,0,0,0,2,2.13,5.43,5.43,0,0,0,2.79.73,5.49,5.49,0,0,0,2.8-.73,5.28,5.28,0,0,0,2-2.13,6.79,6.79,0,0,0,.75-3.26A6.68,6.68,0,0,0,1907.93,535Z"/><path class="cls-6" d="M1920.84,530.48a6.37,6.37,0,0,1,3.26-.78v2.82h-.72q-4.59,0-4.59,5v8.94h-2.73V530h2.73v2.67A5.23,5.23,0,0,1,1920.84,530.48Z"/><path class="cls-6" d="M1686.5,574.25v9.69a2.32,2.32,0,0,0,.51,1.7,2.52,2.52,0,0,0,1.77.49h2v2.31h-2.46a4.9,4.9,0,0,1-3.42-1.05,4.51,4.51,0,0,1-1.14-3.45v-9.69h-2.13V572h2.13v-4.14h2.73V572h4.29v2.25Z"/><path class="cls-6" d="M1697.08,587.66a7.49,7.49,0,0,1-2.95-3,9.17,9.17,0,0,1-1.06-4.49,8.77,8.77,0,0,1,1.1-4.45,7.47,7.47,0,0,1,3-3,9.12,9.12,0,0,1,8.46,0,7.57,7.57,0,0,1,3,3,9.63,9.63,0,0,1,0,9,7.8,7.8,0,0,1-3,3,8.73,8.73,0,0,1-4.26,1.05A8.4,8.4,0,0,1,1697.08,587.66Zm6.94-2a5.26,5.26,0,0,0,2.09-2.07,6.63,6.63,0,0,0,.79-3.36,6.73,6.73,0,0,0-.78-3.36,5.09,5.09,0,0,0-2-2.05,5.84,5.84,0,0,0-5.47,0,5,5,0,0,0-2,2.05,7,7,0,0,0-.75,3.36,7.14,7.14,0,0,0,.73,3.39,4.91,4.91,0,0,0,2,2.06,5.52,5.52,0,0,0,2.7.67A5.76,5.76,0,0,0,1704,585.62Z"/><path class="cls-6" d="M1730.49,588.44l-6.46-7.26v7.26h-2.73v-22.2H1724v13l6.34-7.29h3.81l-7.75,8.19,7.78,8.25Z"/><path class="cls-6" d="M1751.67,581.24h-13.14a5.15,5.15,0,0,0,5.34,5.16,5,5,0,0,0,3-.82,4.39,4.39,0,0,0,1.67-2.21h2.94a7.08,7.08,0,0,1-2.64,3.86,8,8,0,0,1-4.92,1.48,8.33,8.33,0,0,1-4.19-1.05,7.41,7.41,0,0,1-2.89-3,9.28,9.28,0,0,1-1-4.49,9.39,9.39,0,0,1,1-4.47,7.14,7.14,0,0,1,2.86-3,8.55,8.55,0,0,1,4.25-1,8.25,8.25,0,0,1,4.14,1,7.06,7.06,0,0,1,2.77,2.81,8.26,8.26,0,0,1,1,4A16.07,16.07,0,0,1,1751.67,581.24Zm-3.42-4.9a4.5,4.5,0,0,0-1.88-1.71,5.83,5.83,0,0,0-2.62-.59,5.07,5.07,0,0,0-3.53,1.32,5.37,5.37,0,0,0-1.66,3.66h10.38A5,5,0,0,0,1748.25,576.34Z"/><path class="cls-6" d="M1770.27,581.24h-13.14a5.15,5.15,0,0,0,5.34,5.16,5,5,0,0,0,3-.82,4.39,4.39,0,0,0,1.67-2.21H1770a7.08,7.08,0,0,1-2.64,3.86,8,8,0,0,1-4.92,1.48,8.33,8.33,0,0,1-4.19-1.05,7.41,7.41,0,0,1-2.89-3,9.28,9.28,0,0,1-1.05-4.49,9.39,9.39,0,0,1,1-4.47,7.14,7.14,0,0,1,2.86-3,8.55,8.55,0,0,1,4.25-1,8.25,8.25,0,0,1,4.14,1,7.09,7.09,0,0,1,2.78,2.81,8.26,8.26,0,0,1,1,4A16.07,16.07,0,0,1,1770.27,581.24Zm-3.42-4.9a4.5,4.5,0,0,0-1.88-1.71,5.83,5.83,0,0,0-2.62-.59,5.07,5.07,0,0,0-3.53,1.32,5.37,5.37,0,0,0-1.66,3.66h10.38A5,5,0,0,0,1766.85,576.34Z"/><path class="cls-6" d="M1779.11,572.68a7.21,7.21,0,0,1,3.73-.95,7.71,7.71,0,0,1,4,1,7.4,7.4,0,0,1,2.8,3,9.21,9.21,0,0,1,1,4.42,9.44,9.44,0,0,1-1,4.44,7.46,7.46,0,0,1-6.78,4.11,7.14,7.14,0,0,1-3.7-.94,6.79,6.79,0,0,1-2.45-2.36v10.83H1774V572h2.73v3A6.51,6.51,0,0,1,1779.11,572.68Zm8,4.24a5.18,5.18,0,0,0-2-2.1,5.62,5.62,0,0,0-2.81-.72,5.45,5.45,0,0,0-2.77.74,5.37,5.37,0,0,0-2,2.13,6.58,6.58,0,0,0-.77,3.22,6.68,6.68,0,0,0,.77,3.26,5.37,5.37,0,0,0,2,2.13,5.44,5.44,0,0,0,2.77.73,5.53,5.53,0,0,0,2.81-.73,5.26,5.26,0,0,0,2-2.13,6.86,6.86,0,0,0,.75-3.29A6.68,6.68,0,0,0,1787.1,576.92Z"/><path class="cls-6" d="M1805.58,574.25v9.69a2.32,2.32,0,0,0,.51,1.7,2.54,2.54,0,0,0,1.78.49h2v2.31h-2.46a4.86,4.86,0,0,1-3.42-1.05,4.47,4.47,0,0,1-1.15-3.45v-9.69h-2.13V572h2.13v-4.14h2.73V572h4.3v2.25Z"/><path class="cls-6" d="M1818,572.48a6.37,6.37,0,0,1,3.26-.78v2.82h-.72q-4.59,0-4.59,5v8.94h-2.73V572h2.73v2.67A5.23,5.23,0,0,1,1818,572.48Z"/><path class="cls-6" d="M1824.37,575.74a7.4,7.4,0,0,1,2.8-3,7.71,7.71,0,0,1,4-1,7.3,7.3,0,0,1,3.75.93,6.2,6.2,0,0,1,2.37,2.34v-3H1840v16.44h-2.76v-3.06a6.46,6.46,0,0,1-2.42,2.39,7.2,7.2,0,0,1-3.73.94,7.45,7.45,0,0,1-4-1.08,7.57,7.57,0,0,1-2.79-3,9.44,9.44,0,0,1-1-4.44A9.21,9.21,0,0,1,1824.37,575.74Zm12.15,1.21a5.29,5.29,0,0,0-2-2.11,5.72,5.72,0,0,0-5.59,0,5.22,5.22,0,0,0-2,2.1,6.68,6.68,0,0,0-.75,3.24,6.86,6.86,0,0,0,.75,3.29,5.31,5.31,0,0,0,2,2.13,5.43,5.43,0,0,0,2.79.73,5.49,5.49,0,0,0,2.8-.73,5.28,5.28,0,0,0,2-2.13,6.79,6.79,0,0,0,.75-3.26A6.68,6.68,0,0,0,1836.52,577Z"/><path class="cls-6" d="M1844.65,575.74a7.34,7.34,0,0,1,2.83-3,9,9,0,0,1,9.16.42,6.93,6.93,0,0,1,2.59,4.08h-2.94a4.21,4.21,0,0,0-1.63-2.37,5.06,5.06,0,0,0-3-.87,4.84,4.84,0,0,0-3.78,1.61,6.56,6.56,0,0,0-1.44,4.54,6.68,6.68,0,0,0,1.44,4.59,4.82,4.82,0,0,0,3.78,1.62,5.11,5.11,0,0,0,3-.84,4.26,4.26,0,0,0,1.65-2.4h2.94a7.24,7.24,0,0,1-2.64,4,7.91,7.91,0,0,1-4.95,1.51,8.19,8.19,0,0,1-4.16-1.05,7.3,7.3,0,0,1-2.83-3,9.46,9.46,0,0,1-1-4.5A9.28,9.28,0,0,1,1844.65,575.74Z"/><path class="cls-6" d="M1872,588.44l-6.45-7.26v7.26h-2.73v-22.2h2.73v13l6.33-7.29h3.81l-7.74,8.19,7.77,8.25Z"/><circle class="cls-5" cx="1778.43" cy="289.85" r="88.92"/><line class="cls-7" x1="365.29" y1="296.53" x2="421.82" y2="296.53"/><polyline class="cls-7" points="404.88 275.44 425.97 296.54 404.88 317.63"/><line class="cls-7" x1="742.49" y1="296.53" x2="799.03" y2="296.53"/><polyline class="cls-7" points="782.09 275.44 803.18 296.54 782.09 317.63"/><line class="cls-7" x1="1173.3" y1="296.53" x2="1229.84" y2="296.53"/><polyline class="cls-7" points="1212.9 275.44 1233.99 296.54 1212.9 317.63"/><line class="cls-7" x1="1560.1" y1="296.53" x2="1616.64" y2="296.53"/><polyline class="cls-7" points="1599.7 275.44 1620.79 296.54 1599.7 317.63"/><circle class="cls-7" cx="180.46" cy="332.08" r="10.04"/><path class="cls-7" d="M261.26,266.17a17.21,17.21,0,0,0-2.5.2,17.73,17.73,0,0,0-30-18.84,17.73,17.73,0,0,0-30.15,18.65,17.73,17.73,0,0,0-1.95,35.34,17.73,17.73,0,0,0,32.1,5.9,17.73,17.73,0,0,0,32.07-5.78l.47,0a17.75,17.75,0,1,0,0-35.49Z"/><circle class="cls-7" cx="566.19" cy="284.48" r="27.81"/><line class="cls-7" x1="585.85" y1="304.14" x2="604.73" y2="323.02"/><rect class="cls-7" x="1370.65" y="258.76" width="66.72" height="77.39"/><polyline class="cls-7" points="1389.2 297.95 1398.74 307.49 1418.81 287.42"/><rect class="cls-7" x="1388.33" y="243.55" width="31.36" height="15.21"/><rect class="cls-7" x="1745.07" y="258.76" width="66.72" height="77.39"/><line class="cls-7" x1="1745.07" y1="275.45" x2="1811.79" y2="275.45"/><line class="cls-7" x1="1778.43" y1="244.33" x2="1778.43" y2="258.76"/><line class="cls-7" x1="1800.39" y1="244.33" x2="1800.39" y2="258.76"/><line class="cls-7" x1="1757.37" y1="244.33" x2="1757.37" y2="258.76"/><line class="cls-7" x1="1759.05" y1="293.98" x2="1797.81" y2="293.98"/><line class="cls-7" x1="1759.05" y1="315.72" x2="1797.81" y2="315.72"/><polygon class="cls-7" points="992.72 319.62 963.33 335.07 968.95 302.35 945.17 279.17 978.03 274.4 992.72 244.62 1007.42 274.4 1040.28 279.17 1016.5 302.35 1022.11 335.07 992.72 319.62"/></svg>