<?xml version="1.0" encoding="UTF-8"?>
<svg id="Layer_1" data-name="Layer 1" xmlns="http://www.w3.org/2000/svg" version="1.1" viewBox="0 0 1986 424.3">
  <defs>
    <style>
      .cls-1 {
        fill: none;
        stroke: #30c1d2;
        stroke-linecap: round;
        stroke-linejoin: round;
        stroke-width: 10px;
      }

      .cls-2 {
        font-family: Poppins-SemiBold, Poppins;
        font-size: 36.9px;
        font-weight: 600;
      }

      .cls-2, .cls-3 {
        isolation: isolate;
      }

      .cls-2, .cls-4 {
        fill: #231f20;
      }

      .cls-5 {
        fill: #e5f4f8;
      }

      .cls-5, .cls-6, .cls-4 {
        stroke-width: 0px;
      }

      .cls-6 {
        fill: #fff;
      }
    </style>
  </defs>
  <rect class="cls-5" y="0" width="475" height="424.3" rx="45.4" ry="45.4"/>
  <rect class="cls-5" x="503.7" width="475" height="424.3" rx="45.4" ry="45.4"/>
  <rect class="cls-5" x="1007.4" width="475" height="424.3" rx="45.4" ry="45.4"/>
  <rect class="cls-5" x="1511" width="475" height="424.3" rx="45.4" ry="45.4"/>
  <circle class="cls-6" cx="237.5" cy="118.4" r="59.2" transform="translate(-14.2 202.6) rotate(-45)"/>
  <circle class="cls-6" cx="741.2" cy="118.4" r="59.2" transform="translate(133.3 558.8) rotate(-45)"/>
  <polygon class="cls-1" points="741.2 138.2 721.6 148.5 725.3 126.7 709.5 111.3 731.4 108.1 741.2 88.3 750.9 108.1 772.8 111.3 757 126.7 760.7 148.5 741.2 138.2"/>
  <circle class="cls-6" cx="1244.8" cy="118.4" r="59.2" transform="translate(280.9 914.9) rotate(-45)"/>
  <circle class="cls-6" cx="1748.5" cy="118.4" r="59.2" transform="translate(428.4 1271.1) rotate(-45)"/>
  <path class="cls-1" d="M229.6,82.1l-27.5,47.6c-3.5,6.1.9,13.7,7.9,13.7h55c7,0,11.4-7.6,7.9-13.7l-27.5-47.6c-3.5-6.1-12.3-6.1-15.8,0Z"/>
  <line class="cls-1" x1="237.5" y1="100.7" x2="237.5" y2="115.1"/>
  <line class="cls-1" x1="237.5" y1="127.6" x2="237.5" y2="127.6"/>
  <g class="cls-3">
    <path class="cls-4" d="M67.6,245v4.2h-10.7v6.6h8.2v4.1h-8.2v10.9h-5.2v-25.7h15.9Z"/>
    <path class="cls-4" d="M90.1,262.1h-14.9c.1,1.5.6,2.6,1.5,3.5.9.8,2,1.3,3.4,1.3,1.9,0,3.3-.8,4.1-2.5h5.6c-.6,2-1.7,3.6-3.4,4.8-1.7,1.3-3.7,1.9-6.2,1.9s-3.7-.4-5.3-1.3c-1.6-.9-2.8-2.1-3.6-3.7-.9-1.6-1.3-3.4-1.3-5.5s.4-4,1.3-5.6c.9-1.6,2.1-2.8,3.6-3.7,1.5-.9,3.3-1.3,5.3-1.3s3.7.4,5.2,1.3c1.5.8,2.7,2,3.6,3.6.8,1.5,1.3,3.3,1.3,5.3s0,1.4-.1,2ZM84.9,258.6c0-1.3-.5-2.4-1.4-3.2-.9-.8-2.1-1.2-3.4-1.2s-2.4.4-3.2,1.2c-.9.8-1.4,1.8-1.6,3.2h9.7Z"/>
    <path class="cls-4" d="M93.9,254.9c.8-1.6,1.9-2.8,3.4-3.7,1.4-.9,3-1.3,4.7-1.3s2.9.3,4,.9c1.1.6,2.1,1.4,2.7,2.3v-2.9h5.2v20.4h-5.2v-3c-.7,1-1.6,1.8-2.7,2.4-1.2.6-2.5.9-4,.9s-3.3-.4-4.7-1.3c-1.4-.9-2.5-2.1-3.4-3.7-.8-1.6-1.2-3.5-1.2-5.5s.4-3.9,1.2-5.5ZM108,257.3c-.5-.9-1.2-1.6-2-2.1-.8-.5-1.7-.7-2.7-.7s-1.8.2-2.7.7c-.8.5-1.5,1.1-2,2-.5.9-.8,2-.8,3.2s.3,2.3.8,3.2c.5.9,1.2,1.6,2,2.1.8.5,1.7.7,2.6.7s1.9-.2,2.7-.7c.8-.5,1.5-1.2,2-2.1.5-.9.7-2,.7-3.2s-.2-2.3-.7-3.2Z"/>
    <path class="cls-4" d="M126.7,250.9c1.1-.6,2.3-.9,3.7-.9v5.4h-1.4c-1.6,0-2.8.4-3.7,1.1-.8.8-1.2,2.1-1.2,4v10.2h-5.2v-20.4h5.2v3.2c.7-1.1,1.5-1.9,2.6-2.5Z"/>
    <path class="cls-4" d="M137.2,270.1c-1.3-.6-2.4-1.4-3.2-2.5-.8-1-1.2-2.2-1.3-3.4h5.2c0,.8.5,1.4,1.2,2,.7.5,1.5.8,2.5.8s1.8-.2,2.3-.6c.6-.4.8-.9.8-1.5s-.3-1.2-1-1.5c-.7-.3-1.8-.7-3.2-1.1-1.5-.4-2.8-.7-3.7-1.1-1-.4-1.8-1-2.5-1.8s-1.1-1.9-1.1-3.3.3-2.2,1-3.1,1.6-1.7,2.8-2.2c1.2-.5,2.6-.8,4.3-.8,2.4,0,4.4.6,5.8,1.8s2.2,2.9,2.4,4.9h-4.9c0-.8-.4-1.5-1-1.9-.6-.5-1.4-.7-2.4-.7s-1.7.2-2.2.5c-.5.3-.8.8-.8,1.4s.3,1.2,1,1.6c.7.4,1.8.7,3.2,1.1,1.5.4,2.7.7,3.6,1.1,1,.4,1.8,1,2.5,1.8.7.8,1.1,1.9,1.1,3.3,0,1.2-.3,2.2-1,3.2s-1.6,1.7-2.8,2.2c-1.2.5-2.6.8-4.3.8s-3.2-.3-4.5-.9Z"/>
    <path class="cls-4" d="M162.6,254.9c.8-1.6,1.9-2.8,3.4-3.7,1.4-.9,3-1.3,4.7-1.3s2.9.3,4,.9c1.1.6,2.1,1.4,2.7,2.3v-2.9h5.2v20.4h-5.2v-3c-.7,1-1.6,1.8-2.7,2.4-1.2.6-2.5.9-4,.9s-3.3-.4-4.7-1.3c-1.4-.9-2.5-2.1-3.4-3.7-.8-1.6-1.2-3.5-1.2-5.5s.4-3.9,1.2-5.5ZM176.7,257.3c-.5-.9-1.2-1.6-2-2.1-.8-.5-1.7-.7-2.7-.7s-1.8.2-2.7.7c-.8.5-1.5,1.1-2,2-.5.9-.8,2-.8,3.2s.3,2.3.8,3.2c.5.9,1.2,1.6,2,2.1.8.5,1.7.7,2.6.7s1.9-.2,2.7-.7c.8-.5,1.5-1.2,2-2.1.5-.9.7-2,.7-3.2s-.2-2.3-.7-3.2Z"/>
    <path class="cls-4" d="M195.6,250.9c1.2-.6,2.5-.9,4-.9s3.3.4,4.7,1.3c1.4.9,2.5,2.1,3.4,3.7.8,1.6,1.2,3.4,1.2,5.5s-.4,3.9-1.2,5.5c-.8,1.6-1.9,2.9-3.4,3.7-1.4.9-3,1.3-4.7,1.3s-2.9-.3-4-.9c-1.1-.6-2.1-1.4-2.7-2.3v2.9h-5.2v-27.3h5.2v9.8c.7-1,1.6-1.8,2.7-2.4ZM202.9,257.2c-.5-.9-1.2-1.6-2-2-.8-.5-1.7-.7-2.7-.7s-1.8.2-2.6.7c-.8.5-1.5,1.2-2,2.1-.5.9-.8,2-.8,3.2s.3,2.3.8,3.2c.5.9,1.2,1.6,2,2.1.8.5,1.7.7,2.6.7s1.8-.2,2.7-.7c.8-.5,1.5-1.2,2-2.1.5-.9.8-2,.8-3.2s-.3-2.3-.8-3.2Z"/>
    <path class="cls-4" d="M216.4,269.7c-1.6-.9-2.8-2.1-3.7-3.7-.9-1.6-1.3-3.4-1.3-5.5s.5-3.9,1.4-5.5c.9-1.6,2.2-2.8,3.8-3.7,1.6-.9,3.4-1.3,5.3-1.3s3.7.4,5.3,1.3c1.6.9,2.9,2.1,3.8,3.7.9,1.6,1.4,3.4,1.4,5.5s-.5,3.9-1.4,5.5c-.9,1.6-2.2,2.8-3.8,3.7-1.6.9-3.4,1.3-5.4,1.3s-3.7-.4-5.3-1.3ZM224.4,265.9c.8-.5,1.5-1.1,2-2,.5-.9.7-2,.7-3.3,0-1.9-.5-3.4-1.5-4.5-1-1-2.3-1.6-3.7-1.6s-2.7.5-3.7,1.6-1.5,2.5-1.5,4.5.5,3.4,1.5,4.5c1,1,2.2,1.6,3.7,1.6s1.8-.2,2.6-.7Z"/>
    <path class="cls-4" d="M255.5,250.3v20.4h-5.2v-2.6c-.7.9-1.5,1.6-2.6,2.1-1.1.5-2.2.8-3.5.8s-3-.3-4.2-1c-1.2-.7-2.2-1.7-2.9-3s-1.1-2.9-1.1-4.7v-12h5.2v11.2c0,1.6.4,2.9,1.2,3.7.8.9,1.9,1.3,3.3,1.3s2.5-.4,3.4-1.3c.8-.9,1.2-2.1,1.2-3.7v-11.2h5.2Z"/>
    <path class="cls-4" d="M266.6,254.5v9.9c0,.7.2,1.2.5,1.5.3.3.9.5,1.7.5h2.4v4.3h-3.2c-4.3,0-6.5-2.1-6.5-6.3v-9.8h-2.4v-4.2h2.4v-5h5.2v5h4.6v4.2h-4.6Z"/>
    <path class="cls-4" d="M315,252.3c1.5,1.5,2.3,3.7,2.3,6.4v12h-5.2v-11.3c0-1.6-.4-2.8-1.2-3.7-.8-.8-1.9-1.3-3.3-1.3s-2.5.4-3.3,1.3c-.8.8-1.2,2.1-1.2,3.7v11.3h-5.2v-11.3c0-1.6-.4-2.8-1.2-3.7-.8-.8-1.9-1.3-3.3-1.3s-2.5.4-3.4,1.3c-.8.8-1.2,2.1-1.2,3.7v11.3h-5.2v-20.4h5.2v2.5c.7-.9,1.5-1.5,2.6-2,1-.5,2.2-.7,3.4-.7s3,.3,4.3,1,2.2,1.6,2.9,2.9c.7-1.2,1.6-2.1,2.9-2.8,1.3-.7,2.6-1.1,4.1-1.1,2.5,0,4.5.8,6.1,2.3Z"/>
    <path class="cls-4" d="M322.1,254.9c.8-1.6,1.9-2.8,3.4-3.7,1.4-.9,3-1.3,4.7-1.3s2.9.3,4,.9c1.1.6,2.1,1.4,2.7,2.3v-2.9h5.2v20.4h-5.2v-3c-.7,1-1.6,1.8-2.7,2.4-1.2.6-2.5.9-4,.9s-3.3-.4-4.7-1.3c-1.4-.9-2.5-2.1-3.4-3.7-.8-1.6-1.2-3.5-1.2-5.5s.4-3.9,1.2-5.5ZM336.2,257.3c-.5-.9-1.2-1.6-2-2.1-.8-.5-1.7-.7-2.7-.7s-1.8.2-2.7.7c-.8.5-1.5,1.1-2,2-.5.9-.8,2-.8,3.2s.3,2.3.8,3.2c.5.9,1.2,1.6,2,2.1.8.5,1.7.7,2.6.7s1.9-.2,2.7-.7c.8-.5,1.5-1.2,2-2.1.5-.9.7-2,.7-3.2s-.2-2.3-.7-3.2Z"/>
    <path class="cls-4" d="M359.3,270.7l-6.9-8.7v8.7h-5.2v-27.3h5.2v15.5l6.9-8.7h6.7l-9,10.2,9.1,10.2h-6.7Z"/>
    <path class="cls-4" d="M369.1,247c-.6-.6-.9-1.3-.9-2.2s.3-1.6.9-2.2,1.4-.9,2.3-.9,1.7.3,2.3.9c.6.6.9,1.3.9,2.2s-.3,1.6-.9,2.2c-.6.6-1.4.9-2.3.9s-1.7-.3-2.3-.9ZM373.9,250.3v20.4h-5.2v-20.4h5.2Z"/>
    <path class="cls-4" d="M396.2,252.3c1.5,1.5,2.2,3.7,2.2,6.4v12h-5.2v-11.3c0-1.6-.4-2.9-1.2-3.7s-1.9-1.3-3.3-1.3-2.5.4-3.4,1.3c-.8.9-1.2,2.1-1.2,3.7v11.3h-5.2v-20.4h5.2v2.5c.7-.9,1.6-1.6,2.6-2.1,1.1-.5,2.2-.8,3.5-.8,2.4,0,4.4.8,5.9,2.3Z"/>
    <path class="cls-4" d="M415.4,250.9c1.2.6,2.1,1.4,2.7,2.3v-2.9h5.2v20.6c0,1.9-.4,3.6-1.1,5.1-.8,1.5-1.9,2.7-3.4,3.5-1.5.9-3.4,1.3-5.5,1.3s-5.3-.7-7.1-2c-1.9-1.4-2.9-3.2-3.2-5.5h5.1c.3.9.9,1.7,1.8,2.2.9.6,2,.8,3.3.8s2.7-.4,3.6-1.3c.9-.9,1.4-2.3,1.4-4.1v-3.2c-.7,1-1.6,1.8-2.7,2.4-1.2.6-2.5,1-4,1s-3.3-.4-4.7-1.3c-1.4-.9-2.5-2.1-3.4-3.7-.8-1.6-1.2-3.5-1.2-5.5s.4-3.9,1.2-5.5c.8-1.6,1.9-2.8,3.4-3.7,1.4-.9,3-1.3,4.7-1.3s2.9.3,4,.9ZM417.3,257.3c-.5-.9-1.2-1.6-2-2.1-.8-.5-1.7-.7-2.7-.7s-1.8.2-2.7.7c-.8.5-1.5,1.1-2,2-.5.9-.8,2-.8,3.2s.3,2.3.8,3.2c.5.9,1.2,1.6,2,2.1.8.5,1.7.7,2.6.7s1.9-.2,2.7-.7c.8-.5,1.5-1.2,2-2.1.5-.9.7-2,.7-3.2s-.2-2.3-.7-3.2Z"/>
    <path class="cls-4" d="M83,302.7v9.9c0,.7.2,1.2.5,1.5.3.3.9.5,1.7.5h2.4v4.3h-3.2c-4.3,0-6.5-2.1-6.5-6.3v-9.8h-2.4v-4.2h2.4v-5h5.2v5h4.6v4.2h-4.6Z"/>
    <path class="cls-4" d="M106.9,299.2c1.2.7,2.1,1.7,2.8,3,.7,1.3,1,2.9,1,4.7v12h-5.2v-11.3c0-1.6-.4-2.9-1.2-3.7s-1.9-1.3-3.3-1.3-2.5.4-3.4,1.3c-.8.9-1.2,2.1-1.2,3.7v11.3h-5.2v-27.3h5.2v9.4c.7-.9,1.5-1.6,2.7-2.1s2.3-.8,3.7-.8,2.9.3,4.1,1Z"/>
    <path class="cls-4" d="M134.5,310.2h-14.9c.1,1.5.6,2.6,1.5,3.5.9.8,2,1.3,3.4,1.3,1.9,0,3.3-.8,4.1-2.5h5.6c-.6,2-1.7,3.6-3.4,4.8-1.7,1.3-3.7,1.9-6.2,1.9s-3.7-.4-5.3-1.3c-1.6-.9-2.8-2.1-3.6-3.7-.9-1.6-1.3-3.4-1.3-5.5s.4-4,1.3-5.6c.9-1.6,2.1-2.8,3.6-3.7,1.5-.9,3.3-1.3,5.3-1.3s3.7.4,5.2,1.3c1.5.8,2.7,2,3.6,3.6.8,1.5,1.3,3.3,1.3,5.3s0,1.4-.1,2ZM129.3,306.8c0-1.3-.5-2.4-1.4-3.2-.9-.8-2.1-1.2-3.4-1.2s-2.4.4-3.2,1.2c-.9.8-1.4,1.8-1.6,3.2h9.7Z"/>
    <path class="cls-4" d="M154.9,299.1c1.1-.6,2.3-.9,3.7-.9v5.4h-1.4c-1.6,0-2.8.4-3.7,1.1-.8.8-1.2,2.1-1.2,4v10.2h-5.2v-20.4h5.2v3.2c.7-1.1,1.5-1.9,2.6-2.5Z"/>
    <path class="cls-4" d="M162.4,295.2c-.6-.6-.9-1.3-.9-2.2s.3-1.6.9-2.2,1.4-.9,2.3-.9,1.7.3,2.3.9c.6.6.9,1.3.9,2.2s-.3,1.6-.9,2.2c-.6.6-1.4.9-2.3.9s-1.7-.3-2.3-.9ZM167.2,298.5v20.4h-5.2v-20.4h5.2Z"/>
    <path class="cls-4" d="M184.3,299.1c1.2.6,2.1,1.4,2.7,2.3v-2.9h5.2v20.6c0,1.9-.4,3.6-1.1,5.1-.8,1.5-1.9,2.7-3.4,3.5-1.5.9-3.4,1.3-5.5,1.3s-5.3-.7-7.1-2c-1.9-1.4-2.9-3.2-3.2-5.5h5.1c.3.9.9,1.7,1.8,2.2.9.6,2,.8,3.3.8s2.7-.4,3.6-1.3c.9-.9,1.4-2.3,1.4-4.1v-3.2c-.7,1-1.6,1.8-2.7,2.4-1.2.6-2.5,1-4,1s-3.3-.4-4.7-1.3c-1.4-.9-2.5-2.1-3.4-3.7-.8-1.6-1.2-3.5-1.2-5.5s.4-3.9,1.2-5.5c.8-1.6,1.9-2.8,3.4-3.7,1.4-.9,3-1.3,4.7-1.3s2.9.3,4,.9ZM186.3,305.5c-.5-.9-1.2-1.6-2-2.1-.8-.5-1.7-.7-2.7-.7s-1.8.2-2.7.7c-.8.5-1.5,1.1-2,2-.5.9-.8,2-.8,3.2s.3,2.3.8,3.2c.5.9,1.2,1.6,2,2.1.8.5,1.7.7,2.6.7s1.9-.2,2.7-.7c.8-.5,1.5-1.2,2-2.1.5-.9.7-2,.7-3.2s-.2-2.3-.7-3.2Z"/>
    <path class="cls-4" d="M212.9,299.2c1.2.7,2.1,1.7,2.8,3,.7,1.3,1,2.9,1,4.7v12h-5.2v-11.3c0-1.6-.4-2.9-1.2-3.7s-1.9-1.3-3.3-1.3-2.5.4-3.4,1.3c-.8.9-1.2,2.1-1.2,3.7v11.3h-5.2v-27.3h5.2v9.4c.7-.9,1.5-1.6,2.7-2.1s2.3-.8,3.7-.8,2.9.3,4.1,1Z"/>
    <path class="cls-4" d="M227.6,302.7v9.9c0,.7.2,1.2.5,1.5.3.3.9.5,1.7.5h2.4v4.3h-3.2c-4.3,0-6.5-2.1-6.5-6.3v-9.8h-2.4v-4.2h2.4v-5h5.2v5h4.6v4.2h-4.6Z"/>
    <path class="cls-4" d="M244.6,303.1c.8-1.6,1.9-2.8,3.4-3.7,1.4-.9,3-1.3,4.8-1.3s2.6.3,3.8.9c1.2.6,2.2,1.3,2.9,2.3v-9.7h5.2v27.3h-5.2v-3c-.6,1-1.5,1.8-2.7,2.4-1.2.6-2.5.9-4,.9s-3.3-.4-4.7-1.3c-1.4-.9-2.5-2.1-3.4-3.7-.8-1.6-1.2-3.5-1.2-5.5s.4-3.9,1.2-5.5ZM258.7,305.5c-.5-.9-1.2-1.6-2-2.1-.8-.5-1.7-.7-2.7-.7s-1.8.2-2.7.7c-.8.5-1.5,1.1-2,2-.5.9-.8,2-.8,3.2s.3,2.3.8,3.2c.5.9,1.2,1.6,2,2.1.8.5,1.7.7,2.6.7s1.9-.2,2.7-.7c.8-.5,1.5-1.2,2-2.1.5-.9.7-2,.7-3.2s-.2-2.3-.7-3.2Z"/>
    <path class="cls-4" d="M288.5,310.2h-14.9c.1,1.5.6,2.6,1.5,3.5.9.8,2,1.3,3.4,1.3,1.9,0,3.3-.8,4.1-2.5h5.6c-.6,2-1.7,3.6-3.4,4.8-1.7,1.3-3.7,1.9-6.2,1.9s-3.7-.4-5.3-1.3c-1.6-.9-2.8-2.1-3.6-3.7-.9-1.6-1.3-3.4-1.3-5.5s.4-4,1.3-5.6c.9-1.6,2.1-2.8,3.6-3.7,1.5-.9,3.3-1.3,5.3-1.3s3.7.4,5.2,1.3c1.5.8,2.7,2,3.6,3.6.8,1.5,1.3,3.3,1.3,5.3s0,1.4-.1,2ZM283.3,306.8c0-1.3-.5-2.4-1.4-3.2-.9-.8-2.1-1.2-3.4-1.2s-2.4.4-3.2,1.2c-.9.8-1.4,1.8-1.6,3.2h9.7Z"/>
    <path class="cls-4" d="M292.4,303.2c.9-1.6,2.1-2.8,3.6-3.7s3.3-1.3,5.2-1.3,4.6.6,6.3,1.9,2.8,3,3.3,5.3h-5.6c-.3-.9-.8-1.6-1.5-2.1-.7-.5-1.6-.8-2.6-.8-1.5,0-2.6.5-3.5,1.6-.9,1.1-1.3,2.6-1.3,4.6s.4,3.4,1.3,4.5c.9,1.1,2,1.6,3.5,1.6,2.1,0,3.5-.9,4.1-2.8h5.6c-.6,2.2-1.7,4-3.4,5.3-1.7,1.3-3.8,2-6.3,2s-3.7-.4-5.2-1.3-2.7-2.1-3.6-3.7c-.9-1.6-1.3-3.4-1.3-5.5s.4-4,1.3-5.5Z"/>
    <path class="cls-4" d="M315,295.2c-.6-.6-.9-1.3-.9-2.2s.3-1.6.9-2.2,1.4-.9,2.3-.9,1.7.3,2.3.9c.6.6.9,1.3.9,2.2s-.3,1.6-.9,2.2c-.6.6-1.4.9-2.3.9s-1.7-.3-2.3-.9ZM319.8,298.5v20.4h-5.2v-20.4h5.2Z"/>
    <path class="cls-4" d="M328.2,318.3c-1.3-.6-2.4-1.4-3.2-2.5-.8-1-1.2-2.2-1.3-3.4h5.2c0,.8.5,1.4,1.2,2,.7.5,1.5.8,2.5.8s1.8-.2,2.3-.6c.6-.4.8-.9.8-1.5s-.3-1.2-1-1.5c-.7-.3-1.8-.7-3.2-1.1-1.5-.4-2.8-.7-3.7-1.1-1-.4-1.8-1-2.5-1.8s-1.1-1.9-1.1-3.3.3-2.2,1-3.1,1.6-1.7,2.8-2.2c1.2-.5,2.6-.8,4.3-.8,2.4,0,4.4.6,5.8,1.8s2.2,2.9,2.4,4.9h-4.9c0-.8-.4-1.5-1-1.9-.6-.5-1.4-.7-2.4-.7s-1.7.2-2.2.5c-.5.3-.8.8-.8,1.4s.3,1.2,1,1.6c.7.4,1.8.7,3.2,1.1,1.5.4,2.7.7,3.6,1.1,1,.4,1.8,1,2.5,1.8.7.8,1.1,1.9,1.1,3.3,0,1.2-.3,2.2-1,3.2s-1.6,1.7-2.8,2.2c-1.2.5-2.6.8-4.3.8s-3.2-.3-4.5-.9Z"/>
    <path class="cls-4" d="M345.3,295.2c-.6-.6-.9-1.3-.9-2.2s.3-1.6.9-2.2,1.4-.9,2.3-.9,1.7.3,2.3.9c.6.6.9,1.3.9,2.2s-.3,1.6-.9,2.2c-.6.6-1.4.9-2.3.9s-1.7-.3-2.3-.9ZM350.1,298.5v20.4h-5.2v-20.4h5.2Z"/>
    <path class="cls-4" d="M358.9,317.9c-1.6-.9-2.8-2.1-3.7-3.7-.9-1.6-1.3-3.4-1.3-5.5s.5-3.9,1.4-5.5c.9-1.6,2.2-2.8,3.8-3.7,1.6-.9,3.4-1.3,5.3-1.3s3.7.4,5.3,1.3c1.6.9,2.9,2.1,3.8,3.7.9,1.6,1.4,3.4,1.4,5.5s-.5,3.9-1.4,5.5c-.9,1.6-2.2,2.8-3.8,3.7-1.6.9-3.4,1.3-5.4,1.3s-3.7-.4-5.3-1.3ZM366.9,314.1c.8-.5,1.5-1.1,2-2,.5-.9.7-2,.7-3.3,0-1.9-.5-3.4-1.5-4.5-1-1-2.3-1.6-3.7-1.6s-2.7.5-3.7,1.6-1.5,2.5-1.5,4.5.5,3.4,1.5,4.5c1,1,2.2,1.6,3.7,1.6s1.8-.2,2.6-.7Z"/>
    <path class="cls-4" d="M395.9,300.5c1.5,1.5,2.2,3.7,2.2,6.4v12h-5.2v-11.3c0-1.6-.4-2.9-1.2-3.7s-1.9-1.3-3.3-1.3-2.5.4-3.4,1.3c-.8.9-1.2,2.1-1.2,3.7v11.3h-5.2v-20.4h5.2v2.5c.7-.9,1.6-1.6,2.6-2.1,1.1-.5,2.2-.8,3.5-.8,2.4,0,4.4.8,5.9,2.3Z"/>
  </g>
  <g class="cls-3">
    <path class="cls-4" d="M596.9,245v25.7h-5.2v-10.9h-11v10.9h-5.2v-25.7h5.2v10.6h11v-10.6h5.2Z"/>
    <path class="cls-4" d="M620.8,262.1h-14.9c.1,1.5.6,2.6,1.5,3.5.9.8,2,1.3,3.4,1.3,1.9,0,3.3-.8,4.1-2.5h5.6c-.6,2-1.7,3.6-3.4,4.8-1.7,1.3-3.7,1.9-6.2,1.9s-3.7-.4-5.3-1.3c-1.6-.9-2.8-2.1-3.6-3.7-.9-1.6-1.3-3.4-1.3-5.5s.4-4,1.3-5.6c.9-1.6,2.1-2.8,3.6-3.7,1.5-.9,3.3-1.3,5.3-1.3s3.7.4,5.2,1.3c1.5.8,2.7,2,3.6,3.6.8,1.5,1.3,3.3,1.3,5.3s0,1.4-.1,2ZM615.6,258.6c0-1.3-.5-2.4-1.4-3.2-.9-.8-2.1-1.2-3.4-1.2s-2.4.4-3.2,1.2c-.9.8-1.4,1.8-1.6,3.2h9.7Z"/>
    <path class="cls-4" d="M624.6,254.9c.8-1.6,1.9-2.8,3.4-3.7,1.4-.9,3-1.3,4.7-1.3s2.9.3,4,.9c1.1.6,2.1,1.4,2.7,2.3v-2.9h5.2v20.4h-5.2v-3c-.7,1-1.6,1.8-2.7,2.4-1.2.6-2.5.9-4,.9s-3.3-.4-4.7-1.3c-1.4-.9-2.5-2.1-3.4-3.7-.8-1.6-1.2-3.5-1.2-5.5s.4-3.9,1.2-5.5ZM638.7,257.3c-.5-.9-1.2-1.6-2-2.1-.8-.5-1.7-.7-2.7-.7s-1.8.2-2.7.7c-.8.5-1.5,1.1-2,2-.5.9-.8,2-.8,3.2s.3,2.3.8,3.2c.5.9,1.2,1.6,2,2.1.8.5,1.7.7,2.6.7s1.9-.2,2.7-.7c.8-.5,1.5-1.2,2-2.1.5-.9.7-2,.7-3.2s-.2-2.3-.7-3.2Z"/>
    <path class="cls-4" d="M658.2,266l5.2-15.7h5.5l-7.6,20.4h-6.3l-7.5-20.4h5.5l5.2,15.7Z"/>
    <path class="cls-4" d="M691.3,250.3l-12.6,30.1h-5.5l4.4-10.2-8.2-19.9h5.8l5.3,14.3,5.3-14.3h5.5Z"/>
    <path class="cls-4" d="M710.6,250.9c1.1-.6,2.3-.9,3.7-.9v5.4h-1.4c-1.6,0-2.8.4-3.7,1.1-.8.8-1.2,2.1-1.2,4v10.2h-5.2v-20.4h5.2v3.2c.7-1.1,1.5-1.9,2.6-2.5Z"/>
    <path class="cls-4" d="M736.6,262.1h-14.9c.1,1.5.6,2.6,1.5,3.5.9.8,2,1.3,3.4,1.3,1.9,0,3.3-.8,4.1-2.5h5.6c-.6,2-1.7,3.6-3.4,4.8-1.7,1.3-3.7,1.9-6.2,1.9s-3.7-.4-5.3-1.3c-1.6-.9-2.8-2.1-3.6-3.7-.9-1.6-1.3-3.4-1.3-5.5s.4-4,1.3-5.6c.9-1.6,2.1-2.8,3.6-3.7,1.5-.9,3.3-1.3,5.3-1.3s3.7.4,5.2,1.3c1.5.8,2.7,2,3.6,3.6.8,1.5,1.3,3.3,1.3,5.3s0,1.4-.1,2ZM731.4,258.6c0-1.3-.5-2.4-1.4-3.2-.9-.8-2.1-1.2-3.4-1.2s-2.4.4-3.2,1.2c-.9.8-1.4,1.8-1.6,3.2h9.7Z"/>
    <path class="cls-4" d="M745.6,243.4v27.3h-5.2v-27.3h5.2Z"/>
    <path class="cls-4" d="M751.1,247c-.6-.6-.9-1.3-.9-2.2s.3-1.6.9-2.2,1.4-.9,2.3-.9,1.7.3,2.3.9c.6.6.9,1.3.9,2.2s-.3,1.6-.9,2.2c-.6.6-1.4.9-2.3.9s-1.7-.3-2.3-.9ZM755.9,250.3v20.4h-5.2v-20.4h5.2Z"/>
    <path class="cls-4" d="M760.9,254.9c.8-1.6,1.9-2.8,3.4-3.7,1.4-.9,3-1.3,4.7-1.3s2.9.3,4,.9c1.1.6,2.1,1.4,2.7,2.3v-2.9h5.2v20.4h-5.2v-3c-.7,1-1.6,1.8-2.7,2.4-1.2.6-2.5.9-4,.9s-3.3-.4-4.7-1.3c-1.4-.9-2.5-2.1-3.4-3.7-.8-1.6-1.2-3.5-1.2-5.5s.4-3.9,1.2-5.5ZM775,257.3c-.5-.9-1.2-1.6-2-2.1-.8-.5-1.7-.7-2.7-.7s-1.8.2-2.7.7c-.8.5-1.5,1.1-2,2-.5.9-.8,2-.8,3.2s.3,2.3.8,3.2c.5.9,1.2,1.6,2,2.1.8.5,1.7.7,2.6.7s1.9-.2,2.7-.7c.8-.5,1.5-1.2,2-2.1.5-.9.7-2,.7-3.2s-.2-2.3-.7-3.2Z"/>
    <path class="cls-4" d="M803.1,252.3c1.5,1.5,2.2,3.7,2.2,6.4v12h-5.2v-11.3c0-1.6-.4-2.9-1.2-3.7s-1.9-1.3-3.3-1.3-2.5.4-3.4,1.3c-.8.9-1.2,2.1-1.2,3.7v11.3h-5.2v-20.4h5.2v2.5c.7-.9,1.6-1.6,2.6-2.1,1.1-.5,2.2-.8,3.5-.8,2.4,0,4.4.8,5.9,2.3Z"/>
    <path class="cls-4" d="M810.3,255c.9-1.6,2.1-2.8,3.6-3.7s3.3-1.3,5.2-1.3,4.6.6,6.3,1.9,2.8,3,3.3,5.3h-5.6c-.3-.9-.8-1.6-1.5-2.1-.7-.5-1.6-.8-2.6-.8-1.5,0-2.6.5-3.5,1.6-.9,1.1-1.3,2.6-1.3,4.6s.4,3.4,1.3,4.5c.9,1.1,2,1.6,3.5,1.6,2.1,0,3.5-.9,4.1-2.8h5.6c-.6,2.2-1.7,4-3.4,5.3-1.7,1.3-3.8,2-6.3,2s-3.7-.4-5.2-1.3-2.7-2.1-3.6-3.7c-.9-1.6-1.3-3.4-1.3-5.5s.4-4,1.3-5.5Z"/>
    <path class="cls-4" d="M851.3,262.1h-14.9c.1,1.5.6,2.6,1.5,3.5.9.8,2,1.3,3.4,1.3,1.9,0,3.3-.8,4.1-2.5h5.6c-.6,2-1.7,3.6-3.4,4.8-1.7,1.3-3.7,1.9-6.2,1.9s-3.7-.4-5.3-1.3c-1.6-.9-2.8-2.1-3.6-3.7-.9-1.6-1.3-3.4-1.3-5.5s.4-4,1.3-5.6c.9-1.6,2.1-2.8,3.6-3.7,1.5-.9,3.3-1.3,5.3-1.3s3.7.4,5.2,1.3c1.5.8,2.7,2,3.6,3.6.8,1.5,1.3,3.3,1.3,5.3s0,1.4-.1,2ZM846.1,258.6c0-1.3-.5-2.4-1.4-3.2-.9-.8-2.1-1.2-3.4-1.2s-2.4.4-3.2,1.2c-.9.8-1.4,1.8-1.6,3.2h9.7Z"/>
    <path class="cls-4" d="M867.7,269.7c-1.6-.9-2.8-2.1-3.7-3.7-.9-1.6-1.3-3.4-1.3-5.5s.5-3.9,1.4-5.5c.9-1.6,2.2-2.8,3.8-3.7,1.6-.9,3.4-1.3,5.3-1.3s3.7.4,5.3,1.3c1.6.9,2.9,2.1,3.8,3.7.9,1.6,1.4,3.4,1.4,5.5s-.5,3.9-1.4,5.5c-.9,1.6-2.2,2.8-3.8,3.7-1.6.9-3.4,1.3-5.4,1.3s-3.7-.4-5.3-1.3ZM875.7,265.9c.8-.5,1.5-1.1,2-2,.5-.9.7-2,.7-3.3,0-1.9-.5-3.4-1.5-4.5-1-1-2.3-1.6-3.7-1.6s-2.7.5-3.7,1.6-1.5,2.5-1.5,4.5.5,3.4,1.5,4.5c1,1,2.2,1.6,3.7,1.6s1.8-.2,2.6-.7Z"/>
    <path class="cls-4" d="M904.7,252.3c1.5,1.5,2.2,3.7,2.2,6.4v12h-5.2v-11.3c0-1.6-.4-2.9-1.2-3.7s-1.9-1.3-3.3-1.3-2.5.4-3.4,1.3c-.8.9-1.2,2.1-1.2,3.7v11.3h-5.2v-20.4h5.2v2.5c.7-.9,1.6-1.6,2.6-2.1,1.1-.5,2.2-.8,3.5-.8,2.4,0,4.4.8,5.9,2.3Z"/>
    <path class="cls-4" d="M546.6,299.1c1.1-.6,2.3-.9,3.7-.9v5.4h-1.4c-1.6,0-2.8.4-3.7,1.1-.8.8-1.2,2.1-1.2,4v10.2h-5.2v-20.4h5.2v3.2c.7-1.1,1.5-1.9,2.6-2.5Z"/>
    <path class="cls-4" d="M572.6,310.2h-14.9c.1,1.5.6,2.6,1.5,3.5.9.8,2,1.3,3.4,1.3,1.9,0,3.3-.8,4.1-2.5h5.6c-.6,2-1.7,3.6-3.4,4.8-1.7,1.3-3.7,1.9-6.2,1.9s-3.7-.4-5.3-1.3c-1.6-.9-2.8-2.1-3.6-3.7-.9-1.6-1.3-3.4-1.3-5.5s.4-4,1.3-5.6c.9-1.6,2.1-2.8,3.6-3.7,1.5-.9,3.3-1.3,5.3-1.3s3.7.4,5.2,1.3c1.5.8,2.7,2,3.6,3.6.8,1.5,1.3,3.3,1.3,5.3s0,1.4-.1,2ZM567.4,306.8c0-1.3-.5-2.4-1.4-3.2-.9-.8-2.1-1.2-3.4-1.2s-2.4.4-3.2,1.2c-.9.8-1.4,1.8-1.6,3.2h9.7Z"/>
    <path class="cls-4" d="M585,314.2l5.2-15.7h5.5l-7.6,20.4h-6.3l-7.5-20.4h5.5l5.2,15.7Z"/>
    <path class="cls-4" d="M598.9,295.2c-.6-.6-.9-1.3-.9-2.2s.3-1.6.9-2.2,1.4-.9,2.3-.9,1.7.3,2.3.9c.6.6.9,1.3.9,2.2s-.3,1.6-.9,2.2c-.6.6-1.4.9-2.3.9s-1.7-.3-2.3-.9ZM603.7,298.5v20.4h-5.2v-20.4h5.2Z"/>
    <path class="cls-4" d="M627.6,310.2h-14.9c.1,1.5.6,2.6,1.5,3.5.9.8,2,1.3,3.4,1.3,1.9,0,3.3-.8,4.1-2.5h5.6c-.6,2-1.7,3.6-3.4,4.8-1.7,1.3-3.7,1.9-6.2,1.9s-3.7-.4-5.3-1.3c-1.6-.9-2.8-2.1-3.6-3.7-.9-1.6-1.3-3.4-1.3-5.5s.4-4,1.3-5.6c.9-1.6,2.1-2.8,3.6-3.7,1.5-.9,3.3-1.3,5.3-1.3s3.7.4,5.2,1.3c1.5.8,2.7,2,3.6,3.6.8,1.5,1.3,3.3,1.3,5.3s0,1.4-.1,2ZM622.4,306.8c0-1.3-.5-2.4-1.4-3.2-.9-.8-2.1-1.2-3.4-1.2s-2.4.4-3.2,1.2c-.9.8-1.4,1.8-1.6,3.2h9.7Z"/>
    <path class="cls-4" d="M659.8,298.5l-6,20.4h-5.6l-3.7-14.3-3.7,14.3h-5.6l-6-20.4h5.2l3.6,15.6,3.9-15.6h5.5l3.8,15.5,3.6-15.5h4.9Z"/>
    <path class="cls-4" d="M666,318.3c-1.3-.6-2.4-1.4-3.2-2.5-.8-1-1.2-2.2-1.3-3.4h5.2c0,.8.5,1.4,1.2,2,.7.5,1.5.8,2.5.8s1.8-.2,2.3-.6c.6-.4.8-.9.8-1.5s-.3-1.2-1-1.5c-.7-.3-1.8-.7-3.2-1.1-1.5-.4-2.8-.7-3.7-1.1-1-.4-1.8-1-2.5-1.8s-1.1-1.9-1.1-3.3.3-2.2,1-3.1,1.6-1.7,2.8-2.2c1.2-.5,2.6-.8,4.3-.8,2.4,0,4.4.6,5.8,1.8s2.2,2.9,2.4,4.9h-4.9c0-.8-.4-1.5-1-1.9-.6-.5-1.4-.7-2.4-.7s-1.7.2-2.2.5c-.5.3-.8.8-.8,1.4s.3,1.2,1,1.6c.7.4,1.8.7,3.2,1.1,1.5.4,2.7.7,3.6,1.1,1,.4,1.8,1,2.5,1.8.7.8,1.1,1.9,1.1,3.3,0,1.2-.3,2.2-1,3.2s-1.6,1.7-2.8,2.2c-1.2.5-2.6.8-4.3.8s-3.2-.3-4.5-.9Z"/>
    <path class="cls-4" d="M711.3,318.9l-2.8-2.8c-2.4,2.1-5.3,3.2-8.7,3.2s-3.6-.3-5-1c-1.4-.7-2.5-1.6-3.3-2.8s-1.2-2.6-1.2-4.1.5-3.2,1.4-4.6c1-1.4,2.4-2.4,4.2-3.3-.7-.8-1.1-1.6-1.4-2.3-.3-.7-.4-1.6-.4-2.4s.3-2.2.9-3.2c.6-.9,1.5-1.7,2.6-2.2,1.1-.5,2.5-.8,4-.8s2.9.3,4,.9c1.1.6,1.9,1.4,2.5,2.4.5,1,.8,2.1.7,3.3h-5c0-.8-.2-1.4-.6-1.9-.4-.4-1-.6-1.7-.6s-1.3.2-1.7.6c-.5.4-.7.9-.7,1.6s.2,1.2.6,1.8c.4.6,1,1.3,1.8,2.2l6.5,6.4s0,0,.1-.1c0,0,0,0,0-.1l2.1-3.5h5.4l-2.6,4.5c-.5,1-1,1.9-1.6,2.7l6.2,6.2h-6.3ZM705.2,312.9l-6.3-6.3c-2.4,1.1-3.6,2.6-3.6,4.5s.4,2,1.3,2.8c.8.7,1.9,1.1,3.3,1.1,2,0,3.8-.7,5.3-2.1Z"/>
    <path class="cls-4" d="M732.2,318.3c-1.3-.6-2.4-1.4-3.2-2.5-.8-1-1.2-2.2-1.3-3.4h5.2c0,.8.5,1.4,1.2,2,.7.5,1.5.8,2.5.8s1.8-.2,2.3-.6c.6-.4.8-.9.8-1.5s-.3-1.2-1-1.5c-.7-.3-1.8-.7-3.2-1.1-1.5-.4-2.8-.7-3.7-1.1-1-.4-1.8-1-2.5-1.8s-1.1-1.9-1.1-3.3.3-2.2,1-3.1,1.6-1.7,2.8-2.2c1.2-.5,2.6-.8,4.3-.8,2.4,0,4.4.6,5.8,1.8s2.2,2.9,2.4,4.9h-4.9c0-.8-.4-1.5-1-1.9-.6-.5-1.4-.7-2.4-.7s-1.7.2-2.2.5c-.5.3-.8.8-.8,1.4s.3,1.2,1,1.6c.7.4,1.8.7,3.2,1.1,1.5.4,2.7.7,3.6,1.1,1,.4,1.8,1,2.5,1.8.7.8,1.1,1.9,1.1,3.3,0,1.2-.3,2.2-1,3.2s-1.6,1.7-2.8,2.2c-1.2.5-2.6.8-4.3.8s-3.2-.3-4.5-.9Z"/>
    <path class="cls-4" d="M752.8,317.9c-1.6-.9-2.8-2.1-3.7-3.7-.9-1.6-1.3-3.4-1.3-5.5s.5-3.9,1.4-5.5c.9-1.6,2.2-2.8,3.8-3.7,1.6-.9,3.4-1.3,5.3-1.3s3.7.4,5.3,1.3c1.6.9,2.9,2.1,3.8,3.7.9,1.6,1.4,3.4,1.4,5.5s-.5,3.9-1.4,5.5c-.9,1.6-2.2,2.8-3.8,3.7-1.6.9-3.4,1.3-5.4,1.3s-3.7-.4-5.3-1.3ZM760.7,314.1c.8-.5,1.5-1.1,2-2,.5-.9.7-2,.7-3.3,0-1.9-.5-3.4-1.5-4.5-1-1-2.3-1.6-3.7-1.6s-2.7.5-3.7,1.6-1.5,2.5-1.5,4.5.5,3.4,1.5,4.5c1,1,2.2,1.6,3.7,1.6s1.8-.2,2.6-.7Z"/>
    <path class="cls-4" d="M772.5,303.2c.9-1.6,2.1-2.8,3.6-3.7s3.3-1.3,5.2-1.3,4.6.6,6.3,1.9,2.8,3,3.3,5.3h-5.6c-.3-.9-.8-1.6-1.5-2.1-.7-.5-1.6-.8-2.6-.8-1.5,0-2.6.5-3.5,1.6-.9,1.1-1.3,2.6-1.3,4.6s.4,3.4,1.3,4.5c.9,1.1,2,1.6,3.5,1.6,2.1,0,3.5-.9,4.1-2.8h5.6c-.6,2.2-1.7,4-3.4,5.3-1.7,1.3-3.8,2-6.3,2s-3.7-.4-5.2-1.3-2.7-2.1-3.6-3.7c-.9-1.6-1.3-3.4-1.3-5.5s.4-4,1.3-5.5Z"/>
    <path class="cls-4" d="M795.1,295.2c-.6-.6-.9-1.3-.9-2.2s.3-1.6.9-2.2,1.4-.9,2.3-.9,1.7.3,2.3.9c.6.6.9,1.3.9,2.2s-.3,1.6-.9,2.2c-.6.6-1.4.9-2.3.9s-1.7-.3-2.3-.9ZM799.9,298.5v20.4h-5.2v-20.4h5.2Z"/>
    <path class="cls-4" d="M804.9,303.1c.8-1.6,1.9-2.8,3.4-3.7,1.4-.9,3-1.3,4.7-1.3s2.9.3,4,.9c1.1.6,2.1,1.4,2.7,2.3v-2.9h5.2v20.4h-5.2v-3c-.7,1-1.6,1.8-2.7,2.4-1.2.6-2.5.9-4,.9s-3.3-.4-4.7-1.3c-1.4-.9-2.5-2.1-3.4-3.7-.8-1.6-1.2-3.5-1.2-5.5s.4-3.9,1.2-5.5ZM819,305.5c-.5-.9-1.2-1.6-2-2.1-.8-.5-1.7-.7-2.7-.7s-1.8.2-2.7.7c-.8.5-1.5,1.1-2,2-.5.9-.8,2-.8,3.2s.3,2.3.8,3.2c.5.9,1.2,1.6,2,2.1.8.5,1.7.7,2.6.7s1.9-.2,2.7-.7c.8-.5,1.5-1.2,2-2.1.5-.9.7-2,.7-3.2s-.2-2.3-.7-3.2Z"/>
    <path class="cls-4" d="M835.1,291.6v27.3h-5.2v-27.3h5.2Z"/>
    <path class="cls-4" d="M856.9,299.1c1.2-.6,2.5-.9,4-.9s3.3.4,4.7,1.3c1.4.9,2.5,2.1,3.4,3.7.8,1.6,1.2,3.4,1.2,5.5s-.4,3.9-1.2,5.5c-.8,1.6-1.9,2.9-3.4,3.7-1.4.9-3,1.3-4.7,1.3s-2.8-.3-4-.9c-1.1-.6-2.1-1.4-2.8-2.3v12.6h-5.2v-30.1h5.2v2.9c.7-.9,1.6-1.7,2.7-2.3ZM864.2,305.4c-.5-.9-1.2-1.6-2-2-.8-.5-1.7-.7-2.7-.7s-1.8.2-2.6.7c-.8.5-1.5,1.2-2,2.1-.5.9-.8,2-.8,3.2s.3,2.3.8,3.2c.5.9,1.2,1.6,2,2.1.8.5,1.7.7,2.6.7s1.8-.2,2.7-.7c.8-.5,1.5-1.2,2-2.1.5-.9.8-2,.8-3.2s-.3-2.3-.8-3.2Z"/>
    <path class="cls-4" d="M881.7,299.1c1.1-.6,2.3-.9,3.7-.9v5.4h-1.4c-1.6,0-2.8.4-3.7,1.1-.8.8-1.2,2.1-1.2,4v10.2h-5.2v-20.4h5.2v3.2c.7-1.1,1.5-1.9,2.6-2.5Z"/>
    <path class="cls-4" d="M892.6,317.9c-1.6-.9-2.8-2.1-3.7-3.7-.9-1.6-1.3-3.4-1.3-5.5s.5-3.9,1.4-5.5c.9-1.6,2.2-2.8,3.8-3.7,1.6-.9,3.4-1.3,5.3-1.3s3.7.4,5.3,1.3c1.6.9,2.9,2.1,3.8,3.7.9,1.6,1.4,3.4,1.4,5.5s-.5,3.9-1.4,5.5c-.9,1.6-2.2,2.8-3.8,3.7-1.6.9-3.4,1.3-5.4,1.3s-3.7-.4-5.3-1.3ZM900.5,314.1c.8-.5,1.5-1.1,2-2,.5-.9.7-2,.7-3.3,0-1.9-.5-3.4-1.5-4.5-1-1-2.3-1.6-3.7-1.6s-2.7.5-3.7,1.6-1.5,2.5-1.5,4.5.5,3.4,1.5,4.5c1,1,2.2,1.6,3.7,1.6s1.8-.2,2.6-.7Z"/>
    <path class="cls-4" d="M916.1,317.9c-1.6-.9-2.8-2.1-3.7-3.7-.9-1.6-1.3-3.4-1.3-5.5s.5-3.9,1.4-5.5c.9-1.6,2.2-2.8,3.8-3.7,1.6-.9,3.4-1.3,5.3-1.3s3.7.4,5.3,1.3c1.6.9,2.9,2.1,3.8,3.7.9,1.6,1.4,3.4,1.4,5.5s-.5,3.9-1.4,5.5c-.9,1.6-2.2,2.8-3.8,3.7-1.6.9-3.4,1.3-5.4,1.3s-3.7-.4-5.3-1.3ZM924,314.1c.8-.5,1.5-1.1,2-2,.5-.9.7-2,.7-3.3,0-1.9-.5-3.4-1.5-4.5-1-1-2.3-1.6-3.7-1.6s-2.7.5-3.7,1.6-1.5,2.5-1.5,4.5.5,3.4,1.5,4.5c1,1,2.2,1.6,3.7,1.6s1.8-.2,2.6-.7Z"/>
    <path class="cls-4" d="M945.2,302.7h-3.6v16.2h-5.2v-16.2h-2.3v-4.2h2.3v-1c0-2.5.7-4.3,2.1-5.5,1.4-1.2,3.6-1.7,6.4-1.7v4.3c-1.3,0-2.1.2-2.6.6-.5.4-.7,1.2-.7,2.4v.8h3.6v4.2Z"/>
  </g>
  <g class="cls-3">
    <path class="cls-4" d="M1063.4,270.1c-1.4-.6-2.6-1.5-3.4-2.7-.8-1.2-1.3-2.5-1.3-4.1h5.5c0,1.1.4,1.9,1.1,2.5.7.6,1.6.9,2.8.9s2.1-.3,2.8-.9,1-1.3,1-2.3-.2-1.4-.7-1.9-1-.9-1.8-1.2c-.7-.3-1.7-.6-2.9-.9-1.7-.5-3-1-4.1-1.5-1-.5-1.9-1.2-2.7-2.2-.8-1-1.1-2.3-1.1-3.9s.4-2.8,1.1-4c.8-1.1,1.8-2,3.2-2.6,1.4-.6,2.9-.9,4.7-.9,2.7,0,4.8.6,6.5,1.9s2.6,3.1,2.7,5.4h-5.7c0-.9-.4-1.6-1.1-2.2s-1.6-.9-2.8-.9-1.8.3-2.4.8c-.6.5-.9,1.3-.9,2.2s.2,1.3.7,1.7c.5.5,1,.8,1.7,1.1s1.6.6,2.9,1c1.7.5,3,1,4.1,1.5,1.1.5,2,1.2,2.7,2.2.8,1,1.1,2.3,1.1,3.9s-.4,2.7-1.1,3.8-1.8,2.1-3.1,2.8c-1.4.7-3,1-4.9,1s-3.4-.3-4.8-.9Z"/>
    <path class="cls-4" d="M1087.8,254.5v9.9c0,.7.2,1.2.5,1.5.3.3.9.5,1.7.5h2.4v4.3h-3.2c-4.3,0-6.5-2.1-6.5-6.3v-9.8h-2.4v-4.2h2.4v-5h5.2v5h4.6v4.2h-4.6Z"/>
    <path class="cls-4" d="M1103.9,250.9c1.1-.6,2.3-.9,3.7-.9v5.4h-1.4c-1.6,0-2.8.4-3.7,1.1-.8.8-1.2,2.1-1.2,4v10.2h-5.2v-20.4h5.2v3.2c.7-1.1,1.5-1.9,2.6-2.5Z"/>
    <path class="cls-4" d="M1114.8,269.7c-1.6-.9-2.8-2.1-3.7-3.7-.9-1.6-1.3-3.4-1.3-5.5s.5-3.9,1.4-5.5c.9-1.6,2.2-2.8,3.8-3.7,1.6-.9,3.4-1.3,5.3-1.3s3.7.4,5.3,1.3c1.6.9,2.9,2.1,3.8,3.7.9,1.6,1.4,3.4,1.4,5.5s-.5,3.9-1.4,5.5c-.9,1.6-2.2,2.8-3.8,3.7s-3.4,1.3-5.4,1.3-3.7-.4-5.3-1.3ZM1122.7,265.9c.8-.5,1.5-1.1,2-2s.7-2,.7-3.3c0-1.9-.5-3.4-1.5-4.5-1-1-2.3-1.6-3.7-1.6s-2.7.5-3.7,1.6-1.5,2.5-1.5,4.5.5,3.4,1.5,4.5c1,1,2.2,1.6,3.7,1.6s1.8-.2,2.6-.7Z"/>
    <path class="cls-4" d="M1151.7,252.3c1.5,1.5,2.2,3.7,2.2,6.4v12h-5.2v-11.3c0-1.6-.4-2.9-1.2-3.7s-1.9-1.3-3.3-1.3-2.5.4-3.4,1.3-1.2,2.1-1.2,3.7v11.3h-5.2v-20.4h5.2v2.5c.7-.9,1.6-1.6,2.6-2.1,1.1-.5,2.2-.8,3.5-.8,2.4,0,4.4.8,5.9,2.3Z"/>
    <path class="cls-4" d="M1170.9,250.9c1.2.6,2.1,1.4,2.7,2.3v-2.9h5.2v20.6c0,1.9-.4,3.6-1.1,5.1-.8,1.5-1.9,2.7-3.4,3.5s-3.4,1.3-5.5,1.3-5.3-.7-7.1-2c-1.9-1.4-2.9-3.2-3.2-5.5h5.1c.3.9.9,1.7,1.8,2.2.9.6,2,.8,3.3.8s2.7-.4,3.6-1.3c.9-.9,1.4-2.3,1.4-4.1v-3.2c-.7,1-1.6,1.8-2.7,2.4-1.2.6-2.5,1-4,1s-3.3-.4-4.7-1.3c-1.4-.9-2.5-2.1-3.4-3.7-.8-1.6-1.2-3.5-1.2-5.5s.4-3.9,1.2-5.5c.8-1.6,1.9-2.8,3.4-3.7,1.4-.9,3-1.3,4.7-1.3s2.9.3,4,.9ZM1172.9,257.3c-.5-.9-1.2-1.6-2-2.1-.8-.5-1.7-.7-2.7-.7s-1.8.2-2.7.7-1.5,1.1-2,2c-.5.9-.8,2-.8,3.2s.3,2.3.8,3.2c.5.9,1.2,1.6,2,2.1.8.5,1.7.7,2.6.7s1.9-.2,2.7-.7c.8-.5,1.5-1.2,2-2.1.5-.9.7-2,.7-3.2s-.2-2.3-.7-3.2Z"/>
    <path class="cls-4" d="M1211.5,262.1h-14.9c.1,1.5.6,2.6,1.5,3.5.9.8,2,1.3,3.4,1.3,1.9,0,3.3-.8,4.1-2.5h5.6c-.6,2-1.7,3.6-3.4,4.8-1.7,1.3-3.7,1.9-6.2,1.9s-3.7-.4-5.3-1.3-2.8-2.1-3.6-3.7c-.9-1.6-1.3-3.4-1.3-5.5s.4-4,1.3-5.6c.9-1.6,2.1-2.8,3.6-3.7,1.5-.9,3.3-1.3,5.3-1.3s3.7.4,5.2,1.3c1.5.8,2.7,2,3.6,3.6s1.3,3.3,1.3,5.3,0,1.4-.1,2ZM1206.3,258.6c0-1.3-.5-2.4-1.4-3.2-.9-.8-2.1-1.2-3.4-1.2s-2.4.4-3.2,1.2c-.9.8-1.4,1.8-1.6,3.2h9.7Z"/>
    <path class="cls-4" d="M1246.8,252.3c1.5,1.5,2.3,3.7,2.3,6.4v12h-5.2v-11.3c0-1.6-.4-2.8-1.2-3.7-.8-.8-1.9-1.3-3.3-1.3s-2.5.4-3.3,1.3c-.8.8-1.2,2.1-1.2,3.7v11.3h-5.2v-11.3c0-1.6-.4-2.8-1.2-3.7-.8-.8-1.9-1.3-3.3-1.3s-2.5.4-3.4,1.3c-.8.8-1.2,2.1-1.2,3.7v11.3h-5.2v-20.4h5.2v2.5c.7-.9,1.5-1.5,2.6-2,1-.5,2.2-.7,3.4-.7s3,.3,4.3,1,2.2,1.6,2.9,2.9c.7-1.2,1.6-2.1,2.9-2.8,1.3-.7,2.6-1.1,4.1-1.1,2.5,0,4.5.8,6.1,2.3Z"/>
    <path class="cls-4" d="M1261.9,250.9c1.2-.6,2.5-.9,4-.9s3.3.4,4.7,1.3c1.4.9,2.5,2.1,3.4,3.7.8,1.6,1.2,3.4,1.2,5.5s-.4,3.9-1.2,5.5c-.8,1.6-1.9,2.9-3.4,3.7-1.4.9-3,1.3-4.7,1.3s-2.8-.3-4-.9c-1.1-.6-2.1-1.4-2.8-2.3v12.6h-5.2v-30.1h5.2v2.9c.7-.9,1.6-1.7,2.7-2.3ZM1269.2,257.2c-.5-.9-1.2-1.6-2-2s-1.7-.7-2.7-.7-1.8.2-2.6.7c-.8.5-1.5,1.2-2,2.1-.5.9-.8,2-.8,3.2s.3,2.3.8,3.2c.5.9,1.2,1.6,2,2.1.8.5,1.7.7,2.6.7s1.8-.2,2.7-.7,1.5-1.2,2-2.1c.5-.9.8-2,.8-3.2s-.3-2.3-.8-3.2Z"/>
    <path class="cls-4" d="M1294.6,251c1.2.7,2.1,1.7,2.8,3,.7,1.3,1,2.9,1,4.7v12h-5.2v-11.3c0-1.6-.4-2.9-1.2-3.7s-1.9-1.3-3.3-1.3-2.5.4-3.4,1.3c-.8.9-1.2,2.1-1.2,3.7v11.3h-5.2v-27.3h5.2v9.4c.7-.9,1.5-1.6,2.7-2.1s2.3-.8,3.7-.8,2.9.3,4.1,1Z"/>
    <path class="cls-4" d="M1303.3,254.9c.8-1.6,1.9-2.8,3.4-3.7,1.4-.9,3-1.3,4.7-1.3s2.9.3,4,.9c1.1.6,2.1,1.4,2.7,2.3v-2.9h5.2v20.4h-5.2v-3c-.7,1-1.6,1.8-2.7,2.4-1.2.6-2.5.9-4,.9s-3.3-.4-4.7-1.3c-1.4-.9-2.5-2.1-3.4-3.7-.8-1.6-1.2-3.5-1.2-5.5s.4-3.9,1.2-5.5ZM1317.3,257.3c-.5-.9-1.2-1.6-2-2.1-.8-.5-1.7-.7-2.7-.7s-1.8.2-2.7.7-1.5,1.1-2,2c-.5.9-.8,2-.8,3.2s.3,2.3.8,3.2c.5.9,1.2,1.6,2,2.1.8.5,1.7.7,2.6.7s1.9-.2,2.7-.7c.8-.5,1.5-1.2,2-2.1.5-.9.7-2,.7-3.2s-.2-2.3-.7-3.2Z"/>
    <path class="cls-4" d="M1331.6,270.1c-1.3-.6-2.4-1.4-3.2-2.5-.8-1-1.2-2.2-1.3-3.4h5.2c0,.8.5,1.4,1.2,2,.7.5,1.5.8,2.5.8s1.8-.2,2.3-.6c.6-.4.8-.9.8-1.5s-.3-1.2-1-1.5c-.7-.3-1.8-.7-3.2-1.1-1.5-.4-2.8-.7-3.7-1.1s-1.8-1-2.5-1.8-1-1.9-1-3.3.3-2.2,1-3.1c.7-.9,1.6-1.7,2.8-2.2,1.2-.5,2.6-.8,4.3-.8,2.4,0,4.4.6,5.8,1.8,1.4,1.2,2.2,2.9,2.4,4.9h-4.9c0-.8-.4-1.5-1-1.9-.6-.5-1.4-.7-2.4-.7s-1.7.2-2.2.5c-.5.3-.8.8-.8,1.4s.3,1.2,1,1.6,1.8.7,3.2,1.1c1.5.4,2.7.7,3.6,1.1,1,.4,1.8,1,2.5,1.8.7.8,1.1,1.9,1.1,3.3,0,1.2-.3,2.2-1,3.2-.7.9-1.6,1.7-2.8,2.2-1.2.5-2.6.8-4.3.8s-3.2-.3-4.5-.9Z"/>
    <path class="cls-4" d="M1348.8,247c-.6-.6-.9-1.3-.9-2.2s.3-1.6.9-2.2c.6-.6,1.4-.9,2.3-.9s1.7.3,2.3.9c.6.6.9,1.3.9,2.2s-.3,1.6-.9,2.2c-.6.6-1.4.9-2.3.9s-1.7-.3-2.3-.9ZM1353.6,250.3v20.4h-5.2v-20.4h5.2Z"/>
    <path class="cls-4" d="M1362,270.1c-1.3-.6-2.4-1.4-3.2-2.5-.8-1-1.2-2.2-1.3-3.4h5.2c0,.8.5,1.4,1.2,2,.7.5,1.5.8,2.5.8s1.8-.2,2.3-.6c.6-.4.8-.9.8-1.5s-.3-1.2-1-1.5c-.7-.3-1.8-.7-3.2-1.1-1.5-.4-2.8-.7-3.7-1.1s-1.8-1-2.5-1.8-1-1.9-1-3.3.3-2.2,1-3.1c.7-.9,1.6-1.7,2.8-2.2,1.2-.5,2.6-.8,4.3-.8,2.4,0,4.4.6,5.8,1.8,1.4,1.2,2.2,2.9,2.4,4.9h-4.9c0-.8-.4-1.5-1-1.9-.6-.5-1.4-.7-2.4-.7s-1.7.2-2.2.5c-.5.3-.8.8-.8,1.4s.3,1.2,1,1.6,1.8.7,3.2,1.1c1.5.4,2.7.7,3.6,1.1,1,.4,1.8,1,2.5,1.8.7.8,1.1,1.9,1.1,3.3,0,1.2-.3,2.2-1,3.2-.7.9-1.6,1.7-2.8,2.2-1.2.5-2.6.8-4.3.8s-3.2-.3-4.5-.9Z"/>
    <path class="cls-4" d="M1391.3,269.7c-1.6-.9-2.8-2.1-3.7-3.7-.9-1.6-1.3-3.4-1.3-5.5s.5-3.9,1.4-5.5c.9-1.6,2.2-2.8,3.8-3.7,1.6-.9,3.4-1.3,5.3-1.3s3.7.4,5.3,1.3c1.6.9,2.9,2.1,3.8,3.7.9,1.6,1.4,3.4,1.4,5.5s-.5,3.9-1.4,5.5c-.9,1.6-2.2,2.8-3.8,3.7s-3.4,1.3-5.4,1.3-3.7-.4-5.3-1.3ZM1399.2,265.9c.8-.5,1.5-1.1,2-2s.7-2,.7-3.3c0-1.9-.5-3.4-1.5-4.5-1-1-2.3-1.6-3.7-1.6s-2.7.5-3.7,1.6-1.5,2.5-1.5,4.5.5,3.4,1.5,4.5c1,1,2.2,1.6,3.7,1.6s1.8-.2,2.6-.7Z"/>
    <path class="cls-4" d="M1428.2,252.3c1.5,1.5,2.2,3.7,2.2,6.4v12h-5.2v-11.3c0-1.6-.4-2.9-1.2-3.7s-1.9-1.3-3.3-1.3-2.5.4-3.4,1.3-1.2,2.1-1.2,3.7v11.3h-5.2v-20.4h5.2v2.5c.7-.9,1.6-1.6,2.6-2.1,1.1-.5,2.2-.8,3.5-.8,2.4,0,4.4.8,5.9,2.3Z"/>
    <path class="cls-4" d="M1043,295.2c-.6-.6-.9-1.3-.9-2.2s.3-1.6.9-2.2c.6-.6,1.4-.9,2.3-.9s1.7.3,2.3.9c.6.6.9,1.3.9,2.2s-.3,1.6-.9,2.2c-.6.6-1.4.9-2.3.9s-1.7-.3-2.3-.9ZM1047.8,298.5v20.4h-5.2v-20.4h5.2Z"/>
    <path class="cls-4" d="M1070.1,300.5c1.5,1.5,2.2,3.7,2.2,6.4v12h-5.2v-11.3c0-1.6-.4-2.9-1.2-3.7s-1.9-1.3-3.3-1.3-2.5.4-3.4,1.3-1.2,2.1-1.2,3.7v11.3h-5.2v-20.4h5.2v2.5c.7-.9,1.6-1.6,2.6-2.1,1.1-.5,2.2-.8,3.5-.8,2.4,0,4.4.8,5.9,2.3Z"/>
    <path class="cls-4" d="M1080.6,318.3c-1.3-.6-2.4-1.4-3.2-2.5-.8-1-1.2-2.2-1.3-3.4h5.2c0,.8.5,1.4,1.2,2,.7.5,1.5.8,2.5.8s1.8-.2,2.3-.6c.6-.4.8-.9.8-1.5s-.3-1.2-1-1.5c-.7-.3-1.8-.7-3.2-1.1-1.5-.4-2.8-.7-3.7-1.1-1-.4-1.8-1-2.5-1.8s-1.1-1.9-1.1-3.3.3-2.2,1-3.1c.7-.9,1.6-1.7,2.8-2.2,1.2-.5,2.6-.8,4.3-.8,2.4,0,4.4.6,5.8,1.8,1.5,1.2,2.2,2.9,2.4,4.9h-4.9c0-.8-.4-1.5-1-1.9-.6-.5-1.4-.7-2.4-.7s-1.7.2-2.2.5c-.5.3-.8.8-.8,1.4s.3,1.2,1,1.6c.7.4,1.8.7,3.2,1.1,1.5.4,2.7.7,3.6,1.1,1,.4,1.8,1,2.5,1.8.7.8,1.1,1.9,1.1,3.3,0,1.2-.3,2.2-1,3.2-.7.9-1.6,1.7-2.8,2.2-1.2.5-2.6.8-4.3.8s-3.2-.3-4.5-.9Z"/>
    <path class="cls-4" d="M1103.4,302.7v9.9c0,.7.2,1.2.5,1.5.3.3.9.5,1.7.5h2.4v4.3h-3.2c-4.3,0-6.5-2.1-6.5-6.3v-9.8h-2.4v-4.2h2.4v-5h5.2v5h4.6v4.2h-4.6Z"/>
    <path class="cls-4" d="M1119.4,299.1c1.1-.6,2.3-.9,3.7-.9v5.4h-1.4c-1.6,0-2.8.4-3.7,1.1s-1.2,2.1-1.2,4v10.2h-5.2v-20.4h5.2v3.2c.7-1.1,1.5-1.9,2.6-2.5Z"/>
    <path class="cls-4" d="M1145.8,298.5v20.4h-5.2v-2.6c-.7.9-1.5,1.6-2.6,2.1-1.1.5-2.2.8-3.5.8s-3-.3-4.2-1c-1.2-.7-2.2-1.7-2.9-3s-1-2.9-1-4.7v-12h5.2v11.2c0,1.6.4,2.9,1.2,3.7s1.9,1.3,3.3,1.3,2.5-.4,3.4-1.3,1.2-2.1,1.2-3.7v-11.2h5.2Z"/>
    <path class="cls-4" d="M1150.9,303.2c.9-1.6,2.1-2.8,3.6-3.7s3.3-1.3,5.2-1.3,4.6.6,6.3,1.9,2.8,3,3.3,5.3h-5.6c-.3-.9-.8-1.6-1.5-2.1-.7-.5-1.6-.8-2.6-.8-1.5,0-2.6.5-3.5,1.6-.9,1.1-1.3,2.6-1.3,4.6s.4,3.4,1.3,4.5,2,1.6,3.5,1.6c2.1,0,3.5-.9,4.1-2.8h5.6c-.6,2.2-1.7,4-3.4,5.3-1.7,1.3-3.8,2-6.3,2s-3.7-.4-5.2-1.3-2.7-2.1-3.6-3.7c-.9-1.6-1.3-3.4-1.3-5.5s.4-4,1.3-5.5Z"/>
    <path class="cls-4" d="M1179.1,302.7v9.9c0,.7.2,1.2.5,1.5.3.3.9.5,1.7.5h2.4v4.3h-3.2c-4.3,0-6.5-2.1-6.5-6.3v-9.8h-2.4v-4.2h2.4v-5h5.2v5h4.6v4.2h-4.6Z"/>
    <path class="cls-4" d="M1191.1,317.9c-1.6-.9-2.8-2.1-3.7-3.7-.9-1.6-1.3-3.4-1.3-5.5s.5-3.9,1.4-5.5c.9-1.6,2.2-2.8,3.8-3.7,1.6-.9,3.4-1.3,5.3-1.3s3.7.4,5.3,1.3c1.6.9,2.9,2.1,3.8,3.7.9,1.6,1.4,3.4,1.4,5.5s-.5,3.9-1.4,5.5c-.9,1.6-2.2,2.8-3.8,3.7s-3.4,1.3-5.4,1.3-3.7-.4-5.3-1.3ZM1199.1,314.1c.8-.5,1.5-1.1,2-2s.7-2,.7-3.3c0-1.9-.5-3.4-1.5-4.5-1-1-2.3-1.6-3.7-1.6s-2.7.5-3.7,1.6-1.5,2.5-1.5,4.5.5,3.4,1.5,4.5c1,1,2.2,1.6,3.7,1.6s1.8-.2,2.6-.7Z"/>
    <path class="cls-4" d="M1218.6,299.1c1.1-.6,2.3-.9,3.7-.9v5.4h-1.4c-1.6,0-2.8.4-3.7,1.1s-1.2,2.1-1.2,4v10.2h-5.2v-20.4h5.2v3.2c.7-1.1,1.5-1.9,2.6-2.5Z"/>
    <path class="cls-4" d="M1226.8,293.2h5.4l-4,9.3h-3.5l2.1-9.3Z"/>
    <path class="cls-4" d="M1239.2,318.3c-1.3-.6-2.4-1.4-3.2-2.5-.8-1-1.2-2.2-1.3-3.4h5.2c0,.8.5,1.4,1.2,2,.7.5,1.5.8,2.5.8s1.8-.2,2.3-.6c.6-.4.8-.9.8-1.5s-.3-1.2-1-1.5c-.7-.3-1.8-.7-3.2-1.1-1.5-.4-2.8-.7-3.7-1.1-1-.4-1.8-1-2.5-1.8s-1.1-1.9-1.1-3.3.3-2.2,1-3.1c.7-.9,1.6-1.7,2.8-2.2,1.2-.5,2.6-.8,4.3-.8,2.4,0,4.4.6,5.8,1.8,1.5,1.2,2.2,2.9,2.4,4.9h-4.9c0-.8-.4-1.5-1-1.9-.6-.5-1.4-.7-2.4-.7s-1.7.2-2.2.5c-.5.3-.8.8-.8,1.4s.3,1.2,1,1.6c.7.4,1.8.7,3.2,1.1,1.5.4,2.7.7,3.6,1.1,1,.4,1.8,1,2.5,1.8.7.8,1.1,1.9,1.1,3.3,0,1.2-.3,2.2-1,3.2-.7.9-1.6,1.7-2.8,2.2-1.2.5-2.6.8-4.3.8s-3.2-.3-4.5-.9Z"/>
    <path class="cls-4" d="M1264.7,303.2c.9-1.6,2.1-2.8,3.6-3.7s3.3-1.3,5.2-1.3,4.6.6,6.3,1.9,2.8,3,3.3,5.3h-5.6c-.3-.9-.8-1.6-1.5-2.1-.7-.5-1.6-.8-2.6-.8-1.5,0-2.6.5-3.5,1.6-.9,1.1-1.3,2.6-1.3,4.6s.4,3.4,1.3,4.5,2,1.6,3.5,1.6c2.1,0,3.5-.9,4.1-2.8h5.6c-.6,2.2-1.7,4-3.4,5.3-1.7,1.3-3.8,2-6.3,2s-3.7-.4-5.2-1.3-2.7-2.1-3.6-3.7c-.9-1.6-1.3-3.4-1.3-5.5s.4-4,1.3-5.5Z"/>
    <path class="cls-4" d="M1294.7,299.1c1.1-.6,2.3-.9,3.7-.9v5.4h-1.4c-1.6,0-2.8.4-3.7,1.1-.8.8-1.2,2.1-1.2,4v10.2h-5.2v-20.4h5.2v3.2c.7-1.1,1.5-1.9,2.6-2.5Z"/>
    <path class="cls-4" d="M1320.7,310.2h-14.9c.1,1.5.6,2.6,1.5,3.5.9.8,2,1.3,3.4,1.3,1.9,0,3.3-.8,4.1-2.5h5.6c-.6,2-1.7,3.6-3.4,4.8-1.7,1.3-3.7,1.9-6.2,1.9s-3.7-.4-5.3-1.3-2.8-2.1-3.6-3.7c-.9-1.6-1.3-3.4-1.3-5.5s.4-4,1.3-5.6c.9-1.6,2.1-2.8,3.6-3.7,1.5-.9,3.3-1.3,5.3-1.3s3.7.4,5.2,1.3c1.5.8,2.7,2,3.6,3.6s1.3,3.3,1.3,5.3,0,1.4-.1,2ZM1315.5,306.8c0-1.3-.5-2.4-1.4-3.2-.9-.8-2.1-1.2-3.4-1.2s-2.4.4-3.2,1.2c-.9.8-1.4,1.8-1.6,3.2h9.7Z"/>
    <path class="cls-4" d="M1324.5,303.1c.8-1.6,1.9-2.8,3.4-3.7,1.4-.9,3-1.3,4.8-1.3s2.6.3,3.8.9,2.2,1.3,2.9,2.3v-9.7h5.2v27.3h-5.2v-3c-.6,1-1.5,1.8-2.7,2.4-1.2.6-2.5.9-4,.9s-3.3-.4-4.7-1.3c-1.4-.9-2.5-2.1-3.4-3.7-.8-1.6-1.2-3.5-1.2-5.5s.4-3.9,1.2-5.5ZM1338.6,305.5c-.5-.9-1.2-1.6-2-2.1-.8-.5-1.7-.7-2.7-.7s-1.8.2-2.7.7c-.8.5-1.5,1.1-2,2-.5.9-.8,2-.8,3.2s.3,2.3.8,3.2c.5.9,1.2,1.6,2,2.1s1.7.7,2.6.7,1.9-.2,2.7-.7c.8-.5,1.5-1.2,2-2.1.5-.9.7-2,.7-3.2s-.2-2.3-.7-3.2Z"/>
    <path class="cls-4" d="M1349.9,295.2c-.6-.6-.9-1.3-.9-2.2s.3-1.6.9-2.2c.6-.6,1.4-.9,2.3-.9s1.7.3,2.3.9.9,1.3.9,2.2-.3,1.6-.9,2.2-1.4.9-2.3.9-1.7-.3-2.3-.9ZM1354.7,298.5v20.4h-5.2v-20.4h5.2Z"/>
    <path class="cls-4" d="M1367.7,299.1c1.2-.6,2.5-.9,4-.9s3.3.4,4.7,1.3c1.4.9,2.5,2.1,3.4,3.7.8,1.6,1.2,3.4,1.2,5.5s-.4,3.9-1.2,5.5c-.8,1.6-1.9,2.9-3.4,3.7-1.4.9-3,1.3-4.7,1.3s-2.9-.3-4-.9c-1.1-.6-2.1-1.4-2.7-2.3v2.9h-5.2v-27.3h5.2v9.8c.7-1,1.6-1.8,2.7-2.4ZM1375,305.4c-.5-.9-1.2-1.6-2-2s-1.7-.7-2.7-.7-1.8.2-2.6.7c-.8.5-1.5,1.2-2,2.1-.5.9-.8,2-.8,3.2s.3,2.3.8,3.2c.5.9,1.2,1.6,2,2.1.8.5,1.7.7,2.6.7s1.8-.2,2.7-.7,1.5-1.2,2-2.1c.5-.9.8-2,.8-3.2s-.3-2.3-.8-3.2Z"/>
    <path class="cls-4" d="M1385.1,295.2c-.6-.6-.9-1.3-.9-2.2s.3-1.6.9-2.2c.6-.6,1.4-.9,2.3-.9s1.7.3,2.3.9.9,1.3.9,2.2-.3,1.6-.9,2.2-1.4.9-2.3.9-1.7-.3-2.3-.9ZM1389.9,298.5v20.4h-5.2v-20.4h5.2Z"/>
    <path class="cls-4" d="M1400.2,291.6v27.3h-5.2v-27.3h5.2Z"/>
    <path class="cls-4" d="M1405.6,295.2c-.6-.6-.9-1.3-.9-2.2s.3-1.6.9-2.2c.6-.6,1.4-.9,2.3-.9s1.7.3,2.3.9c.6.6.9,1.3.9,2.2s-.3,1.6-.9,2.2c-.6.6-1.4.9-2.3.9s-1.7-.3-2.3-.9ZM1410.4,298.5v20.4h-5.2v-20.4h5.2Z"/>
    <path class="cls-4" d="M1421.5,302.7v9.9c0,.7.2,1.2.5,1.5.3.3.9.5,1.7.5h2.4v4.3h-3.2c-4.3,0-6.5-2.1-6.5-6.3v-9.8h-2.4v-4.2h2.4v-5h5.2v5h4.6v4.2h-4.6Z"/>
    <path class="cls-4" d="M1449.3,298.5l-12.6,30.1h-5.5l4.4-10.2-8.2-19.9h5.8l5.3,14.3,5.3-14.3h5.5Z"/>
  </g>
  <text class="cls-2" transform="translate(1619.5 270.7)"><tspan x="0" y="0">Flexibility and</tspan><tspan x=".5" y="48.2">risk reduction</tspan></text>
  <path class="cls-1" d="M1265.7,102.4c0,5.4-2,10.3-5.3,14-1.8,2-3.9,3.6-6.3,4.8-2.8,1.4-5.9,2.2-9.3,2.2s-6.5-.8-9.2-2.2c-2.4-1.2-4.5-2.8-6.3-4.8-3.3-3.7-5.4-8.6-5.4-14,0-11.5,9.4-20.9,20.9-20.9s20.9,9.4,20.9,20.9Z"/>
  <path class="cls-1" d="M1254.1,121.1l-9.2,24.4-5.2,13.6-7.6-11.8-15.6,3,12.9-34c1.8,2,3.9,3.6,6.3,4.8,2.8,1.4,5.9,2.2,9.2,2.2s6.5-.8,9.3-2.2Z"/>
  <path class="cls-1" d="M1273.3,150.3l-15.6-3-7.6,11.8-5.2-13.6,9.2-24.4c2.4-1.2,4.5-2.8,6.3-4.8l12.9,34Z"/>
  <rect class="cls-1" x="1724.1" y="72.8" width="48.9" height="91.2" rx="24.5" ry="24.5" transform="translate(595.9 -1201.7) rotate(45)"/>
  <rect class="cls-1" x="1738.5" y="99.7" width="20" height="37.4" rx=".7" ry=".7" transform="translate(595.9 -1201.7) rotate(45)"/>
</svg>