<svg id="Layer_1" data-name="Layer 1" xmlns="http://www.w3.org/2000/svg" viewBox="0 0 1273 770"><defs><style>.cls-1{fill:#c7996b;}.cls-2{fill:#a5744c;}.cls-3{fill:#b78558;}</style></defs><path class="cls-1" d="M1.9,0h1269a2.14,2.14,0,0,1,2.1,2.2V769.6a2.2,2.2,0,0,1-2.1,2.2H1.9a2.14,2.14,0,0,1-2.1-2.2V2.2A2.2,2.2,0,0,1,1.9,0Z"/><path class="cls-2" d="M1240.6,34.2V735.5a2.11,2.11,0,0,1-2.1,2.1H34.3a2.11,2.11,0,0,1-2.1-2.1V36.3a2.11,2.11,0,0,1,2.1-2.1H1240.6m18.7-21.3H13.5A2.11,2.11,0,0,0,11.4,15V756.8a2.11,2.11,0,0,0,2.1,2.1H1259.3a2.11,2.11,0,0,0,2.1-2.1V15A2.05,2.05,0,0,0,1259.3,12.9Z"/><path class="cls-3" d="M1251.8,22.1V747.6a2.2,2.2,0,0,1-2.1,2.2H23.1a2.14,2.14,0,0,1-2.1-2.2V24.3a2.2,2.2,0,0,1,2.1-2.2H1251.8M1270.9,0H1.9A2.2,2.2,0,0,0-.2,2.2V769.6a2.2,2.2,0,0,0,2.1,2.2h1269a2.14,2.14,0,0,0,2.1-2.2V2.2A2.2,2.2,0,0,0,1270.9,0Z"/></svg>