<svg id="Layer_1" data-name="Layer 1" xmlns="http://www.w3.org/2000/svg" viewBox="0 0 289 318"><defs><style>.cls-1{fill:#c7996b;}.cls-2{fill:#a5744c;}.cls-3{fill:#b78558;}</style></defs><path class="cls-1" d="M289,1.08l-.11,315.84a.46.46,0,0,1-.06.23,1.07,1.07,0,0,1-.18.19,1.11,1.11,0,0,1-.27.12,1.06,1.06,0,0,1-.31,0H.82a1,1,0,0,1-.57-.17.55.55,0,0,1-.25-.41L.11,1.08A.46.46,0,0,1,.17.85,1.07,1.07,0,0,1,.35.66,1.11,1.11,0,0,1,.62.54,1.06,1.06,0,0,1,.93.5H288.18a1,1,0,0,1,.57.17A.55.55,0,0,1,289,1.08Z"/><path class="cls-2" d="M275.94,305.27H14a.79.79,0,0,1-.79-.78l-.14-291a.79.79,0,0,1,.78-.78H275a.79.79,0,0,1,.79.78Zm8,7L283.75,5.74a.75.75,0,0,0-.23-.55A.76.76,0,0,0,283,5H5.89a.79.79,0,0,0-.79.78l.15,306.52a.75.75,0,0,0,.23.55A.76.76,0,0,0,6,313H283.11a.65.65,0,0,0,.31-.05.85.85,0,0,0,.25-.17.56.56,0,0,0,.17-.26A.77.77,0,0,0,283.9,312.26Z"/><path class="cls-3" d="M280.36,310H9.37a.82.82,0,0,1-.82-.78V9.63a.81.81,0,0,1,.06-.31,1.51,1.51,0,0,1,.18-.26.74.74,0,0,1,.27-.16.81.81,0,0,1,.31-.06H279.54a.88.88,0,0,1,.57.23.85.85,0,0,1,.25.56Zm8.26,7.13V1.71a.82.82,0,0,0-.26-.56.83.83,0,0,0-.57-.22H1.15a.85.85,0,0,0-.57.22.85.85,0,0,0-.25.56V317.13a.67.67,0,0,0,.07.31.76.76,0,0,0,.18.26.78.78,0,0,0,.26.17,1.06,1.06,0,0,0,.31.05H287.79a.79.79,0,0,0,.57-.23A.78.78,0,0,0,288.62,317.13Z"/></svg>