<svg width="1192" height="796" viewBox="0 0 1192 796" fill="none" xmlns="http://www.w3.org/2000/svg">
<path d="M1185 4H7C5.89543 4 5 4.89544 5 6.00001V790C5 791.105 5.89544 792 7.00001 792H1185C1186.1 792 1187 791.105 1187 790V6C1187 4.89543 1186.1 4 1185 4Z" fill="#DCA077" stroke="#B86F3C" stroke-width="8" stroke-linecap="round" stroke-linejoin="round"/>
<path d="M102.284 110.264L220.814 118.552L214.418 210.02C213.183 227.684 198.417 241.059 181.459 239.873L93.6499 233.733L102.284 110.264Z" fill="#D5CE6E" stroke="#5E5523" stroke-width="9.90164" stroke-linecap="round" stroke-linejoin="round"/>
<path d="M180.251 237.307L182.496 205.205L214.598 207.45" stroke="#5E5523" stroke-width="9.90164" stroke-linecap="round" stroke-linejoin="round"/>
<path d="M161.92 126.841C169.421 127.366 175.927 121.711 176.452 114.21C176.976 106.709 171.321 100.203 163.82 99.6783C156.319 99.1538 149.813 104.809 149.289 112.31C148.764 119.811 154.42 126.317 161.92 126.841Z" fill="#D0D3EB" stroke="#4D58A6" stroke-width="9.90164" stroke-linecap="round" stroke-linejoin="round"/>
<line x1="135.287" y1="170.6" x2="182.205" y2="173.881" stroke="#2D2926" stroke-width="9.90164" stroke-linecap="round"/>
<line x1="145.723" y1="190.69" x2="172.024" y2="151.698" stroke="#2D2926" stroke-width="9.90164" stroke-linecap="round"/>
<line x1="148.399" y1="151" x2="169.017" y2="193.273" stroke="#2D2926" stroke-width="9.90164" stroke-linecap="round"/>
<path d="M1014.94 593.841L1133.47 602.129L1127.08 693.597C1125.84 711.261 1111.08 724.636 1094.12 723.45L1006.31 717.31L1014.94 593.841Z" fill="#F8C760" stroke="#B47605" stroke-width="8" stroke-linecap="round" stroke-linejoin="round"/>
<path d="M1092.91 720.884L1095.16 688.782L1127.26 691.027" stroke="#B47605" stroke-width="8" stroke-linecap="round" stroke-linejoin="round"/>
<line x1="1039.72" y1="631.393" x2="1108.22" y2="636.183" stroke="#2D2926" stroke-width="8" stroke-linecap="round"/>
<line x1="1037.86" y1="657.995" x2="1106.36" y2="662.785" stroke="#2D2926" stroke-width="8" stroke-linecap="round"/>
<line x1="1036" y1="684.596" x2="1074.57" y2="687.294" stroke="#2D2926" stroke-width="8" stroke-linecap="round"/>
<path d="M1074.58 610.418C1082.08 610.943 1088.59 605.287 1089.11 597.787C1089.64 590.286 1083.98 583.78 1076.48 583.255C1068.98 582.731 1062.47 588.386 1061.95 595.887C1061.42 603.388 1067.08 609.894 1074.58 610.418Z" fill="#DF6665" stroke="#BD3C41" stroke-width="8" stroke-linecap="round" stroke-linejoin="round"/>
<path d="M118.2 531.384L236.947 527.238L240.147 618.873C240.765 636.569 227.478 651.414 210.489 652.007L122.519 655.079L118.2 531.384Z" fill="#D0D3EB" stroke="#4D58A6" stroke-width="9.90164" stroke-linecap="round" stroke-linejoin="round"/>
<path d="M209.019 649.582L207.896 617.421L240.057 616.298" stroke="#4D58A6" stroke-width="9.90164" stroke-linecap="round" stroke-linejoin="round"/>
<path d="M179.242 541.637C186.756 541.375 192.636 535.07 192.373 527.556C192.111 520.041 185.806 514.162 178.292 514.424C170.777 514.687 164.898 520.991 165.16 528.506C165.423 536.021 171.727 541.9 179.242 541.637Z" fill="#F2E8E4" stroke="#54565A" stroke-width="9.90164" stroke-linecap="round" stroke-linejoin="round"/>
<path d="M148.868 629.39C161.612 626.204 169.463 611.737 169.394 598.034C169.363 592.126 168.037 585.959 164.376 581.519C164.376 581.519 164.313 581.399 164.255 581.401C158.101 574.185 146.169 580.571 148.193 590.003C149.459 596.111 153.104 601.77 158.244 605.063C166.97 610.606 178.961 609.273 186.727 602.423C194.494 595.574 197.769 583.947 195.538 573.608C194.706 569.861 193.176 566.198 190.343 563.739C187.511 561.279 183.273 560.392 180.129 562.39C175.097 565.551 175.725 573.508 178.543 578.892C182.859 587.026 191.065 592.769 199.873 593.985C208.681 595.2 217.969 591.769 224.105 585.098" stroke="#2D2926" stroke-width="9.90164" stroke-linecap="round" stroke-linejoin="round"/>
<path d="M1134.54 256.686L1050.43 253.749L1046.11 377.444L1130.22 380.382L1134.54 256.686Z" fill="#F2E8E3" stroke="#8F7C72" stroke-width="8.66393" stroke-linecap="round" stroke-linejoin="round"/>
<rect x="1064.75" y="269.111" width="54.459" height="79.2131" rx="2.47541" transform="rotate(2 1064.75 269.111)" fill="#CBB4A8" stroke="#AD9182" stroke-width="8.66393"/>
<path d="M1093.38 265.157C1100.89 265.419 1107.2 259.54 1107.46 252.025C1107.72 244.511 1101.84 238.206 1094.33 237.944C1086.81 237.681 1080.51 243.56 1080.25 251.075C1079.98 258.59 1085.86 264.894 1093.38 265.157Z" fill="#F8C760" stroke="#B47605" stroke-width="8.66393" stroke-linecap="round" stroke-linejoin="round"/>
<rect x="854.759" y="60.2099" width="147.771" height="176.504" rx="2" transform="rotate(-3 854.759 60.2099)" fill="#F2E8E4" stroke="#54565A" stroke-width="8" stroke-linejoin="round"/>
<path d="M989.934 116.393C989.934 116.393 991.295 92.6924 971.79 85.2374C946.974 75.7674 936.938 95.3363 936.938 95.3363C928.954 92.7652 921.797 95.8841 921.797 95.8841C921.797 95.8841 905.346 80.7338 886.638 94.6962C870.748 106.545 878.212 134.125 878.212 134.125L918.17 180.314L945.728 183.907L970.536 170.73L989.894 116.395L989.934 116.393Z" fill="#8E8733" stroke="#5F5523" stroke-width="8" stroke-linecap="round" stroke-linejoin="round"/>
<path d="M906.455 162.26L929.483 180.266L944.086 179.501L964.385 159.102L969.201 223.668C969.201 223.668 940.005 234.499 909.775 226.374L906.415 162.262L906.455 162.26Z" fill="#F2E8E3" stroke="#B0A7A5" stroke-width="8" stroke-linecap="round" stroke-linejoin="round"/>
<path d="M943.338 191.731L950.832 203.381C950.974 203.613 950.989 203.892 950.874 204.179L940.942 228.624C940.634 229.36 939.555 229.417 939.172 228.717L924.603 204.355C924.461 204.123 924.447 203.843 924.562 203.557L929.838 191.878C929.994 191.55 930.372 191.33 930.76 191.31L942.49 191.255C942.836 191.237 943.148 191.421 943.336 191.691" fill="#DF6665"/>
<path d="M943.338 191.731L950.832 203.381C950.974 203.613 950.989 203.892 950.874 204.179L940.942 228.624C940.634 229.36 939.555 229.417 939.172 228.717L924.603 204.355C924.461 204.123 924.447 203.843 924.562 203.557L929.838 191.878C929.994 191.55 930.372 191.33 930.76 191.31L942.49 191.255C942.836 191.237 943.148 191.421 943.336 191.691" stroke="#BD3C41" stroke-width="8" stroke-linecap="round" stroke-linejoin="round"/>
<path d="M923.397 175.911C927.459 172.518 946.776 174.645 946.776 174.645C946.776 174.645 946.322 186.219 943.527 192C943.527 192 935.098 195.34 928.074 192.81C928.074 192.81 921.677 177.329 923.356 175.913L923.397 175.911Z" fill="#DF6665" stroke="#BD3C41" stroke-width="8" stroke-linecap="round" stroke-linejoin="round"/>
<path d="M866.494 228.181C858.05 122.877 877.163 126.641 877.163 126.641L910.409 175.965L915.633 233.5C915.633 233.5 866.944 233.622 866.494 228.181Z" fill="#4D58A6" stroke="#303E78" stroke-width="8" stroke-linecap="round" stroke-linejoin="round"/>
<path d="M1011.16 220.408C1008.18 114.894 989.049 120.78 989.049 120.78L960.449 173.411L961.836 230C961.836 230 1011.32 225.857 1011.16 220.408Z" fill="#4D58A6" stroke="#303E78" stroke-width="8" stroke-linecap="round" stroke-linejoin="round"/>
<path d="M896.65 121.302C901.532 120.809 905.089 116.457 904.597 111.581C904.104 106.706 899.747 103.153 894.865 103.646C889.984 104.139 886.426 108.491 886.919 113.367C887.412 118.242 891.769 121.795 896.65 121.302Z" fill="#2D2A27"/>
<path d="M965.474 117.53C970.356 117.037 973.914 112.686 973.421 107.81C972.928 102.935 968.571 99.3821 963.689 99.875C958.808 100.368 955.25 104.72 955.743 109.595C956.236 114.471 960.593 118.023 965.474 117.53Z" fill="#2D2A27"/>
<path d="M916.007 117.954C916.007 117.954 930.234 102.394 946.363 116.247" stroke="#5F5523" stroke-width="8" stroke-linecap="round" stroke-linejoin="round"/>
<path d="M926.706 120.041L926.914 124.001" stroke="#2D2A27" stroke-width="8" stroke-linecap="round" stroke-linejoin="round"/>
<path d="M935.946 119.557L936.154 123.517" stroke="#2D2A27" stroke-width="8" stroke-linecap="round" stroke-linejoin="round"/>
<path d="M898.563 138.722C898.563 138.722 929.115 144.576 964.429 132.625" stroke="#2D2A27" stroke-width="8" stroke-linecap="round" stroke-linejoin="round"/>
<rect x="854.759" y="60.21" width="147.771" height="176.504" rx="2" transform="rotate(-3 854.759 60.21)" stroke="#54565A" stroke-width="8" stroke-linejoin="round"/>
<path d="M930.358 69.6263C937.849 68.8699 943.308 62.1919 942.552 54.7107C941.795 47.2295 935.11 41.778 927.619 42.5344C920.129 43.2909 914.669 49.9688 915.426 57.45C916.182 64.9313 922.868 70.3828 930.358 69.6263Z" fill="#D5CE6E" stroke="#5E5523" stroke-width="8" stroke-linecap="round" stroke-linejoin="round"/>
<path d="M77.6909 200.778C53.9013 205.316 38.2422 228.383 42.7798 252.173C47.3175 275.962 70.3643 291.626 94.1539 287.088C117.943 282.55 133.607 259.503 129.069 235.714C124.531 211.924 101.501 196.236 77.6909 200.778Z" fill="white"/>
<path d="M91.7822 274.654C108.754 271.417 119.869 255.037 116.635 238.085C113.402 221.134 97.0175 209.999 80.0664 213.232C63.1153 216.466 51.9801 232.85 55.2134 249.801C58.4467 266.752 74.8311 277.888 91.7822 274.654Z" fill="#F8C760" stroke="#B47605" stroke-width="10" stroke-linecap="round" stroke-linejoin="round"/>
<path d="M98.831 249.793C93.733 257.294 83.5374 259.239 76.0361 254.141" stroke="#B47605" stroke-width="10" stroke-linecap="round" stroke-linejoin="round"/>
<path d="M72.43 246.496C75.2897 245.95 77.1679 243.187 76.6224 240.327C76.077 237.467 73.3133 235.589 70.4536 236.135C67.5939 236.68 65.7157 239.444 66.2611 242.303C66.8066 245.163 69.5702 247.041 72.43 246.496Z" fill="#B47605"/>
<path d="M99.3694 241.357C102.229 240.812 104.107 238.048 103.562 235.189C103.016 232.329 100.253 230.451 97.3931 230.996C94.5333 231.542 92.6551 234.305 93.2006 237.165C93.746 240.025 96.5097 241.903 99.3694 241.357Z" fill="#B47605"/>
<path d="M992.246 522.256C991.447 522.139 984.137 521.239 976.034 522.89C968.633 524.398 962.703 527.522 958.36 532.197C957.651 532.944 956.996 533.745 956.39 534.578C955.657 534.147 954.91 533.76 954.127 533.403C948.18 530.632 941.252 530.02 933.583 531.582C925.914 533.145 920.125 536.327 919.006 536.964C914.377 539.608 911.889 544.937 912.827 550.172C913.215 552.396 917.13 572.138 932.671 579.413C938.618 582.185 945.509 582.826 953.141 581.292L953.819 584.621C955.214 591.463 961.907 595.891 968.75 594.496C975.592 593.102 980.019 586.409 978.625 579.566L977.905 576.032C985.285 574.528 991.211 571.383 995.538 566.733C1007.19 554.197 1003.39 534.388 1002.92 532.16C1001.81 526.939 997.515 522.97 992.225 522.261L992.246 522.256Z" fill="white"/>
<path d="M961.531 564.878C961.531 564.878 958.778 549.572 948.778 544.871C938.765 540.215 925.272 547.959 925.272 547.959C925.272 547.959 928.025 563.266 938.025 567.967C948.021 572.647 961.531 564.878 961.531 564.878Z" fill="#8E8733" stroke="#5F5523" stroke-width="8.4385" stroke-linecap="round" stroke-linejoin="round"/>
<path d="M943.403 556.429L961.53 564.878" stroke="#5F5523" stroke-width="8.4385" stroke-linecap="round" stroke-linejoin="round"/>
<path d="M963.36 564.14C963.36 564.14 960.107 548.913 967.629 540.814C975.15 532.715 990.561 534.807 990.561 534.807C990.561 534.807 993.814 550.033 986.293 558.132C978.771 566.231 963.36 564.14 963.36 564.14Z" fill="#8E8733" stroke="#5F5523" stroke-width="8.4385" stroke-linecap="round" stroke-linejoin="round"/>
<path d="M976.932 549.49L963.361 564.139" stroke="#5F5523" stroke-width="8.4385" stroke-linecap="round" stroke-linejoin="round"/>
<path d="M962.221 562.456L966.222 582.094" stroke="#5F5523" stroke-width="8.4385" stroke-linecap="round" stroke-linejoin="round"/>
<path d="M340.121 668.366C346.744 660.145 346.87 648.66 346.8 646.031C346.67 641.315 343.969 637.093 339.743 634.998C338.73 634.494 335.083 632.807 330.406 631.779C325.729 630.751 321.596 630.686 317.729 631.477C316.878 630.534 315.892 629.713 314.767 629.033C313.584 628.32 312.311 627.824 310.972 627.53C305.635 626.357 300.19 628.724 297.391 633.401C296.297 635.234 295.35 637.186 294.549 639.256C277.021 638.126 260.457 650.988 256.286 669.965C251.718 690.755 263.701 711.121 283.007 715.364C285.459 715.903 287.954 716.149 290.461 716.139C292.729 717.22 295.081 718.018 297.492 718.548C316.798 722.791 336.217 709.325 340.786 688.535C342.266 681.797 342.026 674.832 340.121 668.366Z" fill="white"/>
<path d="M311.343 655.518C308.809 654.961 306.269 654.921 303.812 655.289C301.731 653.946 299.413 652.896 296.879 652.339C284.372 649.591 271.739 658.716 268.665 672.706C265.59 686.697 273.232 700.278 285.739 703.027C288.274 703.584 290.814 703.623 293.27 703.256C295.351 704.599 297.669 705.648 300.204 706.205C312.711 708.954 325.343 699.829 328.418 685.838C331.493 671.848 323.85 658.267 311.343 655.518Z" fill="#DF6665" stroke="#BD3C41" stroke-width="8.4385" stroke-linecap="round" stroke-linejoin="round"/>
<path d="M303.978 659.451C303.978 659.451 303.152 648.469 308.28 639.876" stroke="#513B2F" stroke-width="8.4385" stroke-linecap="round" stroke-linejoin="round"/>
<path d="M328.029 662.447C321.595 666.562 310.837 661.26 310.837 661.26C310.837 661.26 310.534 649.271 316.968 645.155C323.402 641.04 334.16 646.342 334.16 646.342C334.16 646.342 334.463 658.331 328.029 662.447Z" fill="#8E8733" stroke="#5F5523" stroke-width="8.4385" stroke-linecap="round" stroke-linejoin="round"/>
</svg>
