<?xml version="1.0" encoding="UTF-8"?>
<svg id="Layer_1" data-name="Layer 1" xmlns="http://www.w3.org/2000/svg" version="1.1" viewBox="0 0 1986 424.3">
  <defs>
    <style>
      .cls-1 {
        fill: none;
        stroke: #30c1d2;
        stroke-linecap: round;
        stroke-linejoin: round;
        stroke-width: 10px;
      }

      .cls-2 {
        fill: #000;
      }

      .cls-2, .cls-3, .cls-4 {
        stroke-width: 0px;
      }

      .cls-3 {
        fill: #e5f4f8;
      }

      .cls-4 {
        fill: #fff;
      }
    </style>
  </defs>
  <path class="cls-3" d="M735.6,0h514.7C1284,0,1311.2,20.3,1311.2,45.4v333.5c0,25.1-27.2,45.4-60.8,45.4h-514.7c-33.6,0-60.8-20.3-60.8-45.4V45.4C674.8,20.3,702,0,735.6,0Z"/>
  <g>
    <path class="cls-2" d="M791,246.1c-1.4-.6-2.5-1.5-3.2-2.6-.8-1.1-1.2-2.4-1.2-3.9h4.5c0,1.1.5,2,1.3,2.7.8.7,1.9,1.1,3.3,1.1s2.6-.4,3.4-1.1,1.2-1.6,1.2-2.7-.3-1.6-.8-2.1-1.1-1-1.9-1.3-1.8-.6-3.1-1c-1.7-.4-3-.9-4.1-1.3-1-.5-1.9-1.2-2.7-2.1-.7-1-1.1-2.2-1.1-3.8s.4-2.8,1.1-3.9c.7-1.1,1.8-2,3.1-2.5,1.3-.6,2.9-.9,4.6-.9,2.5,0,4.5.6,6.1,1.9,1.6,1.2,2.5,2.9,2.6,5.1h-4.6c0-.9-.5-1.7-1.3-2.4-.8-.7-1.9-1-3.2-1s-2.2.3-2.9.9c-.8.6-1.1,1.5-1.1,2.7s.2,1.4.7,1.9c.5.5,1.1.9,1.8,1.2s1.7.6,3,1c1.7.5,3.1.9,4.1,1.4s2,1.2,2.7,2.2c.7,1,1.1,2.3,1.1,3.9s-.3,2.5-1,3.7-1.7,2.1-3.1,2.8c-1.3.7-2.9,1-4.7,1s-3.3-.3-4.6-.9Z"/>
    <path class="cls-2" d="M824.1,227.1c1.2.7,2.2,1.6,2.9,2.9.7,1.3,1.1,2.9,1.1,4.7v12h-4.2v-11.3c0-1.8-.5-3.2-1.4-4.2-.9-1-2.1-1.5-3.7-1.5s-2.8.5-3.7,1.5-1.4,2.4-1.4,4.2v11.3h-4.2v-27.3h4.2v9.3c.7-.9,1.6-1.5,2.7-2,1.1-.5,2.3-.7,3.6-.7s2.9.3,4.1,1Z"/>
    <path class="cls-2" d="M836.9,245.7c-1.5-.9-2.8-2.1-3.6-3.7-.9-1.6-1.3-3.4-1.3-5.5s.5-3.9,1.4-5.5c.9-1.6,2.1-2.8,3.7-3.7,1.6-.9,3.3-1.3,5.3-1.3s3.7.4,5.3,1.3c1.6.9,2.8,2.1,3.7,3.7.9,1.6,1.4,3.4,1.4,5.5s-.5,3.9-1.4,5.5c-.9,1.6-2.2,2.8-3.8,3.7-1.6.9-3.4,1.3-5.3,1.3s-3.6-.4-5.2-1.3ZM845.2,242.6c.9-.5,1.7-1.3,2.3-2.3.6-1,.9-2.3.9-3.8s-.3-2.7-.8-3.7c-.6-1-1.3-1.8-2.2-2.3-.9-.5-1.9-.8-3-.8s-2.1.3-3,.8c-.9.5-1.7,1.3-2.2,2.3-.5,1-.8,2.3-.8,3.7,0,2.2.6,3.9,1.7,5.1,1.1,1.2,2.5,1.8,4.2,1.8s2.1-.3,3-.8Z"/>
    <path class="cls-2" d="M884.1,226.4l-6.3,20.3h-4.4l-4.1-15-4.1,15h-4.4l-6.3-20.3h4.3l4.2,16.3,4.3-16.3h4.4l4.1,16.3,4.2-16.3h4.1Z"/>
    <path class="cls-2" d="M887.5,222.9c-.5-.5-.8-1.2-.8-1.9s.3-1.4.8-1.9c.5-.5,1.2-.8,1.9-.8s1.4.3,1.9.8c.5.5.8,1.2.8,1.9s-.3,1.4-.8,1.9c-.5.5-1.1.8-1.9.8s-1.4-.3-1.9-.8ZM891.4,226.4v20.3h-4.2v-20.3h4.2Z"/>
    <path class="cls-2" d="M911.5,227.1c1.3.7,2.3,1.6,3,2.9.7,1.3,1.1,2.9,1.1,4.7v12h-4.2v-11.3c0-1.8-.5-3.2-1.4-4.2-.9-1-2.1-1.5-3.7-1.5s-2.8.5-3.7,1.5-1.4,2.4-1.4,4.2v11.3h-4.2v-20.3h4.2v2.3c.7-.8,1.6-1.5,2.6-2,1.1-.5,2.2-.7,3.4-.7s3,.3,4.3,1Z"/>
    <path class="cls-2" d="M933.2,227c1.2.6,2.2,1.4,2.9,2.3v-2.9h4.2v20.6c0,1.9-.4,3.5-1.2,5-.8,1.5-1.9,2.6-3.4,3.4-1.5.8-3.3,1.3-5.3,1.3s-5-.6-6.9-1.9c-1.8-1.3-2.9-3-3.1-5.3h4.2c.3,1.1,1,1.9,2,2.6,1,.7,2.3,1,3.7,1s3.1-.5,4.1-1.5c1-1,1.6-2.5,1.6-4.5v-3.4c-.7,1-1.7,1.8-2.9,2.4-1.2.7-2.6,1-4.1,1s-3.4-.4-4.8-1.3c-1.5-.9-2.6-2.1-3.5-3.8-.8-1.6-1.3-3.4-1.3-5.5s.4-3.8,1.3-5.4,2-2.8,3.5-3.7c1.5-.9,3.1-1.3,4.8-1.3s3,.3,4.2.9ZM935.2,232.9c-.6-1-1.3-1.8-2.3-2.4-.9-.5-1.9-.8-3-.8s-2.1.3-3,.8-1.7,1.3-2.3,2.3c-.6,1-.9,2.2-.9,3.6s.3,2.6.9,3.7c.6,1.1,1.3,1.9,2.3,2.4.9.6,1.9.8,3,.8s2.1-.3,3-.8,1.7-1.3,2.3-2.4c.6-1,.9-2.3.9-3.7s-.3-2.6-.9-3.6Z"/>
    <path class="cls-2" d="M962.1,226.9c1-.6,2.2-.9,3.6-.9v4.3h-1.1c-1.6,0-2.9.4-3.7,1.3-.8.8-1.3,2.3-1.3,4.3v10.7h-4.2v-20.3h4.2v2.9c.6-1,1.4-1.8,2.5-2.4Z"/>
    <path class="cls-2" d="M988.1,238.1h-15.5c.1,1.6.7,2.9,1.8,3.9,1.1,1,2.4,1.5,4,1.5,2.3,0,3.9-.9,4.8-2.8h4.5c-.6,1.9-1.7,3.4-3.3,4.6-1.6,1.2-3.6,1.8-6,1.8s-3.7-.4-5.2-1.3c-1.5-.9-2.7-2.1-3.6-3.7-.9-1.6-1.3-3.4-1.3-5.5s.4-3.9,1.3-5.5c.8-1.6,2-2.8,3.6-3.7,1.5-.9,3.3-1.3,5.3-1.3s3.6.4,5.1,1.3c1.5.8,2.7,2,3.5,3.5.8,1.5,1.3,3.2,1.3,5.2s0,1.4-.1,2.1ZM983.8,234.7c0-1.5-.6-2.8-1.7-3.7s-2.4-1.4-4-1.4-2.7.5-3.7,1.4-1.6,2.2-1.8,3.7h11.2Z"/>
    <path class="cls-2" d="M1000.2,242.9l5.7-16.5h4.5l-7.7,20.3h-5l-7.7-20.3h4.5l5.7,16.5Z"/>
    <path class="cls-2" d="M1013.8,222.9c-.5-.5-.8-1.2-.8-1.9s.3-1.4.8-1.9,1.2-.8,1.9-.8,1.4.3,1.9.8c.5.5.8,1.2.8,1.9s-.3,1.4-.8,1.9-1.1.8-1.9.8-1.4-.3-1.9-.8ZM1017.8,226.4v20.3h-4.2v-20.3h4.2Z"/>
    <path class="cls-2" d="M1041.8,238.1h-15.5c.1,1.6.7,2.9,1.8,3.9s2.4,1.5,4,1.5c2.3,0,3.9-.9,4.8-2.8h4.5c-.6,1.9-1.7,3.4-3.3,4.6-1.6,1.2-3.6,1.8-6,1.8s-3.7-.4-5.2-1.3-2.7-2.1-3.6-3.7c-.9-1.6-1.3-3.4-1.3-5.5s.4-3.9,1.3-5.5c.8-1.6,2-2.8,3.6-3.7,1.5-.9,3.3-1.3,5.3-1.3s3.6.4,5.1,1.3c1.5.8,2.7,2,3.5,3.5s1.3,3.2,1.3,5.2,0,1.4-.1,2.1ZM1037.5,234.7c0-1.5-.6-2.8-1.7-3.7s-2.4-1.4-4-1.4-2.7.5-3.7,1.4c-1,.9-1.6,2.2-1.8,3.7h11.2Z"/>
    <path class="cls-2" d="M1073.3,226.4l-6.3,20.3h-4.4l-4.1-15-4.1,15h-4.4l-6.3-20.3h4.3l4.2,16.3,4.3-16.3h4.4l4.1,16.3,4.2-16.3h4.1Z"/>
    <path class="cls-2" d="M1079.5,246.2c-1.3-.6-2.3-1.4-3-2.4s-1.1-2.1-1.2-3.3h4.3c0,.9.5,1.6,1.2,2.2.7.6,1.7.9,2.8.9s2.1-.2,2.7-.7c.7-.5,1-1,1-1.8s-.4-1.3-1.1-1.7c-.7-.4-1.9-.8-3.4-1.2-1.5-.4-2.8-.8-3.7-1.2-1-.4-1.8-1-2.5-1.8s-1-1.9-1-3.2.3-2.1,1-3,1.6-1.6,2.7-2.1,2.6-.8,4.1-.8c2.3,0,4.2.6,5.6,1.8,1.4,1.2,2.2,2.8,2.3,4.8h-4.2c0-.9-.4-1.6-1.1-2.2-.7-.5-1.6-.8-2.7-.8s-2,.2-2.5.6-.9,1-.9,1.7.2,1,.6,1.4c.4.4.9.7,1.4.9.6.2,1.4.5,2.5.8,1.5.4,2.7.8,3.6,1.2.9.4,1.8,1,2.5,1.8.7.8,1,1.8,1.1,3.1,0,1.2-.3,2.2-1,3.1s-1.5,1.6-2.7,2.1c-1.2.5-2.5.8-4.1.8s-3-.3-4.3-.9Z"/>
    <path class="cls-2" d="M1134.6,227.1c1.3.7,2.3,1.6,3,2.9.7,1.3,1.1,2.9,1.1,4.7v12h-4.2v-11.3c0-1.8-.5-3.2-1.4-4.2-.9-1-2.2-1.5-3.7-1.5s-2.8.5-3.7,1.5c-.9,1-1.4,2.4-1.4,4.2v11.3h-4.2v-11.3c0-1.8-.5-3.2-1.4-4.2-.9-1-2.2-1.5-3.7-1.5s-2.8.5-3.7,1.5c-.9,1-1.4,2.4-1.4,4.2v11.3h-4.2v-20.3h4.2v2.3c.7-.8,1.6-1.5,2.6-2,1.1-.5,2.2-.7,3.4-.7s3.1.3,4.3,1c1.3.7,2.3,1.7,2.9,3,.6-1.2,1.6-2.2,2.9-2.9s2.7-1.1,4.2-1.1,3,.3,4.3,1Z"/>
    <path class="cls-2" d="M1147.6,245.7c-1.5-.9-2.8-2.1-3.6-3.7-.9-1.6-1.3-3.4-1.3-5.5s.5-3.9,1.4-5.5c.9-1.6,2.1-2.8,3.7-3.7,1.6-.9,3.3-1.3,5.3-1.3s3.7.4,5.3,1.3c1.6.9,2.8,2.1,3.7,3.7s1.4,3.4,1.4,5.5-.5,3.9-1.4,5.5c-.9,1.6-2.2,2.8-3.8,3.7s-3.4,1.3-5.3,1.3-3.6-.4-5.2-1.3ZM1155.8,242.6c.9-.5,1.7-1.3,2.3-2.3.6-1,.9-2.3.9-3.8s-.3-2.7-.8-3.7c-.6-1-1.3-1.8-2.2-2.3-.9-.5-1.9-.8-3-.8s-2.1.3-3,.8c-.9.5-1.7,1.3-2.2,2.3-.5,1-.8,2.3-.8,3.7,0,2.2.6,3.9,1.7,5.1,1.1,1.2,2.5,1.8,4.2,1.8s2.1-.3,3-.8Z"/>
    <path class="cls-2" d="M1174.1,226.9c1-.6,2.2-.9,3.6-.9v4.3h-1.1c-1.6,0-2.9.4-3.7,1.3-.8.8-1.3,2.3-1.3,4.3v10.7h-4.2v-20.3h4.2v2.9c.6-1,1.4-1.8,2.5-2.4Z"/>
    <path class="cls-2" d="M1200.1,238.1h-15.5c.1,1.6.7,2.9,1.8,3.9s2.4,1.5,4,1.5c2.3,0,3.9-.9,4.8-2.8h4.5c-.6,1.9-1.7,3.4-3.3,4.6-1.6,1.2-3.6,1.8-6,1.8s-3.7-.4-5.2-1.3-2.7-2.1-3.6-3.7c-.9-1.6-1.3-3.4-1.3-5.5s.4-3.9,1.3-5.5c.8-1.6,2-2.8,3.6-3.7,1.5-.9,3.3-1.3,5.3-1.3s3.6.4,5.1,1.3c1.5.8,2.7,2,3.5,3.5s1.3,3.2,1.3,5.2,0,1.4-.1,2.1ZM1195.9,234.7c0-1.5-.6-2.8-1.7-3.7s-2.4-1.4-4-1.4-2.7.5-3.7,1.4c-1,.9-1.6,2.2-1.8,3.7h11.2Z"/>
    <path class="cls-2" d="M749.8,271.2c1.2-.6,2.6-1,4.2-1s3.4.4,4.8,1.3c1.5.9,2.6,2.1,3.4,3.7.8,1.6,1.3,3.4,1.3,5.4s-.4,3.9-1.3,5.5c-.8,1.6-2,2.9-3.4,3.8-1.5.9-3.1,1.3-4.8,1.3s-2.9-.3-4.1-.9c-1.2-.6-2.2-1.4-2.9-2.3v12.6h-4.2v-30h4.2v3c.7-.9,1.7-1.7,2.9-2.4ZM758.3,277c-.6-1-1.3-1.8-2.3-2.3s-2-.8-3-.8-2.1.3-3,.8c-.9.5-1.7,1.3-2.3,2.4-.6,1-.9,2.2-.9,3.6s.3,2.6.9,3.7,1.3,1.8,2.3,2.4,1.9.8,3,.8,2.1-.3,3-.8,1.7-1.4,2.3-2.4c.6-1.1.9-2.3.9-3.7s-.3-2.6-.9-3.6Z"/>
    <path class="cls-2" d="M774.3,271.1c1-.6,2.2-.9,3.6-.9v4.3h-1.1c-1.6,0-2.9.4-3.7,1.3-.8.8-1.3,2.3-1.3,4.3v10.7h-4.2v-20.3h4.2v2.9c.6-1,1.4-1.8,2.5-2.4Z"/>
    <path class="cls-2" d="M785.4,289.9c-1.5-.9-2.8-2.1-3.6-3.7-.9-1.6-1.3-3.4-1.3-5.5s.5-3.9,1.4-5.5c.9-1.6,2.1-2.8,3.7-3.7,1.6-.9,3.3-1.3,5.3-1.3s3.7.4,5.3,1.3c1.6.9,2.8,2.1,3.7,3.7.9,1.6,1.4,3.4,1.4,5.5s-.5,3.9-1.4,5.5c-.9,1.6-2.2,2.8-3.8,3.7-1.6.9-3.4,1.3-5.3,1.3s-3.6-.4-5.2-1.3ZM793.6,286.8c.9-.5,1.7-1.3,2.3-2.3.6-1,.9-2.3.9-3.8s-.3-2.7-.8-3.7c-.6-1-1.3-1.8-2.2-2.3-.9-.5-1.9-.8-3-.8s-2.1.3-3,.8c-.9.5-1.7,1.3-2.2,2.3-.5,1-.8,2.3-.8,3.7,0,2.2.6,3.9,1.7,5.1,1.1,1.2,2.5,1.8,4.2,1.8s2.1-.3,3-.8Z"/>
    <path class="cls-2" d="M834.2,271.3c1.3.7,2.3,1.6,3,2.9.7,1.3,1.1,2.9,1.1,4.7v12h-4.2v-11.3c0-1.8-.5-3.2-1.4-4.2-.9-1-2.2-1.5-3.7-1.5s-2.8.5-3.7,1.5-1.4,2.4-1.4,4.2v11.3h-4.2v-11.3c0-1.8-.5-3.2-1.4-4.2-.9-1-2.1-1.5-3.7-1.5s-2.8.5-3.7,1.5-1.4,2.4-1.4,4.2v11.3h-4.2v-20.3h4.2v2.3c.7-.8,1.6-1.5,2.6-2,1.1-.5,2.2-.7,3.4-.7s3.1.3,4.3,1c1.3.7,2.3,1.7,2.9,3,.6-1.2,1.6-2.2,2.9-2.9,1.3-.7,2.7-1.1,4.2-1.1s3,.3,4.3,1Z"/>
    <path class="cls-2" d="M843.8,267.2c-.5-.5-.8-1.2-.8-1.9s.3-1.4.8-1.9c.5-.5,1.2-.8,1.9-.8s1.4.3,1.9.8c.5.5.8,1.2.8,1.9s-.3,1.4-.8,1.9c-.5.5-1.1.8-1.9.8s-1.4-.3-1.9-.8ZM847.8,270.6v20.3h-4.2v-20.3h4.2Z"/>
    <path class="cls-2" d="M867.8,271.3c1.3.7,2.3,1.6,3,2.9.7,1.3,1.1,2.9,1.1,4.7v12h-4.2v-11.3c0-1.8-.5-3.2-1.4-4.2-.9-1-2.1-1.5-3.7-1.5s-2.8.5-3.7,1.5-1.4,2.4-1.4,4.2v11.3h-4.2v-20.3h4.2v2.3c.7-.8,1.6-1.5,2.6-2,1.1-.5,2.2-.7,3.4-.7s3,.3,4.3,1Z"/>
    <path class="cls-2" d="M895.7,282.3h-15.5c.1,1.6.7,2.9,1.8,3.9,1.1,1,2.4,1.5,4,1.5,2.3,0,3.9-.9,4.8-2.8h4.5c-.6,1.9-1.7,3.4-3.3,4.6-1.6,1.2-3.6,1.8-6,1.8s-3.7-.4-5.2-1.3c-1.5-.9-2.7-2.1-3.6-3.7-.9-1.6-1.3-3.4-1.3-5.5s.4-3.9,1.3-5.5c.8-1.6,2-2.8,3.6-3.7,1.5-.9,3.3-1.3,5.3-1.3s3.6.4,5.1,1.3c1.5.8,2.7,2,3.5,3.5.8,1.5,1.3,3.2,1.3,5.2s0,1.4-.1,2.1ZM891.4,278.9c0-1.5-.6-2.8-1.7-3.7s-2.4-1.4-4-1.4-2.7.5-3.7,1.4-1.6,2.2-1.8,3.7h11.2Z"/>
    <path class="cls-2" d="M914.5,271.3c1.3.7,2.3,1.6,3,2.9.7,1.3,1.1,2.9,1.1,4.7v12h-4.2v-11.3c0-1.8-.5-3.2-1.4-4.2-.9-1-2.1-1.5-3.7-1.5s-2.8.5-3.7,1.5-1.4,2.4-1.4,4.2v11.3h-4.2v-20.3h4.2v2.3c.7-.8,1.6-1.5,2.6-2,1.1-.5,2.2-.7,3.4-.7s3,.3,4.3,1Z"/>
    <path class="cls-2" d="M928.8,274v11.2c0,.8.2,1.3.5,1.6.4.3,1,.5,1.8.5h2.6v3.5h-3.3c-1.9,0-3.3-.4-4.3-1.3-1-.9-1.5-2.3-1.5-4.3v-11.2h-2.4v-3.4h2.4v-5h4.2v5h4.9v3.4h-4.9Z"/>
    <path class="cls-2" d="M941.8,263.7v27.3h-4.2v-27.3h4.2Z"/>
    <path class="cls-2" d="M965.6,270.6l-12.5,29.8h-4.3l4.1-9.9-8-20h4.7l5.7,15.5,5.9-15.5h4.3Z"/>
    <path class="cls-2" d="M993,271.3c1.2.7,2.2,1.6,2.9,2.9.7,1.3,1.1,2.9,1.1,4.7v12h-4.2v-11.3c0-1.8-.5-3.2-1.4-4.2-.9-1-2.1-1.5-3.7-1.5s-2.8.5-3.7,1.5-1.4,2.4-1.4,4.2v11.3h-4.2v-27.3h4.2v9.3c.7-.9,1.6-1.5,2.7-2,1.1-.5,2.3-.7,3.6-.7s2.9.3,4.1,1Z"/>
    <path class="cls-2" d="M1020.7,282.3h-15.5c.1,1.6.7,2.9,1.8,3.9,1.1,1,2.4,1.5,4,1.5,2.3,0,3.9-.9,4.8-2.8h4.5c-.6,1.9-1.7,3.4-3.3,4.6-1.6,1.2-3.6,1.8-6,1.8s-3.7-.4-5.2-1.3c-1.5-.9-2.7-2.1-3.6-3.7-.9-1.6-1.3-3.4-1.3-5.5s.4-3.9,1.3-5.5c.8-1.6,2-2.8,3.6-3.7,1.5-.9,3.3-1.3,5.3-1.3s3.6.4,5.1,1.3c1.5.8,2.7,2,3.5,3.5.8,1.5,1.3,3.2,1.3,5.2s0,1.4-.1,2.1ZM1016.5,278.9c0-1.5-.6-2.8-1.7-3.7s-2.4-1.4-4-1.4-2.7.5-3.7,1.4c-1,.9-1.6,2.2-1.8,3.7h11.2Z"/>
    <path class="cls-2" d="M1029.2,263.7v27.3h-4.2v-27.3h4.2Z"/>
    <path class="cls-2" d="M1041.8,271.2c1.2-.6,2.6-1,4.2-1s3.4.4,4.8,1.3,2.6,2.1,3.4,3.7c.8,1.6,1.3,3.4,1.3,5.4s-.4,3.9-1.3,5.5c-.8,1.6-2,2.9-3.4,3.8-1.5.9-3.1,1.3-4.8,1.3s-2.9-.3-4.1-.9c-1.2-.6-2.2-1.4-2.9-2.3v12.6h-4.2v-30h4.2v3c.7-.9,1.7-1.7,2.9-2.4ZM1050.4,277c-.6-1-1.3-1.8-2.3-2.3-.9-.5-2-.8-3-.8s-2.1.3-3,.8c-.9.5-1.7,1.3-2.3,2.4-.6,1-.9,2.2-.9,3.6s.3,2.6.9,3.7,1.3,1.8,2.3,2.4c.9.5,1.9.8,3,.8s2.1-.3,3-.8c.9-.6,1.7-1.4,2.3-2.4.6-1.1.9-2.3.9-3.7s-.3-2.6-.9-3.6Z"/>
    <path class="cls-2" d="M1078.2,282.3h-15.5c.1,1.6.7,2.9,1.8,3.9s2.4,1.5,4,1.5c2.3,0,3.9-.9,4.8-2.8h4.5c-.6,1.9-1.7,3.4-3.3,4.6-1.6,1.2-3.6,1.8-6,1.8s-3.7-.4-5.2-1.3-2.7-2.1-3.6-3.7c-.9-1.6-1.3-3.4-1.3-5.5s.4-3.9,1.3-5.5c.8-1.6,2-2.8,3.6-3.7,1.5-.9,3.3-1.3,5.3-1.3s3.6.4,5.1,1.3c1.5.8,2.7,2,3.5,3.5s1.3,3.2,1.3,5.2,0,1.4-.1,2.1ZM1073.9,278.9c0-1.5-.6-2.8-1.7-3.7s-2.4-1.4-4-1.4-2.7.5-3.7,1.4c-1,.9-1.6,2.2-1.8,3.7h11.2Z"/>
    <path class="cls-2" d="M1082.3,275.3c.8-1.6,2-2.8,3.5-3.7s3.1-1.3,4.9-1.3,2.6.3,3.9.9c1.3.6,2.3,1.3,3.1,2.3v-9.8h4.2v27.3h-4.2v-3.1c-.7,1-1.6,1.8-2.9,2.4-1.2.6-2.6,1-4.2,1s-3.4-.4-4.8-1.3c-1.5-.9-2.6-2.1-3.5-3.8-.8-1.6-1.3-3.4-1.3-5.5s.4-3.8,1.3-5.4ZM1096.8,277.1c-.6-1-1.3-1.8-2.3-2.4-.9-.5-1.9-.8-3-.8s-2.1.3-3,.8-1.7,1.3-2.3,2.3-.9,2.2-.9,3.6.3,2.6.9,3.7c.6,1.1,1.3,1.9,2.3,2.4.9.6,1.9.8,3,.8s2.1-.3,3-.8,1.7-1.3,2.3-2.4.9-2.3.9-3.7-.3-2.6-.9-3.6Z"/>
    <path class="cls-2" d="M1124.5,271.1c1.1-.6,2.3-.9,3.7-.9v5.4h-1.4c-1.6,0-2.8.4-3.7,1.1-.8.8-1.2,2.1-1.2,4v10.2h-5.2v-20.4h5.2v3.2c.7-1.1,1.5-1.9,2.6-2.5Z"/>
    <path class="cls-2" d="M1150.5,282.3h-14.9c.1,1.5.6,2.6,1.5,3.5.9.8,2,1.3,3.4,1.3,1.9,0,3.3-.8,4.1-2.5h5.6c-.6,2-1.7,3.6-3.4,4.8-1.7,1.3-3.7,1.9-6.2,1.9s-3.7-.4-5.3-1.3-2.8-2.1-3.6-3.7c-.9-1.6-1.3-3.4-1.3-5.5s.4-4,1.3-5.6c.9-1.6,2.1-2.8,3.6-3.7,1.5-.9,3.3-1.3,5.3-1.3s3.7.4,5.2,1.3c1.5.8,2.7,2,3.6,3.6s1.3,3.3,1.3,5.3,0,1.4-.1,2ZM1145.3,278.8c0-1.3-.5-2.4-1.4-3.2-.9-.8-2.1-1.2-3.4-1.2s-2.4.4-3.2,1.2c-.9.8-1.4,1.8-1.6,3.2h9.7Z"/>
    <path class="cls-2" d="M1154.3,275.1c.8-1.6,1.9-2.8,3.4-3.7,1.4-.9,3-1.3,4.8-1.3s2.6.3,3.8.9,2.2,1.3,2.9,2.3v-9.7h5.2v27.3h-5.2v-3c-.6,1-1.5,1.8-2.7,2.4-1.2.6-2.5.9-4,.9s-3.3-.4-4.7-1.3c-1.4-.9-2.5-2.1-3.4-3.7-.8-1.6-1.2-3.5-1.2-5.5s.4-3.9,1.2-5.5ZM1168.4,277.5c-.5-.9-1.2-1.6-2-2.1-.8-.5-1.7-.7-2.7-.7s-1.8.2-2.7.7c-.8.5-1.5,1.1-2,2-.5.9-.8,2-.8,3.2s.3,2.3.8,3.2c.5.9,1.2,1.6,2,2.1s1.7.7,2.6.7,1.9-.2,2.7-.7c.8-.5,1.5-1.2,2-2.1.5-.9.7-2,.7-3.2s-.2-2.3-.7-3.2Z"/>
    <path class="cls-2" d="M1198.7,270.5v20.4h-5.2v-2.6c-.7.9-1.5,1.6-2.6,2.1-1.1.5-2.2.8-3.5.8s-3-.3-4.2-1c-1.2-.7-2.2-1.7-2.9-3s-1-2.9-1-4.7v-12h5.2v11.2c0,1.6.4,2.9,1.2,3.7s1.9,1.3,3.3,1.3,2.5-.4,3.4-1.3,1.2-2.1,1.2-3.7v-11.2h5.2Z"/>
    <path class="cls-2" d="M1203.7,275.2c.9-1.6,2.1-2.8,3.6-3.7s3.3-1.3,5.2-1.3,4.6.6,6.3,1.9,2.8,3,3.3,5.3h-5.6c-.3-.9-.8-1.6-1.5-2.1-.7-.5-1.6-.8-2.6-.8-1.5,0-2.6.5-3.5,1.6-.9,1.1-1.3,2.6-1.3,4.6s.4,3.4,1.3,4.5,2,1.6,3.5,1.6c2.1,0,3.5-.9,4.1-2.8h5.6c-.6,2.2-1.7,4-3.4,5.3-1.7,1.3-3.8,2-6.3,2s-3.7-.4-5.2-1.3-2.7-2.1-3.6-3.7c-.9-1.6-1.3-3.4-1.3-5.5s.4-4,1.3-5.5Z"/>
    <path class="cls-2" d="M1244.8,282.3h-14.9c.1,1.5.6,2.6,1.5,3.5.9.8,2,1.3,3.4,1.3,1.9,0,3.3-.8,4.1-2.5h5.6c-.6,2-1.7,3.6-3.4,4.8-1.7,1.3-3.7,1.9-6.2,1.9s-3.7-.4-5.3-1.3c-1.6-.9-2.8-2.1-3.6-3.7s-1.3-3.4-1.3-5.5.4-4,1.3-5.6c.9-1.6,2.1-2.8,3.6-3.7,1.5-.9,3.3-1.3,5.3-1.3s3.7.4,5.2,1.3c1.5.8,2.7,2,3.6,3.6.8,1.5,1.3,3.3,1.3,5.3s0,1.4-.1,2ZM1239.6,278.8c0-1.3-.5-2.4-1.4-3.2-.9-.8-2.1-1.2-3.4-1.2s-2.4.4-3.2,1.2c-.9.8-1.4,1.8-1.6,3.2h9.7Z"/>
    <path class="cls-2" d="M905.3,314.7v20.4h-5.2v-2.6c-.7.9-1.5,1.6-2.6,2.1-1.1.5-2.2.8-3.5.8s-3-.3-4.2-1c-1.2-.7-2.2-1.7-2.9-3s-1.1-2.9-1.1-4.7v-12h5.2v11.2c0,1.6.4,2.9,1.2,3.7.8.9,1.9,1.3,3.3,1.3s2.5-.4,3.4-1.3c.8-.9,1.2-2.1,1.2-3.7v-11.2h5.2Z"/>
    <path class="cls-2" d="M927.6,316.7c1.5,1.5,2.2,3.7,2.2,6.4v12h-5.2v-11.3c0-1.6-.4-2.9-1.2-3.7s-1.9-1.3-3.3-1.3-2.5.4-3.4,1.3c-.8.9-1.2,2.1-1.2,3.7v11.3h-5.2v-20.4h5.2v2.5c.7-.9,1.6-1.6,2.6-2.1,1.1-.5,2.2-.8,3.5-.8,2.4,0,4.4.8,5.9,2.3Z"/>
    <path class="cls-2" d="M934.7,319.4c.9-1.6,2.1-2.8,3.6-3.7s3.3-1.3,5.2-1.3,4.6.6,6.3,1.9,2.8,3,3.3,5.3h-5.6c-.3-.9-.8-1.6-1.5-2.1-.7-.5-1.6-.8-2.6-.8-1.5,0-2.6.5-3.5,1.6-.9,1.1-1.3,2.6-1.3,4.6s.4,3.4,1.3,4.5c.9,1.1,2,1.6,3.5,1.6,2.1,0,3.5-.9,4.1-2.8h5.6c-.6,2.2-1.7,4-3.4,5.3-1.7,1.3-3.8,2-6.3,2s-3.7-.4-5.2-1.3-2.7-2.1-3.6-3.7c-.9-1.6-1.3-3.4-1.3-5.5s.4-4,1.3-5.5Z"/>
    <path class="cls-2" d="M975.8,326.5h-14.9c.1,1.5.6,2.6,1.5,3.5.9.8,2,1.3,3.4,1.3,1.9,0,3.3-.8,4.1-2.5h5.6c-.6,2-1.7,3.6-3.4,4.8-1.7,1.3-3.7,1.9-6.2,1.9s-3.7-.4-5.3-1.3c-1.6-.9-2.8-2.1-3.6-3.7-.9-1.6-1.3-3.4-1.3-5.5s.4-4,1.3-5.6c.9-1.6,2.1-2.8,3.6-3.7,1.5-.9,3.3-1.3,5.3-1.3s3.7.4,5.2,1.3c1.5.8,2.7,2,3.6,3.6.8,1.5,1.3,3.3,1.3,5.3s0,1.4-.1,2ZM970.6,323c0-1.3-.5-2.4-1.4-3.2-.9-.8-2.1-1.2-3.4-1.2s-2.4.4-3.2,1.2c-.9.8-1.4,1.8-1.6,3.2h9.7Z"/>
    <path class="cls-2" d="M987.4,315.4c1.1-.6,2.3-.9,3.7-.9v5.4h-1.4c-1.6,0-2.8.4-3.7,1.1-.8.8-1.2,2.1-1.2,4v10.2h-5.2v-20.4h5.2v3.2c.7-1.1,1.5-1.9,2.6-2.5Z"/>
    <path class="cls-2" d="M1000.6,319v9.9c0,.7.2,1.2.5,1.5.3.3.9.5,1.7.5h2.4v4.3h-3.2c-4.3,0-6.5-2.1-6.5-6.3v-9.8h-2.4v-4.2h2.4v-5h5.2v5h4.6v4.2h-4.6Z"/>
    <path class="cls-2" d="M1008.8,319.4c.8-1.6,1.9-2.8,3.4-3.7,1.4-.9,3-1.3,4.7-1.3s2.9.3,4,.9,2.1,1.4,2.7,2.3v-2.9h5.2v20.4h-5.2v-3c-.7,1-1.6,1.8-2.7,2.4-1.2.6-2.5.9-4,.9s-3.3-.4-4.7-1.3c-1.4-.9-2.5-2.1-3.4-3.7-.8-1.6-1.2-3.5-1.2-5.5s.4-3.9,1.2-5.5ZM1022.9,321.7c-.5-.9-1.2-1.6-2-2.1-.8-.5-1.7-.7-2.7-.7s-1.8.2-2.7.7c-.8.5-1.5,1.1-2,2-.5.9-.8,2-.8,3.2s.3,2.3.8,3.2c.5.9,1.2,1.6,2,2.1s1.7.7,2.6.7,1.9-.2,2.7-.7c.8-.5,1.5-1.2,2-2.1.5-.9.7-2,.7-3.2s-.2-2.3-.7-3.2Z"/>
    <path class="cls-2" d="M1034.2,311.4c-.6-.6-.9-1.3-.9-2.2s.3-1.6.9-2.2c.6-.6,1.4-.9,2.3-.9s1.7.3,2.3.9.9,1.3.9,2.2-.3,1.6-.9,2.2-1.4.9-2.3.9-1.7-.3-2.3-.9ZM1039,314.7v20.4h-5.2v-20.4h5.2Z"/>
    <path class="cls-2" d="M1061.3,316.7c1.5,1.5,2.2,3.7,2.2,6.4v12h-5.2v-11.3c0-1.6-.4-2.9-1.2-3.7s-1.9-1.3-3.3-1.3-2.5.4-3.4,1.3c-.8.9-1.2,2.1-1.2,3.7v11.3h-5.2v-20.4h5.2v2.5c.7-.9,1.6-1.6,2.6-2.1s2.2-.8,3.5-.8c2.4,0,4.4.8,5.9,2.3Z"/>
    <path class="cls-2" d="M1074.5,319v9.9c0,.7.2,1.2.5,1.5.3.3.9.5,1.7.5h2.4v4.3h-3.2c-4.3,0-6.5-2.1-6.5-6.3v-9.8h-2.4v-4.2h2.4v-5h5.2v5h4.6v4.2h-4.6Z"/>
    <path class="cls-2" d="M1102.3,314.7l-12.6,30.1h-5.5l4.4-10.2-8.2-19.9h5.8l5.3,14.3,5.3-14.3h5.5Z"/>
  </g>
  <circle class="cls-4" cx="993" cy="122.1" r="59.2" transform="translate(204.5 737.9) rotate(-45)"/>
  <path class="cls-3" d="M60.8,0h514.7C609.1,0,636.4,20.3,636.4,45.4v333.5c0,25.1-27.2,45.4-60.8,45.4H60.8c-33.6,0-60.8-20.3-60.8-45.4V45.4C0,20.3,27.2,0,60.8,0Z"/>
  <circle class="cls-4" cx="318.2" cy="129.9" r="59.2"/>
  <path class="cls-3" d="M1410.5,0h514.7C1958.8,0,1986,20.3,1986,45.4v333.5c0,25.1-27.2,45.4-60.8,45.4h-514.7c-33.6,0-60.8-20.3-60.8-45.4V45.4C1349.6,20.3,1376.9,0,1410.5,0Z"/>
  <g>
    <path class="cls-2" d="M1426.9,246.1c-1.4-.6-2.5-1.5-3.2-2.6-.8-1.1-1.2-2.4-1.2-3.9h4.5c0,1.1.5,2,1.3,2.7.8.7,1.9,1.1,3.3,1.1s2.6-.4,3.4-1.1,1.2-1.6,1.2-2.7-.3-1.6-.8-2.1c-.5-.5-1.1-1-1.9-1.3-.8-.3-1.8-.6-3.1-1-1.7-.4-3-.9-4.1-1.3-1-.5-1.9-1.2-2.7-2.1s-1.1-2.2-1.1-3.8.4-2.8,1.1-3.9,1.8-2,3.1-2.5c1.3-.6,2.9-.9,4.6-.9,2.5,0,4.5.6,6.1,1.9,1.6,1.2,2.5,2.9,2.6,5.1h-4.6c0-.9-.5-1.7-1.3-2.4-.8-.7-1.9-1-3.2-1s-2.2.3-2.9.9c-.8.6-1.1,1.5-1.1,2.7s.2,1.4.7,1.9c.5.5,1.1.9,1.8,1.2.7.3,1.7.6,3,1,1.7.5,3.1.9,4.1,1.4,1.1.5,2,1.2,2.7,2.2.7,1,1.1,2.3,1.1,3.9s-.3,2.5-1,3.7-1.7,2.1-3.1,2.8-2.9,1-4.7,1-3.3-.3-4.6-.9Z"/>
    <path class="cls-2" d="M1450.2,229.8v11.2c0,.8.2,1.3.5,1.6.4.3,1,.5,1.8.5h2.6v3.5h-3.3c-1.9,0-3.3-.4-4.3-1.3-1-.9-1.5-2.3-1.5-4.3v-11.2h-2.4v-3.4h2.4v-5h4.2v5h4.9v3.4h-4.9Z"/>
    <path class="cls-2" d="M1465.7,226.9c1-.6,2.2-.9,3.6-.9v4.3h-1.1c-1.6,0-2.9.4-3.7,1.3-.8.8-1.3,2.3-1.3,4.3v10.7h-4.2v-20.3h4.2v2.9c.6-1,1.4-1.8,2.5-2.4Z"/>
    <path class="cls-2" d="M1491.6,226.4v20.3h-4.2v-2.4c-.7.8-1.5,1.5-2.6,2-1.1.5-2.2.7-3.4.7s-3-.3-4.3-1c-1.3-.7-2.3-1.6-3-2.9-.7-1.3-1.1-2.9-1.1-4.7v-11.9h4.2v11.3c0,1.8.5,3.2,1.4,4.2s2.1,1.5,3.7,1.5,2.8-.5,3.7-1.5c.9-1,1.4-2.4,1.4-4.2v-11.3h4.2Z"/>
    <path class="cls-2" d="M1497,231c.8-1.6,2-2.8,3.5-3.7,1.5-.9,3.2-1.3,5.2-1.3s4.5.6,6.1,1.8c1.6,1.2,2.7,2.8,3.3,5h-4.5c-.4-1-1-1.8-1.8-2.4-.8-.6-1.8-.8-3.1-.8s-3.1.6-4.1,1.8-1.5,2.9-1.5,5.1.5,3.9,1.5,5.1c1,1.2,2.4,1.8,4.1,1.8s4-1.1,4.8-3.2h4.5c-.6,2.1-1.7,3.7-3.3,4.9-1.6,1.2-3.6,1.8-6,1.8s-3.7-.4-5.2-1.3c-1.5-.9-2.7-2.1-3.5-3.7-.8-1.6-1.3-3.4-1.3-5.5s.4-3.9,1.3-5.5Z"/>
    <path class="cls-2" d="M1524.1,229.8v11.2c0,.8.2,1.3.5,1.6.4.3,1,.5,1.8.5h2.6v3.5h-3.3c-1.9,0-3.3-.4-4.3-1.3-1-.9-1.5-2.3-1.5-4.3v-11.2h-2.4v-3.4h2.4v-5h4.2v5h4.9v3.4h-4.9Z"/>
    <path class="cls-2" d="M1551.3,226.4v20.3h-4.2v-2.4c-.7.8-1.5,1.5-2.6,2-1.1.5-2.2.7-3.4.7s-3-.3-4.3-1c-1.3-.7-2.3-1.6-3-2.9-.7-1.3-1.1-2.9-1.1-4.7v-11.9h4.2v11.3c0,1.8.5,3.2,1.4,4.2s2.1,1.5,3.7,1.5,2.8-.5,3.7-1.5c.9-1,1.4-2.4,1.4-4.2v-11.3h4.2Z"/>
    <path class="cls-2" d="M1563.5,226.9c1-.6,2.2-.9,3.6-.9v4.3h-1.1c-1.6,0-2.9.4-3.7,1.3-.8.8-1.3,2.3-1.3,4.3v10.7h-4.2v-20.3h4.2v2.9c.6-1,1.4-1.8,2.5-2.4Z"/>
    <path class="cls-2" d="M1589.5,238.1h-15.5c.1,1.6.7,2.9,1.8,3.9s2.4,1.5,4,1.5c2.3,0,3.9-.9,4.8-2.8h4.5c-.6,1.9-1.7,3.4-3.3,4.6-1.6,1.2-3.6,1.8-6,1.8s-3.7-.4-5.2-1.3-2.7-2.1-3.6-3.7c-.9-1.6-1.3-3.4-1.3-5.5s.4-3.9,1.3-5.5c.8-1.6,2-2.8,3.6-3.7,1.5-.9,3.3-1.3,5.3-1.3s3.6.4,5.1,1.3c1.5.8,2.7,2,3.5,3.5s1.3,3.2,1.3,5.2,0,1.4-.1,2.1ZM1585.2,234.7c0-1.5-.6-2.8-1.7-3.7s-2.4-1.4-4-1.4-2.7.5-3.7,1.4c-1,.9-1.6,2.2-1.8,3.7h11.2Z"/>
    <path class="cls-2" d="M1593.6,231c.8-1.6,2-2.8,3.5-3.7s3.1-1.3,4.9-1.3,2.6.3,3.9.9c1.3.6,2.3,1.3,3.1,2.3v-9.8h4.2v27.3h-4.2v-3.1c-.7,1-1.6,1.8-2.9,2.4-1.2.6-2.6,1-4.2,1s-3.4-.4-4.8-1.3c-1.5-.9-2.6-2.1-3.5-3.8-.8-1.6-1.3-3.4-1.3-5.5s.4-3.8,1.3-5.4ZM1608.1,232.9c-.6-1-1.3-1.8-2.3-2.4-.9-.5-1.9-.8-3-.8s-2.1.3-3,.8-1.7,1.3-2.3,2.3-.9,2.2-.9,3.6.3,2.6.9,3.7c.6,1.1,1.3,1.9,2.3,2.4.9.6,1.9.8,3,.8s2.1-.3,3-.8,1.7-1.3,2.3-2.4.9-2.3.9-3.7-.3-2.6-.9-3.6Z"/>
    <path class="cls-2" d="M1634.9,226.9c1-.6,2.2-.9,3.6-.9v4.3h-1.1c-1.6,0-2.9.4-3.7,1.3-.8.8-1.3,2.3-1.3,4.3v10.7h-4.2v-20.3h4.2v2.9c.6-1,1.4-1.8,2.5-2.4Z"/>
    <path class="cls-2" d="M1660.9,238.1h-15.5c.1,1.6.7,2.9,1.8,3.9,1.1,1,2.4,1.5,4,1.5,2.3,0,3.9-.9,4.8-2.8h4.5c-.6,1.9-1.7,3.4-3.3,4.6-1.6,1.2-3.6,1.8-6,1.8s-3.7-.4-5.2-1.3c-1.5-.9-2.7-2.1-3.6-3.7-.9-1.6-1.3-3.4-1.3-5.5s.4-3.9,1.3-5.5c.8-1.6,2-2.8,3.6-3.7,1.5-.9,3.3-1.3,5.3-1.3s3.6.4,5.1,1.3c1.5.8,2.7,2,3.5,3.5.8,1.5,1.3,3.2,1.3,5.2s0,1.4-.1,2.1ZM1656.7,234.7c0-1.5-.6-2.8-1.7-3.7s-2.4-1.4-4-1.4-2.7.5-3.7,1.4c-1,.9-1.6,2.2-1.8,3.7h11.2Z"/>
    <path class="cls-2" d="M1673,242.9l5.7-16.5h4.5l-7.7,20.3h-5l-7.7-20.3h4.5l5.7,16.5Z"/>
    <path class="cls-2" d="M1686.6,222.9c-.5-.5-.8-1.2-.8-1.9s.3-1.4.8-1.9c.5-.5,1.2-.8,1.9-.8s1.4.3,1.9.8c.5.5.8,1.2.8,1.9s-.3,1.4-.8,1.9c-.5.5-1.1.8-1.9.8s-1.4-.3-1.9-.8ZM1690.6,226.4v20.3h-4.2v-20.3h4.2Z"/>
    <path class="cls-2" d="M1714.6,238.1h-15.5c.1,1.6.7,2.9,1.8,3.9s2.4,1.5,4,1.5c2.3,0,3.9-.9,4.8-2.8h4.5c-.6,1.9-1.7,3.4-3.3,4.6-1.6,1.2-3.6,1.8-6,1.8s-3.7-.4-5.2-1.3-2.7-2.1-3.6-3.7c-.9-1.6-1.3-3.4-1.3-5.5s.4-3.9,1.3-5.5c.8-1.6,2-2.8,3.6-3.7,1.5-.9,3.3-1.3,5.3-1.3s3.6.4,5.1,1.3c1.5.8,2.7,2,3.5,3.5s1.3,3.2,1.3,5.2,0,1.4-.1,2.1ZM1710.4,234.7c0-1.5-.6-2.8-1.7-3.7s-2.4-1.4-4-1.4-2.7.5-3.7,1.4c-1,.9-1.6,2.2-1.8,3.7h11.2Z"/>
    <path class="cls-2" d="M1746.1,226.4l-6.3,20.3h-4.4l-4.1-15-4.1,15h-4.4l-6.3-20.3h4.3l4.2,16.3,4.3-16.3h4.4l4.1,16.3,4.2-16.3h4.1Z"/>
    <path class="cls-2" d="M1766,227c1.2-.6,2.6-1,4.2-1s3.4.4,4.8,1.3c1.5.9,2.6,2.1,3.4,3.7s1.3,3.4,1.3,5.4-.4,3.9-1.3,5.5c-.8,1.6-2,2.9-3.4,3.8-1.5.9-3.1,1.3-4.8,1.3s-2.9-.3-4.1-.9c-1.2-.6-2.2-1.4-2.9-2.3v12.6h-4.2v-30h4.2v3c.7-.9,1.7-1.7,2.9-2.4ZM1774.5,232.8c-.6-1-1.3-1.8-2.3-2.3-.9-.5-2-.8-3-.8s-2.1.3-3,.8c-.9.5-1.7,1.3-2.3,2.4-.6,1-.9,2.2-.9,3.6s.3,2.6.9,3.7,1.3,1.8,2.3,2.4c.9.5,1.9.8,3,.8s2.1-.3,3-.8c.9-.6,1.7-1.4,2.3-2.4.6-1.1.9-2.3.9-3.7s-.3-2.6-.9-3.6Z"/>
    <path class="cls-2" d="M1790.5,226.9c1-.6,2.2-.9,3.6-.9v4.3h-1.1c-1.6,0-2.9.4-3.7,1.3-.8.8-1.3,2.3-1.3,4.3v10.7h-4.2v-20.3h4.2v2.9c.6-1,1.4-1.8,2.5-2.4Z"/>
    <path class="cls-2" d="M1801.6,245.7c-1.5-.9-2.8-2.1-3.6-3.7-.9-1.6-1.3-3.4-1.3-5.5s.5-3.9,1.4-5.5c.9-1.6,2.1-2.8,3.7-3.7,1.6-.9,3.3-1.3,5.3-1.3s3.7.4,5.3,1.3c1.6.9,2.8,2.1,3.7,3.7s1.4,3.4,1.4,5.5-.5,3.9-1.4,5.5c-.9,1.6-2.2,2.8-3.8,3.7s-3.4,1.3-5.3,1.3-3.6-.4-5.2-1.3ZM1809.8,242.6c.9-.5,1.7-1.3,2.3-2.3.6-1,.9-2.3.9-3.8s-.3-2.7-.8-3.7c-.6-1-1.3-1.8-2.2-2.3-.9-.5-1.9-.8-3-.8s-2.1.3-3,.8c-.9.5-1.7,1.3-2.2,2.3-.5,1-.8,2.3-.8,3.7,0,2.2.6,3.9,1.7,5.1,1.1,1.2,2.5,1.8,4.2,1.8s2.1-.3,3-.8Z"/>
    <path class="cls-2" d="M1850.4,227.1c1.3.7,2.3,1.6,3,2.9.7,1.3,1.1,2.9,1.1,4.7v12h-4.2v-11.3c0-1.8-.5-3.2-1.4-4.2-.9-1-2.2-1.5-3.7-1.5s-2.8.5-3.7,1.5c-.9,1-1.4,2.4-1.4,4.2v11.3h-4.2v-11.3c0-1.8-.5-3.2-1.4-4.2-.9-1-2.2-1.5-3.7-1.5s-2.8.5-3.7,1.5c-.9,1-1.4,2.4-1.4,4.2v11.3h-4.2v-20.3h4.2v2.3c.7-.8,1.6-1.5,2.6-2,1.1-.5,2.2-.7,3.4-.7s3.1.3,4.3,1c1.3.7,2.3,1.7,2.9,3,.6-1.2,1.6-2.2,2.9-2.9s2.7-1.1,4.2-1.1,3,.3,4.3,1Z"/>
    <path class="cls-2" d="M1866.9,227c1.2-.6,2.6-1,4.2-1s3.4.4,4.8,1.3c1.5.9,2.6,2.1,3.4,3.7s1.3,3.4,1.3,5.4-.4,3.9-1.3,5.5c-.8,1.6-2,2.9-3.4,3.8-1.5.9-3.1,1.3-4.8,1.3s-2.9-.3-4.1-.9c-1.2-.6-2.2-1.4-2.9-2.3v12.6h-4.2v-30h4.2v3c.7-.9,1.7-1.7,2.9-2.4ZM1875.5,232.8c-.6-1-1.3-1.8-2.3-2.3-.9-.5-2-.8-3-.8s-2.1.3-3,.8c-.9.5-1.7,1.3-2.3,2.4-.6,1-.9,2.2-.9,3.6s.3,2.6.9,3.7,1.3,1.8,2.3,2.4c.9.5,1.9.8,3,.8s2.1-.3,3-.8c.9-.6,1.7-1.4,2.3-2.4.6-1.1.9-2.3.9-3.7s-.3-2.6-.9-3.6Z"/>
    <path class="cls-2" d="M1889.7,229.8v11.2c0,.8.2,1.3.5,1.6.4.3,1,.5,1.8.5h2.6v3.5h-3.3c-1.9,0-3.3-.4-4.3-1.3-1-.9-1.5-2.3-1.5-4.3v-11.2h-2.4v-3.4h2.4v-5h4.2v5h4.9v3.4h-4.9Z"/>
    <path class="cls-2" d="M1901.6,246.2c-1.3-.6-2.3-1.4-3-2.4-.7-1-1.1-2.1-1.2-3.3h4.3c0,.9.5,1.6,1.2,2.2.7.6,1.7.9,2.8.9s2.1-.2,2.7-.7c.7-.5,1-1,1-1.8s-.4-1.3-1.1-1.7c-.7-.4-1.9-.8-3.4-1.2-1.5-.4-2.8-.8-3.7-1.2-1-.4-1.8-1-2.5-1.8s-1.1-1.9-1.1-3.2.3-2.1,1-3c.6-.9,1.6-1.6,2.7-2.1,1.2-.5,2.6-.8,4.1-.8,2.3,0,4.2.6,5.6,1.8,1.4,1.2,2.2,2.8,2.3,4.8h-4.2c0-.9-.4-1.6-1.1-2.2-.7-.5-1.6-.8-2.7-.8s-2,.2-2.5.6c-.6.4-.9,1-.9,1.7s.2,1,.6,1.4c.4.4.9.7,1.4.9s1.4.5,2.5.8c1.5.4,2.7.8,3.6,1.2.9.4,1.8,1,2.5,1.8.7.8,1,1.8,1.1,3.1,0,1.2-.3,2.2-1,3.1-.6.9-1.5,1.6-2.7,2.1s-2.5.8-4.1.8-3-.3-4.3-.9Z"/>
    <path class="cls-2" d="M1478.5,274h-3.8v16.9h-4.2v-16.9h-2.4v-3.4h2.4v-1.4c0-2.3.6-4,1.9-5.1,1.2-1.1,3.2-1.6,5.8-1.6v3.5c-1.3,0-2.2.2-2.7.7-.5.5-.8,1.3-.8,2.5v1.4h3.8v3.4Z"/>
    <path class="cls-2" d="M1500.7,282.3h-15.5c.1,1.6.7,2.9,1.8,3.9s2.4,1.5,4,1.5c2.3,0,3.9-.9,4.8-2.8h4.5c-.6,1.9-1.7,3.4-3.3,4.6-1.6,1.2-3.6,1.8-6,1.8s-3.7-.4-5.2-1.3-2.7-2.1-3.6-3.7c-.9-1.6-1.3-3.4-1.3-5.5s.4-3.9,1.3-5.5c.8-1.6,2-2.8,3.6-3.7,1.5-.9,3.3-1.3,5.3-1.3s3.6.4,5.1,1.3c1.5.8,2.7,2,3.5,3.5s1.3,3.2,1.3,5.2,0,1.4-.1,2.1ZM1496.5,278.9c0-1.5-.6-2.8-1.7-3.7s-2.4-1.4-4-1.4-2.7.5-3.7,1.4c-1,.9-1.6,2.2-1.8,3.7h11.2Z"/>
    <path class="cls-2" d="M1509.2,263.7v27.3h-4.2v-27.3h4.2Z"/>
    <path class="cls-2" d="M1519.6,274v11.2c0,.8.2,1.3.5,1.6.4.3,1,.5,1.8.5h2.6v3.5h-3.3c-1.9,0-3.3-.4-4.3-1.3-1-.9-1.5-2.3-1.5-4.3v-11.2h-2.4v-3.4h2.4v-5h4.2v5h4.9v3.4h-4.9Z"/>
    <path class="cls-2" d="M1566.9,271.3c1.3.7,2.3,1.6,3,2.9.7,1.3,1.1,2.9,1.1,4.7v12h-4.2v-11.3c0-1.8-.5-3.2-1.4-4.2-.9-1-2.2-1.5-3.7-1.5s-2.8.5-3.7,1.5c-.9,1-1.4,2.4-1.4,4.2v11.3h-4.2v-11.3c0-1.8-.5-3.2-1.4-4.2-.9-1-2.2-1.5-3.7-1.5s-2.8.5-3.7,1.5c-.9,1-1.4,2.4-1.4,4.2v11.3h-4.2v-20.3h4.2v2.3c.7-.8,1.6-1.5,2.6-2,1.1-.5,2.2-.7,3.4-.7s3.1.3,4.3,1c1.3.7,2.3,1.7,2.9,3,.6-1.2,1.6-2.2,2.9-2.9s2.7-1.1,4.2-1.1,3,.3,4.3,1Z"/>
    <path class="cls-2" d="M1579.9,289.9c-1.5-.9-2.8-2.1-3.6-3.7-.9-1.6-1.3-3.4-1.3-5.5s.5-3.9,1.4-5.5c.9-1.6,2.1-2.8,3.7-3.7,1.6-.9,3.3-1.3,5.3-1.3s3.7.4,5.3,1.3c1.6.9,2.8,2.1,3.7,3.7s1.4,3.4,1.4,5.5-.5,3.9-1.4,5.5c-.9,1.6-2.2,2.8-3.8,3.7s-3.4,1.3-5.3,1.3-3.6-.4-5.2-1.3ZM1588.1,286.8c.9-.5,1.7-1.3,2.3-2.3.6-1,.9-2.3.9-3.8s-.3-2.7-.8-3.7c-.6-1-1.3-1.8-2.2-2.3-.9-.5-1.9-.8-3-.8s-2.1.3-3,.8c-.9.5-1.7,1.3-2.2,2.3-.5,1-.8,2.3-.8,3.7,0,2.2.6,3.9,1.7,5.1,1.1,1.2,2.5,1.8,4.2,1.8s2.1-.3,3-.8Z"/>
    <path class="cls-2" d="M1606.5,271.1c1-.6,2.2-.9,3.6-.9v4.3h-1.1c-1.6,0-2.9.4-3.7,1.3-.8.8-1.3,2.3-1.3,4.3v10.7h-4.2v-20.3h4.2v2.9c.6-1,1.4-1.8,2.5-2.4Z"/>
    <path class="cls-2" d="M1632.4,282.3h-15.5c.1,1.6.7,2.9,1.8,3.9,1.1,1,2.4,1.5,4,1.5,2.3,0,3.9-.9,4.8-2.8h4.5c-.6,1.9-1.7,3.4-3.3,4.6-1.6,1.2-3.6,1.8-6,1.8s-3.7-.4-5.2-1.3c-1.5-.9-2.7-2.1-3.6-3.7-.9-1.6-1.3-3.4-1.3-5.5s.4-3.9,1.3-5.5c.8-1.6,2-2.8,3.6-3.7,1.5-.9,3.3-1.3,5.3-1.3s3.6.4,5.1,1.3c1.5.8,2.7,2,3.5,3.5.8,1.5,1.3,3.2,1.3,5.2s0,1.4-.1,2.1ZM1628.2,278.9c0-1.5-.6-2.8-1.7-3.7s-2.4-1.4-4-1.4-2.7.5-3.7,1.4c-1,.9-1.6,2.2-1.8,3.7h11.2Z"/>
    <path class="cls-2" d="M1661.7,271.2c1.2.7,2.1,1.7,2.8,3,.7,1.3,1,2.9,1,4.7v12h-5.2v-11.3c0-1.6-.4-2.9-1.2-3.7s-1.9-1.3-3.3-1.3-2.5.4-3.4,1.3c-.8.9-1.2,2.1-1.2,3.7v11.3h-5.2v-27.3h5.2v9.4c.7-.9,1.5-1.6,2.7-2.1s2.3-.8,3.7-.8,2.9.3,4.1,1Z"/>
    <path class="cls-2" d="M1689.2,282.3h-14.9c.1,1.5.6,2.6,1.5,3.5.9.8,2,1.3,3.4,1.3,1.9,0,3.3-.8,4.1-2.5h5.6c-.6,2-1.7,3.6-3.4,4.8-1.7,1.3-3.7,1.9-6.2,1.9s-3.7-.4-5.3-1.3-2.8-2.1-3.6-3.7c-.9-1.6-1.3-3.4-1.3-5.5s.4-4,1.3-5.6c.9-1.6,2.1-2.8,3.6-3.7,1.5-.9,3.3-1.3,5.3-1.3s3.7.4,5.2,1.3c1.5.8,2.7,2,3.6,3.6s1.3,3.3,1.3,5.3,0,1.4-.1,2ZM1684,278.8c0-1.3-.5-2.4-1.4-3.2-.9-.8-2.1-1.2-3.4-1.2s-2.4.4-3.2,1.2c-.9.8-1.4,1.8-1.6,3.2h9.7Z"/>
    <path class="cls-2" d="M1698.3,263.7v27.3h-5.2v-27.3h5.2Z"/>
    <path class="cls-2" d="M1711.3,271.1c1.2-.6,2.5-.9,4-.9s3.3.4,4.7,1.3c1.4.9,2.5,2.1,3.4,3.7.8,1.6,1.2,3.4,1.2,5.5s-.4,3.9-1.2,5.5c-.8,1.6-1.9,2.9-3.4,3.7-1.4.9-3,1.3-4.7,1.3s-2.8-.3-4-.9c-1.1-.6-2.1-1.4-2.8-2.3v12.6h-5.2v-30.1h5.2v2.9c.7-.9,1.6-1.7,2.7-2.3ZM1718.6,277.5c-.5-.9-1.2-1.6-2-2-.8-.5-1.7-.7-2.7-.7s-1.8.2-2.6.7c-.8.5-1.5,1.2-2,2.1s-.8,2-.8,3.2.3,2.3.8,3.2c.5.9,1.2,1.6,2,2.1.8.5,1.7.7,2.6.7s1.8-.2,2.7-.7c.8-.5,1.5-1.2,2-2.1.5-.9.8-2,.8-3.2s-.3-2.3-.8-3.2Z"/>
    <path class="cls-2" d="M1737.7,274.7h-3.6v16.2h-5.2v-16.2h-2.3v-4.2h2.3v-1c0-2.5.7-4.3,2.1-5.5,1.4-1.2,3.6-1.7,6.4-1.7v4.3c-1.3,0-2.1.2-2.6.6-.5.4-.7,1.2-.7,2.4v.8h3.6v4.2Z"/>
    <path class="cls-2" d="M1760.4,270.5v20.4h-5.2v-2.6c-.7.9-1.5,1.6-2.6,2.1-1.1.5-2.2.8-3.5.8s-3-.3-4.2-1c-1.2-.7-2.2-1.7-2.9-3s-1.1-2.9-1.1-4.7v-12h5.2v11.2c0,1.6.4,2.9,1.2,3.7.8.9,1.9,1.3,3.3,1.3s2.5-.4,3.4-1.3c.8-.9,1.2-2.1,1.2-3.7v-11.2h5.2Z"/>
    <path class="cls-2" d="M1770.6,263.7v27.3h-5.2v-27.3h5.2Z"/>
    <path class="cls-2" d="M1789.6,274v11.2c0,.8.2,1.3.5,1.6.4.3,1,.5,1.8.5h2.6v3.5h-3.3c-1.9,0-3.3-.4-4.3-1.3-1-.9-1.5-2.3-1.5-4.3v-11.2h-2.4v-3.4h2.4v-5h4.2v5h4.9v3.4h-4.9Z"/>
    <path class="cls-2" d="M1813,271.3c1.2.7,2.2,1.6,2.9,2.9.7,1.3,1,2.9,1,4.7v12h-4.2v-11.3c0-1.8-.5-3.2-1.4-4.2-.9-1-2.2-1.5-3.7-1.5s-2.8.5-3.7,1.5c-.9,1-1.4,2.4-1.4,4.2v11.3h-4.2v-27.3h4.2v9.3c.7-.9,1.6-1.5,2.7-2,1.1-.5,2.3-.7,3.6-.7s2.9.3,4.1,1Z"/>
    <path class="cls-2" d="M1822.2,275.3c.8-1.6,2-2.8,3.5-3.7,1.5-.9,3.1-1.3,4.8-1.3s3,.3,4.2.9c1.2.6,2.1,1.4,2.9,2.3v-2.9h4.2v20.3h-4.2v-3c-.7,1-1.7,1.8-2.9,2.4-1.2.6-2.6,1-4.2,1s-3.3-.4-4.8-1.3c-1.5-.9-2.6-2.1-3.4-3.8-.8-1.6-1.3-3.4-1.3-5.5s.4-3.8,1.3-5.4ZM1836.7,277.1c-.6-1-1.3-1.8-2.3-2.4-.9-.5-1.9-.8-3-.8s-2.1.3-3,.8-1.7,1.3-2.3,2.3c-.6,1-.9,2.2-.9,3.6s.3,2.6.9,3.7c.6,1.1,1.3,1.9,2.3,2.4s1.9.8,3,.8,2.1-.3,3-.8,1.7-1.3,2.3-2.4c.6-1,.9-2.3.9-3.7s-.3-2.6-.9-3.6Z"/>
    <path class="cls-2" d="M1861.8,271.3c1.3.7,2.3,1.6,3,2.9.7,1.3,1.1,2.9,1.1,4.7v12h-4.2v-11.3c0-1.8-.5-3.2-1.4-4.2-.9-1-2.2-1.5-3.7-1.5s-2.8.5-3.7,1.5c-.9,1-1.4,2.4-1.4,4.2v11.3h-4.2v-20.3h4.2v2.3c.7-.8,1.6-1.5,2.6-2,1.1-.5,2.2-.7,3.4-.7s3,.3,4.3,1Z"/>
    <path class="cls-2" d="M1481.1,334.2c-1.5-.9-2.8-2.1-3.6-3.7-.9-1.6-1.3-3.4-1.3-5.5s.5-3.9,1.4-5.5c.9-1.6,2.1-2.8,3.7-3.7,1.6-.9,3.3-1.3,5.3-1.3s3.7.4,5.3,1.3c1.6.9,2.8,2.1,3.7,3.7s1.4,3.4,1.4,5.5-.5,3.9-1.4,5.5c-.9,1.6-2.2,2.8-3.8,3.7s-3.4,1.3-5.3,1.3-3.6-.4-5.2-1.3ZM1489.3,331.1c.9-.5,1.7-1.3,2.3-2.3.6-1,.9-2.3.9-3.8s-.3-2.7-.8-3.7c-.6-1-1.3-1.8-2.2-2.3-.9-.5-1.9-.8-3-.8s-2.1.3-3,.8c-.9.5-1.7,1.3-2.2,2.3-.5,1-.8,2.3-.8,3.7,0,2.2.6,3.9,1.7,5.1,1.1,1.2,2.5,1.8,4.2,1.8s2.1-.3,3-.8Z"/>
    <path class="cls-2" d="M1508.1,315.5c1.2-.6,2.6-1,4.2-1s3.4.4,4.8,1.3c1.5.9,2.6,2.1,3.4,3.7s1.3,3.4,1.3,5.4-.4,3.9-1.3,5.5c-.8,1.6-2,2.9-3.4,3.8-1.5.9-3.1,1.3-4.8,1.3s-2.9-.3-4.1-.9c-1.2-.6-2.2-1.4-2.9-2.3v12.6h-4.2v-30h4.2v3c.7-.9,1.7-1.7,2.9-2.4ZM1516.7,321.3c-.6-1-1.3-1.8-2.3-2.3-.9-.5-2-.8-3-.8s-2.1.3-3,.8c-.9.5-1.7,1.3-2.3,2.4-.6,1-.9,2.2-.9,3.6s.3,2.6.9,3.7,1.3,1.8,2.3,2.4c.9.5,1.9.8,3,.8s2.1-.3,3-.8c.9-.6,1.7-1.4,2.3-2.4.6-1.1.9-2.3.9-3.7s-.3-2.6-.9-3.6Z"/>
    <path class="cls-2" d="M1544.4,326.6h-15.5c.1,1.6.7,2.9,1.8,3.9,1.1,1,2.4,1.5,4,1.5,2.3,0,3.9-.9,4.8-2.8h4.5c-.6,1.9-1.7,3.4-3.3,4.6-1.6,1.2-3.6,1.8-6,1.8s-3.7-.4-5.2-1.3c-1.5-.9-2.7-2.1-3.6-3.7-.9-1.6-1.3-3.4-1.3-5.5s.4-3.9,1.3-5.5c.8-1.6,2-2.8,3.6-3.7,1.5-.9,3.3-1.3,5.3-1.3s3.6.4,5.1,1.3c1.5.8,2.7,2,3.5,3.5.8,1.5,1.3,3.2,1.3,5.2s0,1.4-.1,2.1ZM1540.2,323.2c0-1.5-.6-2.8-1.7-3.7s-2.4-1.4-4-1.4-2.7.5-3.7,1.4c-1,.9-1.6,2.2-1.8,3.7h11.2Z"/>
    <path class="cls-2" d="M1563.2,315.5c1.3.7,2.3,1.6,3,2.9.7,1.3,1.1,2.9,1.1,4.7v12h-4.2v-11.3c0-1.8-.5-3.2-1.4-4.2-.9-1-2.2-1.5-3.7-1.5s-2.8.5-3.7,1.5c-.9,1-1.4,2.4-1.4,4.2v11.3h-4.2v-20.3h4.2v2.3c.7-.8,1.6-1.5,2.6-2,1.1-.5,2.2-.7,3.4-.7s3,.3,4.3,1Z"/>
    <path class="cls-2" d="M1588.2,320v3.5h-15.1v-3.5h15.1Z"/>
    <path class="cls-2" d="M1612.6,326.6h-15.5c.1,1.6.7,2.9,1.8,3.9,1.1,1,2.4,1.5,4,1.5,2.3,0,3.9-.9,4.8-2.8h4.5c-.6,1.9-1.7,3.4-3.3,4.6-1.6,1.2-3.6,1.8-6,1.8s-3.7-.4-5.2-1.3c-1.5-.9-2.7-2.1-3.6-3.7-.9-1.6-1.3-3.4-1.3-5.5s.4-3.9,1.3-5.5c.8-1.6,2-2.8,3.6-3.7,1.5-.9,3.3-1.3,5.3-1.3s3.6.4,5.1,1.3c1.5.8,2.7,2,3.5,3.5.8,1.5,1.3,3.2,1.3,5.2s0,1.4-.1,2.1ZM1608.4,323.2c0-1.5-.6-2.8-1.7-3.7s-2.4-1.4-4-1.4-2.7.5-3.7,1.4c-1,.9-1.6,2.2-1.8,3.7h11.2Z"/>
    <path class="cls-2" d="M1631.4,315.5c1.3.7,2.3,1.6,3,2.9.7,1.3,1.1,2.9,1.1,4.7v12h-4.2v-11.3c0-1.8-.5-3.2-1.4-4.2-.9-1-2.2-1.5-3.7-1.5s-2.8.5-3.7,1.5c-.9,1-1.4,2.4-1.4,4.2v11.3h-4.2v-20.3h4.2v2.3c.7-.8,1.6-1.5,2.6-2,1.1-.5,2.2-.7,3.4-.7s3,.3,4.3,1Z"/>
    <path class="cls-2" d="M1640.7,319.5c.8-1.6,2-2.8,3.5-3.7s3.1-1.3,4.9-1.3,2.6.3,3.9.9c1.3.6,2.3,1.3,3.1,2.3v-9.8h4.2v27.3h-4.2v-3.1c-.7,1-1.6,1.8-2.9,2.4-1.2.6-2.6,1-4.2,1s-3.4-.4-4.8-1.3c-1.5-.9-2.6-2.1-3.5-3.8-.8-1.6-1.3-3.4-1.3-5.5s.4-3.8,1.3-5.4ZM1655.2,321.3c-.6-1-1.3-1.8-2.3-2.4-.9-.5-1.9-.8-3-.8s-2.1.3-3,.8-1.7,1.3-2.3,2.3-.9,2.2-.9,3.6.3,2.6.9,3.7c.6,1.1,1.3,1.9,2.3,2.4.9.6,1.9.8,3,.8s2.1-.3,3-.8,1.7-1.3,2.3-2.4.9-2.3.9-3.7-.3-2.6-.9-3.6Z"/>
    <path class="cls-2" d="M1684.3,326.6h-15.5c.1,1.6.7,2.9,1.8,3.9s2.4,1.5,4,1.5c2.3,0,3.9-.9,4.8-2.8h4.5c-.6,1.9-1.7,3.4-3.3,4.6-1.6,1.2-3.6,1.8-6,1.8s-3.7-.4-5.2-1.3-2.7-2.1-3.6-3.7c-.9-1.6-1.3-3.4-1.3-5.5s.4-3.9,1.3-5.5c.8-1.6,2-2.8,3.6-3.7,1.5-.9,3.3-1.3,5.3-1.3s3.6.4,5.1,1.3c1.5.8,2.7,2,3.5,3.5s1.3,3.2,1.3,5.2,0,1.4-.1,2.1ZM1680,323.2c0-1.5-.6-2.8-1.7-3.7s-2.4-1.4-4-1.4-2.7.5-3.7,1.4c-1,.9-1.6,2.2-1.8,3.7h11.2Z"/>
    <path class="cls-2" d="M1688.4,319.5c.8-1.6,2-2.8,3.5-3.7s3.1-1.3,4.9-1.3,2.6.3,3.9.9c1.3.6,2.3,1.3,3.1,2.3v-9.8h4.2v27.3h-4.2v-3.1c-.7,1-1.6,1.8-2.9,2.4-1.2.6-2.6,1-4.2,1s-3.4-.4-4.8-1.3c-1.5-.9-2.6-2.1-3.5-3.8-.8-1.6-1.3-3.4-1.3-5.5s.4-3.8,1.3-5.4ZM1702.9,321.3c-.6-1-1.3-1.8-2.3-2.4-.9-.5-1.9-.8-3-.8s-2.1.3-3,.8-1.7,1.3-2.3,2.3-.9,2.2-.9,3.6.3,2.6.9,3.7c.6,1.1,1.3,1.9,2.3,2.4.9.6,1.9.8,3,.8s2.1-.3,3-.8,1.7-1.3,2.3-2.4.9-2.3.9-3.7-.3-2.6-.9-3.6Z"/>
    <path class="cls-2" d="M1729.8,315.4c1-.6,2.2-.9,3.6-.9v4.3h-1.1c-1.6,0-2.9.4-3.7,1.3-.8.8-1.3,2.3-1.3,4.3v10.7h-4.2v-20.3h4.2v2.9c.6-1,1.4-1.8,2.5-2.4Z"/>
    <path class="cls-2" d="M1755.7,326.6h-15.5c.1,1.6.7,2.9,1.8,3.9,1.1,1,2.4,1.5,4,1.5,2.3,0,3.9-.9,4.8-2.8h4.5c-.6,1.9-1.7,3.4-3.3,4.6-1.6,1.2-3.6,1.8-6,1.8s-3.7-.4-5.2-1.3c-1.5-.9-2.7-2.1-3.6-3.7-.9-1.6-1.3-3.4-1.3-5.5s.4-3.9,1.3-5.5c.8-1.6,2-2.8,3.6-3.7,1.5-.9,3.3-1.3,5.3-1.3s3.6.4,5.1,1.3c1.5.8,2.7,2,3.5,3.5.8,1.5,1.3,3.2,1.3,5.2s0,1.4-.1,2.1ZM1751.5,323.2c0-1.5-.6-2.8-1.7-3.7s-2.4-1.4-4-1.4-2.7.5-3.7,1.4c-1,.9-1.6,2.2-1.8,3.7h11.2Z"/>
    <path class="cls-2" d="M1767.8,331.4l5.7-16.5h4.5l-7.7,20.3h-5l-7.7-20.3h4.5l5.7,16.5Z"/>
    <path class="cls-2" d="M1781.4,311.4c-.5-.5-.8-1.2-.8-1.9s.3-1.4.8-1.9c.5-.5,1.2-.8,1.9-.8s1.4.3,1.9.8c.5.5.8,1.2.8,1.9s-.3,1.4-.8,1.9c-.5.5-1.1.8-1.9.8s-1.4-.3-1.9-.8ZM1785.4,314.8v20.3h-4.2v-20.3h4.2Z"/>
    <path class="cls-2" d="M1809.4,326.6h-15.5c.1,1.6.7,2.9,1.8,3.9s2.4,1.5,4,1.5c2.3,0,3.9-.9,4.8-2.8h4.5c-.6,1.9-1.7,3.4-3.3,4.6-1.6,1.2-3.6,1.8-6,1.8s-3.7-.4-5.2-1.3-2.7-2.1-3.6-3.7c-.9-1.6-1.3-3.4-1.3-5.5s.4-3.9,1.3-5.5c.8-1.6,2-2.8,3.6-3.7,1.5-.9,3.3-1.3,5.3-1.3s3.6.4,5.1,1.3c1.5.8,2.7,2,3.5,3.5s1.3,3.2,1.3,5.2,0,1.4-.1,2.1ZM1805.2,323.2c0-1.5-.6-2.8-1.7-3.7s-2.4-1.4-4-1.4-2.7.5-3.7,1.4c-1,.9-1.6,2.2-1.8,3.7h11.2Z"/>
    <path class="cls-2" d="M1841,314.8l-6.3,20.3h-4.4l-4.1-15-4.1,15h-4.4l-6.3-20.3h4.3l4.2,16.3,4.3-16.3h4.4l4.1,16.3,4.2-16.3h4.1Z"/>
    <path class="cls-2" d="M1847.2,334.6c-1.3-.6-2.3-1.4-3-2.4s-1.1-2.1-1.2-3.3h4.3c0,.9.5,1.6,1.2,2.2.7.6,1.7.9,2.8.9s2.1-.2,2.7-.7c.7-.5,1-1,1-1.8s-.4-1.3-1.1-1.7c-.7-.4-1.9-.8-3.4-1.2-1.5-.4-2.8-.8-3.7-1.2-1-.4-1.8-1-2.5-1.8s-1-1.9-1-3.2.3-2.1,1-3,1.6-1.6,2.7-2.1,2.6-.8,4.1-.8c2.3,0,4.2.6,5.6,1.8,1.4,1.2,2.2,2.8,2.3,4.8h-4.2c0-.9-.4-1.6-1.1-2.2-.7-.5-1.6-.8-2.7-.8s-2,.2-2.5.6-.9,1-.9,1.7.2,1,.6,1.4c.4.4.9.7,1.4.9.6.2,1.4.5,2.5.8,1.5.4,2.7.8,3.6,1.2.9.4,1.8,1,2.5,1.8.7.8,1,1.8,1.1,3.1,0,1.2-.3,2.2-1,3.1s-1.5,1.6-2.7,2.1c-1.2.5-2.5.8-4.1.8s-3-.3-4.3-.9Z"/>
  </g>
  <circle class="cls-4" cx="1667.8" cy="122.1" r="59.2" transform="translate(402.2 1215) rotate(-45)"/>
  <g>
    <path class="cls-2" d="M100.5,246.1c-1.4-.6-2.5-1.5-3.2-2.6-.8-1.1-1.2-2.4-1.2-3.9h4.5c0,1.1.5,2,1.3,2.7.8.7,1.9,1.1,3.3,1.1s2.6-.4,3.4-1.1,1.2-1.6,1.2-2.7-.3-1.6-.8-2.1-1.1-1-1.9-1.3-1.8-.6-3.1-1c-1.7-.4-3-.9-4.1-1.3-1-.5-1.9-1.2-2.7-2.1-.7-1-1.1-2.2-1.1-3.8s.4-2.8,1.1-3.9c.7-1.1,1.8-2,3.1-2.5,1.3-.6,2.9-.9,4.6-.9,2.5,0,4.5.6,6.1,1.9,1.6,1.2,2.5,2.9,2.6,5.1h-4.6c0-.9-.5-1.7-1.3-2.4-.8-.7-1.9-1-3.2-1s-2.2.3-2.9.9c-.8.6-1.1,1.5-1.1,2.7s.2,1.4.7,1.9c.5.5,1.1.9,1.8,1.2s1.7.6,3,1c1.7.5,3.1.9,4.1,1.4s2,1.2,2.7,2.2c.7,1,1.1,2.3,1.1,3.9s-.3,2.5-1,3.7-1.7,2.1-3.1,2.8c-1.3.7-2.9,1-4.7,1s-3.3-.3-4.6-.9Z"/>
    <path class="cls-2" d="M122.6,245.7c-1.5-.9-2.8-2.1-3.6-3.7-.9-1.6-1.3-3.4-1.3-5.5s.5-3.9,1.4-5.5c.9-1.6,2.1-2.8,3.7-3.7,1.6-.9,3.3-1.3,5.3-1.3s3.7.4,5.3,1.3c1.6.9,2.8,2.1,3.7,3.7.9,1.6,1.4,3.4,1.4,5.5s-.5,3.9-1.4,5.5c-.9,1.6-2.2,2.8-3.8,3.7-1.6.9-3.4,1.3-5.3,1.3s-3.6-.4-5.2-1.3ZM130.8,242.6c.9-.5,1.7-1.3,2.3-2.3.6-1,.9-2.3.9-3.8s-.3-2.7-.8-3.7c-.6-1-1.3-1.8-2.2-2.3-.9-.5-1.9-.8-3-.8s-2.1.3-3,.8c-.9.5-1.7,1.3-2.2,2.3-.5,1-.8,2.3-.8,3.7,0,2.2.6,3.9,1.7,5.1,1.1,1.2,2.5,1.8,4.2,1.8s2.1-.3,3-.8Z"/>
    <path class="cls-2" d="M149.2,226.9c1-.6,2.2-.9,3.6-.9v4.3h-1.1c-1.6,0-2.9.4-3.7,1.3-.8.8-1.3,2.3-1.3,4.3v10.7h-4.2v-20.3h4.2v2.9c.6-1,1.4-1.8,2.5-2.4Z"/>
    <path class="cls-2" d="M161.6,229.8v11.2c0,.8.2,1.3.5,1.6.4.3,1,.5,1.8.5h2.6v3.5h-3.3c-1.9,0-3.3-.4-4.3-1.3-1-.9-1.5-2.3-1.5-4.3v-11.2h-2.4v-3.4h2.4v-5h4.2v5h4.9v3.4h-4.9Z"/>
    <path class="cls-2" d="M170.6,222.9c-.5-.5-.8-1.2-.8-1.9s.3-1.4.8-1.9c.5-.5,1.2-.8,1.9-.8s1.4.3,1.9.8c.5.5.8,1.2.8,1.9s-.3,1.4-.8,1.9c-.5.5-1.1.8-1.9.8s-1.4-.3-1.9-.8ZM174.6,226.4v20.3h-4.2v-20.3h4.2Z"/>
    <path class="cls-2" d="M194.6,227.1c1.3.7,2.3,1.6,3,2.9.7,1.3,1.1,2.9,1.1,4.7v12h-4.2v-11.3c0-1.8-.5-3.2-1.4-4.2-.9-1-2.1-1.5-3.7-1.5s-2.8.5-3.7,1.5-1.4,2.4-1.4,4.2v11.3h-4.2v-20.3h4.2v2.3c.7-.8,1.6-1.5,2.6-2,1.1-.5,2.2-.7,3.4-.7s3,.3,4.3,1Z"/>
    <path class="cls-2" d="M216.4,227c1.2.6,2.2,1.4,2.9,2.3v-2.9h4.2v20.6c0,1.9-.4,3.5-1.2,5-.8,1.5-1.9,2.6-3.4,3.4-1.5.8-3.3,1.3-5.3,1.3s-5-.6-6.9-1.9c-1.8-1.3-2.9-3-3.1-5.3h4.2c.3,1.1,1,1.9,2,2.6,1,.7,2.3,1,3.7,1s3.1-.5,4.1-1.5c1-1,1.6-2.5,1.6-4.5v-3.4c-.7,1-1.7,1.8-2.9,2.4-1.2.7-2.6,1-4.1,1s-3.4-.4-4.8-1.3c-1.5-.9-2.6-2.1-3.5-3.8-.8-1.6-1.3-3.4-1.3-5.5s.4-3.8,1.3-5.4,2-2.8,3.5-3.7c1.5-.9,3.1-1.3,4.8-1.3s3,.3,4.2.9ZM218.4,232.9c-.6-1-1.3-1.8-2.3-2.4-.9-.5-1.9-.8-3-.8s-2.1.3-3,.8-1.7,1.3-2.3,2.3c-.6,1-.9,2.2-.9,3.6s.3,2.6.9,3.7c.6,1.1,1.3,1.9,2.3,2.4.9.6,1.9.8,3,.8s2.1-.3,3-.8,1.7-1.3,2.3-2.4c.6-1,.9-2.3.9-3.7s-.3-2.6-.9-3.6Z"/>
    <path class="cls-2" d="M247.1,229.8h-3.8v16.9h-4.2v-16.9h-2.4v-3.4h2.4v-1.4c0-2.3.6-4,1.9-5.1,1.2-1.1,3.2-1.6,5.8-1.6v3.5c-1.3,0-2.2.2-2.7.7-.5.5-.8,1.3-.8,2.5v1.4h3.8v3.4Z"/>
    <path class="cls-2" d="M269.2,226.4v20.3h-4.2v-2.4c-.7.8-1.5,1.5-2.6,2-1.1.5-2.2.7-3.4.7s-3-.3-4.3-1c-1.3-.7-2.3-1.6-3-2.9-.7-1.3-1.1-2.9-1.1-4.7v-11.9h4.2v11.3c0,1.8.5,3.2,1.4,4.2.9,1,2.1,1.5,3.7,1.5s2.8-.5,3.7-1.5,1.4-2.4,1.4-4.2v-11.3h4.2Z"/>
    <path class="cls-2" d="M289.3,227.1c1.3.7,2.3,1.6,3,2.9.7,1.3,1.1,2.9,1.1,4.7v12h-4.2v-11.3c0-1.8-.5-3.2-1.4-4.2-.9-1-2.1-1.5-3.7-1.5s-2.8.5-3.7,1.5-1.4,2.4-1.4,4.2v11.3h-4.2v-20.3h4.2v2.3c.7-.8,1.6-1.5,2.6-2,1.1-.5,2.2-.7,3.4-.7s3,.3,4.3,1Z"/>
    <path class="cls-2" d="M298.5,231c.8-1.6,2-2.8,3.5-3.7,1.5-.9,3.2-1.3,5.2-1.3s4.5.6,6.1,1.8c1.6,1.2,2.7,2.8,3.3,5h-4.5c-.4-1-1-1.8-1.8-2.4-.8-.6-1.8-.8-3.1-.8s-3.1.6-4.1,1.8-1.5,2.9-1.5,5.1.5,3.9,1.5,5.1c1,1.2,2.4,1.8,4.1,1.8,2.4,0,4-1.1,4.8-3.2h4.5c-.6,2.1-1.7,3.7-3.3,4.9-1.6,1.2-3.6,1.8-6,1.8s-3.7-.4-5.2-1.3-2.7-2.1-3.5-3.7c-.8-1.6-1.3-3.4-1.3-5.5s.4-3.9,1.3-5.5Z"/>
    <path class="cls-2" d="M325.6,229.8v11.2c0,.8.2,1.3.5,1.6.4.3,1,.5,1.8.5h2.6v3.5h-3.3c-1.9,0-3.3-.4-4.3-1.3-1-.9-1.5-2.3-1.5-4.3v-11.2h-2.4v-3.4h2.4v-5h4.2v5h4.9v3.4h-4.9Z"/>
    <path class="cls-2" d="M334.7,222.9c-.5-.5-.8-1.2-.8-1.9s.3-1.4.8-1.9c.5-.5,1.2-.8,1.9-.8s1.4.3,1.9.8c.5.5.8,1.2.8,1.9s-.3,1.4-.8,1.9c-.5.5-1.1.8-1.9.8s-1.4-.3-1.9-.8ZM338.7,226.4v20.3h-4.2v-20.3h4.2Z"/>
    <path class="cls-2" d="M347.8,245.7c-1.5-.9-2.8-2.1-3.6-3.7-.9-1.6-1.3-3.4-1.3-5.5s.5-3.9,1.4-5.5c.9-1.6,2.1-2.8,3.7-3.7,1.6-.9,3.3-1.3,5.3-1.3s3.7.4,5.3,1.3c1.6.9,2.8,2.1,3.7,3.7.9,1.6,1.4,3.4,1.4,5.5s-.5,3.9-1.4,5.5c-.9,1.6-2.2,2.8-3.8,3.7-1.6.9-3.4,1.3-5.3,1.3s-3.6-.4-5.2-1.3ZM356,242.6c.9-.5,1.7-1.3,2.3-2.3.6-1,.9-2.3.9-3.8s-.3-2.7-.8-3.7c-.6-1-1.3-1.8-2.2-2.3-.9-.5-1.9-.8-3-.8s-2.1.3-3,.8c-.9.5-1.7,1.3-2.2,2.3-.5,1-.8,2.3-.8,3.7,0,2.2.6,3.9,1.7,5.1,1.1,1.2,2.5,1.8,4.2,1.8s2.1-.3,3-.8Z"/>
    <path class="cls-2" d="M382.2,227.1c1.3.7,2.3,1.6,3,2.9.7,1.3,1.1,2.9,1.1,4.7v12h-4.2v-11.3c0-1.8-.5-3.2-1.4-4.2-.9-1-2.1-1.5-3.7-1.5s-2.8.5-3.7,1.5-1.4,2.4-1.4,4.2v11.3h-4.2v-20.3h4.2v2.3c.7-.8,1.6-1.5,2.6-2,1.1-.5,2.2-.7,3.4-.7s3,.3,4.3,1Z"/>
    <path class="cls-2" d="M430.1,227.1c1.3.7,2.3,1.6,3,2.9.7,1.3,1.1,2.9,1.1,4.7v12h-4.2v-11.3c0-1.8-.5-3.2-1.4-4.2-.9-1-2.2-1.5-3.7-1.5s-2.8.5-3.7,1.5-1.4,2.4-1.4,4.2v11.3h-4.2v-11.3c0-1.8-.5-3.2-1.4-4.2-.9-1-2.1-1.5-3.7-1.5s-2.8.5-3.7,1.5-1.4,2.4-1.4,4.2v11.3h-4.2v-20.3h4.2v2.3c.7-.8,1.6-1.5,2.6-2,1.1-.5,2.2-.7,3.4-.7s3.1.3,4.3,1c1.3.7,2.3,1.7,2.9,3,.6-1.2,1.6-2.2,2.9-2.9,1.3-.7,2.7-1.1,4.2-1.1s3,.3,4.3,1Z"/>
    <path class="cls-2" d="M439.3,231c.8-1.6,2-2.8,3.5-3.7,1.5-.9,3.1-1.3,4.8-1.3s3,.3,4.2.9c1.2.6,2.1,1.4,2.9,2.3v-2.9h4.2v20.3h-4.2v-3c-.7,1-1.7,1.8-2.9,2.4-1.2.6-2.6,1-4.2,1s-3.3-.4-4.8-1.3c-1.4-.9-2.6-2.1-3.4-3.8-.8-1.6-1.3-3.4-1.3-5.5s.4-3.8,1.3-5.4ZM453.8,232.9c-.6-1-1.3-1.8-2.3-2.4-.9-.5-1.9-.8-3-.8s-2.1.3-3,.8-1.7,1.3-2.3,2.3c-.6,1-.9,2.2-.9,3.6s.3,2.6.9,3.7c.6,1.1,1.3,1.9,2.3,2.4.9.6,1.9.8,3,.8s2.1-.3,3-.8,1.7-1.3,2.3-2.4c.6-1,.9-2.3.9-3.7s-.3-2.6-.9-3.6Z"/>
    <path class="cls-2" d="M464.3,231c.8-1.6,2-2.8,3.5-3.7,1.5-.9,3.1-1.3,4.9-1.3s2.6.3,3.9.9c1.3.6,2.3,1.3,3.1,2.3v-9.8h4.2v27.3h-4.2v-3.1c-.7,1-1.6,1.8-2.9,2.4-1.2.6-2.6,1-4.2,1s-3.4-.4-4.8-1.3c-1.5-.9-2.6-2.1-3.5-3.8-.8-1.6-1.3-3.4-1.3-5.5s.4-3.8,1.3-5.4ZM478.8,232.9c-.6-1-1.3-1.8-2.3-2.4-.9-.5-1.9-.8-3-.8s-2.1.3-3,.8-1.7,1.3-2.3,2.3c-.6,1-.9,2.2-.9,3.6s.3,2.6.9,3.7c.6,1.1,1.3,1.9,2.3,2.4.9.6,1.9.8,3,.8s2.1-.3,3-.8,1.7-1.3,2.3-2.4c.6-1,.9-2.3.9-3.7s-.3-2.6-.9-3.6Z"/>
    <path class="cls-2" d="M507.9,238.1h-15.5c.1,1.6.7,2.9,1.8,3.9,1.1,1,2.4,1.5,4,1.5,2.3,0,3.9-.9,4.8-2.8h4.5c-.6,1.9-1.7,3.4-3.3,4.6-1.6,1.2-3.6,1.8-6,1.8s-3.7-.4-5.2-1.3c-1.5-.9-2.7-2.1-3.6-3.7-.9-1.6-1.3-3.4-1.3-5.5s.4-3.9,1.3-5.5c.8-1.6,2-2.8,3.6-3.7,1.5-.9,3.3-1.3,5.3-1.3s3.6.4,5.1,1.3c1.5.8,2.7,2,3.5,3.5.8,1.5,1.3,3.2,1.3,5.2s0,1.4-.1,2.1ZM503.7,234.7c0-1.5-.6-2.8-1.7-3.7s-2.4-1.4-4-1.4-2.7.5-3.7,1.4-1.6,2.2-1.8,3.7h11.2Z"/>
    <path class="cls-2" d="M522,222.9c-.5-.5-.8-1.2-.8-1.9s.3-1.4.8-1.9c.5-.5,1.2-.8,1.9-.8s1.4.3,1.9.8c.5.5.8,1.2.8,1.9s-.3,1.4-.8,1.9c-.5.5-1.1.8-1.9.8s-1.4-.3-1.9-.8ZM526,226.4v20.3h-4.2v-20.3h4.2Z"/>
    <path class="cls-2" d="M536.4,229.8v11.2c0,.8.2,1.3.5,1.6.4.3,1,.5,1.8.5h2.6v3.5h-3.3c-1.9,0-3.3-.4-4.3-1.3-1-.9-1.5-2.3-1.5-4.3v-11.2h-2.4v-3.4h2.4v-5h4.2v5h4.9v3.4h-4.9Z"/>
    <path class="cls-2" d="M125.7,274.7h-3.6v16.2h-5.2v-16.2h-2.3v-4.2h2.3v-1c0-2.5.7-4.3,2.1-5.5,1.4-1.2,3.6-1.7,6.4-1.7v4.3c-1.3,0-2.1.2-2.6.6-.5.4-.7,1.2-.7,2.4v.8h3.6v4.2Z"/>
    <path class="cls-2" d="M129,275.1c.8-1.6,1.9-2.8,3.4-3.7,1.4-.9,3-1.3,4.7-1.3s2.9.3,4,.9c1.1.6,2.1,1.4,2.7,2.3v-2.9h5.2v20.4h-5.2v-3c-.7,1-1.6,1.8-2.7,2.4-1.2.6-2.5.9-4,.9s-3.3-.4-4.7-1.3c-1.4-.9-2.5-2.1-3.4-3.7-.8-1.6-1.2-3.5-1.2-5.5s.4-3.9,1.2-5.5ZM143.1,277.5c-.5-.9-1.2-1.6-2-2.1-.8-.5-1.7-.7-2.7-.7s-1.8.2-2.7.7c-.8.5-1.5,1.1-2,2-.5.9-.8,2-.8,3.2s.3,2.3.8,3.2c.5.9,1.2,1.6,2,2.1.8.5,1.7.7,2.6.7s1.9-.2,2.7-.7c.8-.5,1.5-1.2,2-2.1.5-.9.7-2,.7-3.2s-.2-2.3-.7-3.2Z"/>
    <path class="cls-2" d="M157.4,290.3c-1.3-.6-2.4-1.4-3.2-2.5-.8-1-1.2-2.2-1.3-3.4h5.2c0,.8.5,1.4,1.2,2,.7.5,1.5.8,2.5.8s1.8-.2,2.3-.6c.6-.4.8-.9.8-1.5s-.3-1.2-1-1.5c-.7-.3-1.8-.7-3.2-1.1-1.5-.4-2.8-.7-3.7-1.1-1-.4-1.8-1-2.5-1.8s-1.1-1.9-1.1-3.3.3-2.2,1-3.1,1.6-1.7,2.8-2.2c1.2-.5,2.6-.8,4.3-.8,2.4,0,4.4.6,5.8,1.8s2.2,2.9,2.4,4.9h-4.9c0-.8-.4-1.5-1-1.9-.6-.5-1.4-.7-2.4-.7s-1.7.2-2.2.5c-.5.3-.8.8-.8,1.4s.3,1.2,1,1.6c.7.4,1.8.7,3.2,1.1,1.5.4,2.7.7,3.6,1.1,1,.4,1.8,1,2.5,1.8.7.8,1.1,1.9,1.1,3.3,0,1.2-.3,2.2-1,3.2s-1.6,1.7-2.8,2.2c-1.2.5-2.6.8-4.3.8s-3.2-.3-4.5-.9Z"/>
    <path class="cls-2" d="M180.1,274.7v9.9c0,.7.2,1.2.5,1.5.3.3.9.5,1.7.5h2.4v4.3h-3.2c-4.3,0-6.5-2.1-6.5-6.3v-9.8h-2.4v-4.2h2.4v-5h5.2v5h4.6v4.2h-4.6Z"/>
    <path class="cls-2" d="M207.3,282.3h-14.9c.1,1.5.6,2.6,1.5,3.5.9.8,2,1.3,3.4,1.3,1.9,0,3.3-.8,4.1-2.5h5.6c-.6,2-1.7,3.6-3.4,4.8-1.7,1.3-3.7,1.9-6.2,1.9s-3.7-.4-5.3-1.3c-1.6-.9-2.8-2.1-3.6-3.7-.9-1.6-1.3-3.4-1.3-5.5s.4-4,1.3-5.6c.9-1.6,2.1-2.8,3.6-3.7,1.5-.9,3.3-1.3,5.3-1.3s3.7.4,5.2,1.3c1.5.8,2.7,2,3.6,3.6.8,1.5,1.3,3.3,1.3,5.3s0,1.4-.1,2ZM202.1,278.8c0-1.3-.5-2.4-1.4-3.2-.9-.8-2.1-1.2-3.4-1.2s-2.4.4-3.2,1.2c-.9.8-1.4,1.8-1.6,3.2h9.7Z"/>
    <path class="cls-2" d="M218.9,271.1c1.1-.6,2.3-.9,3.7-.9v5.4h-1.4c-1.6,0-2.8.4-3.7,1.1-.8.8-1.2,2.1-1.2,4v10.2h-5.2v-20.4h5.2v3.2c.7-1.1,1.5-1.9,2.6-2.5Z"/>
    <path class="cls-2" d="M239.9,274v11.2c0,.8.2,1.3.5,1.6.4.3,1,.5,1.8.5h2.6v3.5h-3.3c-1.9,0-3.3-.4-4.3-1.3-1-.9-1.5-2.3-1.5-4.3v-11.2h-2.4v-3.4h2.4v-5h4.2v5h4.9v3.4h-4.9Z"/>
    <path class="cls-2" d="M252.4,289.9c-1.5-.9-2.8-2.1-3.6-3.7-.9-1.6-1.3-3.4-1.3-5.5s.5-3.9,1.4-5.5c.9-1.6,2.1-2.8,3.7-3.7,1.6-.9,3.3-1.3,5.3-1.3s3.7.4,5.3,1.3c1.6.9,2.8,2.1,3.7,3.7.9,1.6,1.4,3.4,1.4,5.5s-.5,3.9-1.4,5.5c-.9,1.6-2.2,2.8-3.8,3.7-1.6.9-3.4,1.3-5.3,1.3s-3.6-.4-5.2-1.3ZM260.6,286.8c.9-.5,1.7-1.3,2.3-2.3.6-1,.9-2.3.9-3.8s-.3-2.7-.8-3.7c-.6-1-1.3-1.8-2.2-2.3-.9-.5-1.9-.8-3-.8s-2.1.3-3,.8c-.9.5-1.7,1.3-2.2,2.3-.5,1-.8,2.3-.8,3.7,0,2.2.6,3.9,1.7,5.1,1.1,1.2,2.5,1.8,4.2,1.8s2.1-.3,3-.8Z"/>
    <path class="cls-2" d="M296.4,271.3c1.3.7,2.3,1.6,3,2.9.7,1.3,1.1,2.9,1.1,4.7v12h-4.2v-11.3c0-1.8-.5-3.2-1.4-4.2-.9-1-2.1-1.5-3.7-1.5s-2.8.5-3.7,1.5-1.4,2.4-1.4,4.2v11.3h-4.2v-20.3h4.2v2.3c.7-.8,1.6-1.5,2.6-2,1.1-.5,2.2-.7,3.4-.7s3,.3,4.3,1Z"/>
    <path class="cls-2" d="M305.6,275.3c.8-1.6,2-2.8,3.5-3.7,1.5-.9,3.1-1.3,4.8-1.3s3,.3,4.2.9c1.2.6,2.1,1.4,2.9,2.3v-2.9h4.2v20.3h-4.2v-3c-.7,1-1.7,1.8-2.9,2.4-1.2.6-2.6,1-4.2,1s-3.3-.4-4.8-1.3c-1.4-.9-2.6-2.1-3.4-3.8-.8-1.6-1.3-3.4-1.3-5.5s.4-3.8,1.3-5.4ZM320.1,277.1c-.6-1-1.3-1.8-2.3-2.4-.9-.5-1.9-.8-3-.8s-2.1.3-3,.8-1.7,1.3-2.3,2.3c-.6,1-.9,2.2-.9,3.6s.3,2.6.9,3.7c.6,1.1,1.3,1.9,2.3,2.4.9.6,1.9.8,3,.8s2.1-.3,3-.8,1.7-1.3,2.3-2.4c.6-1,.9-2.3.9-3.7s-.3-2.6-.9-3.6Z"/>
    <path class="cls-2" d="M337.4,271.1c1-.6,2.2-.9,3.6-.9v4.3h-1.1c-1.6,0-2.9.4-3.7,1.3-.8.8-1.3,2.3-1.3,4.3v10.7h-4.2v-20.3h4.2v2.9c.6-1,1.4-1.8,2.5-2.4Z"/>
    <path class="cls-2" d="M351.5,271.1c1-.6,2.2-.9,3.6-.9v4.3h-1.1c-1.6,0-2.9.4-3.7,1.3-.8.8-1.3,2.3-1.3,4.3v10.7h-4.2v-20.3h4.2v2.9c.6-1,1.4-1.8,2.5-2.4Z"/>
    <path class="cls-2" d="M362.7,289.9c-1.5-.9-2.8-2.1-3.6-3.7-.9-1.6-1.3-3.4-1.3-5.5s.5-3.9,1.4-5.5c.9-1.6,2.1-2.8,3.7-3.7,1.6-.9,3.3-1.3,5.3-1.3s3.7.4,5.3,1.3c1.6.9,2.8,2.1,3.7,3.7.9,1.6,1.4,3.4,1.4,5.5s-.5,3.9-1.4,5.5c-.9,1.6-2.2,2.8-3.8,3.7-1.6.9-3.4,1.3-5.3,1.3s-3.6-.4-5.2-1.3ZM370.9,286.8c.9-.5,1.7-1.3,2.3-2.3.6-1,.9-2.3.9-3.8s-.3-2.7-.8-3.7c-.6-1-1.3-1.8-2.2-2.3-.9-.5-1.9-.8-3-.8s-2.1.3-3,.8c-.9.5-1.7,1.3-2.2,2.3-.5,1-.8,2.3-.8,3.7,0,2.2.6,3.9,1.7,5.1,1.1,1.2,2.5,1.8,4.2,1.8s2.1-.3,3-.8Z"/>
    <path class="cls-2" d="M409.8,270.6l-6.3,20.3h-4.4l-4.1-15-4.1,15h-4.4l-6.3-20.3h4.3l4.2,16.3,4.3-16.3h4.4l4.1,16.3,4.2-16.3h4.1Z"/>
    <path class="cls-2" d="M422.4,275.3c.8-1.6,2-2.8,3.5-3.7,1.5-.9,3.1-1.3,4.9-1.3s2.6.3,3.9.9c1.3.6,2.3,1.3,3.1,2.3v-9.8h4.2v27.3h-4.2v-3.1c-.7,1-1.6,1.8-2.9,2.4-1.2.6-2.6,1-4.2,1s-3.4-.4-4.8-1.3c-1.5-.9-2.6-2.1-3.5-3.8-.8-1.6-1.3-3.4-1.3-5.5s.4-3.8,1.3-5.4ZM436.9,277.1c-.6-1-1.3-1.8-2.3-2.4-.9-.5-1.9-.8-3-.8s-2.1.3-3,.8-1.7,1.3-2.3,2.3c-.6,1-.9,2.2-.9,3.6s.3,2.6.9,3.7c.6,1.1,1.3,1.9,2.3,2.4.9.6,1.9.8,3,.8s2.1-.3,3-.8,1.7-1.3,2.3-2.4c.6-1,.9-2.3.9-3.7s-.3-2.6-.9-3.6Z"/>
    <path class="cls-2" d="M451.1,289.9c-1.5-.9-2.8-2.1-3.6-3.7-.9-1.6-1.3-3.4-1.3-5.5s.5-3.9,1.4-5.5c.9-1.6,2.1-2.8,3.7-3.7,1.6-.9,3.3-1.3,5.3-1.3s3.7.4,5.3,1.3c1.6.9,2.8,2.1,3.7,3.7.9,1.6,1.4,3.4,1.4,5.5s-.5,3.9-1.4,5.5c-.9,1.6-2.2,2.8-3.8,3.7-1.6.9-3.4,1.3-5.3,1.3s-3.6-.4-5.2-1.3ZM459.4,286.8c.9-.5,1.7-1.3,2.3-2.3.6-1,.9-2.3.9-3.8s-.3-2.7-.8-3.7c-.6-1-1.3-1.8-2.2-2.3-.9-.5-1.9-.8-3-.8s-2.1.3-3,.8c-.9.5-1.7,1.3-2.2,2.3-.5,1-.8,2.3-.8,3.7,0,2.2.6,3.9,1.7,5.1,1.1,1.2,2.5,1.8,4.2,1.8s2.1-.3,3-.8Z"/>
    <path class="cls-2" d="M498.3,270.6l-6.3,20.3h-4.4l-4.1-15-4.1,15h-4.4l-6.3-20.3h4.3l4.2,16.3,4.3-16.3h4.4l4.1,16.3,4.2-16.3h4.1Z"/>
    <path class="cls-2" d="M516,271.3c1.3.7,2.3,1.6,3,2.9.7,1.3,1.1,2.9,1.1,4.7v12h-4.2v-11.3c0-1.8-.5-3.2-1.4-4.2-.9-1-2.1-1.5-3.7-1.5s-2.8.5-3.7,1.5-1.4,2.4-1.4,4.2v11.3h-4.2v-20.3h4.2v2.3c.7-.8,1.6-1.5,2.6-2,1.1-.5,2.2-.7,3.4-.7s3,.3,4.3,1Z"/>
    <path class="cls-2" d="M176.9,315.4c1-.6,2.2-.9,3.6-.9v4.3h-1.1c-1.6,0-2.9.4-3.7,1.3-.8.8-1.3,2.3-1.3,4.3v10.7h-4.2v-20.3h4.2v2.9c.6-1,1.4-1.8,2.5-2.4Z"/>
    <path class="cls-2" d="M202.9,326.6h-15.5c.1,1.6.7,2.9,1.8,3.9,1.1,1,2.4,1.5,4,1.5,2.3,0,3.9-.9,4.8-2.8h4.5c-.6,1.9-1.7,3.4-3.3,4.6-1.6,1.2-3.6,1.8-6,1.8s-3.7-.4-5.2-1.3c-1.5-.9-2.7-2.1-3.6-3.7-.9-1.6-1.3-3.4-1.3-5.5s.4-3.9,1.3-5.5c.8-1.6,2-2.8,3.6-3.7,1.5-.9,3.3-1.3,5.3-1.3s3.6.4,5.1,1.3c1.5.8,2.7,2,3.5,3.5.8,1.5,1.3,3.2,1.3,5.2s0,1.4-.1,2.1ZM198.7,323.2c0-1.5-.6-2.8-1.7-3.7s-2.4-1.4-4-1.4-2.7.5-3.7,1.4-1.6,2.2-1.8,3.7h11.2Z"/>
    <path class="cls-2" d="M211.4,307.9v27.3h-4.2v-27.3h4.2Z"/>
    <path class="cls-2" d="M235.4,326.6h-15.5c.1,1.6.7,2.9,1.8,3.9,1.1,1,2.4,1.5,4,1.5,2.3,0,3.9-.9,4.8-2.8h4.5c-.6,1.9-1.7,3.4-3.3,4.6-1.6,1.2-3.6,1.8-6,1.8s-3.7-.4-5.2-1.3c-1.5-.9-2.7-2.1-3.6-3.7-.9-1.6-1.3-3.4-1.3-5.5s.4-3.9,1.3-5.5c.8-1.6,2-2.8,3.6-3.7,1.5-.9,3.3-1.3,5.3-1.3s3.6.4,5.1,1.3c1.5.8,2.7,2,3.5,3.5.8,1.5,1.3,3.2,1.3,5.2s0,1.4-.1,2.1ZM231.1,323.2c0-1.5-.6-2.8-1.7-3.7s-2.4-1.4-4-1.4-2.7.5-3.7,1.4-1.6,2.2-1.8,3.7h11.2Z"/>
    <path class="cls-2" d="M247.5,331.4l5.7-16.5h4.5l-7.7,20.3h-5l-7.7-20.3h4.5l5.7,16.5Z"/>
    <path class="cls-2" d="M260.7,319.5c.8-1.6,2-2.8,3.5-3.7,1.5-.9,3.1-1.3,4.8-1.3s3,.3,4.2.9c1.2.6,2.1,1.4,2.9,2.3v-2.9h4.2v20.3h-4.2v-3c-.7,1-1.7,1.8-2.9,2.4-1.2.6-2.6,1-4.2,1s-3.3-.4-4.8-1.3c-1.4-.9-2.6-2.1-3.4-3.8-.8-1.6-1.3-3.4-1.3-5.5s.4-3.8,1.3-5.4ZM275.2,321.3c-.6-1-1.3-1.8-2.3-2.4-.9-.5-1.9-.8-3-.8s-2.1.3-3,.8-1.7,1.3-2.3,2.3c-.6,1-.9,2.2-.9,3.6s.3,2.6.9,3.7c.6,1.1,1.3,1.9,2.3,2.4.9.6,1.9.8,3,.8s2.1-.3,3-.8,1.7-1.3,2.3-2.4c.6-1,.9-2.3.9-3.7s-.3-2.6-.9-3.6Z"/>
    <path class="cls-2" d="M300.4,315.5c1.3.7,2.3,1.6,3,2.9.7,1.3,1.1,2.9,1.1,4.7v12h-4.2v-11.3c0-1.8-.5-3.2-1.4-4.2-.9-1-2.1-1.5-3.7-1.5s-2.8.5-3.7,1.5-1.4,2.4-1.4,4.2v11.3h-4.2v-20.3h4.2v2.3c.7-.8,1.6-1.5,2.6-2,1.1-.5,2.2-.7,3.4-.7s3,.3,4.3,1Z"/>
    <path class="cls-2" d="M314.7,318.3v11.2c0,.8.2,1.3.5,1.6.4.3,1,.5,1.8.5h2.6v3.5h-3.3c-1.9,0-3.3-.4-4.3-1.3-1-.9-1.5-2.3-1.5-4.3v-11.2h-2.4v-3.4h2.4v-5h4.2v5h4.9v3.4h-4.9Z"/>
    <path class="cls-2" d="M332.9,319.5c.8-1.6,2-2.8,3.5-3.7,1.5-.9,3.2-1.3,5.2-1.3s4.5.6,6.1,1.8c1.6,1.2,2.7,2.8,3.3,5h-4.5c-.4-1-1-1.8-1.8-2.4-.8-.6-1.8-.8-3.1-.8s-3.1.6-4.1,1.8-1.5,2.9-1.5,5.1.5,3.9,1.5,5.1c1,1.2,2.4,1.8,4.1,1.8,2.4,0,4-1.1,4.8-3.2h4.5c-.6,2.1-1.7,3.7-3.3,4.9-1.6,1.2-3.6,1.8-6,1.8s-3.7-.4-5.2-1.3-2.7-2.1-3.5-3.7c-.8-1.6-1.3-3.4-1.3-5.5s.4-3.9,1.3-5.5Z"/>
    <path class="cls-2" d="M359.4,307.9v27.3h-4.2v-27.3h4.2Z"/>
    <path class="cls-2" d="M364.8,319.5c.8-1.6,2-2.8,3.5-3.7,1.5-.9,3.1-1.3,4.8-1.3s3,.3,4.2.9c1.2.6,2.1,1.4,2.9,2.3v-2.9h4.2v20.3h-4.2v-3c-.7,1-1.7,1.8-2.9,2.4-1.2.6-2.6,1-4.2,1s-3.3-.4-4.8-1.3c-1.4-.9-2.6-2.1-3.4-3.8-.8-1.6-1.3-3.4-1.3-5.5s.4-3.8,1.3-5.4ZM379.2,321.3c-.6-1-1.3-1.8-2.3-2.4-.9-.5-1.9-.8-3-.8s-2.1.3-3,.8-1.7,1.3-2.3,2.3c-.6,1-.9,2.2-.9,3.6s.3,2.6.9,3.7c.6,1.1,1.3,1.9,2.3,2.4.9.6,1.9.8,3,.8s2.1-.3,3-.8,1.7-1.3,2.3-2.4c.6-1,.9-2.3.9-3.7s-.3-2.6-.9-3.6Z"/>
    <path class="cls-2" d="M392.9,334.6c-1.3-.6-2.3-1.4-3-2.4-.7-1-1.1-2.1-1.2-3.3h4.3c0,.9.5,1.6,1.2,2.2.7.6,1.7.9,2.8.9s2.1-.2,2.7-.7c.7-.5,1-1,1-1.8s-.4-1.3-1.1-1.7c-.7-.4-1.9-.8-3.4-1.2-1.5-.4-2.8-.8-3.7-1.2-1-.4-1.8-1-2.5-1.8s-1.1-1.9-1.1-3.2.3-2.1,1-3c.6-.9,1.6-1.6,2.7-2.1,1.2-.5,2.6-.8,4.1-.8,2.3,0,4.2.6,5.6,1.8,1.4,1.2,2.2,2.8,2.3,4.8h-4.2c0-.9-.4-1.6-1.1-2.2-.7-.5-1.6-.8-2.7-.8s-2,.2-2.5.6c-.6.4-.9,1-.9,1.7s.2,1,.6,1.4c.4.4.9.7,1.4.9.6.2,1.4.5,2.5.8,1.5.4,2.7.8,3.6,1.2.9.4,1.8,1,2.5,1.8.7.8,1,1.8,1.1,3.1,0,1.2-.3,2.2-1,3.1-.6.9-1.5,1.6-2.7,2.1-1.2.5-2.5.8-4.1.8s-3-.3-4.3-.9Z"/>
    <path class="cls-2" d="M412.6,334.6c-1.3-.6-2.3-1.4-3-2.4-.7-1-1.1-2.1-1.2-3.3h4.3c0,.9.5,1.6,1.2,2.2.7.6,1.7.9,2.8.9s2.1-.2,2.7-.7c.7-.5,1-1,1-1.8s-.4-1.3-1.1-1.7c-.7-.4-1.9-.8-3.4-1.2-1.5-.4-2.8-.8-3.7-1.2-1-.4-1.8-1-2.5-1.8s-1.1-1.9-1.1-3.2.3-2.1,1-3c.6-.9,1.6-1.6,2.7-2.1,1.2-.5,2.6-.8,4.1-.8,2.3,0,4.2.6,5.6,1.8,1.4,1.2,2.2,2.8,2.3,4.8h-4.2c0-.9-.4-1.6-1.1-2.2-.7-.5-1.6-.8-2.7-.8s-2,.2-2.5.6c-.6.4-.9,1-.9,1.7s.2,1,.6,1.4c.4.4.9.7,1.4.9.6.2,1.4.5,2.5.8,1.5.4,2.7.8,3.6,1.2.9.4,1.8,1,2.5,1.8.7.8,1,1.8,1.1,3.1,0,1.2-.3,2.2-1,3.1-.6.9-1.5,1.6-2.7,2.1-1.2.5-2.5.8-4.1.8s-3-.3-4.3-.9Z"/>
    <path class="cls-2" d="M447.7,326.6h-15.5c.1,1.6.7,2.9,1.8,3.9,1.1,1,2.4,1.5,4,1.5,2.3,0,3.9-.9,4.8-2.8h4.5c-.6,1.9-1.7,3.4-3.3,4.6-1.6,1.2-3.6,1.8-6,1.8s-3.7-.4-5.2-1.3c-1.5-.9-2.7-2.1-3.6-3.7-.9-1.6-1.3-3.4-1.3-5.5s.4-3.9,1.3-5.5c.8-1.6,2-2.8,3.6-3.7,1.5-.9,3.3-1.3,5.3-1.3s3.6.4,5.1,1.3c1.5.8,2.7,2,3.5,3.5.8,1.5,1.3,3.2,1.3,5.2s0,1.4-.1,2.1ZM443.5,323.2c0-1.5-.6-2.8-1.7-3.7s-2.4-1.4-4-1.4-2.7.5-3.7,1.4-1.6,2.2-1.8,3.7h11.2Z"/>
    <path class="cls-2" d="M455,334.6c-1.3-.6-2.3-1.4-3-2.4-.7-1-1.1-2.1-1.2-3.3h4.3c0,.9.5,1.6,1.2,2.2.7.6,1.7.9,2.8.9s2.1-.2,2.7-.7c.7-.5,1-1,1-1.8s-.4-1.3-1.1-1.7c-.7-.4-1.9-.8-3.4-1.2-1.5-.4-2.8-.8-3.7-1.2-1-.4-1.8-1-2.5-1.8s-1.1-1.9-1.1-3.2.3-2.1,1-3c.6-.9,1.6-1.6,2.7-2.1,1.2-.5,2.6-.8,4.1-.8,2.3,0,4.2.6,5.6,1.8,1.4,1.2,2.2,2.8,2.3,4.8h-4.2c0-.9-.4-1.6-1.1-2.2-.7-.5-1.6-.8-2.7-.8s-2,.2-2.5.6c-.6.4-.9,1-.9,1.7s.2,1,.6,1.4c.4.4.9.7,1.4.9.6.2,1.4.5,2.5.8,1.5.4,2.7.8,3.6,1.2.9.4,1.8,1,2.5,1.8.7.8,1,1.8,1.1,3.1,0,1.2-.3,2.2-1,3.1-.6.9-1.5,1.6-2.7,2.1-1.2.5-2.5.8-4.1.8s-3-.3-4.3-.9Z"/>
  </g>
  <polygon class="cls-1" points="993.1 141.9 973.5 152.2 977.2 130.4 961.3 115 983.2 111.8 993.1 92 1002.8 111.8 1024.7 115 1008.8 130.4 1012.6 152.2 993.1 141.9"/>
  <g>
    <line class="cls-1" x1="298.6" y1="106.1" x2="298.6" y2="153.7"/>
    <polyline class="cls-1" points="286.4 118.4 298.6 106.1 310.9 118.4"/>
  </g>
  <g>
    <line class="cls-1" x1="337.8" y1="106.1" x2="337.8" y2="153.7"/>
    <polyline class="cls-1" points="350.1 141.4 337.8 153.7 325.5 141.4"/>
  </g>
  <line class="cls-1" x1="1640.1" y1="101.7" x2="1695.5" y2="101.7"/>
  <line class="cls-1" x1="1656.2" y1="142.4" x2="1695.5" y2="142.4"/>
  <line class="cls-1" x1="1640.1" y1="142.4" x2="1644.8" y2="142.4"/>
  <line class="cls-1" x1="1640.1" y1="122.1" x2="1672.3" y2="122.1"/>
  <line class="cls-1" x1="1683.7" y1="122.1" x2="1695.5" y2="122.1"/>
</svg>