<?xml version="1.0" encoding="utf-8"?>
<!-- Generator: Adobe Illustrator 26.0.1, SVG Export Plug-In . SVG Version: 6.00 Build 0)  -->
<svg version="1.1" id="Layer_1" xmlns="http://www.w3.org/2000/svg" xmlns:xlink="http://www.w3.org/1999/xlink" x="0px" y="0px"
	 viewBox="0 0 545 139.4" style="enable-background:new 0 0 545 139.4;" xml:space="preserve">
<style type="text/css">
	.st0{fill:#794D2F;}
	.st1{fill:#503A2E;}
	.st2{fill:#F2BF98;}
	.st3{fill:#DEA881;}
	.st4{fill:#EDB498;}
	.st5{fill:#2F2A1B;}
	.st6{fill:#A3AD80;}
	.st7{fill:#868F69;}
	.st8{fill:#D8766F;}
	.st9{fill:#E9D8D3;}
</style>
<path class="st0" d="M226.6,125.6c-0.7-12.9,2.3-27.4,4.9-41.4c0,0,19.7-6.8,23.9-19.3c0,0,11,15.5,38,12.2c0,0,13.3,16.3,31.8,13.3
	c0,0,6.5,17.3,6.2,35.3 M394.7,125.6c0.9-8.5-2.4-23.4-32.7-30.8c-9.5-2.3-13.5-3.7-20.5-10.5c-2-1.9-3.9-4-5.6-6.2
	c-8.5-10.4-19.5-28.5-42.8-32.7c-15.2-0.8-29.4,0-35.3,3.4c-1.9,0.6-3.9,1.2-5.8,2c0,0-20.3-1.2-38.2,31.3s-39.2,13.9-51,38.2
	c-0.9,1.7-1.6,3.5-2.1,5.4 M294.7,66.2c3,0,5.4,2.4,5.4,5.4c0,3-2.4,5.4-5.4,5.4c-3,0-5.4-2.4-5.4-5.4c0,0,0,0,0,0
	C289.2,68.6,291.6,66.2,294.7,66.2C294.6,66.2,294.6,66.2,294.7,66.2z M242,68.3l-1.9,2.8L242,68.3z M233.8,69.3l-1.9,2.8
	L233.8,69.3z"/>
<path class="st1" d="M331.2,128.4L331.2,128.4c-1.5,0-2.8-1.3-2.8-2.8c0.3-13.8-3.7-27.3-5.3-32.3c-15.9,1.4-27.6-9.7-31.1-13.4
	c-2.2,0.2-4.4,0.3-6.4,0.3c-15.8,0-25.3-6.5-29.7-10.5c-5.6,9.2-17.9,14.8-22.3,16.5l-0.3,1.5c-2.4,12.8-4.9,26.1-4.3,37.8
	c0.1,1.5-1.1,2.8-2.6,2.9c-1.5,0.1-2.8-1.1-2.9-2.6c-0.7-12.3,1.9-25.9,4.4-39.1l0.6-3c0.2-1,0.9-1.8,1.8-2.1
	c0.2-0.1,18.5-6.5,22.2-17.6c0.3-1,1.2-1.7,2.2-1.8c1-0.2,2,0.3,2.6,1.1c0.4,0.5,8.9,12,29.5,11.5c-0.4-1-0.6-2-0.6-3.1
	c0-4.5,3.7-8.2,8.2-8.2c4.5,0,8.2,3.7,8.2,8.2c0,2.9-1.6,5.6-4.1,7.1c4.8,4.3,14.3,10.8,25.9,8.9c1.3-0.2,2.5,0.5,3,1.7
	c0.3,0.7,6.7,18,6.4,36.4c0.1,1.4-1,2.5-2.3,2.6C331.4,128.4,331.3,128.4,331.2,128.4z M294.7,69c-1.5,0-2.7,1.2-2.7,2.7
	s1.2,2.7,2.7,2.7c1.5,0,2.7-1.2,2.7-2.7C297.4,70.2,296.2,69,294.7,69C294.7,69,294.7,69,294.7,69z M160.7,128.4
	c-0.3,0-0.5,0-0.8-0.1c-1.4-0.5-2.2-2-1.8-3.5c0.6-2,1.4-3.9,2.3-5.7c6-12.5,14.7-14.7,23.1-17c9.3-2.5,18.8-5,27.8-21.3
	c16.9-30.8,36.3-32.7,40.1-32.7c1.8-0.7,3.5-1.2,5.2-1.8c8.2-4.5,26.4-4.2,36.6-3.6h0.3c21.2,3.8,32.6,18.5,41,29.2
	c1.2,1.6,2.4,3.1,3.5,4.4c1.7,2.1,3.5,4.1,5.4,6c6.5,6.4,10,7.6,19.2,9.8c32.6,7.9,35.8,24.5,34.8,33.8c-0.1,1.5-1.4,2.6-2.9,2.5
	c-1.5-0.1-2.6-1.4-2.5-2.9c0-0.1,0-0.2,0-0.3c1.8-17.3-18.4-24.9-30.6-27.8c-9.7-2.3-14.4-4-21.8-11.2c-2.1-2-4.1-4.2-5.9-6.4
	c-1.1-1.4-2.3-2.9-3.6-4.5c-7.8-10-18.4-23.7-37.4-27.2c-16.2-0.9-28.8,0.3-33.6,3.1c-0.2,0.1-0.3,0.2-0.5,0.2
	c-1.9,0.6-3.8,1.2-5.7,1.9c-0.4,0.1-0.7,0.2-1.1,0.2c-0.2,0-18.9-0.5-35.6,29.9c-10.1,18.4-21.3,21.4-31.2,24
	c-8.1,2.2-14.6,3.9-19.5,14c-0.8,1.6-1.5,3.3-2,5C162.9,127.6,161.9,128.3,160.7,128.4z M231.9,74.9c-0.5,0-1.1-0.2-1.5-0.5
	c-0.8-0.5-1.2-1.4-1.2-2.3c0-0.5,0.2-1.1,0.5-1.5l1.9-2.8c0.8-1.3,2.5-1.6,3.8-0.8c0,0,0,0,0,0c0.8,0.5,1.2,1.4,1.2,2.3
	c0,0.5-0.2,1.1-0.5,1.5l-1.9,2.8C233.7,74.4,232.8,74.9,231.9,74.9z M240.2,73.9c-0.5,0-1.1-0.2-1.5-0.5c-0.8-0.5-1.2-1.4-1.2-2.3
	c0-0.5,0.2-1.1,0.5-1.5l1.9-2.8c0.8-1.3,2.5-1.6,3.8-0.8c0,0,0,0,0,0c0.8,0.5,1.2,1.4,1.2,2.3c0,0.5-0.2,1.1-0.5,1.5l-1.9,2.8
	C242,73.4,241.1,73.9,240.2,73.9z"/>
<path class="st2" d="M331.2,125.6c0.3-18.1-6.2-35.3-6.2-35.3c-18.6,3-31.8-13.3-31.8-13.3c-27,3.4-38-12.2-38-12.2
	c-4.2,12.5-23.9,19.4-23.9,19.4c-2.6,14-5.6,28.5-4.9,41.4"/>
<path class="st3" d="M226.6,128.4c-1.4,0-2.6-1.1-2.7-2.5c0,0,0-0.1,0-0.1c-0.7-12.3,1.9-25.9,4.4-39.1l0.6-3c0.2-1,0.9-1.8,1.8-2.1
	c0.2-0.1,18.4-6.6,22.2-17.7c0.3-1,1.2-1.7,2.2-1.8c1-0.2,2,0.3,2.6,1.1c0.4,0.6,10.5,14.2,35.4,11c0.9-0.1,1.9,0.3,2.5,1
	c0.1,0.1,12.5,15,29.3,12.3c1.3-0.2,2.5,0.5,3,1.7c0.3,0.7,6.7,18,6.4,36.4c0,1.5-1.2,2.7-2.7,2.7h-0.1c-1.5,0-2.7-1.3-2.7-2.8
	c0.3-13.8-3.7-27.3-5.3-32.3c-0.9,0.1-1.9,0.1-2.8,0.1c-14.5,0-25-10-28.3-13.5c-2.3,0.2-4.5,0.4-6.5,0.4
	c-15.7,0-25.2-6.5-29.6-10.6c-5.6,9.2-17.9,14.8-22.2,16.5l-0.3,1.5c-2.4,12.8-4.9,26.1-4.3,37.8c0.1,1.5-1.1,2.8-2.6,2.9
	C226.7,128.4,226.7,128.4,226.6,128.4z"/>
<path class="st4" d="M313.7,106.4c-7.6,0-13.8,6.2-13.8,13.8c0,1.9,0.4,3.8,1.2,5.5h25.2c0.8-1.7,1.2-3.6,1.2-5.5
	C327.4,112.6,321.2,106.5,313.7,106.4z M309.5,120.8l1.3-3.2L309.5,120.8z M316.7,122l1.3-3.2L316.7,122z"/>
<path class="st4" d="M243.5,106.4c-7.6,0-13.8,6.2-13.8,13.8c0,1.9,0.4,3.8,1.2,5.5h25.2c0.8-1.7,1.2-3.6,1.2-5.5
	C257.3,112.6,251.1,106.4,243.5,106.4C243.5,106.4,243.5,106.4,243.5,106.4z"/>
<circle class="st0" cx="294.7" cy="71.6" r="5.4"/>
<path class="st3" d="M294.7,79.8c-4.5,0-8.2-3.7-8.2-8.2s3.7-8.2,8.2-8.2c4.5,0,8.2,3.7,8.2,8.2C302.8,76.1,299.2,79.8,294.7,79.8z
	 M294.7,69c-1.5,0-2.7,1.2-2.7,2.7s1.2,2.7,2.7,2.7c1.5,0,2.7-1.2,2.7-2.7C297.4,70.2,296.2,69,294.7,69C294.7,69,294.7,69,294.7,69
	z"/>
<circle class="st5" cx="301.4" cy="104.4" r="3.6"/>
<circle class="st5" cx="254" cy="103" r="3.6"/>
<path class="st5" d="M279,115.4c-3.2,0-6.4-0.8-9.2-2.4c-1.3-0.8-1.7-2.5-0.9-3.8c0.8-1.2,2.4-1.7,3.7-1c0.2,0.1,6.2,3.5,12.1,0
	c1.3-0.8,3-0.4,3.8,0.9s0.4,3-0.9,3.8l0,0C285,114.5,282,115.4,279,115.4z"/>
<path class="st6" d="M279,51.7c0,0-19.9,7.6-20.1-12.5C258.9,39.2,276.1,29.4,279,51.7z"/>
<path class="st7" d="M271.1,55.2c-3,0.1-5.9-0.7-8.4-2.3c-3.8-2.6-5.8-7.2-5.9-13.7c0-0.7,0.4-1.4,1-1.8c0.3-0.2,8.1-4.5,14.8-1.1
	c4.6,2.3,7.4,7.4,8.3,15.2c0.1,0.9-0.4,1.8-1.3,2.2C276.8,54.6,273.9,55.1,271.1,55.2z M261,40.5c0.3,4.3,1.6,7.4,4,9
	c3.4,2.3,8.6,1.6,11.6,0.8c-0.9-5.4-2.9-8.8-5.8-10.3C267.2,38.2,263,39.6,261,40.5L261,40.5z"/>
<path class="st7" d="M279,53.8c-0.7,0-1.4-0.4-1.8-1c-3-5-9.6-5.6-9.7-5.6c-1.1-0.2-1.9-1.2-1.8-2.3c0.1-1,1-1.8,2.1-1.8
	c0.4,0,8.7,0.7,12.9,7.6c0.6,0.9,0.3,2.2-0.6,2.8c0,0,0,0-0.1,0C279.7,53.7,279.3,53.8,279,53.8z"/>
<path class="st6" d="M279,51.7c0,0,19.9,7.6,20.1-12.5C299,39.2,281.7,29.4,279,51.7z"/>
<path class="st7" d="M286.8,55.2c-2.9,0-5.8-0.6-8.6-1.6c-0.9-0.3-1.5-1.2-1.3-2.2c0.9-7.6,3.7-12.7,8.1-15.1
	c6-3.2,12.9-0.1,14.9,0.9c-0.2-0.2-0.5-0.2-0.8-0.2c0.5,0,1,0.2,1.4,0.6c0.4,0.4,0.6,0.9,0.6,1.5c-0.1,6.5-2,11.1-5.9,13.7
	C292.7,54.4,289.7,55.3,286.8,55.2z M281.2,50.3c2.6,0.7,8,1.7,11.7-0.8c2.4-1.6,3.8-4.7,4-9c-2.1-0.9-6.5-2.3-10-0.4
	C284.1,41.6,282.2,45,281.2,50.3L281.2,50.3z"/>
<path class="st7" d="M278.9,53.8c-0.4,0-0.9-0.1-1.2-0.4c-0.9-0.7-1.1-2-0.4-2.9c0,0,0,0,0,0c4.4-5.8,12.8-7.3,13.1-7.4
	c1.1-0.2,2.2,0.5,2.4,1.7s-0.5,2.2-1.7,2.4c0,0,0,0-0.1,0l0,0c-0.1,0-7.2,1.3-10.5,5.8C280.1,53.5,279.5,53.8,278.9,53.8z"/>
<path class="st8" d="M238.6,124c-0.8,0-1.6-0.5-1.9-1.3l-1.3-3.2c-0.1-0.3-0.2-0.5-0.2-0.8c0-0.8,0.5-1.6,1.3-1.9
	c1-0.4,2.2,0.1,2.7,1.1l1.3,3.2c0.1,0.3,0.2,0.5,0.2,0.8c0,0.8-0.5,1.6-1.3,1.9C239.1,124,238.8,124,238.6,124z"/>
<path class="st8" d="M245.2,123.5c-0.8,0-1.6-0.5-1.9-1.3l-1.4-3.2c-0.1-0.3-0.2-0.5-0.2-0.8c0-0.8,0.5-1.6,1.3-1.9
	c1-0.4,2.2,0.1,2.7,1.1l1.3,3.2c0.1,0.3,0.2,0.5,0.2,0.8c0,0.8-0.5,1.6-1.3,1.9C245.7,123.4,245.5,123.5,245.2,123.5z"/>
<path class="st8" d="M316.4,124c-0.3,0-0.5-0.1-0.8-0.2c-0.8-0.3-1.3-1.1-1.3-1.9c0-0.3,0.1-0.5,0.2-0.8l1.3-3.2
	c0.4-1,1.6-1.5,2.6-1.1c0,0,0.1,0,0.1,0c0.8,0.3,1.3,1.1,1.3,1.9c0,0.3-0.1,0.5-0.2,0.8l-1.3,3.2C318,123.5,317.2,124,316.4,124z"/>
<path class="st8" d="M309.7,123.4c-0.3,0-0.5-0.1-0.8-0.2c-0.8-0.3-1.3-1.1-1.3-1.9c0-0.3,0.1-0.5,0.2-0.8l1.3-3.2
	c0.4-1,1.6-1.5,2.6-1.1c0,0,0.1,0,0.1,0c0.8,0.3,1.3,1.1,1.3,1.9c0,0.3-0.1,0.5-0.2,0.8l-1.3,3.2
	C311.2,122.9,310.5,123.4,309.7,123.4z"/>
<path class="st2" d="M368.4,133.1l-2.6-51.2c0,0-0.2-4.9-4.1-4.9s-3.2,5.3-3.2,5.3s1.1-5-3.4-5.4s-3.2,5.7-3.2,5.7L349.8,61
	c0,0-0.1-4.7-4.2-4.5c-7,0.4-4.8,25.3-4.8,25.3l1.7,52.9L368.4,133.1z"/>
<path class="st3" d="M342.6,137.6c-0.7,0-1.5-0.3-2-0.8c-0.6-0.5-1-1.3-1-2.1l-1.7-52.8c-1.8-19.4,2.4-25.3,3.3-26.3
	c1.1-1.3,2.6-2.1,4.3-2.2c1.8-0.1,3.6,0.5,4.9,1.7c1.5,1.5,2.3,3.5,2.4,5.6l1.2,13.1h1.3c1.1,0.1,2.2,0.4,3.1,1
	c1-0.6,2.1-0.9,3.2-0.9c4.6,0,6.9,4,7.1,7.8l2.6,51.2c0.1,1.6-1.1,3-2.8,3.1c0,0,0,0,0,0l-25.8,1.5
	C342.7,137.6,342.7,137.6,342.6,137.6z M345.9,59.4h-0.1c-1.7,1-3,10.8-1.9,22.1v0.2l1.6,49.8l19.7-1.2L362.7,82
	c0,0-0.2-2.1-1.1-2.1l0,0c0,0.1-0.1,0.2-0.1,0.3c0.1,0.9,0,1.8-0.2,2.7c-0.3,1.4-1.6,2.4-3.1,2.3c-1.5-0.1-2.7-1.2-2.8-2.7
	c-0.1-0.8-0.1-1.6,0-2.4c0-0.1,0-0.1-0.1-0.2s-0.2-0.1-0.6-0.2l0,0c0,0.2-0.1,0.4-0.1,0.6l0.2,1.8c0.1,1.6-1,2.9-2.5,3.2
	c-1.6,0.3-3.1-0.8-3.4-2.3c-0.2-0.9-0.3-1.7-0.3-2.6L346.8,61v-0.2c0-0.5-0.2-1.1-0.5-1.5C346.2,59.4,346.1,59.4,345.9,59.4
	L345.9,59.4z"/>
<rect y="124.9" class="st9" width="545" height="14.5"/>
<path class="st2" d="M192,123.9c0,0-0.2-7.6,11-7.6c10.3,0,12.1,8.9,12.1,8.9s1,6.9-3.9,6.9s-2.8-4.8-2.8-4.8s-1.1,4.1-4.8,4.8
	s-4.8-4.8-4.8-4.8s-0.1,3.2-2.8,4.1C189.8,133.7,191.2,124.3,192,123.9z"/>
<path class="st3" d="M203,135c-1.6,0-3.1-0.7-4.2-1.8c-0.6,0.4-1.2,0.7-1.8,1c-4,1.4-6.6-0.5-7.6-2.7c-1-2.6-1-5.5-0.1-8.2
	c0.2-2.2,1.2-4.2,2.7-5.8c2.4-2.5,6.1-3.8,11-3.8c9.9,0,14,7.3,14.8,11.1v0.2c0.1,0.8,0.6,5.2-1.8,7.9c-1.2,1.4-3,2.2-4.8,2.1
	c-1.5,0-2.9-0.4-4.1-1.3c-0.9,0.6-1.9,1-3,1.2C203.7,135,203.3,135,203,135z M198.9,124.6c1.3,0,2.4,0.9,2.7,2.2
	c0.2,0.8,0.9,2.8,1.6,2.6c1.2-0.4,2.1-1.3,2.5-2.4c0-0.3,0.1-0.6,0.3-0.8c0.6-1.3,2-2,3.4-1.5c1.4,0.5,2.1,1.9,1.8,3.3
	c-0.1,0.3-0.2,0.5-0.3,0.8c0,0.2-0.1,0.3-0.1,0.5h0.4c0.4,0,0.5-0.1,0.6-0.2c0.6-0.6,0.6-2.5,0.5-3.5s-1.9-6.7-9.4-6.7
	c-7.8,0-8.2,4-8.3,4.8c0,0.6-0.2,1.1-0.5,1.6c-0.3,1.2-0.3,2.4,0.1,3.6c0.3,0,0.6-0.1,0.8-0.2c0.8-0.3,0.9-1.7,0.9-1.7
	c0-1.4,1.1-2.5,2.5-2.6C198.7,124.6,198.8,124.6,198.9,124.6z"/>
<path d="M240,22.6c-0.5,0-1-0.1-1.4-0.3c-0.4-0.2-0.7-0.5-0.9-0.8l0.2-0.4v1.4h-1.6v-11h1.6v5.7c0.3-0.3,0.6-0.6,1-0.7
	c0.4-0.2,0.9-0.3,1.4-0.3c0.5,0,1,0.1,1.4,0.4c0.4,0.3,0.8,0.6,1,1.1c0.3,0.5,0.4,1.1,0.4,1.7c0,0.6-0.1,1.2-0.4,1.7
	c-0.3,0.5-0.6,0.8-1.1,1.1C241,22.4,240.5,22.6,240,22.6z M239.7,21.2c0.3,0,0.6-0.1,0.9-0.2c0.3-0.2,0.5-0.4,0.7-0.7
	c0.2-0.3,0.2-0.7,0.2-1c0-0.3-0.1-0.7-0.2-1c-0.2-0.3-0.4-0.5-0.7-0.7c-0.3-0.2-0.6-0.3-0.9-0.3c-0.3,0-0.5,0.1-0.8,0.2
	c-0.2,0-0.5,0.2-0.6,0.4c-0.2,0.2-0.3,0.4-0.4,0.6V20c0.1,0.3,0.2,0.5,0.4,0.7c0.2,0.2,0.4,0.3,0.6,0.4
	C239.1,21.2,239.4,21.2,239.7,21.2L239.7,21.2z"/>
<path d="M247.2,22.6c-0.5,0-1-0.1-1.5-0.3c-0.5-0.2-0.8-0.6-1.1-1c-0.3-0.5-0.4-1.1-0.4-1.7c0-0.6,0.1-1.2,0.4-1.7
	c0.2-0.5,0.6-0.9,1.1-1.1c0.4-0.3,1-0.4,1.5-0.4c0.5,0,1,0.1,1.4,0.3c0.3,0.2,0.6,0.5,0.8,0.8l-0.1,0.2l0.2-1.1h1.5v5.9h-1.6V21
	l0.2,0.4c0,0.1-0.1,0.1-0.2,0.3c-0.1,0.2-0.3,0.3-0.5,0.4c-0.2,0.2-0.5,0.3-0.7,0.4C247.9,22.5,247.6,22.6,247.2,22.6z M247.7,21.3
	c0.3,0,0.5,0,0.8-0.1c0.2-0.1,0.4-0.2,0.6-0.4c0.2-0.2,0.3-0.4,0.3-0.7v-1.3c-0.1-0.2-0.2-0.5-0.4-0.6c-0.2-0.2-0.4-0.3-0.6-0.4
	c-0.2-0.1-0.5-0.2-0.8-0.2c-0.3,0-0.6,0.1-0.9,0.2c-0.3,0.1-0.5,0.4-0.6,0.7c-0.2,0.3-0.2,0.7-0.2,1c0,0.4,0.1,0.7,0.3,1
	c0.2,0.3,0.4,0.5,0.7,0.7C247.1,21.3,247.4,21.3,247.7,21.3z"/>
<path d="M258,21.9c-0.3,0.2-0.6,0.4-1,0.5c-0.4,0.1-0.7,0.2-1.1,0.2c-0.6,0-1.2-0.1-1.7-0.4c-0.5-0.3-0.9-0.6-1.2-1.1
	c-0.3-0.5-0.4-1.1-0.4-1.7c0-0.6,0.1-1.2,0.4-1.7c0.3-0.5,0.7-0.8,1.2-1.1c0.5-0.3,1-0.4,1.5-0.4c0.4,0,0.9,0.1,1.3,0.2
	c0.4,0.1,0.7,0.3,1,0.6l-0.8,1l-0.6-0.3c-0.5-0.3-1.1-0.3-1.6,0c-0.3,0.2-0.5,0.4-0.6,0.7c-0.2,0.3-0.2,0.6-0.2,0.9
	c0,0.3,0.1,0.6,0.2,0.9c0.2,0.3,0.4,0.5,0.7,0.7c0.3,0.2,0.7,0.2,1,0.2c0.2,0,0.5,0,0.7-0.1c0.2-0.1,0.3-0.2,0.5-0.3L258,21.9z"/>
<path d="M259.6,22.4V11.5h1.6v10.9H259.6z M260.7,20.6l-0.2-1.5l3.6-2.8l1,0.8L260.7,20.6z M262.7,18.4l2.7,4h-1.8l-1.9-3.1
	L262.7,18.4z"/>
<path d="M271.9,13.9h1.6v2.6h1.5v1.2h-1.5v4.7h-1.6v-4.7h-1v-1.2h1V13.9z"/>
<path d="M276.1,19.4c0-0.6,0.1-1.1,0.4-1.6c0.3-0.5,0.7-0.9,1.2-1.1c1.1-0.5,2.3-0.5,3.4,0c0.5,0.3,0.8,0.6,1.1,1.1
	c0.3,0.5,0.4,1,0.4,1.6c0,0.6-0.1,1.1-0.4,1.6c-0.3,0.5-0.6,0.8-1.1,1.1c-0.6,0.3-1.2,0.4-1.8,0.4c-0.6,0-1.2-0.1-1.7-0.4
	c-0.5-0.3-0.9-0.6-1.2-1.1C276.1,20.5,276,19.9,276.1,19.4z M277.7,19.4c0,0.3,0.1,0.7,0.2,1c0.1,0.3,0.4,0.5,0.6,0.7
	c0.3,0.2,0.6,0.3,0.9,0.3c0.3,0,0.6-0.1,0.9-0.3c0.3-0.2,0.5-0.4,0.6-0.7c0.3-0.6,0.3-1.4,0-2c-0.1-0.3-0.4-0.5-0.6-0.7
	c-0.5-0.4-1.3-0.4-1.8,0c-0.3,0.2-0.5,0.4-0.6,0.7C277.7,18.7,277.7,19.1,277.7,19.4z"/>
<path d="M289.4,13.9h1.6v2.6h1.5v1.2H291v4.7h-1.6v-4.7h-1v-1.2h1V13.9z"/>
<path d="M293.6,19.4c0-0.6,0.1-1.1,0.4-1.6c0.3-0.5,0.7-0.9,1.2-1.1c1.1-0.5,2.3-0.5,3.4,0c0.5,0.3,0.8,0.6,1.1,1.1
	c0.3,0.5,0.4,1,0.4,1.6c0,0.6-0.1,1.1-0.4,1.6c-0.3,0.5-0.6,0.8-1.1,1.1c-0.6,0.3-1.2,0.4-1.8,0.4c-0.6,0-1.2-0.1-1.7-0.4
	c-0.5-0.3-0.9-0.6-1.2-1.1C293.6,20.5,293.5,19.9,293.6,19.4z M295.1,19.4c0,0.3,0.1,0.7,0.2,1c0.1,0.3,0.4,0.5,0.6,0.7
	c0.3,0.2,0.6,0.3,0.9,0.3c0.3,0,0.6-0.1,0.9-0.3c0.3-0.2,0.5-0.4,0.6-0.7c0.3-0.6,0.3-1.4,0-2c-0.1-0.3-0.4-0.5-0.6-0.7
	c-0.5-0.4-1.3-0.4-1.8,0c-0.3,0.2-0.5,0.4-0.6,0.7C295.1,18.7,295.1,19.1,295.1,19.4z"/>
<path d="M305.4,22.6c-0.4,0-0.8-0.1-1.2-0.3c-0.4-0.1-0.7-0.4-0.9-0.7l0.1-0.5v4.2h-1.6v-8.9h1.3l0.2,1.4l-0.2-0.4
	c0.3-0.3,0.7-0.6,1.1-0.8c0.4-0.2,0.9-0.3,1.4-0.3c0.5,0,1.1,0.1,1.5,0.4c0.4,0.3,0.8,0.6,1,1.1c0.2,0.5,0.4,1.1,0.4,1.7
	c0,0.6-0.1,1.2-0.4,1.7c-0.3,0.4-0.7,0.8-1.1,1.1C306.5,22.6,305.9,22.7,305.4,22.6z M305.1,21.3c0.3,0,0.7-0.1,1-0.2
	c0.3-0.2,0.5-0.4,0.7-0.7c0.2-0.3,0.3-0.6,0.3-1c0-0.3-0.1-0.7-0.2-1c-0.2-0.3-0.4-0.5-0.7-0.7c-0.3-0.2-0.6-0.2-0.9-0.2
	c-0.3,0-0.6,0.1-0.8,0.2c-0.2,0.1-0.4,0.2-0.6,0.4c-0.2,0.2-0.3,0.4-0.4,0.7V20c0.1,0.2,0.2,0.5,0.3,0.7c0.2,0.2,0.4,0.4,0.6,0.5
	C304.6,21.3,304.8,21.3,305.1,21.3L305.1,21.3z"/>
</svg>
