<svg xmlns="http://www.w3.org/2000/svg" viewBox="0 0 84 84"><defs><style>.cls-1{fill:none;stroke:#e9d8d3;stroke-linecap:round;stroke-linejoin:round;stroke-width:4px;}.cls-2{fill:#b1bcd5;}</style></defs><g id="Layer_2" data-name="Layer 2"><g id="Layer_3" data-name="Layer 3"><circle class="cls-1" cx="42" cy="42" r="40"/><path class="cls-2" d="M45.48,37.16c2.47-3.19,5.76-3.78,9.36-3.5a12.57,12.57,0,0,1,2.29.37,8.34,8.34,0,0,1,6.13,6.72,27.94,27.94,0,0,1,.68,5.62c.1,4.44,0,8.87,0,13.31,0,1.2-.51,1.69-1.72,1.69H56.43c-1.14,0-1.6-.4-1.65-1.54s0-2.33,0-3.5c0-2.81.09-5.62,0-8.43A18.39,18.39,0,0,0,54.28,44a3.53,3.53,0,0,0-3.16-2.76,4.2,4.2,0,0,0-4.26,1.61,7.5,7.5,0,0,0-1.37,4.51c0,4.09,0,8.19,0,12.28,0,1.33-.41,1.74-1.77,1.74H38.08c-1,0-1.5-.47-1.5-1.51q0-12.18,0-24.35A1.34,1.34,0,0,1,38,34q3,0,6,0a1.39,1.39,0,0,1,1.49,1.58Z"/><path class="cls-2" d="M23.82,47.66V35.79A1.58,1.58,0,0,1,25.61,34H31a1.63,1.63,0,0,1,1.85,1.86q0,11.87,0,23.73c0,1.28-.56,1.81-1.86,1.81H25.47a1.46,1.46,0,0,1-1.65-1.65Z"/><path class="cls-2" d="M28.29,31.87a5.62,5.62,0,1,1,5.79-5.61A5.69,5.69,0,0,1,28.29,31.87Z"/></g></g></svg>