<svg xmlns="http://www.w3.org/2000/svg" viewBox="0 0 54 54"><defs><style>.cls-1{fill:#f1e8e6;}.cls-2{fill:#f7c65f;}.cls-2,.cls-4{stroke:#edb642;}.cls-2,.cls-3,.cls-4,.cls-5,.cls-6,.cls-7{stroke-linecap:round;stroke-linejoin:round;stroke-width:2px;}.cls-3{fill:#d68d80;stroke:#b97265;}.cls-4,.cls-7{fill:none;}.cls-5{fill:#f1be96;stroke:#dda780;}.cls-6{fill:#2f2a1b;stroke:#2f2a1b;}.cls-7{stroke:#e9d8d3;}</style></defs><g id="Layer_2" data-name="Layer 2"><g id="Layer_3" data-name="Layer 3"><circle class="cls-1" cx="27" cy="27" r="27"/><polygon class="cls-2" points="29.12 13.56 13.9 28.78 15.11 31.34 17.67 32.55 18.88 35.11 21.44 36.32 22.65 38.89 25.22 40.1 40.44 24.88 29.12 13.56"/><path class="cls-3" d="M40.44,24.88A8,8,0,1,0,29.12,13.56Z"/><line class="cls-4" x1="17.81" y1="31.95" x2="32.66" y2="17.1"/><line class="cls-4" x1="22.05" y1="36.19" x2="36.9" y2="21.34"/><path class="cls-5" d="M21.44,36.32l-2.56-1.21-1.21-2.56-2.56-1.21L13.9,28.78l-.34.34v8.49a3.94,3.94,0,0,1,2.83,2.83h8.49l.34-.34-2.57-1.21Z"/><path class="cls-6" d="M16.57,40.44h-3v-3a3,3,0,0,1,3,3Z"/><line class="cls-7" x1="29.12" y1="13.56" x2="40.44" y2="24.88"/></g></g></svg>